<?xml version="1.0" encoding="UTF-8" standalone="no"?>
<!DOCTYPE svg PUBLIC "-//W3C//DTD SVG 1.1//EN"
 "http://www.w3.org/Graphics/SVG/1.1/DTD/svg11.dtd">
<!-- Generated by graphviz version 2.40.1 (20161225.0304)
 -->
<!-- Title: compactRelationshipsDiagram Pages: 1 -->
<svg width="785pt" height="585pt"
 viewBox="0.00 0.00 785.00 585.01" xmlns="http://www.w3.org/2000/svg" xmlns:xlink="http://www.w3.org/1999/xlink">
<g id="graph0" class="graph" transform="scale(1 1) rotate(0) translate(4 581.0078)">
<title>compactRelationshipsDiagram</title>
<polygon fill="#ffffff" stroke="transparent" points="-4,4 -4,-581.0078 781,-581.0078 781,4 -4,4"/>
<text text-anchor="middle" x="72.4936" y="-7.3" font-family="Helvetica,sans-Serif" font-size="11.00" fill="#000000">Generated by SchemaSpy</text>
<!-- bookings -->
<g id="node1" class="node">
<title>bookings</title>
<g id="a_node1"><a xlink:href="../../tables/bookings.html" xlink:title="bookings" target="_top">
<polygon fill="#ffffff" stroke="transparent" points="512,-208.2 512,-379.2 605,-379.2 605,-208.2 512,-208.2"/>
<polygon fill="#f5f5f5" stroke="transparent" points="512.5,-355.7 512.5,-378.7 605.5,-378.7 605.5,-355.7 512.5,-355.7"/>
<polygon fill="none" stroke="#000000" points="512.5,-355.7 512.5,-378.7 605.5,-378.7 605.5,-355.7 512.5,-355.7"/>
<text text-anchor="start" x="517.5" y="-364.8" font-family="Helvetica,sans-Serif" font-weight="bold" font-size="11.00" fill="#000000">bookings</text>
<text text-anchor="start" x="570.5437" y="-363.8" font-family="Helvetica,sans-Serif" font-size="11.00" fill="#000000">[table]</text>
<polygon fill="none" stroke="#000000" points="512.5,-333.7 512.5,-355.7 605.5,-355.7 605.5,-333.7 512.5,-333.7"/>
<image xlink:href="../../images/primaryKeys.png" width="11px" height="12px" preserveAspectRatio="xMinYMin meet" x="517.5" y="-350.7"/>
<text text-anchor="start" x="532.5" y="-340.8" font-family="Helvetica,sans-Serif" font-size="11.00" fill="#000000">id</text>
<polygon fill="#ffffff" stroke="transparent" points="512.5,-311.7 512.5,-333.7 605.5,-333.7 605.5,-311.7 512.5,-311.7"/>
<polygon fill="none" stroke="#000000" points="512.5,-311.7 512.5,-333.7 605.5,-333.7 605.5,-311.7 512.5,-311.7"/>
<image xlink:href="../../images/foreignKeys.png" width="11px" height="12px" preserveAspectRatio="xMinYMin meet" x="517.5" y="-328.7"/>
<text text-anchor="start" x="532.5" y="-318.8" font-family="Helvetica,sans-Serif" font-size="11.00" fill="#000000">shop_id</text>
<polygon fill="#ffffff" stroke="transparent" points="512.5,-289.7 512.5,-311.7 605.5,-311.7 605.5,-289.7 512.5,-289.7"/>
<polygon fill="none" stroke="#000000" points="512.5,-289.7 512.5,-311.7 605.5,-311.7 605.5,-289.7 512.5,-289.7"/>
<image xlink:href="../../images/foreignKeys.png" width="11px" height="12px" preserveAspectRatio="xMinYMin meet" x="517.5" y="-306.7"/>
<text text-anchor="start" x="532.5" y="-296.8" font-family="Helvetica,sans-Serif" font-size="11.00" fill="#000000">customer_id</text>
<polygon fill="#ffffff" stroke="transparent" points="512.5,-267.7 512.5,-289.7 605.5,-289.7 605.5,-267.7 512.5,-267.7"/>
<polygon fill="none" stroke="#000000" points="512.5,-267.7 512.5,-289.7 605.5,-289.7 605.5,-267.7 512.5,-267.7"/>
<image xlink:href="../../images/foreignKeys.png" width="11px" height="12px" preserveAspectRatio="xMinYMin meet" x="517.5" y="-284.7"/>
<text text-anchor="start" x="532.5" y="-274.8" font-family="Helvetica,sans-Serif" font-size="11.00" fill="#000000">employee_id</text>
<polygon fill="none" stroke="#000000" points="512.5,-245.7 512.5,-267.7 605.5,-267.7 605.5,-245.7 512.5,-245.7"/>
<image xlink:href="../../images/foreignKeys.png" width="11px" height="12px" preserveAspectRatio="xMinYMin meet" x="517.5" y="-262.7"/>
<text text-anchor="start" x="532.5" y="-252.8" font-family="Helvetica,sans-Serif" font-size="11.00" fill="#000000">service_id</text>
<polygon fill="none" stroke="#000000" points="512.5,-226.7 512.5,-245.7 605.5,-245.7 605.5,-226.7 512.5,-226.7"/>
<text text-anchor="start" x="515.5" y="-232.8" font-family="Helvetica,sans-Serif" font-size="11.00" fill="#000000">...</text>
<polygon fill="#ffffff" stroke="transparent" points="512.5,-207.7 512.5,-226.7 539.5,-226.7 539.5,-207.7 512.5,-207.7"/>
<polygon fill="none" stroke="#000000" points="512.5,-207.7 512.5,-226.7 539.5,-226.7 539.5,-207.7 512.5,-207.7"/>
<text text-anchor="start" x="515.5" y="-213.8" font-family="Helvetica,sans-Serif" font-size="11.00" fill="#000000">&lt; 4</text>
<polygon fill="#ffffff" stroke="transparent" points="539.5,-207.7 539.5,-226.7 580.5,-226.7 580.5,-207.7 539.5,-207.7"/>
<polygon fill="none" stroke="#000000" points="539.5,-207.7 539.5,-226.7 580.5,-226.7 580.5,-207.7 539.5,-207.7"/>
<text text-anchor="start" x="545.1105" y="-213.8" font-family="Helvetica,sans-Serif" font-size="11.00" fill="#000000">0 rows</text>
<polygon fill="#ffffff" stroke="transparent" points="580.5,-207.7 580.5,-226.7 605.5,-226.7 605.5,-207.7 580.5,-207.7"/>
<polygon fill="none" stroke="#000000" points="580.5,-207.7 580.5,-226.7 605.5,-226.7 605.5,-207.7 580.5,-207.7"/>
<text text-anchor="start" x="586.9053" y="-213.8" font-family="Helvetica,sans-Serif" font-size="11.00" fill="#000000">1 &gt;</text>
</a>
</g>
</g>
<!-- employees -->
<g id="node3" class="node">
<title>employees</title>
<g id="a_node3"><a xlink:href="../../tables/employees.html" xlink:title="employees" target="_top">
<polygon fill="#ffffff" stroke="transparent" points="332,-38.2 332,-165.2 429,-165.2 429,-38.2 332,-38.2"/>
<polygon fill="#f5f5f5" stroke="transparent" points="332.5,-141.7 332.5,-164.7 429.5,-164.7 429.5,-141.7 332.5,-141.7"/>
<polygon fill="none" stroke="#000000" points="332.5,-141.7 332.5,-164.7 429.5,-164.7 429.5,-141.7 332.5,-141.7"/>
<text text-anchor="start" x="337.5" y="-150.8" font-family="Helvetica,sans-Serif" font-weight="bold" font-size="11.00" fill="#000000">employees</text>
<text text-anchor="start" x="395.0219" y="-149.8" font-family="Helvetica,sans-Serif" font-size="11.00" fill="#000000">[table]</text>
<polygon fill="none" stroke="#000000" points="332.5,-119.7 332.5,-141.7 429.5,-141.7 429.5,-119.7 332.5,-119.7"/>
<image xlink:href="../../images/primaryKeys.png" width="11px" height="12px" preserveAspectRatio="xMinYMin meet" x="337.5" y="-136.7"/>
<text text-anchor="start" x="352.5" y="-126.8" font-family="Helvetica,sans-Serif" font-size="11.00" fill="#000000">id</text>
<polygon fill="#ffffff" stroke="transparent" points="332.5,-97.7 332.5,-119.7 429.5,-119.7 429.5,-97.7 332.5,-97.7"/>
<polygon fill="none" stroke="#000000" points="332.5,-97.7 332.5,-119.7 429.5,-119.7 429.5,-97.7 332.5,-97.7"/>
<image xlink:href="../../images/foreignKeys.png" width="11px" height="12px" preserveAspectRatio="xMinYMin meet" x="337.5" y="-114.7"/>
<text text-anchor="start" x="352.5" y="-104.8" font-family="Helvetica,sans-Serif" font-size="11.00" fill="#000000">shop_id</text>
<polygon fill="#ffffff" stroke="transparent" points="332.5,-75.7 332.5,-97.7 429.5,-97.7 429.5,-75.7 332.5,-75.7"/>
<polygon fill="none" stroke="#000000" points="332.5,-75.7 332.5,-97.7 429.5,-97.7 429.5,-75.7 332.5,-75.7"/>
<image xlink:href="../../images/foreignKeys.png" width="11px" height="12px" preserveAspectRatio="xMinYMin meet" x="337.5" y="-92.7"/>
<text text-anchor="start" x="352.5" y="-82.8" font-family="Helvetica,sans-Serif" font-size="11.00" fill="#000000">user_id</text>
<polygon fill="none" stroke="#000000" points="332.5,-56.7 332.5,-75.7 429.5,-75.7 429.5,-56.7 332.5,-56.7"/>
<text text-anchor="start" x="335.5" y="-62.8" font-family="Helvetica,sans-Serif" font-size="11.00" fill="#000000">...</text>
<polygon fill="#ffffff" stroke="transparent" points="332.5,-37.7 332.5,-56.7 361.5,-56.7 361.5,-37.7 332.5,-37.7"/>
<polygon fill="none" stroke="#000000" points="332.5,-37.7 332.5,-56.7 361.5,-56.7 361.5,-37.7 332.5,-37.7"/>
<text text-anchor="start" x="335.5" y="-43.8" font-family="Helvetica,sans-Serif" font-size="11.00" fill="#000000">&lt; 2</text>
<polygon fill="#ffffff" stroke="transparent" points="361.5,-37.7 361.5,-56.7 403.5,-56.7 403.5,-37.7 361.5,-37.7"/>
<polygon fill="none" stroke="#000000" points="361.5,-37.7 361.5,-56.7 403.5,-56.7 403.5,-37.7 361.5,-37.7"/>
<text text-anchor="start" x="368.1105" y="-43.8" font-family="Helvetica,sans-Serif" font-size="11.00" fill="#000000">0 rows</text>
<polygon fill="#ffffff" stroke="transparent" points="403.5,-37.7 403.5,-56.7 429.5,-56.7 429.5,-37.7 403.5,-37.7"/>
<polygon fill="none" stroke="#000000" points="403.5,-37.7 403.5,-56.7 429.5,-56.7 429.5,-37.7 403.5,-37.7"/>
<text text-anchor="start" x="410.9053" y="-43.8" font-family="Helvetica,sans-Serif" font-size="11.00" fill="#000000">3 &gt;</text>
</a>
</g>
</g>
<!-- bookings&#45;&gt;employees -->
<g id="edge2" class="edge">
<title>bookings:w&#45;&gt;employees:e</title>
<path fill="none" stroke="#000000" d="M497.9583,-276.3753C446.3641,-257.5465 499.3183,-130.7 429.5,-130.7"/>
<polygon fill="#000000" stroke="#000000" points="504.6003,-277.4371 511.9317,-282.2549 508.5502,-278.0685 512.5,-278.7 512.5,-278.7 512.5,-278.7 508.5502,-278.0685 513.0683,-275.1451 504.6003,-277.4371 504.6003,-277.4371"/>
<ellipse fill="none" stroke="#000000" cx="501.4404" cy="-276.9319" rx="3.2" ry="3.2"/>
</g>
<!-- services -->
<g id="node6" class="node">
<title>services</title>
<g id="a_node6"><a xlink:href="../../tables/services.html" xlink:title="services" target="_top">
<polygon fill="#ffffff" stroke="transparent" points="320,-186.2 320,-291.2 441,-291.2 441,-186.2 320,-186.2"/>
<polygon fill="#f5f5f5" stroke="transparent" points="320.5,-267.7 320.5,-290.7 441.5,-290.7 441.5,-267.7 320.5,-267.7"/>
<polygon fill="none" stroke="#000000" points="320.5,-267.7 320.5,-290.7 441.5,-290.7 441.5,-267.7 320.5,-267.7"/>
<text text-anchor="start" x="325.5" y="-276.8" font-family="Helvetica,sans-Serif" font-weight="bold" font-size="11.00" fill="#000000">services</text>
<text text-anchor="start" x="406.5437" y="-275.8" font-family="Helvetica,sans-Serif" font-size="11.00" fill="#000000">[table]</text>
<polygon fill="none" stroke="#000000" points="320.5,-245.7 320.5,-267.7 441.5,-267.7 441.5,-245.7 320.5,-245.7"/>
<image xlink:href="../../images/primaryKeys.png" width="11px" height="12px" preserveAspectRatio="xMinYMin meet" x="325.5" y="-262.7"/>
<text text-anchor="start" x="340.5" y="-252.8" font-family="Helvetica,sans-Serif" font-size="11.00" fill="#000000">id</text>
<polygon fill="#ffffff" stroke="transparent" points="320.5,-223.7 320.5,-245.7 441.5,-245.7 441.5,-223.7 320.5,-223.7"/>
<polygon fill="none" stroke="#000000" points="320.5,-223.7 320.5,-245.7 441.5,-245.7 441.5,-223.7 320.5,-223.7"/>
<image xlink:href="../../images/foreignKeys.png" width="11px" height="12px" preserveAspectRatio="xMinYMin meet" x="325.5" y="-240.7"/>
<text text-anchor="start" x="340.5" y="-230.8" font-family="Helvetica,sans-Serif" font-size="11.00" fill="#000000">shop_id</text>
<polygon fill="none" stroke="#000000" points="320.5,-204.7 320.5,-223.7 441.5,-223.7 441.5,-204.7 320.5,-204.7"/>
<text text-anchor="start" x="323.5" y="-210.8" font-family="Helvetica,sans-Serif" font-size="11.00" fill="#000000">...</text>
<polygon fill="#ffffff" stroke="transparent" points="320.5,-185.7 320.5,-204.7 361.5,-204.7 361.5,-185.7 320.5,-185.7"/>
<polygon fill="none" stroke="#000000" points="320.5,-185.7 320.5,-204.7 361.5,-204.7 361.5,-185.7 320.5,-185.7"/>
<text text-anchor="start" x="323.5" y="-191.8" font-family="Helvetica,sans-Serif" font-size="11.00" fill="#000000">&lt; 1</text>
<polygon fill="#ffffff" stroke="transparent" points="361.5,-185.7 361.5,-204.7 409.5,-204.7 409.5,-185.7 361.5,-185.7"/>
<polygon fill="none" stroke="#000000" points="361.5,-185.7 361.5,-204.7 409.5,-204.7 409.5,-185.7 361.5,-185.7"/>
<text text-anchor="start" x="374.1105" y="-191.8" font-family="Helvetica,sans-Serif" font-size="11.00" fill="#000000">0 rows</text>
<polygon fill="#ffffff" stroke="transparent" points="409.5,-185.7 409.5,-204.7 441.5,-204.7 441.5,-185.7 409.5,-185.7"/>
<polygon fill="none" stroke="#000000" points="409.5,-185.7 409.5,-204.7 441.5,-204.7 441.5,-185.7 409.5,-185.7"/>
<text text-anchor="start" x="422.9053" y="-191.8" font-family="Helvetica,sans-Serif" font-size="11.00" fill="#000000">2 &gt;</text>
</a>
</g>
</g>
<!-- bookings&#45;&gt;services -->
<g id="edge3" class="edge">
<title>bookings:w&#45;&gt;services:e</title>
<path fill="none" stroke="#000000" d="M498.0863,-256.7C477.5335,-256.7 467.6319,-256.7 441.5,-256.7"/>
<polygon fill="#000000" stroke="#000000" points="504.5,-256.7001 512.5,-260.3 508.5,-256.7 512.5,-256.7 512.5,-256.7 512.5,-256.7 508.5,-256.7 512.5,-253.1 504.5,-256.7001 504.5,-256.7001"/>
<ellipse fill="none" stroke="#000000" cx="501.3" cy="-256.7001" rx="3.2" ry="3.2"/>
</g>
<!-- shops -->
<g id="node7" class="node">
<title>shops</title>
<g id="a_node7"><a xlink:href="../../tables/shops.html" xlink:title="shops" target="_top">
<polygon fill="#ffffff" stroke="transparent" points="164,-340.2 164,-467.2 271,-467.2 271,-340.2 164,-340.2"/>
<polygon fill="#f5f5f5" stroke="transparent" points="164.5,-443.7 164.5,-466.7 271.5,-466.7 271.5,-443.7 164.5,-443.7"/>
<polygon fill="none" stroke="#000000" points="164.5,-443.7 164.5,-466.7 271.5,-466.7 271.5,-443.7 164.5,-443.7"/>
<text text-anchor="start" x="169.5" y="-452.8" font-family="Helvetica,sans-Serif" font-weight="bold" font-size="11.00" fill="#000000">shops</text>
<text text-anchor="start" x="236.5437" y="-451.8" font-family="Helvetica,sans-Serif" font-size="11.00" fill="#000000">[table]</text>
<polygon fill="none" stroke="#000000" points="164.5,-421.7 164.5,-443.7 271.5,-443.7 271.5,-421.7 164.5,-421.7"/>
<image xlink:href="../../images/primaryKeys.png" width="11px" height="12px" preserveAspectRatio="xMinYMin meet" x="169.5" y="-438.7"/>
<text text-anchor="start" x="184.5" y="-428.8" font-family="Helvetica,sans-Serif" font-size="11.00" fill="#000000">id</text>
<polygon fill="#ffffff" stroke="transparent" points="164.5,-399.7 164.5,-421.7 271.5,-421.7 271.5,-399.7 164.5,-399.7"/>
<polygon fill="none" stroke="#000000" points="164.5,-399.7 164.5,-421.7 271.5,-421.7 271.5,-399.7 164.5,-399.7"/>
<text text-anchor="start" x="184.5" y="-406.8" font-family="Helvetica,sans-Serif" font-size="11.00" fill="#000000">city</text>
<polygon fill="#ffffff" stroke="transparent" points="164.5,-377.7 164.5,-399.7 271.5,-399.7 271.5,-377.7 164.5,-377.7"/>
<polygon fill="none" stroke="#000000" points="164.5,-377.7 164.5,-399.7 271.5,-399.7 271.5,-377.7 164.5,-377.7"/>
<image xlink:href="../../images/foreignKeys.png" width="11px" height="12px" preserveAspectRatio="xMinYMin meet" x="169.5" y="-394.7"/>
<text text-anchor="start" x="184.5" y="-384.8" font-family="Helvetica,sans-Serif" font-size="11.00" fill="#000000">owner_id</text>
<polygon fill="none" stroke="#000000" points="164.5,-358.7 164.5,-377.7 271.5,-377.7 271.5,-358.7 164.5,-358.7"/>
<text text-anchor="start" x="167.5" y="-364.8" font-family="Helvetica,sans-Serif" font-size="11.00" fill="#000000">...</text>
<polygon fill="#ffffff" stroke="transparent" points="164.5,-339.7 164.5,-358.7 201.5,-358.7 201.5,-339.7 164.5,-339.7"/>
<polygon fill="none" stroke="#000000" points="164.5,-339.7 164.5,-358.7 201.5,-358.7 201.5,-339.7 164.5,-339.7"/>
<text text-anchor="start" x="167.5" y="-345.8" font-family="Helvetica,sans-Serif" font-size="11.00" fill="#000000">&lt; 1</text>
<polygon fill="#ffffff" stroke="transparent" points="201.5,-339.7 201.5,-358.7 241.5,-358.7 241.5,-339.7 201.5,-339.7"/>
<polygon fill="none" stroke="#000000" points="201.5,-339.7 201.5,-358.7 241.5,-358.7 241.5,-339.7 201.5,-339.7"/>
<text text-anchor="start" x="211.6105" y="-345.8" font-family="Helvetica,sans-Serif" font-size="11.00" fill="#000000">1 row</text>
<polygon fill="#ffffff" stroke="transparent" points="241.5,-339.7 241.5,-358.7 271.5,-358.7 271.5,-339.7 241.5,-339.7"/>
<polygon fill="none" stroke="#000000" points="241.5,-339.7 241.5,-358.7 271.5,-358.7 271.5,-339.7 241.5,-339.7"/>
<text text-anchor="start" x="252.9053" y="-345.8" font-family="Helvetica,sans-Serif" font-size="11.00" fill="#000000">5 &gt;</text>
</a>
</g>
</g>
<!-- bookings&#45;&gt;shops -->
<g id="edge4" class="edge">
<title>bookings:w&#45;&gt;shops:e</title>
<path fill="none" stroke="#000000" d="M497.8455,-322.8855C415.0643,-325.0713 388.1023,-346.681 312,-393.7 290.7413,-406.8345 296.4889,-432.7 271.5,-432.7"/>
<polygon fill="#000000" stroke="#000000" points="504.5006,-322.8013 512.5456,-326.2997 508.5003,-322.7507 512.5,-322.7 512.5,-322.7 512.5,-322.7 508.5003,-322.7507 512.4544,-319.1003 504.5006,-322.8013 504.5006,-322.8013"/>
<ellipse fill="none" stroke="#000000" cx="501.3009" cy="-322.8419" rx="3.2" ry="3.2"/>
</g>
<!-- users -->
<g id="node8" class="node">
<title>users</title>
<g id="a_node8"><a xlink:href="../../tables/users.html" xlink:title="users" target="_top">
<polygon fill="#ffffff" stroke="transparent" points="8,-318.2 8,-423.2 115,-423.2 115,-318.2 8,-318.2"/>
<polygon fill="#f5f5f5" stroke="transparent" points="8.5,-399.7 8.5,-422.7 115.5,-422.7 115.5,-399.7 8.5,-399.7"/>
<polygon fill="none" stroke="#000000" points="8.5,-399.7 8.5,-422.7 115.5,-422.7 115.5,-399.7 8.5,-399.7"/>
<text text-anchor="start" x="13.5" y="-408.8" font-family="Helvetica,sans-Serif" font-weight="bold" font-size="11.00" fill="#000000">users</text>
<text text-anchor="start" x="80.5437" y="-407.8" font-family="Helvetica,sans-Serif" font-size="11.00" fill="#000000">[table]</text>
<polygon fill="none" stroke="#000000" points="8.5,-377.7 8.5,-399.7 115.5,-399.7 115.5,-377.7 8.5,-377.7"/>
<image xlink:href="../../images/primaryKeys.png" width="11px" height="12px" preserveAspectRatio="xMinYMin meet" x="13.5" y="-394.7"/>
<text text-anchor="start" x="28.5" y="-384.8" font-family="Helvetica,sans-Serif" font-size="11.00" fill="#000000">id</text>
<polygon fill="#ffffff" stroke="transparent" points="8.5,-355.7 8.5,-377.7 115.5,-377.7 115.5,-355.7 8.5,-355.7"/>
<polygon fill="none" stroke="#000000" points="8.5,-355.7 8.5,-377.7 115.5,-377.7 115.5,-355.7 8.5,-355.7"/>
<text text-anchor="start" x="28.5" y="-362.8" font-family="Helvetica,sans-Serif" font-size="11.00" fill="#000000">email</text>
<polygon fill="none" stroke="#000000" points="8.5,-336.7 8.5,-355.7 115.5,-355.7 115.5,-336.7 8.5,-336.7"/>
<text text-anchor="start" x="11.5" y="-342.8" font-family="Helvetica,sans-Serif" font-size="11.00" fill="#000000">...</text>
<polygon fill="#ffffff" stroke="transparent" points="8.5,-317.7 8.5,-336.7 38.5,-336.7 38.5,-317.7 8.5,-317.7"/>
<polygon fill="none" stroke="#000000" points="8.5,-317.7 8.5,-336.7 38.5,-336.7 38.5,-317.7 8.5,-317.7"/>
<text text-anchor="start" x="11.5" y="-323.8" font-family="Helvetica,sans-Serif" font-size="11.00" fill="#000000"> &#160;</text>
<polygon fill="#ffffff" stroke="transparent" points="38.5,-317.7 38.5,-336.7 85.5,-336.7 85.5,-317.7 38.5,-317.7"/>
<polygon fill="none" stroke="#000000" points="38.5,-317.7 38.5,-336.7 85.5,-336.7 85.5,-317.7 38.5,-317.7"/>
<text text-anchor="start" x="50.1105" y="-323.8" font-family="Helvetica,sans-Serif" font-size="11.00" fill="#000000">6 rows</text>
<polygon fill="#ffffff" stroke="transparent" points="85.5,-317.7 85.5,-336.7 115.5,-336.7 115.5,-317.7 85.5,-317.7"/>
<polygon fill="none" stroke="#000000" points="85.5,-317.7 85.5,-336.7 115.5,-336.7 115.5,-317.7 85.5,-317.7"/>
<text text-anchor="start" x="96.9053" y="-323.8" font-family="Helvetica,sans-Serif" font-size="11.00" fill="#000000">5 &gt;</text>
</a>
</g>
</g>
<!-- bookings&#45;&gt;users -->
<g id="edge1" class="edge">
<title>bookings:w&#45;&gt;users:e</title>
<path fill="none" stroke="#000000" d="M498.0925,-300.8842C428.1001,-302.2617 187.565,-311.4086 156,-329.7 128.4809,-345.6469 147.3057,-388.7 115.5,-388.7"/>
<polygon fill="#000000" stroke="#000000" points="504.5007,-300.8023 512.546,-304.2997 508.5003,-300.7512 512.5,-300.7 512.5,-300.7 512.5,-300.7 508.5003,-300.7512 512.454,-297.1003 504.5007,-300.8023 504.5007,-300.8023"/>
<ellipse fill="none" stroke="#000000" cx="501.3009" cy="-300.8432" rx="3.2" ry="3.2"/>
</g>
<!-- employee_services -->
<g id="node2" class="node">
<title>employee_services</title>
<g id="a_node2"><a xlink:href="../../tables/employee_services.html" xlink:title="employee_services" target="_top">
<polygon fill="#ffffff" stroke="transparent" points="490,-100.7 490,-186.7 627,-186.7 627,-100.7 490,-100.7"/>
<polygon fill="#f5f5f5" stroke="transparent" points="490.5,-163.7 490.5,-186.7 627.5,-186.7 627.5,-163.7 490.5,-163.7"/>
<polygon fill="none" stroke="#000000" points="490.5,-163.7 490.5,-186.7 627.5,-186.7 627.5,-163.7 490.5,-163.7"/>
<text text-anchor="start" x="495.4376" y="-172.8" font-family="Helvetica,sans-Serif" font-weight="bold" font-size="11.00" fill="#000000">employee_services</text>
<text text-anchor="start" x="593.0219" y="-171.8" font-family="Helvetica,sans-Serif" font-size="11.00" fill="#000000">[table]</text>
<polygon fill="none" stroke="#000000" points="490.5,-141.7 490.5,-163.7 627.5,-163.7 627.5,-141.7 490.5,-141.7"/>
<image xlink:href="../../images/primaryKeys.png" width="11px" height="12px" preserveAspectRatio="xMinYMin meet" x="495.5" y="-158.7"/>
<text text-anchor="start" x="513.5" y="-148.8" font-family="Helvetica,sans-Serif" font-size="11.00" fill="#000000">employee_id</text>
<polygon fill="none" stroke="#000000" points="490.5,-119.7 490.5,-141.7 627.5,-141.7 627.5,-119.7 490.5,-119.7"/>
<image xlink:href="../../images/primaryKeys.png" width="11px" height="12px" preserveAspectRatio="xMinYMin meet" x="495.5" y="-136.7"/>
<text text-anchor="start" x="513.5" y="-126.8" font-family="Helvetica,sans-Serif" font-size="11.00" fill="#000000">service_id</text>
<polygon fill="#ffffff" stroke="transparent" points="490.5,-100.7 490.5,-119.7 544.5,-119.7 544.5,-100.7 490.5,-100.7"/>
<polygon fill="none" stroke="#000000" points="490.5,-100.7 490.5,-119.7 544.5,-119.7 544.5,-100.7 490.5,-100.7"/>
<text text-anchor="start" x="493.5" y="-106.8" font-family="Helvetica,sans-Serif" font-size="11.00" fill="#000000">&lt; 2</text>
<polygon fill="#ffffff" stroke="transparent" points="544.5,-100.7 544.5,-119.7 598.5,-119.7 598.5,-100.7 544.5,-100.7"/>
<polygon fill="none" stroke="#000000" points="544.5,-100.7 544.5,-119.7 598.5,-119.7 598.5,-100.7 544.5,-100.7"/>
<text text-anchor="start" x="563.1105" y="-106.8" font-family="Helvetica,sans-Serif" font-size="11.00" fill="#000000">0 rows</text>
<polygon fill="#ffffff" stroke="transparent" points="598.5,-100.7 598.5,-119.7 627.5,-119.7 627.5,-100.7 598.5,-100.7"/>
<polygon fill="none" stroke="#000000" points="598.5,-100.7 598.5,-119.7 627.5,-119.7 627.5,-100.7 598.5,-100.7"/>
<text text-anchor="start" x="618.3862" y="-106.8" font-family="Helvetica,sans-Serif" font-size="11.00" fill="#000000"> &#160;</text>
</a>
</g>
</g>
<!-- employee_services&#45;&gt;employees -->
<g id="edge5" class="edge">
<title>employee_services:w&#45;&gt;employees:e</title>
<path fill="none" stroke="#000000" d="M476.1474,-150.5101C459.3961,-144.9455 452.6914,-130.7 429.5,-130.7"/>
<polygon fill="#000000" stroke="#000000" points="482.5915,-151.4933 489.957,-156.2588 486.5458,-152.0966 490.5,-152.7 490.5,-152.7 490.5,-152.7 486.5458,-152.0966 491.043,-149.1412 482.5915,-151.4933 482.5915,-151.4933"/>
<ellipse fill="none" stroke="#000000" cx="479.4281" cy="-151.0106" rx="3.2" ry="3.2"/>
</g>
<!-- employee_services&#45;&gt;services -->
<g id="edge6" class="edge">
<title>employee_services:w&#45;&gt;services:e</title>
<path fill="none" stroke="#000000" d="M476.4076,-134.0702C443.0633,-154.1077 495.7178,-256.7 441.5,-256.7"/>
<polygon fill="#000000" stroke="#000000" points="482.7194,-132.5608 491.3373,-134.2013 486.6097,-131.6304 490.5,-130.7 490.5,-130.7 490.5,-130.7 486.6097,-131.6304 489.6627,-127.1987 482.7194,-132.5608 482.7194,-132.5608"/>
<ellipse fill="none" stroke="#000000" cx="479.6072" cy="-133.3051" rx="3.2" ry="3.2"/>
</g>
<!-- employees&#45;&gt;shops -->
<g id="edge7" class="edge">
<title>employees:w&#45;&gt;shops:e</title>
<path fill="none" stroke="#000000" d="M318.6814,-113.7893C271.0562,-155.009 339.3273,-432.7 271.5,-432.7"/>
<polygon fill="#000000" stroke="#000000" points="324.9929,-111.4648 333.7442,-112.0782 328.7465,-110.0824 332.5,-108.7 332.5,-108.7 332.5,-108.7 328.7465,-110.0824 331.2558,-105.3218 324.9929,-111.4648 324.9929,-111.4648"/>
<ellipse fill="none" stroke="#000000" cx="321.9901" cy="-112.5707" rx="3.2" ry="3.2"/>
</g>
<!-- employees&#45;&gt;users -->
<g id="edge8" class="edge">
<title>employees:w&#45;&gt;users:e</title>
<path fill="none" stroke="#000000" d="M317.8121,-87.2644C208.6284,-95.9968 220.3037,-204.5234 156,-305.7 133.9831,-340.3417 156.5462,-388.7 115.5,-388.7"/>
<polygon fill="#000000" stroke="#000000" points="324.5059,-87.0072 332.6383,-90.2973 328.5029,-86.8536 332.5,-86.7 332.5,-86.7 332.5,-86.7 328.5029,-86.8536 332.3617,-83.1027 324.5059,-87.0072 324.5059,-87.0072"/>
<ellipse fill="none" stroke="#000000" cx="321.3083" cy="-87.1301" rx="3.2" ry="3.2"/>
</g>
<!-- favorite_shops -->
<g id="node4" class="node">
<title>favorite_shops</title>
<g id="a_node4"><a xlink:href="../../tables/favorite_shops.html" xlink:title="favorite_shops" target="_top">
<polygon fill="#ffffff" stroke="transparent" points="323.5,-428.2 323.5,-555.2 437.5,-555.2 437.5,-428.2 323.5,-428.2"/>
<polygon fill="#f5f5f5" stroke="transparent" points="323.5,-531.7 323.5,-554.7 437.5,-554.7 437.5,-531.7 323.5,-531.7"/>
<polygon fill="none" stroke="#000000" points="323.5,-531.7 323.5,-554.7 437.5,-554.7 437.5,-531.7 323.5,-531.7"/>
<text text-anchor="start" x="328.2396" y="-540.8" font-family="Helvetica,sans-Serif" font-weight="bold" font-size="11.00" fill="#000000">favorite_shops</text>
<text text-anchor="start" x="403.0219" y="-539.8" font-family="Helvetica,sans-Serif" font-size="11.00" fill="#000000">[table]</text>
<polygon fill="none" stroke="#000000" points="323.5,-509.7 323.5,-531.7 437.5,-531.7 437.5,-509.7 323.5,-509.7"/>
<image xlink:href="../../images/primaryKeys.png" width="11px" height="12px" preserveAspectRatio="xMinYMin meet" x="328.5" y="-526.7"/>
<text text-anchor="start" x="347.5" y="-516.8" font-family="Helvetica,sans-Serif" font-size="11.00" fill="#000000">id</text>
<polygon fill="#ffffff" stroke="transparent" points="323.5,-487.7 323.5,-509.7 437.5,-509.7 437.5,-487.7 323.5,-487.7"/>
<polygon fill="none" stroke="#000000" points="323.5,-487.7 323.5,-509.7 437.5,-509.7 437.5,-487.7 323.5,-487.7"/>
<image xlink:href="../../images/foreignKeys.png" width="11px" height="12px" preserveAspectRatio="xMinYMin meet" x="328.5" y="-504.7"/>
<text text-anchor="start" x="347.5" y="-494.8" font-family="Helvetica,sans-Serif" font-size="11.00" fill="#000000">user_id</text>
<polygon fill="#ffffff" stroke="transparent" points="323.5,-465.7 323.5,-487.7 437.5,-487.7 437.5,-465.7 323.5,-465.7"/>
<polygon fill="none" stroke="#000000" points="323.5,-465.7 323.5,-487.7 437.5,-487.7 437.5,-465.7 323.5,-465.7"/>
<image xlink:href="../../images/foreignKeys.png" width="11px" height="12px" preserveAspectRatio="xMinYMin meet" x="328.5" y="-482.7"/>
<text text-anchor="start" x="347.5" y="-472.8" font-family="Helvetica,sans-Serif" font-size="11.00" fill="#000000">shop_id</text>
<polygon fill="none" stroke="#000000" points="323.5,-446.7 323.5,-465.7 437.5,-465.7 437.5,-446.7 323.5,-446.7"/>
<text text-anchor="start" x="326.5" y="-452.8" font-family="Helvetica,sans-Serif" font-size="11.00" fill="#000000">...</text>
<polygon fill="#ffffff" stroke="transparent" points="323.5,-427.7 323.5,-446.7 365.5,-446.7 365.5,-427.7 323.5,-427.7"/>
<polygon fill="none" stroke="#000000" points="323.5,-427.7 323.5,-446.7 365.5,-446.7 365.5,-427.7 323.5,-427.7"/>
<text text-anchor="start" x="326.5" y="-433.8" font-family="Helvetica,sans-Serif" font-size="11.00" fill="#000000">&lt; 2</text>
<polygon fill="#ffffff" stroke="transparent" points="365.5,-427.7 365.5,-446.7 414.5,-446.7 414.5,-427.7 365.5,-427.7"/>
<polygon fill="none" stroke="#000000" points="365.5,-427.7 365.5,-446.7 414.5,-446.7 414.5,-427.7 365.5,-427.7"/>
<text text-anchor="start" x="379.1105" y="-433.8" font-family="Helvetica,sans-Serif" font-size="11.00" fill="#000000">0 rows</text>
<polygon fill="#ffffff" stroke="transparent" points="414.5,-427.7 414.5,-446.7 437.5,-446.7 437.5,-427.7 414.5,-427.7"/>
<polygon fill="none" stroke="#000000" points="414.5,-427.7 414.5,-446.7 437.5,-446.7 437.5,-427.7 414.5,-427.7"/>
<text text-anchor="start" x="428.3862" y="-433.8" font-family="Helvetica,sans-Serif" font-size="11.00" fill="#000000"> &#160;</text>
</a>
</g>
</g>
<!-- favorite_shops&#45;&gt;shops -->
<g id="edge9" class="edge">
<title>favorite_shops:w&#45;&gt;shops:e</title>
<path fill="none" stroke="#000000" d="M309.6255,-472.3203C295.084,-461.191 295.8615,-432.7 271.5,-432.7"/>
<polygon fill="#000000" stroke="#000000" points="315.8711,-474.2917 322.4163,-480.133 319.6855,-475.4959 323.5,-476.7 323.5,-476.7 323.5,-476.7 319.6855,-475.4959 324.5837,-473.267 315.8711,-474.2917 315.8711,-474.2917"/>
<ellipse fill="none" stroke="#000000" cx="312.8195" cy="-473.3284" rx="3.2" ry="3.2"/>
</g>
<!-- favorite_shops&#45;&gt;users -->
<g id="edge10" class="edge">
<title>favorite_shops:w&#45;&gt;users:e</title>
<path fill="none" stroke="#000000" d="M309.101,-498.9836C244.0927,-501.516 212.423,-519.2059 156,-477.7 120.993,-451.9482 158.9585,-388.7 115.5,-388.7"/>
<polygon fill="#000000" stroke="#000000" points="315.5016,-498.8576 323.5709,-502.2993 319.5008,-498.7788 323.5,-498.7 323.5,-498.7 323.5,-498.7 319.5008,-498.7788 323.4291,-495.1007 315.5016,-498.8576 315.5016,-498.8576"/>
<ellipse fill="none" stroke="#000000" cx="312.3022" cy="-498.9206" rx="3.2" ry="3.2"/>
</g>
<!-- reviews -->
<g id="node5" class="node">
<title>reviews</title>
<g id="a_node5"><a xlink:href="../../tables/reviews.html" xlink:title="reviews" target="_top">
<polygon fill="#ffffff" stroke="transparent" points="676,-303.2 676,-474.2 769,-474.2 769,-303.2 676,-303.2"/>
<polygon fill="#f5f5f5" stroke="transparent" points="676.5,-450.7 676.5,-473.7 769.5,-473.7 769.5,-450.7 676.5,-450.7"/>
<polygon fill="none" stroke="#000000" points="676.5,-450.7 676.5,-473.7 769.5,-473.7 769.5,-450.7 676.5,-450.7"/>
<text text-anchor="start" x="681.5" y="-459.8" font-family="Helvetica,sans-Serif" font-weight="bold" font-size="11.00" fill="#000000">reviews</text>
<text text-anchor="start" x="734.5437" y="-458.8" font-family="Helvetica,sans-Serif" font-size="11.00" fill="#000000">[table]</text>
<polygon fill="none" stroke="#000000" points="676.5,-428.7 676.5,-450.7 769.5,-450.7 769.5,-428.7 676.5,-428.7"/>
<image xlink:href="../../images/primaryKeys.png" width="11px" height="12px" preserveAspectRatio="xMinYMin meet" x="681.5" y="-445.7"/>
<text text-anchor="start" x="696.5" y="-435.8" font-family="Helvetica,sans-Serif" font-size="11.00" fill="#000000">id</text>
<polygon fill="#ffffff" stroke="transparent" points="676.5,-406.7 676.5,-428.7 769.5,-428.7 769.5,-406.7 676.5,-406.7"/>
<polygon fill="none" stroke="#000000" points="676.5,-406.7 676.5,-428.7 769.5,-428.7 769.5,-406.7 676.5,-406.7"/>
<image xlink:href="../../images/foreignKeys.png" width="11px" height="12px" preserveAspectRatio="xMinYMin meet" x="681.5" y="-423.7"/>
<text text-anchor="start" x="696.5" y="-413.8" font-family="Helvetica,sans-Serif" font-size="11.00" fill="#000000">customer_id</text>
<polygon fill="#ffffff" stroke="transparent" points="676.5,-384.7 676.5,-406.7 769.5,-406.7 769.5,-384.7 676.5,-384.7"/>
<polygon fill="none" stroke="#000000" points="676.5,-384.7 676.5,-406.7 769.5,-406.7 769.5,-384.7 676.5,-384.7"/>
<image xlink:href="../../images/foreignKeys.png" width="11px" height="12px" preserveAspectRatio="xMinYMin meet" x="681.5" y="-401.7"/>
<text text-anchor="start" x="696.5" y="-391.8" font-family="Helvetica,sans-Serif" font-size="11.00" fill="#000000">shop_id</text>
<polygon fill="#ffffff" stroke="transparent" points="676.5,-362.7 676.5,-384.7 769.5,-384.7 769.5,-362.7 676.5,-362.7"/>
<polygon fill="none" stroke="#000000" points="676.5,-362.7 676.5,-384.7 769.5,-384.7 769.5,-362.7 676.5,-362.7"/>
<image xlink:href="../../images/foreignKeys.png" width="11px" height="12px" preserveAspectRatio="xMinYMin meet" x="681.5" y="-379.7"/>
<text text-anchor="start" x="696.5" y="-369.8" font-family="Helvetica,sans-Serif" font-size="11.00" fill="#000000">employee_id</text>
<polygon fill="none" stroke="#000000" points="676.5,-340.7 676.5,-362.7 769.5,-362.7 769.5,-340.7 676.5,-340.7"/>
<image xlink:href="../../images/foreignKeys.png" width="11px" height="12px" preserveAspectRatio="xMinYMin meet" x="681.5" y="-357.7"/>
<text text-anchor="start" x="696.5" y="-347.8" font-family="Helvetica,sans-Serif" font-size="11.00" fill="#000000">booking_id</text>
<polygon fill="none" stroke="#000000" points="676.5,-321.7 676.5,-340.7 769.5,-340.7 769.5,-321.7 676.5,-321.7"/>
<text text-anchor="start" x="679.5" y="-327.8" font-family="Helvetica,sans-Serif" font-size="11.00" fill="#000000">...</text>
<polygon fill="#ffffff" stroke="transparent" points="676.5,-302.7 676.5,-321.7 708.5,-321.7 708.5,-302.7 676.5,-302.7"/>
<polygon fill="none" stroke="#000000" points="676.5,-302.7 676.5,-321.7 708.5,-321.7 708.5,-302.7 676.5,-302.7"/>
<text text-anchor="start" x="679.5" y="-308.8" font-family="Helvetica,sans-Serif" font-size="11.00" fill="#000000">&lt; 4</text>
<polygon fill="#ffffff" stroke="transparent" points="708.5,-302.7 708.5,-321.7 751.5,-321.7 751.5,-302.7 708.5,-302.7"/>
<polygon fill="none" stroke="#000000" points="708.5,-302.7 708.5,-321.7 751.5,-321.7 751.5,-302.7 708.5,-302.7"/>
<text text-anchor="start" x="716.1105" y="-308.8" font-family="Helvetica,sans-Serif" font-size="11.00" fill="#000000">0 rows</text>
<polygon fill="#ffffff" stroke="transparent" points="751.5,-302.7 751.5,-321.7 769.5,-321.7 769.5,-302.7 751.5,-302.7"/>
<polygon fill="none" stroke="#000000" points="751.5,-302.7 751.5,-321.7 769.5,-321.7 769.5,-302.7 751.5,-302.7"/>
<text text-anchor="start" x="760.3862" y="-308.8" font-family="Helvetica,sans-Serif" font-size="11.00" fill="#000000"> &#160;</text>
</a>
</g>
</g>
<!-- reviews&#45;&gt;bookings -->
<g id="edge11" class="edge">
<title>reviews:w&#45;&gt;bookings:e</title>
<path fill="none" stroke="#000000" d="M662.0434,-351.1507C641.4721,-349.5005 631.7586,-344.7 605.5,-344.7"/>
<polygon fill="#000000" stroke="#000000" points="668.5058,-351.3962 676.3633,-355.2974 672.5029,-351.5481 676.5,-351.7 676.5,-351.7 676.5,-351.7 672.5029,-351.5481 676.6367,-348.1026 668.5058,-351.3962 668.5058,-351.3962"/>
<ellipse fill="none" stroke="#000000" cx="665.3081" cy="-351.2747" rx="3.2" ry="3.2"/>
</g>
<!-- reviews&#45;&gt;employees -->
<g id="edge13" class="edge">
<title>reviews:w&#45;&gt;employees:e</title>
<path fill="none" stroke="#000000" d="M662.9158,-368.6307C624.1233,-333.6781 678.9617,-128.6852 635,-90.7 583.5466,-46.2416 546.4286,-68.9523 482,-90.7 454.2065,-100.0816 458.8342,-130.7 429.5,-130.7"/>
<polygon fill="#000000" stroke="#000000" points="669.0049,-370.903 675.2413,-377.0728 672.7524,-372.3015 676.5,-373.7 676.5,-373.7 676.5,-373.7 672.7524,-372.3015 677.7587,-370.3272 669.0049,-370.903 669.0049,-370.903"/>
<ellipse fill="none" stroke="#000000" cx="666.0068" cy="-369.7842" rx="3.2" ry="3.2"/>
</g>
<!-- reviews&#45;&gt;shops -->
<g id="edge14" class="edge">
<title>reviews:w&#45;&gt;shops:e</title>
<path fill="none" stroke="#000000" d="M662.0808,-395.6701C511.4722,-395.0488 466.0058,-385.278 312,-417.7 293.2168,-421.6543 290.6949,-432.7 271.5,-432.7"/>
<polygon fill="#000000" stroke="#000000" points="668.5,-395.6834 676.4925,-399.3 672.5,-395.6917 676.5,-395.7 676.5,-395.7 676.5,-395.7 672.5,-395.6917 676.5075,-392.1 668.5,-395.6834 668.5,-395.6834"/>
<ellipse fill="none" stroke="#000000" cx="665.3" cy="-395.6767" rx="3.2" ry="3.2"/>
</g>
<!-- reviews&#45;&gt;users -->
<g id="edge12" class="edge">
<title>reviews:w&#45;&gt;users:e</title>
<path fill="none" stroke="#000000" d="M661.9699,-418.2872C556.3928,-427.1086 559.7869,-532.8351 449,-565.7 390.6255,-583.0168 371.7065,-577.6413 312,-565.7 238.3475,-550.9695 207.8268,-555.066 156,-500.7 119.4766,-462.3872 168.4323,-388.7 115.5,-388.7"/>
<polygon fill="#000000" stroke="#000000" points="668.5065,-418.0231 676.6454,-421.2971 672.5033,-417.8615 676.5,-417.7 676.5,-417.7 676.5,-417.7 672.5033,-417.8615 676.3546,-414.1029 668.5065,-418.0231 668.5065,-418.0231"/>
<ellipse fill="none" stroke="#000000" cx="665.3091" cy="-418.1523" rx="3.2" ry="3.2"/>
</g>
<!-- services&#45;&gt;shops -->
<g id="edge15" class="edge">
<title>services:w&#45;&gt;shops:e</title>
<path fill="none" stroke="#000000" d="M306.0062,-236.9236C245.513,-258.6766 356.4888,-432.7 271.5,-432.7"/>
<polygon fill="#000000" stroke="#000000" points="312.5925,-235.9132 321.0459,-238.2584 316.5463,-235.3066 320.5,-234.7 320.5,-234.7 320.5,-234.7 316.5463,-235.3066 319.9541,-231.1416 312.5925,-235.9132 312.5925,-235.9132"/>
<ellipse fill="none" stroke="#000000" cx="309.4295" cy="-236.3985" rx="3.2" ry="3.2"/>
</g>
<!-- shops&#45;&gt;users -->
<g id="edge16" class="edge">
<title>shops:w&#45;&gt;users:e</title>
<path fill="none" stroke="#000000" d="M149.9909,-388.7C138.6774,-388.7 131.4931,-388.7 115.5,-388.7"/>
<polygon fill="#000000" stroke="#000000" points="156.5,-388.7001 164.5,-392.3 160.5,-388.7 164.5,-388.7 164.5,-388.7 164.5,-388.7 160.5,-388.7 164.5,-385.1 156.5,-388.7001 156.5,-388.7001"/>
<ellipse fill="none" stroke="#000000" cx="153.3" cy="-388.7001" rx="3.2" ry="3.2"/>
</g>
</g>
</svg>
