<?xml version="1.0" encoding="UTF-8" standalone="no"?>
<!DOCTYPE svg PUBLIC "-//W3C//DTD SVG 1.1//EN"
 "http://www.w3.org/Graphics/SVG/1.1/DTD/svg11.dtd">
<!-- Generated by graphviz version 2.40.1 (20161225.0304)
 -->
<!-- Title: largeRelationshipsDiagram Pages: 1 -->
<svg width="785pt" height="931pt"
 viewBox="0.00 0.00 785.00 931.05" xmlns="http://www.w3.org/2000/svg" xmlns:xlink="http://www.w3.org/1999/xlink">
<g id="graph0" class="graph" transform="scale(1 1) rotate(0) translate(4 927.0457)">
<title>largeRelationshipsDiagram</title>
<polygon fill="#ffffff" stroke="transparent" points="-4,4 -4,-927.0457 781,-927.0457 781,4 -4,4"/>
<text text-anchor="middle" x="72.4936" y="-7.3" font-family="Helvetica,sans-Serif" font-size="11.00" fill="#000000">Generated by SchemaSpy</text>
<!-- bookings -->
<g id="node1" class="node">
<title>bookings</title>
<g id="a_node1"><a xlink:href="../../tables/bookings.html" xlink:title="bookings" target="_top">
<polygon fill="#ffffff" stroke="transparent" points="512,-419.2 512,-703.2 605,-703.2 605,-419.2 512,-419.2"/>
<polygon fill="#f5f5f5" stroke="transparent" points="512.5,-680.2 512.5,-703.2 605.5,-703.2 605.5,-680.2 512.5,-680.2"/>
<polygon fill="none" stroke="#000000" points="512.5,-680.2 512.5,-703.2 605.5,-703.2 605.5,-680.2 512.5,-680.2"/>
<text text-anchor="start" x="517.5" y="-689.3" font-family="Helvetica,sans-Serif" font-weight="bold" font-size="11.00" fill="#000000">bookings</text>
<text text-anchor="start" x="570.5437" y="-688.3" font-family="Helvetica,sans-Serif" font-size="11.00" fill="#000000">[table]</text>
<polygon fill="none" stroke="#000000" points="512.5,-658.2 512.5,-680.2 605.5,-680.2 605.5,-658.2 512.5,-658.2"/>
<image xlink:href="../../images/primaryKeys.png" width="11px" height="12px" preserveAspectRatio="xMinYMin meet" x="517.5" y="-675.2"/>
<text text-anchor="start" x="532.5" y="-665.3" font-family="Helvetica,sans-Serif" font-size="11.00" fill="#000000">id</text>
<polygon fill="#ffffff" stroke="transparent" points="512.5,-636.2 512.5,-658.2 605.5,-658.2 605.5,-636.2 512.5,-636.2"/>
<polygon fill="none" stroke="#000000" points="512.5,-636.2 512.5,-658.2 605.5,-658.2 605.5,-636.2 512.5,-636.2"/>
<image xlink:href="../../images/foreignKeys.png" width="11px" height="12px" preserveAspectRatio="xMinYMin meet" x="517.5" y="-653.2"/>
<text text-anchor="start" x="532.5" y="-643.3" font-family="Helvetica,sans-Serif" font-size="11.00" fill="#000000">shop_id</text>
<polygon fill="#ffffff" stroke="transparent" points="512.5,-614.2 512.5,-636.2 605.5,-636.2 605.5,-614.2 512.5,-614.2"/>
<polygon fill="none" stroke="#000000" points="512.5,-614.2 512.5,-636.2 605.5,-636.2 605.5,-614.2 512.5,-614.2"/>
<image xlink:href="../../images/foreignKeys.png" width="11px" height="12px" preserveAspectRatio="xMinYMin meet" x="517.5" y="-631.2"/>
<text text-anchor="start" x="532.5" y="-621.3" font-family="Helvetica,sans-Serif" font-size="11.00" fill="#000000">customer_id</text>
<polygon fill="#ffffff" stroke="transparent" points="512.5,-592.2 512.5,-614.2 605.5,-614.2 605.5,-592.2 512.5,-592.2"/>
<polygon fill="none" stroke="#000000" points="512.5,-592.2 512.5,-614.2 605.5,-614.2 605.5,-592.2 512.5,-592.2"/>
<image xlink:href="../../images/foreignKeys.png" width="11px" height="12px" preserveAspectRatio="xMinYMin meet" x="517.5" y="-609.2"/>
<text text-anchor="start" x="532.5" y="-599.3" font-family="Helvetica,sans-Serif" font-size="11.00" fill="#000000">employee_id</text>
<polygon fill="none" stroke="#000000" points="512.5,-570.2 512.5,-592.2 605.5,-592.2 605.5,-570.2 512.5,-570.2"/>
<image xlink:href="../../images/foreignKeys.png" width="11px" height="12px" preserveAspectRatio="xMinYMin meet" x="517.5" y="-587.2"/>
<text text-anchor="start" x="532.5" y="-577.3" font-family="Helvetica,sans-Serif" font-size="11.00" fill="#000000">service_id</text>
<polygon fill="none" stroke="#000000" points="512.5,-548.2 512.5,-570.2 605.5,-570.2 605.5,-548.2 512.5,-548.2"/>
<text text-anchor="start" x="532.5" y="-555.3" font-family="Helvetica,sans-Serif" font-size="11.00" fill="#000000">start_time</text>
<polygon fill="none" stroke="#000000" points="512.5,-526.2 512.5,-548.2 605.5,-548.2 605.5,-526.2 512.5,-526.2"/>
<text text-anchor="start" x="532.5" y="-533.3" font-family="Helvetica,sans-Serif" font-size="11.00" fill="#000000">end_time</text>
<polygon fill="none" stroke="#000000" points="512.5,-504.2 512.5,-526.2 605.5,-526.2 605.5,-504.2 512.5,-504.2"/>
<text text-anchor="start" x="532.5" y="-511.3" font-family="Helvetica,sans-Serif" font-size="11.00" fill="#000000">status</text>
<polygon fill="none" stroke="#000000" points="512.5,-482.2 512.5,-504.2 605.5,-504.2 605.5,-482.2 512.5,-482.2"/>
<text text-anchor="start" x="532.5" y="-489.3" font-family="Helvetica,sans-Serif" font-size="11.00" fill="#000000">notes</text>
<polygon fill="none" stroke="#000000" points="512.5,-460.2 512.5,-482.2 605.5,-482.2 605.5,-460.2 512.5,-460.2"/>
<text text-anchor="start" x="532.5" y="-467.3" font-family="Helvetica,sans-Serif" font-size="11.00" fill="#000000">created_at</text>
<polygon fill="none" stroke="#000000" points="512.5,-438.2 512.5,-460.2 605.5,-460.2 605.5,-438.2 512.5,-438.2"/>
<text text-anchor="start" x="532.5" y="-445.3" font-family="Helvetica,sans-Serif" font-size="11.00" fill="#000000">updated_at</text>
<polygon fill="#ffffff" stroke="transparent" points="512.5,-419.2 512.5,-438.2 539.5,-438.2 539.5,-419.2 512.5,-419.2"/>
<polygon fill="none" stroke="#000000" points="512.5,-419.2 512.5,-438.2 539.5,-438.2 539.5,-419.2 512.5,-419.2"/>
<text text-anchor="start" x="515.5" y="-425.3" font-family="Helvetica,sans-Serif" font-size="11.00" fill="#000000">&lt; 4</text>
<polygon fill="#ffffff" stroke="transparent" points="539.5,-419.2 539.5,-438.2 580.5,-438.2 580.5,-419.2 539.5,-419.2"/>
<polygon fill="none" stroke="#000000" points="539.5,-419.2 539.5,-438.2 580.5,-438.2 580.5,-419.2 539.5,-419.2"/>
<text text-anchor="start" x="545.1105" y="-425.3" font-family="Helvetica,sans-Serif" font-size="11.00" fill="#000000">0 rows</text>
<polygon fill="#ffffff" stroke="transparent" points="580.5,-419.2 580.5,-438.2 605.5,-438.2 605.5,-419.2 580.5,-419.2"/>
<polygon fill="none" stroke="#000000" points="580.5,-419.2 580.5,-438.2 605.5,-438.2 605.5,-419.2 580.5,-419.2"/>
<text text-anchor="start" x="586.9053" y="-425.3" font-family="Helvetica,sans-Serif" font-size="11.00" fill="#000000">1 &gt;</text>
</a>
</g>
</g>
<!-- employees -->
<g id="node3" class="node">
<title>employees</title>
<g id="a_node3"><a xlink:href="../../tables/employees.html" xlink:title="employees" target="_top">
<polygon fill="#ffffff" stroke="transparent" points="332,-38.2 332,-322.2 429,-322.2 429,-38.2 332,-38.2"/>
<polygon fill="#f5f5f5" stroke="transparent" points="332.5,-299.2 332.5,-322.2 429.5,-322.2 429.5,-299.2 332.5,-299.2"/>
<polygon fill="none" stroke="#000000" points="332.5,-299.2 332.5,-322.2 429.5,-322.2 429.5,-299.2 332.5,-299.2"/>
<text text-anchor="start" x="337.5" y="-308.3" font-family="Helvetica,sans-Serif" font-weight="bold" font-size="11.00" fill="#000000">employees</text>
<text text-anchor="start" x="395.0219" y="-307.3" font-family="Helvetica,sans-Serif" font-size="11.00" fill="#000000">[table]</text>
<polygon fill="none" stroke="#000000" points="332.5,-277.2 332.5,-299.2 429.5,-299.2 429.5,-277.2 332.5,-277.2"/>
<image xlink:href="../../images/primaryKeys.png" width="11px" height="12px" preserveAspectRatio="xMinYMin meet" x="337.5" y="-294.2"/>
<text text-anchor="start" x="352.5" y="-284.3" font-family="Helvetica,sans-Serif" font-size="11.00" fill="#000000">id</text>
<polygon fill="#ffffff" stroke="transparent" points="332.5,-255.2 332.5,-277.2 429.5,-277.2 429.5,-255.2 332.5,-255.2"/>
<polygon fill="none" stroke="#000000" points="332.5,-255.2 332.5,-277.2 429.5,-277.2 429.5,-255.2 332.5,-255.2"/>
<image xlink:href="../../images/foreignKeys.png" width="11px" height="12px" preserveAspectRatio="xMinYMin meet" x="337.5" y="-272.2"/>
<text text-anchor="start" x="352.5" y="-262.3" font-family="Helvetica,sans-Serif" font-size="11.00" fill="#000000">shop_id</text>
<polygon fill="#ffffff" stroke="transparent" points="332.5,-233.2 332.5,-255.2 429.5,-255.2 429.5,-233.2 332.5,-233.2"/>
<polygon fill="none" stroke="#000000" points="332.5,-233.2 332.5,-255.2 429.5,-255.2 429.5,-233.2 332.5,-233.2"/>
<image xlink:href="../../images/foreignKeys.png" width="11px" height="12px" preserveAspectRatio="xMinYMin meet" x="337.5" y="-250.2"/>
<text text-anchor="start" x="352.5" y="-240.3" font-family="Helvetica,sans-Serif" font-size="11.00" fill="#000000">user_id</text>
<polygon fill="none" stroke="#000000" points="332.5,-211.2 332.5,-233.2 429.5,-233.2 429.5,-211.2 332.5,-211.2"/>
<text text-anchor="start" x="352.5" y="-218.3" font-family="Helvetica,sans-Serif" font-size="11.00" fill="#000000">position</text>
<polygon fill="none" stroke="#000000" points="332.5,-189.2 332.5,-211.2 429.5,-211.2 429.5,-189.2 332.5,-189.2"/>
<text text-anchor="start" x="352.5" y="-196.3" font-family="Helvetica,sans-Serif" font-size="11.00" fill="#000000">bio</text>
<polygon fill="none" stroke="#000000" points="332.5,-167.2 332.5,-189.2 429.5,-189.2 429.5,-167.2 332.5,-167.2"/>
<text text-anchor="start" x="352.5" y="-174.3" font-family="Helvetica,sans-Serif" font-size="11.00" fill="#000000">image_url</text>
<polygon fill="none" stroke="#000000" points="332.5,-145.2 332.5,-167.2 429.5,-167.2 429.5,-145.2 332.5,-145.2"/>
<text text-anchor="start" x="352.5" y="-152.3" font-family="Helvetica,sans-Serif" font-size="11.00" fill="#000000">rating</text>
<polygon fill="none" stroke="#000000" points="332.5,-123.2 332.5,-145.2 429.5,-145.2 429.5,-123.2 332.5,-123.2"/>
<text text-anchor="start" x="352.5" y="-130.3" font-family="Helvetica,sans-Serif" font-size="11.00" fill="#000000">total_reviews</text>
<polygon fill="none" stroke="#000000" points="332.5,-101.2 332.5,-123.2 429.5,-123.2 429.5,-101.2 332.5,-101.2"/>
<text text-anchor="start" x="352.5" y="-108.3" font-family="Helvetica,sans-Serif" font-size="11.00" fill="#000000">is_active</text>
<polygon fill="none" stroke="#000000" points="332.5,-79.2 332.5,-101.2 429.5,-101.2 429.5,-79.2 332.5,-79.2"/>
<text text-anchor="start" x="352.5" y="-86.3" font-family="Helvetica,sans-Serif" font-size="11.00" fill="#000000">created_at</text>
<polygon fill="none" stroke="#000000" points="332.5,-57.2 332.5,-79.2 429.5,-79.2 429.5,-57.2 332.5,-57.2"/>
<text text-anchor="start" x="352.5" y="-64.3" font-family="Helvetica,sans-Serif" font-size="11.00" fill="#000000">updated_at</text>
<polygon fill="#ffffff" stroke="transparent" points="332.5,-38.2 332.5,-57.2 361.5,-57.2 361.5,-38.2 332.5,-38.2"/>
<polygon fill="none" stroke="#000000" points="332.5,-38.2 332.5,-57.2 361.5,-57.2 361.5,-38.2 332.5,-38.2"/>
<text text-anchor="start" x="335.5" y="-44.3" font-family="Helvetica,sans-Serif" font-size="11.00" fill="#000000">&lt; 2</text>
<polygon fill="#ffffff" stroke="transparent" points="361.5,-38.2 361.5,-57.2 403.5,-57.2 403.5,-38.2 361.5,-38.2"/>
<polygon fill="none" stroke="#000000" points="361.5,-38.2 361.5,-57.2 403.5,-57.2 403.5,-38.2 361.5,-38.2"/>
<text text-anchor="start" x="368.1105" y="-44.3" font-family="Helvetica,sans-Serif" font-size="11.00" fill="#000000">0 rows</text>
<polygon fill="#ffffff" stroke="transparent" points="403.5,-38.2 403.5,-57.2 429.5,-57.2 429.5,-38.2 403.5,-38.2"/>
<polygon fill="none" stroke="#000000" points="403.5,-38.2 403.5,-57.2 429.5,-57.2 429.5,-38.2 403.5,-38.2"/>
<text text-anchor="start" x="410.9053" y="-44.3" font-family="Helvetica,sans-Serif" font-size="11.00" fill="#000000">3 &gt;</text>
</a>
</g>
</g>
<!-- bookings&#45;&gt;employees -->
<g id="edge2" class="edge">
<title>bookings:w&#45;&gt;employees:e</title>
<path fill="none" stroke="#000000" d="M498.807,-598.5027C448.339,-559.3177 496.658,-288.2 429.5,-288.2"/>
<polygon fill="#000000" stroke="#000000" points="504.9329,-600.6041 511.3318,-606.6052 508.7164,-601.902 512.5,-603.2 512.5,-603.2 512.5,-603.2 508.7164,-601.902 513.6682,-599.7948 504.9329,-600.6041 504.9329,-600.6041"/>
<ellipse fill="none" stroke="#000000" cx="501.906" cy="-599.5657" rx="3.2" ry="3.2"/>
</g>
<!-- services -->
<g id="node6" class="node">
<title>services</title>
<g id="a_node6"><a xlink:href="../../tables/services.html" xlink:title="services" target="_top">
<polygon fill="#ffffff" stroke="transparent" points="320,-343.2 320,-605.2 441,-605.2 441,-343.2 320,-343.2"/>
<polygon fill="#f5f5f5" stroke="transparent" points="320.5,-582.2 320.5,-605.2 441.5,-605.2 441.5,-582.2 320.5,-582.2"/>
<polygon fill="none" stroke="#000000" points="320.5,-582.2 320.5,-605.2 441.5,-605.2 441.5,-582.2 320.5,-582.2"/>
<text text-anchor="start" x="325.5" y="-591.3" font-family="Helvetica,sans-Serif" font-weight="bold" font-size="11.00" fill="#000000">services</text>
<text text-anchor="start" x="406.5437" y="-590.3" font-family="Helvetica,sans-Serif" font-size="11.00" fill="#000000">[table]</text>
<polygon fill="none" stroke="#000000" points="320.5,-560.2 320.5,-582.2 441.5,-582.2 441.5,-560.2 320.5,-560.2"/>
<image xlink:href="../../images/primaryKeys.png" width="11px" height="12px" preserveAspectRatio="xMinYMin meet" x="325.5" y="-577.2"/>
<text text-anchor="start" x="340.5" y="-567.3" font-family="Helvetica,sans-Serif" font-size="11.00" fill="#000000">id</text>
<polygon fill="#ffffff" stroke="transparent" points="320.5,-538.2 320.5,-560.2 441.5,-560.2 441.5,-538.2 320.5,-538.2"/>
<polygon fill="none" stroke="#000000" points="320.5,-538.2 320.5,-560.2 441.5,-560.2 441.5,-538.2 320.5,-538.2"/>
<image xlink:href="../../images/foreignKeys.png" width="11px" height="12px" preserveAspectRatio="xMinYMin meet" x="325.5" y="-555.2"/>
<text text-anchor="start" x="340.5" y="-545.3" font-family="Helvetica,sans-Serif" font-size="11.00" fill="#000000">shop_id</text>
<polygon fill="none" stroke="#000000" points="320.5,-516.2 320.5,-538.2 441.5,-538.2 441.5,-516.2 320.5,-516.2"/>
<text text-anchor="start" x="340.5" y="-523.3" font-family="Helvetica,sans-Serif" font-size="11.00" fill="#000000">name</text>
<polygon fill="none" stroke="#000000" points="320.5,-494.2 320.5,-516.2 441.5,-516.2 441.5,-494.2 320.5,-494.2"/>
<text text-anchor="start" x="340.5" y="-501.3" font-family="Helvetica,sans-Serif" font-size="11.00" fill="#000000">description</text>
<polygon fill="none" stroke="#000000" points="320.5,-472.2 320.5,-494.2 441.5,-494.2 441.5,-472.2 320.5,-472.2"/>
<text text-anchor="start" x="340.5" y="-479.3" font-family="Helvetica,sans-Serif" font-size="11.00" fill="#000000">duration_minutes</text>
<polygon fill="none" stroke="#000000" points="320.5,-450.2 320.5,-472.2 441.5,-472.2 441.5,-450.2 320.5,-450.2"/>
<text text-anchor="start" x="340.5" y="-457.3" font-family="Helvetica,sans-Serif" font-size="11.00" fill="#000000">price</text>
<polygon fill="none" stroke="#000000" points="320.5,-428.2 320.5,-450.2 441.5,-450.2 441.5,-428.2 320.5,-428.2"/>
<text text-anchor="start" x="340.5" y="-435.3" font-family="Helvetica,sans-Serif" font-size="11.00" fill="#000000">image_url</text>
<polygon fill="none" stroke="#000000" points="320.5,-406.2 320.5,-428.2 441.5,-428.2 441.5,-406.2 320.5,-406.2"/>
<text text-anchor="start" x="340.5" y="-413.3" font-family="Helvetica,sans-Serif" font-size="11.00" fill="#000000">is_active</text>
<polygon fill="none" stroke="#000000" points="320.5,-384.2 320.5,-406.2 441.5,-406.2 441.5,-384.2 320.5,-384.2"/>
<text text-anchor="start" x="340.5" y="-391.3" font-family="Helvetica,sans-Serif" font-size="11.00" fill="#000000">created_at</text>
<polygon fill="none" stroke="#000000" points="320.5,-362.2 320.5,-384.2 441.5,-384.2 441.5,-362.2 320.5,-362.2"/>
<text text-anchor="start" x="340.5" y="-369.3" font-family="Helvetica,sans-Serif" font-size="11.00" fill="#000000">updated_at</text>
<polygon fill="#ffffff" stroke="transparent" points="320.5,-343.2 320.5,-362.2 361.5,-362.2 361.5,-343.2 320.5,-343.2"/>
<polygon fill="none" stroke="#000000" points="320.5,-343.2 320.5,-362.2 361.5,-362.2 361.5,-343.2 320.5,-343.2"/>
<text text-anchor="start" x="323.5" y="-349.3" font-family="Helvetica,sans-Serif" font-size="11.00" fill="#000000">&lt; 1</text>
<polygon fill="#ffffff" stroke="transparent" points="361.5,-343.2 361.5,-362.2 409.5,-362.2 409.5,-343.2 361.5,-343.2"/>
<polygon fill="none" stroke="#000000" points="361.5,-343.2 361.5,-362.2 409.5,-362.2 409.5,-343.2 361.5,-343.2"/>
<text text-anchor="start" x="374.1105" y="-349.3" font-family="Helvetica,sans-Serif" font-size="11.00" fill="#000000">0 rows</text>
<polygon fill="#ffffff" stroke="transparent" points="409.5,-343.2 409.5,-362.2 441.5,-362.2 441.5,-343.2 409.5,-343.2"/>
<polygon fill="none" stroke="#000000" points="409.5,-343.2 409.5,-362.2 441.5,-362.2 441.5,-343.2 409.5,-343.2"/>
<text text-anchor="start" x="422.9053" y="-349.3" font-family="Helvetica,sans-Serif" font-size="11.00" fill="#000000">2 &gt;</text>
</a>
</g>
</g>
<!-- bookings&#45;&gt;services -->
<g id="edge3" class="edge">
<title>bookings:w&#45;&gt;services:e</title>
<path fill="none" stroke="#000000" d="M497.999,-580.4153C477.4086,-578.0579 467.8899,-571.2 441.5,-571.2"/>
<polygon fill="#000000" stroke="#000000" points="504.5117,-580.7677 512.3055,-584.7947 508.5058,-580.9838 512.5,-581.2 512.5,-581.2 512.5,-581.2 508.5058,-580.9838 512.6945,-577.6053 504.5117,-580.7677 504.5117,-580.7677"/>
<ellipse fill="none" stroke="#000000" cx="501.3164" cy="-580.5948" rx="3.2" ry="3.2"/>
</g>
<!-- shops -->
<g id="node7" class="node">
<title>shops</title>
<g id="a_node7"><a xlink:href="../../tables/shops.html" xlink:title="shops" target="_top">
<polygon fill="#ffffff" stroke="transparent" points="164,-359.2 164,-819.2 271,-819.2 271,-359.2 164,-359.2"/>
<polygon fill="#f5f5f5" stroke="transparent" points="164.5,-796.2 164.5,-819.2 271.5,-819.2 271.5,-796.2 164.5,-796.2"/>
<polygon fill="none" stroke="#000000" points="164.5,-796.2 164.5,-819.2 271.5,-819.2 271.5,-796.2 164.5,-796.2"/>
<text text-anchor="start" x="169.5" y="-805.3" font-family="Helvetica,sans-Serif" font-weight="bold" font-size="11.00" fill="#000000">shops</text>
<text text-anchor="start" x="236.5437" y="-804.3" font-family="Helvetica,sans-Serif" font-size="11.00" fill="#000000">[table]</text>
<polygon fill="none" stroke="#000000" points="164.5,-774.2 164.5,-796.2 271.5,-796.2 271.5,-774.2 164.5,-774.2"/>
<image xlink:href="../../images/primaryKeys.png" width="11px" height="12px" preserveAspectRatio="xMinYMin meet" x="169.5" y="-791.2"/>
<text text-anchor="start" x="184.5" y="-781.3" font-family="Helvetica,sans-Serif" font-size="11.00" fill="#000000">id</text>
<polygon fill="none" stroke="#000000" points="164.5,-752.2 164.5,-774.2 271.5,-774.2 271.5,-752.2 164.5,-752.2"/>
<text text-anchor="start" x="184.5" y="-759.3" font-family="Helvetica,sans-Serif" font-size="11.00" fill="#000000">name</text>
<polygon fill="none" stroke="#000000" points="164.5,-730.2 164.5,-752.2 271.5,-752.2 271.5,-730.2 164.5,-730.2"/>
<text text-anchor="start" x="184.5" y="-737.3" font-family="Helvetica,sans-Serif" font-size="11.00" fill="#000000">description</text>
<polygon fill="none" stroke="#000000" points="164.5,-708.2 164.5,-730.2 271.5,-730.2 271.5,-708.2 164.5,-708.2"/>
<text text-anchor="start" x="184.5" y="-715.3" font-family="Helvetica,sans-Serif" font-size="11.00" fill="#000000">address</text>
<polygon fill="#ffffff" stroke="transparent" points="164.5,-686.2 164.5,-708.2 271.5,-708.2 271.5,-686.2 164.5,-686.2"/>
<polygon fill="none" stroke="#000000" points="164.5,-686.2 164.5,-708.2 271.5,-708.2 271.5,-686.2 164.5,-686.2"/>
<text text-anchor="start" x="184.5" y="-693.3" font-family="Helvetica,sans-Serif" font-size="11.00" fill="#000000">city</text>
<polygon fill="none" stroke="#000000" points="164.5,-664.2 164.5,-686.2 271.5,-686.2 271.5,-664.2 164.5,-664.2"/>
<text text-anchor="start" x="184.5" y="-671.3" font-family="Helvetica,sans-Serif" font-size="11.00" fill="#000000">phone_number</text>
<polygon fill="none" stroke="#000000" points="164.5,-642.2 164.5,-664.2 271.5,-664.2 271.5,-642.2 164.5,-642.2"/>
<text text-anchor="start" x="184.5" y="-649.3" font-family="Helvetica,sans-Serif" font-size="11.00" fill="#000000">email</text>
<polygon fill="none" stroke="#000000" points="164.5,-620.2 164.5,-642.2 271.5,-642.2 271.5,-620.2 164.5,-620.2"/>
<text text-anchor="start" x="184.5" y="-627.3" font-family="Helvetica,sans-Serif" font-size="11.00" fill="#000000">image_url</text>
<polygon fill="none" stroke="#000000" points="164.5,-598.2 164.5,-620.2 271.5,-620.2 271.5,-598.2 164.5,-598.2"/>
<text text-anchor="start" x="184.5" y="-605.3" font-family="Helvetica,sans-Serif" font-size="11.00" fill="#000000">rating</text>
<polygon fill="none" stroke="#000000" points="164.5,-576.2 164.5,-598.2 271.5,-598.2 271.5,-576.2 164.5,-576.2"/>
<text text-anchor="start" x="184.5" y="-583.3" font-family="Helvetica,sans-Serif" font-size="11.00" fill="#000000">total_reviews</text>
<polygon fill="#ffffff" stroke="transparent" points="164.5,-554.2 164.5,-576.2 271.5,-576.2 271.5,-554.2 164.5,-554.2"/>
<polygon fill="none" stroke="#000000" points="164.5,-554.2 164.5,-576.2 271.5,-576.2 271.5,-554.2 164.5,-554.2"/>
<image xlink:href="../../images/foreignKeys.png" width="11px" height="12px" preserveAspectRatio="xMinYMin meet" x="169.5" y="-571.2"/>
<text text-anchor="start" x="184.5" y="-561.3" font-family="Helvetica,sans-Serif" font-size="11.00" fill="#000000">owner_id</text>
<polygon fill="none" stroke="#000000" points="164.5,-532.2 164.5,-554.2 271.5,-554.2 271.5,-532.2 164.5,-532.2"/>
<text text-anchor="start" x="184.5" y="-539.3" font-family="Helvetica,sans-Serif" font-size="11.00" fill="#000000">is_active</text>
<polygon fill="none" stroke="#000000" points="164.5,-510.2 164.5,-532.2 271.5,-532.2 271.5,-510.2 164.5,-510.2"/>
<text text-anchor="start" x="184.5" y="-517.3" font-family="Helvetica,sans-Serif" font-size="11.00" fill="#000000">created_at</text>
<polygon fill="none" stroke="#000000" points="164.5,-488.2 164.5,-510.2 271.5,-510.2 271.5,-488.2 164.5,-488.2"/>
<text text-anchor="start" x="184.5" y="-495.3" font-family="Helvetica,sans-Serif" font-size="11.00" fill="#000000">updated_at</text>
<polygon fill="none" stroke="#000000" points="164.5,-466.2 164.5,-488.2 271.5,-488.2 271.5,-466.2 164.5,-466.2"/>
<text text-anchor="start" x="184.5" y="-473.3" font-family="Helvetica,sans-Serif" font-size="11.00" fill="#000000">state</text>
<polygon fill="none" stroke="#000000" points="164.5,-444.2 164.5,-466.2 271.5,-466.2 271.5,-444.2 164.5,-444.2"/>
<text text-anchor="start" x="184.5" y="-451.3" font-family="Helvetica,sans-Serif" font-size="11.00" fill="#000000">zip_code</text>
<polygon fill="none" stroke="#000000" points="164.5,-422.2 164.5,-444.2 271.5,-444.2 271.5,-422.2 164.5,-422.2"/>
<text text-anchor="start" x="184.5" y="-429.3" font-family="Helvetica,sans-Serif" font-size="11.00" fill="#000000">opening_time</text>
<polygon fill="none" stroke="#000000" points="164.5,-400.2 164.5,-422.2 271.5,-422.2 271.5,-400.2 164.5,-400.2"/>
<text text-anchor="start" x="184.5" y="-407.3" font-family="Helvetica,sans-Serif" font-size="11.00" fill="#000000">closing_time</text>
<polygon fill="none" stroke="#000000" points="164.5,-378.2 164.5,-400.2 271.5,-400.2 271.5,-378.2 164.5,-378.2"/>
<text text-anchor="start" x="184.5" y="-385.3" font-family="Helvetica,sans-Serif" font-size="11.00" fill="#000000">website</text>
<polygon fill="#ffffff" stroke="transparent" points="164.5,-359.2 164.5,-378.2 201.5,-378.2 201.5,-359.2 164.5,-359.2"/>
<polygon fill="none" stroke="#000000" points="164.5,-359.2 164.5,-378.2 201.5,-378.2 201.5,-359.2 164.5,-359.2"/>
<text text-anchor="start" x="167.5" y="-365.3" font-family="Helvetica,sans-Serif" font-size="11.00" fill="#000000">&lt; 1</text>
<polygon fill="#ffffff" stroke="transparent" points="201.5,-359.2 201.5,-378.2 241.5,-378.2 241.5,-359.2 201.5,-359.2"/>
<polygon fill="none" stroke="#000000" points="201.5,-359.2 201.5,-378.2 241.5,-378.2 241.5,-359.2 201.5,-359.2"/>
<text text-anchor="start" x="211.6105" y="-365.3" font-family="Helvetica,sans-Serif" font-size="11.00" fill="#000000">1 row</text>
<polygon fill="#ffffff" stroke="transparent" points="241.5,-359.2 241.5,-378.2 271.5,-378.2 271.5,-359.2 241.5,-359.2"/>
<polygon fill="none" stroke="#000000" points="241.5,-359.2 241.5,-378.2 271.5,-378.2 271.5,-359.2 241.5,-359.2"/>
<text text-anchor="start" x="252.9053" y="-365.3" font-family="Helvetica,sans-Serif" font-size="11.00" fill="#000000">5 &gt;</text>
</a>
</g>
</g>
<!-- bookings&#45;&gt;shops -->
<g id="edge4" class="edge">
<title>bookings:w&#45;&gt;shops:e</title>
<path fill="none" stroke="#000000" d="M498.0651,-647.2917C414.5215,-648.4239 381.2531,-660.6501 312,-717.2 284.7534,-739.4487 306.6765,-785.2 271.5,-785.2"/>
<polygon fill="#000000" stroke="#000000" points="504.5002,-647.2509 512.5229,-650.7999 508.5001,-647.2254 512.5,-647.2 512.5,-647.2 512.5,-647.2 508.5001,-647.2254 512.4771,-643.6001 504.5002,-647.2509 504.5002,-647.2509"/>
<ellipse fill="none" stroke="#000000" cx="501.3002" cy="-647.2712" rx="3.2" ry="3.2"/>
</g>
<!-- users -->
<g id="node8" class="node">
<title>users</title>
<g id="a_node8"><a xlink:href="../../tables/users.html" xlink:title="users" target="_top">
<polygon fill="#ffffff" stroke="transparent" points="8,-315.2 8,-599.2 115,-599.2 115,-315.2 8,-315.2"/>
<polygon fill="#f5f5f5" stroke="transparent" points="8.5,-576.2 8.5,-599.2 115.5,-599.2 115.5,-576.2 8.5,-576.2"/>
<polygon fill="none" stroke="#000000" points="8.5,-576.2 8.5,-599.2 115.5,-599.2 115.5,-576.2 8.5,-576.2"/>
<text text-anchor="start" x="13.5" y="-585.3" font-family="Helvetica,sans-Serif" font-weight="bold" font-size="11.00" fill="#000000">users</text>
<text text-anchor="start" x="80.5437" y="-584.3" font-family="Helvetica,sans-Serif" font-size="11.00" fill="#000000">[table]</text>
<polygon fill="none" stroke="#000000" points="8.5,-554.2 8.5,-576.2 115.5,-576.2 115.5,-554.2 8.5,-554.2"/>
<image xlink:href="../../images/primaryKeys.png" width="11px" height="12px" preserveAspectRatio="xMinYMin meet" x="13.5" y="-571.2"/>
<text text-anchor="start" x="28.5" y="-561.3" font-family="Helvetica,sans-Serif" font-size="11.00" fill="#000000">id</text>
<polygon fill="none" stroke="#000000" points="8.5,-532.2 8.5,-554.2 115.5,-554.2 115.5,-532.2 8.5,-532.2"/>
<text text-anchor="start" x="28.5" y="-539.3" font-family="Helvetica,sans-Serif" font-size="11.00" fill="#000000">first_name</text>
<polygon fill="none" stroke="#000000" points="8.5,-510.2 8.5,-532.2 115.5,-532.2 115.5,-510.2 8.5,-510.2"/>
<text text-anchor="start" x="28.5" y="-517.3" font-family="Helvetica,sans-Serif" font-size="11.00" fill="#000000">last_name</text>
<polygon fill="#ffffff" stroke="transparent" points="8.5,-488.2 8.5,-510.2 115.5,-510.2 115.5,-488.2 8.5,-488.2"/>
<polygon fill="none" stroke="#000000" points="8.5,-488.2 8.5,-510.2 115.5,-510.2 115.5,-488.2 8.5,-488.2"/>
<text text-anchor="start" x="28.5" y="-495.3" font-family="Helvetica,sans-Serif" font-size="11.00" fill="#000000">email</text>
<polygon fill="none" stroke="#000000" points="8.5,-466.2 8.5,-488.2 115.5,-488.2 115.5,-466.2 8.5,-466.2"/>
<text text-anchor="start" x="28.5" y="-473.3" font-family="Helvetica,sans-Serif" font-size="11.00" fill="#000000">password</text>
<polygon fill="none" stroke="#000000" points="8.5,-444.2 8.5,-466.2 115.5,-466.2 115.5,-444.2 8.5,-444.2"/>
<text text-anchor="start" x="28.5" y="-451.3" font-family="Helvetica,sans-Serif" font-size="11.00" fill="#000000">phone_number</text>
<polygon fill="none" stroke="#000000" points="8.5,-422.2 8.5,-444.2 115.5,-444.2 115.5,-422.2 8.5,-422.2"/>
<text text-anchor="start" x="28.5" y="-429.3" font-family="Helvetica,sans-Serif" font-size="11.00" fill="#000000">image_url</text>
<polygon fill="none" stroke="#000000" points="8.5,-400.2 8.5,-422.2 115.5,-422.2 115.5,-400.2 8.5,-400.2"/>
<text text-anchor="start" x="28.5" y="-407.3" font-family="Helvetica,sans-Serif" font-size="11.00" fill="#000000">role</text>
<polygon fill="none" stroke="#000000" points="8.5,-378.2 8.5,-400.2 115.5,-400.2 115.5,-378.2 8.5,-378.2"/>
<text text-anchor="start" x="28.5" y="-385.3" font-family="Helvetica,sans-Serif" font-size="11.00" fill="#000000">is_active</text>
<polygon fill="none" stroke="#000000" points="8.5,-356.2 8.5,-378.2 115.5,-378.2 115.5,-356.2 8.5,-356.2"/>
<text text-anchor="start" x="28.5" y="-363.3" font-family="Helvetica,sans-Serif" font-size="11.00" fill="#000000">created_at</text>
<polygon fill="none" stroke="#000000" points="8.5,-334.2 8.5,-356.2 115.5,-356.2 115.5,-334.2 8.5,-334.2"/>
<text text-anchor="start" x="28.5" y="-341.3" font-family="Helvetica,sans-Serif" font-size="11.00" fill="#000000">updated_at</text>
<polygon fill="#ffffff" stroke="transparent" points="8.5,-315.2 8.5,-334.2 38.5,-334.2 38.5,-315.2 8.5,-315.2"/>
<polygon fill="none" stroke="#000000" points="8.5,-315.2 8.5,-334.2 38.5,-334.2 38.5,-315.2 8.5,-315.2"/>
<text text-anchor="start" x="11.5" y="-321.3" font-family="Helvetica,sans-Serif" font-size="11.00" fill="#000000"> &#160;</text>
<polygon fill="#ffffff" stroke="transparent" points="38.5,-315.2 38.5,-334.2 85.5,-334.2 85.5,-315.2 38.5,-315.2"/>
<polygon fill="none" stroke="#000000" points="38.5,-315.2 38.5,-334.2 85.5,-334.2 85.5,-315.2 38.5,-315.2"/>
<text text-anchor="start" x="50.1105" y="-321.3" font-family="Helvetica,sans-Serif" font-size="11.00" fill="#000000">6 rows</text>
<polygon fill="#ffffff" stroke="transparent" points="85.5,-315.2 85.5,-334.2 115.5,-334.2 115.5,-315.2 85.5,-315.2"/>
<polygon fill="none" stroke="#000000" points="85.5,-315.2 85.5,-334.2 115.5,-334.2 115.5,-315.2 85.5,-315.2"/>
<text text-anchor="start" x="96.9053" y="-321.3" font-family="Helvetica,sans-Serif" font-size="11.00" fill="#000000">5 &gt;</text>
</a>
</g>
</g>
<!-- bookings&#45;&gt;users -->
<g id="edge1" class="edge">
<title>bookings:w&#45;&gt;users:e</title>
<path fill="none" stroke="#000000" d="M497.749,-625.6665C418.0466,-630.6815 373.7799,-673.3332 312,-616.2 224.2146,-535.0174 368.584,-428.3934 279,-349.2 62.6419,-157.9366 132.3896,-565.2 115.5,-565.2"/>
<polygon fill="#000000" stroke="#000000" points="504.504,-625.4529 512.6138,-628.7982 508.502,-625.3265 512.5,-625.2 512.5,-625.2 512.5,-625.2 508.502,-625.3265 512.3862,-621.6018 504.504,-625.4529 504.504,-625.4529"/>
<ellipse fill="none" stroke="#000000" cx="501.3056" cy="-625.5541" rx="3.2" ry="3.2"/>
</g>
<!-- employee_services -->
<g id="node2" class="node">
<title>employee_services</title>
<g id="a_node2"><a xlink:href="../../tables/employee_services.html" xlink:title="employee_services" target="_top">
<polygon fill="#ffffff" stroke="transparent" points="490,-312.2 490,-398.2 627,-398.2 627,-312.2 490,-312.2"/>
<polygon fill="#f5f5f5" stroke="transparent" points="490.5,-375.2 490.5,-398.2 627.5,-398.2 627.5,-375.2 490.5,-375.2"/>
<polygon fill="none" stroke="#000000" points="490.5,-375.2 490.5,-398.2 627.5,-398.2 627.5,-375.2 490.5,-375.2"/>
<text text-anchor="start" x="495.4376" y="-384.3" font-family="Helvetica,sans-Serif" font-weight="bold" font-size="11.00" fill="#000000">employee_services</text>
<text text-anchor="start" x="593.0219" y="-383.3" font-family="Helvetica,sans-Serif" font-size="11.00" fill="#000000">[table]</text>
<polygon fill="none" stroke="#000000" points="490.5,-353.2 490.5,-375.2 627.5,-375.2 627.5,-353.2 490.5,-353.2"/>
<image xlink:href="../../images/primaryKeys.png" width="11px" height="12px" preserveAspectRatio="xMinYMin meet" x="495.5" y="-370.2"/>
<text text-anchor="start" x="513.5" y="-360.3" font-family="Helvetica,sans-Serif" font-size="11.00" fill="#000000">employee_id</text>
<polygon fill="none" stroke="#000000" points="490.5,-331.2 490.5,-353.2 627.5,-353.2 627.5,-331.2 490.5,-331.2"/>
<image xlink:href="../../images/primaryKeys.png" width="11px" height="12px" preserveAspectRatio="xMinYMin meet" x="495.5" y="-348.2"/>
<text text-anchor="start" x="513.5" y="-338.3" font-family="Helvetica,sans-Serif" font-size="11.00" fill="#000000">service_id</text>
<polygon fill="#ffffff" stroke="transparent" points="490.5,-312.2 490.5,-331.2 544.5,-331.2 544.5,-312.2 490.5,-312.2"/>
<polygon fill="none" stroke="#000000" points="490.5,-312.2 490.5,-331.2 544.5,-331.2 544.5,-312.2 490.5,-312.2"/>
<text text-anchor="start" x="493.5" y="-318.3" font-family="Helvetica,sans-Serif" font-size="11.00" fill="#000000">&lt; 2</text>
<polygon fill="#ffffff" stroke="transparent" points="544.5,-312.2 544.5,-331.2 598.5,-331.2 598.5,-312.2 544.5,-312.2"/>
<polygon fill="none" stroke="#000000" points="544.5,-312.2 544.5,-331.2 598.5,-331.2 598.5,-312.2 544.5,-312.2"/>
<text text-anchor="start" x="563.1105" y="-318.3" font-family="Helvetica,sans-Serif" font-size="11.00" fill="#000000">0 rows</text>
<polygon fill="#ffffff" stroke="transparent" points="598.5,-312.2 598.5,-331.2 627.5,-331.2 627.5,-312.2 598.5,-312.2"/>
<polygon fill="none" stroke="#000000" points="598.5,-312.2 598.5,-331.2 627.5,-331.2 627.5,-312.2 598.5,-312.2"/>
<text text-anchor="start" x="618.3862" y="-318.3" font-family="Helvetica,sans-Serif" font-size="11.00" fill="#000000"> &#160;</text>
</a>
</g>
</g>
<!-- employee_services&#45;&gt;employees -->
<g id="edge5" class="edge">
<title>employee_services:w&#45;&gt;employees:e</title>
<path fill="none" stroke="#000000" d="M476.5677,-360.5344C452.7783,-345.3531 467.0598,-288.2 429.5,-288.2"/>
<polygon fill="#000000" stroke="#000000" points="482.7633,-362.1644 489.584,-367.6815 486.6316,-363.1822 490.5,-364.2 490.5,-364.2 490.5,-364.2 486.6316,-363.1822 491.416,-360.7185 482.7633,-362.1644 482.7633,-362.1644"/>
<ellipse fill="none" stroke="#000000" cx="479.6686" cy="-361.3502" rx="3.2" ry="3.2"/>
</g>
<!-- employee_services&#45;&gt;services -->
<g id="edge6" class="edge">
<title>employee_services:w&#45;&gt;services:e</title>
<path fill="none" stroke="#000000" d="M476.1529,-344.0433C402.4731,-365.7155 540.093,-571.2 441.5,-571.2"/>
<polygon fill="#000000" stroke="#000000" points="482.5652,-343.2195 490.9588,-345.7706 486.5326,-342.7098 490.5,-342.2 490.5,-342.2 490.5,-342.2 486.5326,-342.7098 490.0412,-338.6294 482.5652,-343.2195 482.5652,-343.2195"/>
<ellipse fill="none" stroke="#000000" cx="479.3913" cy="-343.6273" rx="3.2" ry="3.2"/>
</g>
<!-- employees&#45;&gt;shops -->
<g id="edge7" class="edge">
<title>employees:w&#45;&gt;shops:e</title>
<path fill="none" stroke="#000000" d="M320.856,-275.2082C282.3592,-344.126 325.0274,-785.2 271.5,-785.2"/>
<polygon fill="#000000" stroke="#000000" points="326.1725,-271.0952 334.7028,-269.0474 329.3362,-268.6476 332.5,-266.2 332.5,-266.2 332.5,-266.2 329.3362,-268.6476 330.2972,-263.3526 326.1725,-271.0952 326.1725,-271.0952"/>
<ellipse fill="none" stroke="#000000" cx="323.6415" cy="-273.0533" rx="3.2" ry="3.2"/>
</g>
<!-- employees&#45;&gt;users -->
<g id="edge8" class="edge">
<title>employees:w&#45;&gt;users:e</title>
<path fill="none" stroke="#000000" d="M317.8162,-244.3374C241.7216,-245.8562 205.4228,-260.7058 156,-325.2 123.1011,-368.1314 169.5874,-565.2 115.5,-565.2"/>
<polygon fill="#000000" stroke="#000000" points="324.5004,-244.2749 332.5337,-247.7998 328.5002,-244.2375 332.5,-244.2 332.5,-244.2 332.5,-244.2 328.5002,-244.2375 332.4663,-240.6002 324.5004,-244.2749 324.5004,-244.2749"/>
<ellipse fill="none" stroke="#000000" cx="321.3005" cy="-244.3049" rx="3.2" ry="3.2"/>
</g>
<!-- favorite_shops -->
<g id="node4" class="node">
<title>favorite_shops</title>
<g id="a_node4"><a xlink:href="../../tables/favorite_shops.html" xlink:title="favorite_shops" target="_top">
<polygon fill="#ffffff" stroke="transparent" points="323.5,-751.2 323.5,-881.2 437.5,-881.2 437.5,-751.2 323.5,-751.2"/>
<polygon fill="#f5f5f5" stroke="transparent" points="323.5,-858.2 323.5,-881.2 437.5,-881.2 437.5,-858.2 323.5,-858.2"/>
<polygon fill="none" stroke="#000000" points="323.5,-858.2 323.5,-881.2 437.5,-881.2 437.5,-858.2 323.5,-858.2"/>
<text text-anchor="start" x="328.2396" y="-867.3" font-family="Helvetica,sans-Serif" font-weight="bold" font-size="11.00" fill="#000000">favorite_shops</text>
<text text-anchor="start" x="403.0219" y="-866.3" font-family="Helvetica,sans-Serif" font-size="11.00" fill="#000000">[table]</text>
<polygon fill="none" stroke="#000000" points="323.5,-836.2 323.5,-858.2 437.5,-858.2 437.5,-836.2 323.5,-836.2"/>
<image xlink:href="../../images/primaryKeys.png" width="11px" height="12px" preserveAspectRatio="xMinYMin meet" x="328.5" y="-853.2"/>
<text text-anchor="start" x="347.5" y="-843.3" font-family="Helvetica,sans-Serif" font-size="11.00" fill="#000000">id</text>
<polygon fill="#ffffff" stroke="transparent" points="323.5,-814.2 323.5,-836.2 437.5,-836.2 437.5,-814.2 323.5,-814.2"/>
<polygon fill="none" stroke="#000000" points="323.5,-814.2 323.5,-836.2 437.5,-836.2 437.5,-814.2 323.5,-814.2"/>
<image xlink:href="../../images/foreignKeys.png" width="11px" height="12px" preserveAspectRatio="xMinYMin meet" x="328.5" y="-831.2"/>
<text text-anchor="start" x="347.5" y="-821.3" font-family="Helvetica,sans-Serif" font-size="11.00" fill="#000000">user_id</text>
<polygon fill="#ffffff" stroke="transparent" points="323.5,-792.2 323.5,-814.2 437.5,-814.2 437.5,-792.2 323.5,-792.2"/>
<polygon fill="none" stroke="#000000" points="323.5,-792.2 323.5,-814.2 437.5,-814.2 437.5,-792.2 323.5,-792.2"/>
<image xlink:href="../../images/foreignKeys.png" width="11px" height="12px" preserveAspectRatio="xMinYMin meet" x="328.5" y="-809.2"/>
<text text-anchor="start" x="347.5" y="-799.3" font-family="Helvetica,sans-Serif" font-size="11.00" fill="#000000">shop_id</text>
<polygon fill="none" stroke="#000000" points="323.5,-770.2 323.5,-792.2 437.5,-792.2 437.5,-770.2 323.5,-770.2"/>
<text text-anchor="start" x="347.5" y="-777.3" font-family="Helvetica,sans-Serif" font-size="11.00" fill="#000000">created_at</text>
<polygon fill="#ffffff" stroke="transparent" points="323.5,-751.2 323.5,-770.2 365.5,-770.2 365.5,-751.2 323.5,-751.2"/>
<polygon fill="none" stroke="#000000" points="323.5,-751.2 323.5,-770.2 365.5,-770.2 365.5,-751.2 323.5,-751.2"/>
<text text-anchor="start" x="326.5" y="-757.3" font-family="Helvetica,sans-Serif" font-size="11.00" fill="#000000">&lt; 2</text>
<polygon fill="#ffffff" stroke="transparent" points="365.5,-751.2 365.5,-770.2 414.5,-770.2 414.5,-751.2 365.5,-751.2"/>
<polygon fill="none" stroke="#000000" points="365.5,-751.2 365.5,-770.2 414.5,-770.2 414.5,-751.2 365.5,-751.2"/>
<text text-anchor="start" x="379.1105" y="-757.3" font-family="Helvetica,sans-Serif" font-size="11.00" fill="#000000">0 rows</text>
<polygon fill="#ffffff" stroke="transparent" points="414.5,-751.2 414.5,-770.2 437.5,-770.2 437.5,-751.2 414.5,-751.2"/>
<polygon fill="none" stroke="#000000" points="414.5,-751.2 414.5,-770.2 437.5,-770.2 437.5,-751.2 414.5,-751.2"/>
<text text-anchor="start" x="428.3862" y="-757.3" font-family="Helvetica,sans-Serif" font-size="11.00" fill="#000000"> &#160;</text>
</a>
</g>
</g>
<!-- favorite_shops&#45;&gt;shops -->
<g id="edge9" class="edge">
<title>favorite_shops:w&#45;&gt;shops:e</title>
<path fill="none" stroke="#000000" d="M309.2753,-800.6972C296.4226,-795.7513 290.2246,-785.2 271.5,-785.2"/>
<polygon fill="#000000" stroke="#000000" points="315.621,-801.8137 322.8761,-806.7455 319.5605,-802.5068 323.5,-803.2 323.5,-803.2 323.5,-803.2 319.5605,-802.5068 324.1239,-799.6545 315.621,-801.8137 315.621,-801.8137"/>
<ellipse fill="none" stroke="#000000" cx="312.4694" cy="-801.2591" rx="3.2" ry="3.2"/>
</g>
<!-- favorite_shops&#45;&gt;users -->
<g id="edge10" class="edge">
<title>favorite_shops:w&#45;&gt;users:e</title>
<path fill="none" stroke="#000000" d="M308.7399,-825.9006C243.936,-832.0407 208.6394,-875.4057 156,-830.2 110.8057,-791.388 175.0727,-565.2 115.5,-565.2"/>
<polygon fill="#000000" stroke="#000000" points="315.509,-825.5794 323.6707,-828.796 319.5045,-825.3897 323.5,-825.2 323.5,-825.2 323.5,-825.2 319.5045,-825.3897 323.3293,-821.604 315.509,-825.5794 315.509,-825.5794"/>
<ellipse fill="none" stroke="#000000" cx="312.3126" cy="-825.7311" rx="3.2" ry="3.2"/>
</g>
<!-- reviews -->
<g id="node5" class="node">
<title>reviews</title>
<g id="a_node5"><a xlink:href="../../tables/reviews.html" xlink:title="reviews" target="_top">
<polygon fill="#ffffff" stroke="transparent" points="676,-558.2 676,-798.2 769,-798.2 769,-558.2 676,-558.2"/>
<polygon fill="#f5f5f5" stroke="transparent" points="676.5,-775.2 676.5,-798.2 769.5,-798.2 769.5,-775.2 676.5,-775.2"/>
<polygon fill="none" stroke="#000000" points="676.5,-775.2 676.5,-798.2 769.5,-798.2 769.5,-775.2 676.5,-775.2"/>
<text text-anchor="start" x="681.5" y="-784.3" font-family="Helvetica,sans-Serif" font-weight="bold" font-size="11.00" fill="#000000">reviews</text>
<text text-anchor="start" x="734.5437" y="-783.3" font-family="Helvetica,sans-Serif" font-size="11.00" fill="#000000">[table]</text>
<polygon fill="none" stroke="#000000" points="676.5,-753.2 676.5,-775.2 769.5,-775.2 769.5,-753.2 676.5,-753.2"/>
<image xlink:href="../../images/primaryKeys.png" width="11px" height="12px" preserveAspectRatio="xMinYMin meet" x="681.5" y="-770.2"/>
<text text-anchor="start" x="696.5" y="-760.3" font-family="Helvetica,sans-Serif" font-size="11.00" fill="#000000">id</text>
<polygon fill="#ffffff" stroke="transparent" points="676.5,-731.2 676.5,-753.2 769.5,-753.2 769.5,-731.2 676.5,-731.2"/>
<polygon fill="none" stroke="#000000" points="676.5,-731.2 676.5,-753.2 769.5,-753.2 769.5,-731.2 676.5,-731.2"/>
<image xlink:href="../../images/foreignKeys.png" width="11px" height="12px" preserveAspectRatio="xMinYMin meet" x="681.5" y="-748.2"/>
<text text-anchor="start" x="696.5" y="-738.3" font-family="Helvetica,sans-Serif" font-size="11.00" fill="#000000">customer_id</text>
<polygon fill="#ffffff" stroke="transparent" points="676.5,-709.2 676.5,-731.2 769.5,-731.2 769.5,-709.2 676.5,-709.2"/>
<polygon fill="none" stroke="#000000" points="676.5,-709.2 676.5,-731.2 769.5,-731.2 769.5,-709.2 676.5,-709.2"/>
<image xlink:href="../../images/foreignKeys.png" width="11px" height="12px" preserveAspectRatio="xMinYMin meet" x="681.5" y="-726.2"/>
<text text-anchor="start" x="696.5" y="-716.3" font-family="Helvetica,sans-Serif" font-size="11.00" fill="#000000">shop_id</text>
<polygon fill="#ffffff" stroke="transparent" points="676.5,-687.2 676.5,-709.2 769.5,-709.2 769.5,-687.2 676.5,-687.2"/>
<polygon fill="none" stroke="#000000" points="676.5,-687.2 676.5,-709.2 769.5,-709.2 769.5,-687.2 676.5,-687.2"/>
<image xlink:href="../../images/foreignKeys.png" width="11px" height="12px" preserveAspectRatio="xMinYMin meet" x="681.5" y="-704.2"/>
<text text-anchor="start" x="696.5" y="-694.3" font-family="Helvetica,sans-Serif" font-size="11.00" fill="#000000">employee_id</text>
<polygon fill="none" stroke="#000000" points="676.5,-665.2 676.5,-687.2 769.5,-687.2 769.5,-665.2 676.5,-665.2"/>
<image xlink:href="../../images/foreignKeys.png" width="11px" height="12px" preserveAspectRatio="xMinYMin meet" x="681.5" y="-682.2"/>
<text text-anchor="start" x="696.5" y="-672.3" font-family="Helvetica,sans-Serif" font-size="11.00" fill="#000000">booking_id</text>
<polygon fill="none" stroke="#000000" points="676.5,-643.2 676.5,-665.2 769.5,-665.2 769.5,-643.2 676.5,-643.2"/>
<text text-anchor="start" x="696.5" y="-650.3" font-family="Helvetica,sans-Serif" font-size="11.00" fill="#000000">rating</text>
<polygon fill="none" stroke="#000000" points="676.5,-621.2 676.5,-643.2 769.5,-643.2 769.5,-621.2 676.5,-621.2"/>
<text text-anchor="start" x="696.5" y="-628.3" font-family="Helvetica,sans-Serif" font-size="11.00" fill="#000000">comment</text>
<polygon fill="none" stroke="#000000" points="676.5,-599.2 676.5,-621.2 769.5,-621.2 769.5,-599.2 676.5,-599.2"/>
<text text-anchor="start" x="696.5" y="-606.3" font-family="Helvetica,sans-Serif" font-size="11.00" fill="#000000">created_at</text>
<polygon fill="none" stroke="#000000" points="676.5,-577.2 676.5,-599.2 769.5,-599.2 769.5,-577.2 676.5,-577.2"/>
<text text-anchor="start" x="696.5" y="-584.3" font-family="Helvetica,sans-Serif" font-size="11.00" fill="#000000">updated_at</text>
<polygon fill="#ffffff" stroke="transparent" points="676.5,-558.2 676.5,-577.2 708.5,-577.2 708.5,-558.2 676.5,-558.2"/>
<polygon fill="none" stroke="#000000" points="676.5,-558.2 676.5,-577.2 708.5,-577.2 708.5,-558.2 676.5,-558.2"/>
<text text-anchor="start" x="679.5" y="-564.3" font-family="Helvetica,sans-Serif" font-size="11.00" fill="#000000">&lt; 4</text>
<polygon fill="#ffffff" stroke="transparent" points="708.5,-558.2 708.5,-577.2 751.5,-577.2 751.5,-558.2 708.5,-558.2"/>
<polygon fill="none" stroke="#000000" points="708.5,-558.2 708.5,-577.2 751.5,-577.2 751.5,-558.2 708.5,-558.2"/>
<text text-anchor="start" x="716.1105" y="-564.3" font-family="Helvetica,sans-Serif" font-size="11.00" fill="#000000">0 rows</text>
<polygon fill="#ffffff" stroke="transparent" points="751.5,-558.2 751.5,-577.2 769.5,-577.2 769.5,-558.2 751.5,-558.2"/>
<polygon fill="none" stroke="#000000" points="751.5,-558.2 751.5,-577.2 769.5,-577.2 769.5,-558.2 751.5,-558.2"/>
<text text-anchor="start" x="760.3862" y="-564.3" font-family="Helvetica,sans-Serif" font-size="11.00" fill="#000000"> &#160;</text>
</a>
</g>
</g>
<!-- reviews&#45;&gt;bookings -->
<g id="edge11" class="edge">
<title>reviews:w&#45;&gt;bookings:e</title>
<path fill="none" stroke="#000000" d="M662.0434,-675.6507C641.4721,-674.0005 631.7586,-669.2 605.5,-669.2"/>
<polygon fill="#000000" stroke="#000000" points="668.5058,-675.8962 676.3633,-679.7974 672.5029,-676.0481 676.5,-676.2 676.5,-676.2 676.5,-676.2 672.5029,-676.0481 676.6367,-672.6026 668.5058,-675.8962 668.5058,-675.8962"/>
<ellipse fill="none" stroke="#000000" cx="665.3081" cy="-675.7747" rx="3.2" ry="3.2"/>
</g>
<!-- reviews&#45;&gt;employees -->
<g id="edge13" class="edge">
<title>reviews:w&#45;&gt;employees:e</title>
<path fill="none" stroke="#000000" d="M662.5355,-694.6552C600.7811,-658.6855 694.8378,-359.8987 635,-302.2 569.1007,-238.6565 521.045,-288.2 429.5,-288.2"/>
<polygon fill="#000000" stroke="#000000" points="668.7459,-696.2317 675.6142,-701.6893 672.623,-697.2158 676.5,-698.2 676.5,-698.2 676.5,-698.2 672.623,-697.2158 677.3858,-694.7107 668.7459,-696.2317 668.7459,-696.2317"/>
<ellipse fill="none" stroke="#000000" cx="665.6443" cy="-695.4443" rx="3.2" ry="3.2"/>
</g>
<!-- reviews&#45;&gt;shops -->
<g id="edge14" class="edge">
<title>reviews:w&#45;&gt;shops:e</title>
<path fill="none" stroke="#000000" d="M662.0758,-720.0871C572.802,-718.8445 381.3209,-708.381 312,-741.2 287.9777,-752.5731 298.0786,-785.2 271.5,-785.2"/>
<polygon fill="#000000" stroke="#000000" points="668.5002,-720.1373 676.4718,-723.7999 672.5001,-720.1687 676.5,-720.2 676.5,-720.2 676.5,-720.2 672.5001,-720.1687 676.5282,-716.6001 668.5002,-720.1373 668.5002,-720.1373"/>
<ellipse fill="none" stroke="#000000" cx="665.3003" cy="-720.1123" rx="3.2" ry="3.2"/>
</g>
<!-- reviews&#45;&gt;users -->
<g id="edge12" class="edge">
<title>reviews:w&#45;&gt;users:e</title>
<path fill="none" stroke="#000000" d="M661.9154,-742.7949C555.9749,-751.7331 560.1322,-858.8603 449,-892.2 322.9948,-930.0016 243.1865,-948.7128 156,-850.2 113.6043,-802.2968 179.4696,-565.2 115.5,-565.2"/>
<polygon fill="#000000" stroke="#000000" points="668.5066,-742.5261 676.6467,-745.797 672.5033,-742.3631 676.5,-742.2 676.5,-742.2 676.5,-742.2 672.5033,-742.3631 676.3533,-738.603 668.5066,-742.5261 668.5066,-742.5261"/>
<ellipse fill="none" stroke="#000000" cx="665.3093" cy="-742.6566" rx="3.2" ry="3.2"/>
</g>
<!-- services&#45;&gt;shops -->
<g id="edge15" class="edge">
<title>services:w&#45;&gt;shops:e</title>
<path fill="none" stroke="#000000" d="M305.7448,-551.0997C230.0456,-573.4343 372.9766,-785.2 271.5,-785.2"/>
<polygon fill="#000000" stroke="#000000" points="312.5655,-550.2216 320.9597,-552.7705 316.5327,-549.7108 320.5,-549.2 320.5,-549.2 320.5,-549.2 316.5327,-549.7108 320.0403,-545.6295 312.5655,-550.2216 312.5655,-550.2216"/>
<ellipse fill="none" stroke="#000000" cx="309.3917" cy="-550.6302" rx="3.2" ry="3.2"/>
</g>
<!-- shops&#45;&gt;users -->
<g id="edge16" class="edge">
<title>shops:w&#45;&gt;users:e</title>
<path fill="none" stroke="#000000" d="M149.9909,-565.2C138.6774,-565.2 131.4931,-565.2 115.5,-565.2"/>
<polygon fill="#000000" stroke="#000000" points="156.5,-565.2001 164.5,-568.8 160.5,-565.2 164.5,-565.2 164.5,-565.2 164.5,-565.2 160.5,-565.2 164.5,-561.6 156.5,-565.2001 156.5,-565.2001"/>
<ellipse fill="none" stroke="#000000" cx="153.3" cy="-565.2001" rx="3.2" ry="3.2"/>
</g>
</g>
</svg>
