<?xml version="1.0" encoding="UTF-8" standalone="no"?>
<!DOCTYPE svg PUBLIC "-//W3C//DTD SVG 1.1//EN"
 "http://www.w3.org/Graphics/SVG/1.1/DTD/svg11.dtd">
<!-- Generated by graphviz version 2.40.1 (20161225.0304)
 -->
<!-- Title: twoDegreesRelationshipsDiagram Pages: 1 -->
<svg width="835pt" height="568pt"
 viewBox="0.00 0.00 835.00 568.14" xmlns="http://www.w3.org/2000/svg" xmlns:xlink="http://www.w3.org/1999/xlink">
<g id="graph0" class="graph" transform="scale(1 1) rotate(0) translate(4 564.1393)">
<title>twoDegreesRelationshipsDiagram</title>
<polygon fill="#ffffff" stroke="transparent" points="-4,4 -4,-564.1393 831,-564.1393 831,4 -4,4"/>
<text text-anchor="middle" x="72.4936" y="-7.3" font-family="Helvetica,sans-Serif" font-size="11.00" fill="#000000">Generated by SchemaSpy</text>
<!-- bookings -->
<g id="node1" class="node">
<title>bookings</title>
<g id="a_node1"><a xlink:href="../../tables/bookings.html" xlink:title="bookings" target="_top">
<polygon fill="#ffffff" stroke="transparent" points="490,-58.6393 490,-346.6393 677,-346.6393 677,-58.6393 490,-58.6393"/>
<polygon fill="#f5f5f5" stroke="transparent" points="492.5,-321.6393 492.5,-344.6393 675.5,-344.6393 675.5,-321.6393 492.5,-321.6393"/>
<polygon fill="none" stroke="#000000" points="492.5,-321.6393 492.5,-344.6393 675.5,-344.6393 675.5,-321.6393 492.5,-321.6393"/>
<text text-anchor="start" x="497.5" y="-330.7393" font-family="Helvetica,sans-Serif" font-weight="bold" font-size="11.00" fill="#000000">bookings</text>
<text text-anchor="start" x="640.5437" y="-329.7393" font-family="Helvetica,sans-Serif" font-size="11.00" fill="#000000">[table]</text>
<polygon fill="none" stroke="#000000" points="492.5,-299.6393 492.5,-321.6393 585.5,-321.6393 585.5,-299.6393 492.5,-299.6393"/>
<image xlink:href="../../images/primaryKeys.png" width="11px" height="12px" preserveAspectRatio="xMinYMin meet" x="497.5" y="-316.639"/>
<text text-anchor="start" x="512.5" y="-306.7393" font-family="Helvetica,sans-Serif" font-size="11.00" fill="#000000">id</text>
<polygon fill="none" stroke="#000000" points="585.5,-299.6393 585.5,-321.6393 675.5,-321.6393 675.5,-299.6393 585.5,-299.6393"/>
<text text-anchor="start" x="588.5" y="-307.3393" font-family="Helvetica,sans-Serif" font-size="11.00" fill="#000000">bigserial[19]</text>
<polygon fill="#ffffff" stroke="transparent" points="492.5,-277.6393 492.5,-299.6393 585.5,-299.6393 585.5,-277.6393 492.5,-277.6393"/>
<polygon fill="none" stroke="#000000" points="492.5,-277.6393 492.5,-299.6393 585.5,-299.6393 585.5,-277.6393 492.5,-277.6393"/>
<image xlink:href="../../images/foreignKeys.png" width="11px" height="12px" preserveAspectRatio="xMinYMin meet" x="497.5" y="-294.639"/>
<text text-anchor="start" x="512.5" y="-284.7393" font-family="Helvetica,sans-Serif" font-size="11.00" fill="#000000">shop_id</text>
<polygon fill="none" stroke="#000000" points="585.5,-277.6393 585.5,-299.6393 675.5,-299.6393 675.5,-277.6393 585.5,-277.6393"/>
<text text-anchor="start" x="588.5" y="-285.3393" font-family="Helvetica,sans-Serif" font-size="11.00" fill="#000000">int8[19]</text>
<polygon fill="#ffffff" stroke="transparent" points="492.5,-255.6393 492.5,-277.6393 585.5,-277.6393 585.5,-255.6393 492.5,-255.6393"/>
<polygon fill="none" stroke="#000000" points="492.5,-255.6393 492.5,-277.6393 585.5,-277.6393 585.5,-255.6393 492.5,-255.6393"/>
<image xlink:href="../../images/foreignKeys.png" width="11px" height="12px" preserveAspectRatio="xMinYMin meet" x="497.5" y="-272.639"/>
<text text-anchor="start" x="512.5" y="-262.7393" font-family="Helvetica,sans-Serif" font-size="11.00" fill="#000000">customer_id</text>
<polygon fill="none" stroke="#000000" points="585.5,-255.6393 585.5,-277.6393 675.5,-277.6393 675.5,-255.6393 585.5,-255.6393"/>
<text text-anchor="start" x="588.5" y="-263.3393" font-family="Helvetica,sans-Serif" font-size="11.00" fill="#000000">int8[19]</text>
<polygon fill="#ffffff" stroke="transparent" points="492.5,-233.6393 492.5,-255.6393 585.5,-255.6393 585.5,-233.6393 492.5,-233.6393"/>
<polygon fill="none" stroke="#000000" points="492.5,-233.6393 492.5,-255.6393 585.5,-255.6393 585.5,-233.6393 492.5,-233.6393"/>
<image xlink:href="../../images/foreignKeys.png" width="11px" height="12px" preserveAspectRatio="xMinYMin meet" x="497.5" y="-250.639"/>
<text text-anchor="start" x="512.5" y="-240.7393" font-family="Helvetica,sans-Serif" font-size="11.00" fill="#000000">employee_id</text>
<polygon fill="none" stroke="#000000" points="585.5,-233.6393 585.5,-255.6393 675.5,-255.6393 675.5,-233.6393 585.5,-233.6393"/>
<text text-anchor="start" x="588.5" y="-241.3393" font-family="Helvetica,sans-Serif" font-size="11.00" fill="#000000">int8[19]</text>
<polygon fill="none" stroke="#000000" points="492.5,-211.6393 492.5,-233.6393 585.5,-233.6393 585.5,-211.6393 492.5,-211.6393"/>
<image xlink:href="../../images/foreignKeys.png" width="11px" height="12px" preserveAspectRatio="xMinYMin meet" x="497.5" y="-228.639"/>
<text text-anchor="start" x="512.5" y="-218.7393" font-family="Helvetica,sans-Serif" font-size="11.00" fill="#000000">service_id</text>
<polygon fill="none" stroke="#000000" points="585.5,-211.6393 585.5,-233.6393 675.5,-233.6393 675.5,-211.6393 585.5,-211.6393"/>
<text text-anchor="start" x="588.5" y="-219.3393" font-family="Helvetica,sans-Serif" font-size="11.00" fill="#000000">int8[19]</text>
<polygon fill="none" stroke="#000000" points="492.5,-189.6393 492.5,-211.6393 585.5,-211.6393 585.5,-189.6393 492.5,-189.6393"/>
<text text-anchor="start" x="512.5" y="-196.7393" font-family="Helvetica,sans-Serif" font-size="11.00" fill="#000000">start_time</text>
<polygon fill="none" stroke="#000000" points="585.5,-189.6393 585.5,-211.6393 675.5,-211.6393 675.5,-189.6393 585.5,-189.6393"/>
<text text-anchor="start" x="588.5" y="-197.3393" font-family="Helvetica,sans-Serif" font-size="11.00" fill="#000000">timestamp[29,6]</text>
<polygon fill="none" stroke="#000000" points="492.5,-167.6393 492.5,-189.6393 585.5,-189.6393 585.5,-167.6393 492.5,-167.6393"/>
<text text-anchor="start" x="512.5" y="-174.7393" font-family="Helvetica,sans-Serif" font-size="11.00" fill="#000000">end_time</text>
<polygon fill="none" stroke="#000000" points="585.5,-167.6393 585.5,-189.6393 675.5,-189.6393 675.5,-167.6393 585.5,-167.6393"/>
<text text-anchor="start" x="588.5" y="-175.3393" font-family="Helvetica,sans-Serif" font-size="11.00" fill="#000000">timestamp[29,6]</text>
<polygon fill="none" stroke="#000000" points="492.5,-145.6393 492.5,-167.6393 585.5,-167.6393 585.5,-145.6393 492.5,-145.6393"/>
<text text-anchor="start" x="512.5" y="-152.7393" font-family="Helvetica,sans-Serif" font-size="11.00" fill="#000000">status</text>
<polygon fill="none" stroke="#000000" points="585.5,-145.6393 585.5,-167.6393 675.5,-167.6393 675.5,-145.6393 585.5,-145.6393"/>
<text text-anchor="start" x="588.5" y="-153.3393" font-family="Helvetica,sans-Serif" font-size="11.00" fill="#000000">varchar[20]</text>
<polygon fill="none" stroke="#000000" points="492.5,-123.6393 492.5,-145.6393 585.5,-145.6393 585.5,-123.6393 492.5,-123.6393"/>
<text text-anchor="start" x="512.5" y="-130.7393" font-family="Helvetica,sans-Serif" font-size="11.00" fill="#000000">notes</text>
<polygon fill="none" stroke="#000000" points="585.5,-123.6393 585.5,-145.6393 675.5,-145.6393 675.5,-123.6393 585.5,-123.6393"/>
<text text-anchor="start" x="588.0043" y="-131.3393" font-family="Helvetica,sans-Serif" font-size="11.00" fill="#000000">text[2147483647]</text>
<polygon fill="none" stroke="#000000" points="492.5,-101.6393 492.5,-123.6393 585.5,-123.6393 585.5,-101.6393 492.5,-101.6393"/>
<text text-anchor="start" x="512.5" y="-108.7393" font-family="Helvetica,sans-Serif" font-size="11.00" fill="#000000">created_at</text>
<polygon fill="none" stroke="#000000" points="585.5,-101.6393 585.5,-123.6393 675.5,-123.6393 675.5,-101.6393 585.5,-101.6393"/>
<text text-anchor="start" x="588.5" y="-109.3393" font-family="Helvetica,sans-Serif" font-size="11.00" fill="#000000">timestamp[29,6]</text>
<polygon fill="none" stroke="#000000" points="492.5,-79.6393 492.5,-101.6393 585.5,-101.6393 585.5,-79.6393 492.5,-79.6393"/>
<text text-anchor="start" x="512.5" y="-86.7393" font-family="Helvetica,sans-Serif" font-size="11.00" fill="#000000">updated_at</text>
<polygon fill="none" stroke="#000000" points="585.5,-79.6393 585.5,-101.6393 675.5,-101.6393 675.5,-79.6393 585.5,-79.6393"/>
<text text-anchor="start" x="588.5" y="-87.3393" font-family="Helvetica,sans-Serif" font-size="11.00" fill="#000000">timestamp[29,6]</text>
<polygon fill="#ffffff" stroke="transparent" points="492.5,-60.6393 492.5,-79.6393 530.5,-79.6393 530.5,-60.6393 492.5,-60.6393"/>
<polygon fill="none" stroke="#000000" points="492.5,-60.6393 492.5,-79.6393 530.5,-79.6393 530.5,-60.6393 492.5,-60.6393"/>
<text text-anchor="start" x="495.5" y="-66.7393" font-family="Helvetica,sans-Serif" font-size="11.00" fill="#000000">&lt; 4</text>
<polygon fill="#ffffff" stroke="transparent" points="530.5,-60.6393 530.5,-79.6393 585.5,-79.6393 585.5,-60.6393 530.5,-60.6393"/>
<polygon fill="none" stroke="#000000" points="530.5,-60.6393 530.5,-79.6393 585.5,-79.6393 585.5,-60.6393 530.5,-60.6393"/>
<text text-anchor="start" x="550.1105" y="-66.7393" font-family="Helvetica,sans-Serif" font-size="11.00" fill="#000000">0 rows</text>
<polygon fill="#ffffff" stroke="transparent" points="585.5,-60.6393 585.5,-79.6393 675.5,-79.6393 675.5,-60.6393 585.5,-60.6393"/>
<polygon fill="none" stroke="#000000" points="585.5,-60.6393 585.5,-79.6393 675.5,-79.6393 675.5,-60.6393 585.5,-60.6393"/>
<text text-anchor="start" x="656.9053" y="-66.7393" font-family="Helvetica,sans-Serif" font-size="11.00" fill="#000000">1 &gt;</text>
<polygon fill="none" stroke="#000000" stroke-width="2" points="491,-59.6393 491,-345.6393 676,-345.6393 676,-59.6393 491,-59.6393"/>
</a>
</g>
</g>
<!-- users -->
<g id="node2" class="node">
<title>users</title>
<g id="a_node2"><a xlink:href="../../tables/users.html" xlink:title="users" target="_top">
<polygon fill="#ffffff" stroke="transparent" points="8,-190.1393 8,-295.1393 115,-295.1393 115,-190.1393 8,-190.1393"/>
<polygon fill="#f5f5f5" stroke="transparent" points="8.5,-271.6393 8.5,-294.6393 115.5,-294.6393 115.5,-271.6393 8.5,-271.6393"/>
<polygon fill="none" stroke="#000000" points="8.5,-271.6393 8.5,-294.6393 115.5,-294.6393 115.5,-271.6393 8.5,-271.6393"/>
<text text-anchor="start" x="13.5" y="-280.7393" font-family="Helvetica,sans-Serif" font-weight="bold" font-size="11.00" fill="#000000">users</text>
<text text-anchor="start" x="80.5437" y="-279.7393" font-family="Helvetica,sans-Serif" font-size="11.00" fill="#000000">[table]</text>
<polygon fill="none" stroke="#000000" points="8.5,-249.6393 8.5,-271.6393 115.5,-271.6393 115.5,-249.6393 8.5,-249.6393"/>
<image xlink:href="../../images/primaryKeys.png" width="11px" height="12px" preserveAspectRatio="xMinYMin meet" x="13.5" y="-266.639"/>
<text text-anchor="start" x="28.5" y="-256.7393" font-family="Helvetica,sans-Serif" font-size="11.00" fill="#000000">id</text>
<polygon fill="#ffffff" stroke="transparent" points="8.5,-227.6393 8.5,-249.6393 115.5,-249.6393 115.5,-227.6393 8.5,-227.6393"/>
<polygon fill="none" stroke="#000000" points="8.5,-227.6393 8.5,-249.6393 115.5,-249.6393 115.5,-227.6393 8.5,-227.6393"/>
<text text-anchor="start" x="28.5" y="-234.7393" font-family="Helvetica,sans-Serif" font-size="11.00" fill="#000000">email</text>
<polygon fill="none" stroke="#000000" points="8.5,-208.6393 8.5,-227.6393 115.5,-227.6393 115.5,-208.6393 8.5,-208.6393"/>
<text text-anchor="start" x="11.5" y="-214.7393" font-family="Helvetica,sans-Serif" font-size="11.00" fill="#000000">...</text>
<polygon fill="#ffffff" stroke="transparent" points="8.5,-189.6393 8.5,-208.6393 38.5,-208.6393 38.5,-189.6393 8.5,-189.6393"/>
<polygon fill="none" stroke="#000000" points="8.5,-189.6393 8.5,-208.6393 38.5,-208.6393 38.5,-189.6393 8.5,-189.6393"/>
<text text-anchor="start" x="11.5" y="-195.7393" font-family="Helvetica,sans-Serif" font-size="11.00" fill="#000000"> &#160;</text>
<polygon fill="#ffffff" stroke="transparent" points="38.5,-189.6393 38.5,-208.6393 85.5,-208.6393 85.5,-189.6393 38.5,-189.6393"/>
<polygon fill="none" stroke="#000000" points="38.5,-189.6393 38.5,-208.6393 85.5,-208.6393 85.5,-189.6393 38.5,-189.6393"/>
<text text-anchor="start" x="50.1105" y="-195.7393" font-family="Helvetica,sans-Serif" font-size="11.00" fill="#000000">6 rows</text>
<polygon fill="#ffffff" stroke="transparent" points="85.5,-189.6393 85.5,-208.6393 115.5,-208.6393 115.5,-189.6393 85.5,-189.6393"/>
<polygon fill="none" stroke="#000000" points="85.5,-189.6393 85.5,-208.6393 115.5,-208.6393 115.5,-189.6393 85.5,-189.6393"/>
<text text-anchor="start" x="96.9053" y="-195.7393" font-family="Helvetica,sans-Serif" font-size="11.00" fill="#000000">5 &gt;</text>
</a>
</g>
</g>
<!-- bookings&#45;&gt;users -->
<g id="edge1" class="edge">
<title>bookings:w&#45;&gt;users:e</title>
<path fill="none" stroke="#000000" d="M478.1727,-264.9568C421.8437,-249.4779 510.5252,-131.3151 449,-82.6393 346.019,-1.1656 250.8116,-29.7887 156,-120.6393 109.2317,-165.4537 180.2735,-260.6393 115.5,-260.6393"/>
<polygon fill="#000000" stroke="#000000" points="484.5546,-265.7062 492.0801,-270.2147 488.5273,-266.1727 492.5,-266.6393 492.5,-266.6393 492.5,-266.6393 488.5273,-266.1727 492.9199,-263.0638 484.5546,-265.7062 484.5546,-265.7062"/>
<ellipse fill="none" stroke="#000000" cx="481.3764" cy="-265.3329" rx="3.2" ry="3.2"/>
</g>
<!-- employees -->
<g id="node3" class="node">
<title>employees</title>
<g id="a_node3"><a xlink:href="../../tables/employees.html" xlink:title="employees" target="_top">
<polygon fill="#ffffff" stroke="transparent" points="332,-329.1393 332,-456.1393 429,-456.1393 429,-329.1393 332,-329.1393"/>
<polygon fill="#f5f5f5" stroke="transparent" points="332.5,-432.6393 332.5,-455.6393 429.5,-455.6393 429.5,-432.6393 332.5,-432.6393"/>
<polygon fill="none" stroke="#000000" points="332.5,-432.6393 332.5,-455.6393 429.5,-455.6393 429.5,-432.6393 332.5,-432.6393"/>
<text text-anchor="start" x="337.5" y="-441.7393" font-family="Helvetica,sans-Serif" font-weight="bold" font-size="11.00" fill="#000000">employees</text>
<text text-anchor="start" x="395.0219" y="-440.7393" font-family="Helvetica,sans-Serif" font-size="11.00" fill="#000000">[table]</text>
<polygon fill="none" stroke="#000000" points="332.5,-410.6393 332.5,-432.6393 429.5,-432.6393 429.5,-410.6393 332.5,-410.6393"/>
<image xlink:href="../../images/primaryKeys.png" width="11px" height="12px" preserveAspectRatio="xMinYMin meet" x="337.5" y="-427.639"/>
<text text-anchor="start" x="352.5" y="-417.7393" font-family="Helvetica,sans-Serif" font-size="11.00" fill="#000000">id</text>
<polygon fill="#ffffff" stroke="transparent" points="332.5,-388.6393 332.5,-410.6393 429.5,-410.6393 429.5,-388.6393 332.5,-388.6393"/>
<polygon fill="none" stroke="#000000" points="332.5,-388.6393 332.5,-410.6393 429.5,-410.6393 429.5,-388.6393 332.5,-388.6393"/>
<image xlink:href="../../images/foreignKeys.png" width="11px" height="12px" preserveAspectRatio="xMinYMin meet" x="337.5" y="-405.639"/>
<text text-anchor="start" x="352.5" y="-395.7393" font-family="Helvetica,sans-Serif" font-size="11.00" fill="#000000">shop_id</text>
<polygon fill="#ffffff" stroke="transparent" points="332.5,-366.6393 332.5,-388.6393 429.5,-388.6393 429.5,-366.6393 332.5,-366.6393"/>
<polygon fill="none" stroke="#000000" points="332.5,-366.6393 332.5,-388.6393 429.5,-388.6393 429.5,-366.6393 332.5,-366.6393"/>
<image xlink:href="../../images/foreignKeys.png" width="11px" height="12px" preserveAspectRatio="xMinYMin meet" x="337.5" y="-383.639"/>
<text text-anchor="start" x="352.5" y="-373.7393" font-family="Helvetica,sans-Serif" font-size="11.00" fill="#000000">user_id</text>
<polygon fill="none" stroke="#000000" points="332.5,-347.6393 332.5,-366.6393 429.5,-366.6393 429.5,-347.6393 332.5,-347.6393"/>
<text text-anchor="start" x="335.5" y="-353.7393" font-family="Helvetica,sans-Serif" font-size="11.00" fill="#000000">...</text>
<polygon fill="#ffffff" stroke="transparent" points="332.5,-328.6393 332.5,-347.6393 361.5,-347.6393 361.5,-328.6393 332.5,-328.6393"/>
<polygon fill="none" stroke="#000000" points="332.5,-328.6393 332.5,-347.6393 361.5,-347.6393 361.5,-328.6393 332.5,-328.6393"/>
<text text-anchor="start" x="335.5" y="-334.7393" font-family="Helvetica,sans-Serif" font-size="11.00" fill="#000000">&lt; 2</text>
<polygon fill="#ffffff" stroke="transparent" points="361.5,-328.6393 361.5,-347.6393 403.5,-347.6393 403.5,-328.6393 361.5,-328.6393"/>
<polygon fill="none" stroke="#000000" points="361.5,-328.6393 361.5,-347.6393 403.5,-347.6393 403.5,-328.6393 361.5,-328.6393"/>
<text text-anchor="start" x="368.1105" y="-334.7393" font-family="Helvetica,sans-Serif" font-size="11.00" fill="#000000">0 rows</text>
<polygon fill="#ffffff" stroke="transparent" points="403.5,-328.6393 403.5,-347.6393 429.5,-347.6393 429.5,-328.6393 403.5,-328.6393"/>
<polygon fill="none" stroke="#000000" points="403.5,-328.6393 403.5,-347.6393 429.5,-347.6393 429.5,-328.6393 403.5,-328.6393"/>
<text text-anchor="start" x="410.9053" y="-334.7393" font-family="Helvetica,sans-Serif" font-size="11.00" fill="#000000">3 &gt;</text>
</a>
</g>
</g>
<!-- bookings&#45;&gt;employees -->
<g id="edge2" class="edge">
<title>bookings:w&#45;&gt;employees:e</title>
<path fill="none" stroke="#000000" d="M478.2357,-246.8772C421.9848,-267.3666 507.4562,-421.6393 429.5,-421.6393"/>
<polygon fill="#000000" stroke="#000000" points="484.5967,-245.8793 493.058,-248.1958 488.5483,-245.2593 492.5,-244.6393 492.5,-244.6393 492.5,-244.6393 488.5483,-245.2593 491.942,-241.0828 484.5967,-245.8793 484.5967,-245.8793"/>
<ellipse fill="none" stroke="#000000" cx="481.4353" cy="-246.3753" rx="3.2" ry="3.2"/>
</g>
<!-- services -->
<g id="node4" class="node">
<title>services</title>
<g id="a_node4"><a xlink:href="../../tables/services.html" xlink:title="services" target="_top">
<polygon fill="#ffffff" stroke="transparent" points="320,-175.1393 320,-280.1393 441,-280.1393 441,-175.1393 320,-175.1393"/>
<polygon fill="#f5f5f5" stroke="transparent" points="320.5,-256.6393 320.5,-279.6393 441.5,-279.6393 441.5,-256.6393 320.5,-256.6393"/>
<polygon fill="none" stroke="#000000" points="320.5,-256.6393 320.5,-279.6393 441.5,-279.6393 441.5,-256.6393 320.5,-256.6393"/>
<text text-anchor="start" x="325.5" y="-265.7393" font-family="Helvetica,sans-Serif" font-weight="bold" font-size="11.00" fill="#000000">services</text>
<text text-anchor="start" x="406.5437" y="-264.7393" font-family="Helvetica,sans-Serif" font-size="11.00" fill="#000000">[table]</text>
<polygon fill="none" stroke="#000000" points="320.5,-234.6393 320.5,-256.6393 441.5,-256.6393 441.5,-234.6393 320.5,-234.6393"/>
<image xlink:href="../../images/primaryKeys.png" width="11px" height="12px" preserveAspectRatio="xMinYMin meet" x="325.5" y="-251.639"/>
<text text-anchor="start" x="340.5" y="-241.7393" font-family="Helvetica,sans-Serif" font-size="11.00" fill="#000000">id</text>
<polygon fill="#ffffff" stroke="transparent" points="320.5,-212.6393 320.5,-234.6393 441.5,-234.6393 441.5,-212.6393 320.5,-212.6393"/>
<polygon fill="none" stroke="#000000" points="320.5,-212.6393 320.5,-234.6393 441.5,-234.6393 441.5,-212.6393 320.5,-212.6393"/>
<image xlink:href="../../images/foreignKeys.png" width="11px" height="12px" preserveAspectRatio="xMinYMin meet" x="325.5" y="-229.639"/>
<text text-anchor="start" x="340.5" y="-219.7393" font-family="Helvetica,sans-Serif" font-size="11.00" fill="#000000">shop_id</text>
<polygon fill="none" stroke="#000000" points="320.5,-193.6393 320.5,-212.6393 441.5,-212.6393 441.5,-193.6393 320.5,-193.6393"/>
<text text-anchor="start" x="323.5" y="-199.7393" font-family="Helvetica,sans-Serif" font-size="11.00" fill="#000000">...</text>
<polygon fill="#ffffff" stroke="transparent" points="320.5,-174.6393 320.5,-193.6393 361.5,-193.6393 361.5,-174.6393 320.5,-174.6393"/>
<polygon fill="none" stroke="#000000" points="320.5,-174.6393 320.5,-193.6393 361.5,-193.6393 361.5,-174.6393 320.5,-174.6393"/>
<text text-anchor="start" x="323.5" y="-180.7393" font-family="Helvetica,sans-Serif" font-size="11.00" fill="#000000">&lt; 1</text>
<polygon fill="#ffffff" stroke="transparent" points="361.5,-174.6393 361.5,-193.6393 409.5,-193.6393 409.5,-174.6393 361.5,-174.6393"/>
<polygon fill="none" stroke="#000000" points="361.5,-174.6393 361.5,-193.6393 409.5,-193.6393 409.5,-174.6393 361.5,-174.6393"/>
<text text-anchor="start" x="374.1105" y="-180.7393" font-family="Helvetica,sans-Serif" font-size="11.00" fill="#000000">0 rows</text>
<polygon fill="#ffffff" stroke="transparent" points="409.5,-174.6393 409.5,-193.6393 441.5,-193.6393 441.5,-174.6393 409.5,-174.6393"/>
<polygon fill="none" stroke="#000000" points="409.5,-174.6393 409.5,-193.6393 441.5,-193.6393 441.5,-174.6393 409.5,-174.6393"/>
<text text-anchor="start" x="422.9053" y="-180.7393" font-family="Helvetica,sans-Serif" font-size="11.00" fill="#000000">2 &gt;</text>
</a>
</g>
</g>
<!-- bookings&#45;&gt;services -->
<g id="edge3" class="edge">
<title>bookings:w&#45;&gt;services:e</title>
<path fill="none" stroke="#000000" d="M478.2976,-225.8373C465.7436,-232.1571 460.5373,-245.6393 441.5,-245.6393"/>
<polygon fill="#000000" stroke="#000000" points="484.6954,-224.3967 493.2909,-226.1513 488.5977,-223.518 492.5,-222.6393 492.5,-222.6393 492.5,-222.6393 488.5977,-223.518 491.7091,-219.1272 484.6954,-224.3967 484.6954,-224.3967"/>
<ellipse fill="none" stroke="#000000" cx="481.5736" cy="-225.0997" rx="3.2" ry="3.2"/>
</g>
<!-- shops -->
<g id="node5" class="node">
<title>shops</title>
<g id="a_node5"><a xlink:href="../../tables/shops.html" xlink:title="shops" target="_top">
<polygon fill="#ffffff" stroke="transparent" points="164,-212.1393 164,-339.1393 271,-339.1393 271,-212.1393 164,-212.1393"/>
<polygon fill="#f5f5f5" stroke="transparent" points="164.5,-315.6393 164.5,-338.6393 271.5,-338.6393 271.5,-315.6393 164.5,-315.6393"/>
<polygon fill="none" stroke="#000000" points="164.5,-315.6393 164.5,-338.6393 271.5,-338.6393 271.5,-315.6393 164.5,-315.6393"/>
<text text-anchor="start" x="169.5" y="-324.7393" font-family="Helvetica,sans-Serif" font-weight="bold" font-size="11.00" fill="#000000">shops</text>
<text text-anchor="start" x="236.5437" y="-323.7393" font-family="Helvetica,sans-Serif" font-size="11.00" fill="#000000">[table]</text>
<polygon fill="none" stroke="#000000" points="164.5,-293.6393 164.5,-315.6393 271.5,-315.6393 271.5,-293.6393 164.5,-293.6393"/>
<image xlink:href="../../images/primaryKeys.png" width="11px" height="12px" preserveAspectRatio="xMinYMin meet" x="169.5" y="-310.639"/>
<text text-anchor="start" x="184.5" y="-300.7393" font-family="Helvetica,sans-Serif" font-size="11.00" fill="#000000">id</text>
<polygon fill="#ffffff" stroke="transparent" points="164.5,-271.6393 164.5,-293.6393 271.5,-293.6393 271.5,-271.6393 164.5,-271.6393"/>
<polygon fill="none" stroke="#000000" points="164.5,-271.6393 164.5,-293.6393 271.5,-293.6393 271.5,-271.6393 164.5,-271.6393"/>
<text text-anchor="start" x="184.5" y="-278.7393" font-family="Helvetica,sans-Serif" font-size="11.00" fill="#000000">city</text>
<polygon fill="#ffffff" stroke="transparent" points="164.5,-249.6393 164.5,-271.6393 271.5,-271.6393 271.5,-249.6393 164.5,-249.6393"/>
<polygon fill="none" stroke="#000000" points="164.5,-249.6393 164.5,-271.6393 271.5,-271.6393 271.5,-249.6393 164.5,-249.6393"/>
<image xlink:href="../../images/foreignKeys.png" width="11px" height="12px" preserveAspectRatio="xMinYMin meet" x="169.5" y="-266.639"/>
<text text-anchor="start" x="184.5" y="-256.7393" font-family="Helvetica,sans-Serif" font-size="11.00" fill="#000000">owner_id</text>
<polygon fill="none" stroke="#000000" points="164.5,-230.6393 164.5,-249.6393 271.5,-249.6393 271.5,-230.6393 164.5,-230.6393"/>
<text text-anchor="start" x="167.5" y="-236.7393" font-family="Helvetica,sans-Serif" font-size="11.00" fill="#000000">...</text>
<polygon fill="#ffffff" stroke="transparent" points="164.5,-211.6393 164.5,-230.6393 201.5,-230.6393 201.5,-211.6393 164.5,-211.6393"/>
<polygon fill="none" stroke="#000000" points="164.5,-211.6393 164.5,-230.6393 201.5,-230.6393 201.5,-211.6393 164.5,-211.6393"/>
<text text-anchor="start" x="167.5" y="-217.7393" font-family="Helvetica,sans-Serif" font-size="11.00" fill="#000000">&lt; 1</text>
<polygon fill="#ffffff" stroke="transparent" points="201.5,-211.6393 201.5,-230.6393 241.5,-230.6393 241.5,-211.6393 201.5,-211.6393"/>
<polygon fill="none" stroke="#000000" points="201.5,-211.6393 201.5,-230.6393 241.5,-230.6393 241.5,-211.6393 201.5,-211.6393"/>
<text text-anchor="start" x="211.6105" y="-217.7393" font-family="Helvetica,sans-Serif" font-size="11.00" fill="#000000">1 row</text>
<polygon fill="#ffffff" stroke="transparent" points="241.5,-211.6393 241.5,-230.6393 271.5,-230.6393 271.5,-211.6393 241.5,-211.6393"/>
<polygon fill="none" stroke="#000000" points="241.5,-211.6393 241.5,-230.6393 271.5,-230.6393 271.5,-211.6393 241.5,-211.6393"/>
<text text-anchor="start" x="252.9053" y="-217.7393" font-family="Helvetica,sans-Serif" font-size="11.00" fill="#000000">5 &gt;</text>
</a>
</g>
</g>
<!-- bookings&#45;&gt;shops -->
<g id="edge4" class="edge">
<title>bookings:w&#45;&gt;shops:e</title>
<path fill="none" stroke="#000000" d="M477.9182,-288.9883C422.2896,-291.3282 316.4119,-304.6393 271.5,-304.6393"/>
<polygon fill="#000000" stroke="#000000" points="484.5023,-288.8308 492.5862,-292.2382 488.5011,-288.735 492.5,-288.6393 492.5,-288.6393 492.5,-288.6393 488.5011,-288.735 492.4138,-285.0403 484.5023,-288.8308 484.5023,-288.8308"/>
<ellipse fill="none" stroke="#000000" cx="481.3032" cy="-288.9074" rx="3.2" ry="3.2"/>
</g>
<!-- employees&#45;&gt;users -->
<g id="edge8" class="edge">
<title>employees:w&#45;&gt;users:e</title>
<path fill="none" stroke="#000000" d="M317.69,-377.8661C248.5865,-379.9471 215.1298,-394.6402 156,-349.6393 121.4175,-323.3202 158.9585,-260.6393 115.5,-260.6393"/>
<polygon fill="#000000" stroke="#000000" points="324.5009,-377.7619 332.5552,-381.2389 328.5005,-377.7006 332.5,-377.6393 332.5,-377.6393 332.5,-377.6393 328.5005,-377.7006 332.4448,-374.0397 324.5009,-377.7619 324.5009,-377.7619"/>
<ellipse fill="none" stroke="#000000" cx="321.3013" cy="-377.8109" rx="3.2" ry="3.2"/>
</g>
<!-- employees&#45;&gt;shops -->
<g id="edge7" class="edge">
<title>employees:w&#45;&gt;shops:e</title>
<path fill="none" stroke="#000000" d="M318.26,-396.0312C290.3171,-378.6783 315.7969,-304.6393 271.5,-304.6393"/>
<polygon fill="#000000" stroke="#000000" points="324.7451,-397.6743 331.6158,-403.129 328.6225,-398.6568 332.5,-399.6393 332.5,-399.6393 332.5,-399.6393 328.6225,-398.6568 333.3842,-396.1496 324.7451,-397.6743 324.7451,-397.6743"/>
<ellipse fill="none" stroke="#000000" cx="321.6431" cy="-396.8883" rx="3.2" ry="3.2"/>
</g>
<!-- services&#45;&gt;shops -->
<g id="edge15" class="edge">
<title>services:w&#45;&gt;shops:e</title>
<path fill="none" stroke="#000000" d="M306.6299,-228.2263C286.9726,-245.3613 307.4935,-304.6393 271.5,-304.6393"/>
<polygon fill="#000000" stroke="#000000" points="312.9046,-226.1512 321.6304,-227.0572 316.7023,-224.8952 320.5,-223.6393 320.5,-223.6393 320.5,-223.6393 316.7023,-224.8952 319.3696,-220.2213 312.9046,-226.1512 312.9046,-226.1512"/>
<ellipse fill="none" stroke="#000000" cx="309.8664" cy="-227.156" rx="3.2" ry="3.2"/>
</g>
<!-- shops&#45;&gt;users -->
<g id="edge16" class="edge">
<title>shops:w&#45;&gt;users:e</title>
<path fill="none" stroke="#000000" d="M149.9909,-260.6393C138.6774,-260.6393 131.4931,-260.6393 115.5,-260.6393"/>
<polygon fill="#000000" stroke="#000000" points="156.5,-260.6393 164.5,-264.2393 160.5,-260.6393 164.5,-260.6393 164.5,-260.6393 164.5,-260.6393 160.5,-260.6393 164.5,-257.0393 156.5,-260.6393 156.5,-260.6393"/>
<ellipse fill="none" stroke="#000000" cx="153.3" cy="-260.6394" rx="3.2" ry="3.2"/>
</g>
<!-- employee_services -->
<g id="node6" class="node">
<title>employee_services</title>
<g id="a_node6"><a xlink:href="../../tables/employee_services.html" xlink:title="employee_services" target="_top">
<polygon fill="#ffffff" stroke="transparent" points="515,-368.1393 515,-429.1393 652,-429.1393 652,-368.1393 515,-368.1393"/>
<polygon fill="#f5f5f5" stroke="transparent" points="515.5,-405.6393 515.5,-428.6393 652.5,-428.6393 652.5,-405.6393 515.5,-405.6393"/>
<polygon fill="none" stroke="#000000" points="515.5,-405.6393 515.5,-428.6393 652.5,-428.6393 652.5,-405.6393 515.5,-405.6393"/>
<text text-anchor="start" x="520.4376" y="-414.7393" font-family="Helvetica,sans-Serif" font-weight="bold" font-size="11.00" fill="#000000">employee_services</text>
<text text-anchor="start" x="618.0219" y="-413.7393" font-family="Helvetica,sans-Serif" font-size="11.00" fill="#000000">[table]</text>
<polygon fill="none" stroke="#000000" points="515.5,-386.6393 515.5,-405.6393 652.5,-405.6393 652.5,-386.6393 515.5,-386.6393"/>
<text text-anchor="start" x="518.5" y="-392.7393" font-family="Helvetica,sans-Serif" font-size="11.00" fill="#000000">...</text>
<polygon fill="#ffffff" stroke="transparent" points="515.5,-367.6393 515.5,-386.6393 569.5,-386.6393 569.5,-367.6393 515.5,-367.6393"/>
<polygon fill="none" stroke="#000000" points="515.5,-367.6393 515.5,-386.6393 569.5,-386.6393 569.5,-367.6393 515.5,-367.6393"/>
<text text-anchor="start" x="518.5" y="-373.7393" font-family="Helvetica,sans-Serif" font-size="11.00" fill="#000000">&lt; 2</text>
<polygon fill="#ffffff" stroke="transparent" points="569.5,-367.6393 569.5,-386.6393 623.5,-386.6393 623.5,-367.6393 569.5,-367.6393"/>
<polygon fill="none" stroke="#000000" points="569.5,-367.6393 569.5,-386.6393 623.5,-386.6393 623.5,-367.6393 569.5,-367.6393"/>
<text text-anchor="start" x="588.1105" y="-373.7393" font-family="Helvetica,sans-Serif" font-size="11.00" fill="#000000">0 rows</text>
<polygon fill="#ffffff" stroke="transparent" points="623.5,-367.6393 623.5,-386.6393 652.5,-386.6393 652.5,-367.6393 623.5,-367.6393"/>
<polygon fill="none" stroke="#000000" points="623.5,-367.6393 623.5,-386.6393 652.5,-386.6393 652.5,-367.6393 623.5,-367.6393"/>
<text text-anchor="start" x="643.3862" y="-373.7393" font-family="Helvetica,sans-Serif" font-size="11.00" fill="#000000"> &#160;</text>
</a>
</g>
</g>
<!-- employee_services&#45;&gt;employees -->
<g id="edge5" class="edge">
<title>employee_services:w&#45;&gt;employees:e</title>
<path fill="none" stroke="#000000" d="M500.8444,-396.9644C473.2591,-402.2627 463.9715,-421.6393 429.5,-421.6393"/>
<polygon fill="#000000" stroke="#000000" points="507.5325,-396.3597 515.8242,-399.2247 511.5163,-395.9995 515.5,-395.6393 515.5,-395.6393 515.5,-395.6393 511.5163,-395.9995 515.1758,-392.0539 507.5325,-396.3597 507.5325,-396.3597"/>
<ellipse fill="none" stroke="#000000" cx="504.3455" cy="-396.6479" rx="3.2" ry="3.2"/>
</g>
<!-- employee_services&#45;&gt;services -->
<g id="edge6" class="edge">
<title>employee_services:w&#45;&gt;services:e</title>
<path fill="none" stroke="#000000" d="M501.2889,-393.2831C451.426,-374.1999 510.3206,-245.6393 441.5,-245.6393"/>
<polygon fill="#000000" stroke="#000000" points="507.6077,-394.3307 514.9112,-399.1908 511.5539,-394.985 515.5,-395.6393 515.5,-395.6393 515.5,-395.6393 511.5539,-394.985 516.0888,-392.0878 507.6077,-394.3307 507.6077,-394.3307"/>
<ellipse fill="none" stroke="#000000" cx="504.4508" cy="-393.8073" rx="3.2" ry="3.2"/>
</g>
<!-- favorite_shops -->
<g id="node7" class="node">
<title>favorite_shops</title>
<g id="a_node7"><a xlink:href="../../tables/favorite_shops.html" xlink:title="favorite_shops" target="_top">
<polygon fill="#ffffff" stroke="transparent" points="323.5,-93.1393 323.5,-154.1393 437.5,-154.1393 437.5,-93.1393 323.5,-93.1393"/>
<polygon fill="#f5f5f5" stroke="transparent" points="323.5,-130.6393 323.5,-153.6393 437.5,-153.6393 437.5,-130.6393 323.5,-130.6393"/>
<polygon fill="none" stroke="#000000" points="323.5,-130.6393 323.5,-153.6393 437.5,-153.6393 437.5,-130.6393 323.5,-130.6393"/>
<text text-anchor="start" x="328.2396" y="-139.7393" font-family="Helvetica,sans-Serif" font-weight="bold" font-size="11.00" fill="#000000">favorite_shops</text>
<text text-anchor="start" x="403.0219" y="-138.7393" font-family="Helvetica,sans-Serif" font-size="11.00" fill="#000000">[table]</text>
<polygon fill="none" stroke="#000000" points="323.5,-111.6393 323.5,-130.6393 437.5,-130.6393 437.5,-111.6393 323.5,-111.6393"/>
<text text-anchor="start" x="326.5" y="-117.7393" font-family="Helvetica,sans-Serif" font-size="11.00" fill="#000000">...</text>
<polygon fill="#ffffff" stroke="transparent" points="323.5,-92.6393 323.5,-111.6393 365.5,-111.6393 365.5,-92.6393 323.5,-92.6393"/>
<polygon fill="none" stroke="#000000" points="323.5,-92.6393 323.5,-111.6393 365.5,-111.6393 365.5,-92.6393 323.5,-92.6393"/>
<text text-anchor="start" x="326.5" y="-98.7393" font-family="Helvetica,sans-Serif" font-size="11.00" fill="#000000">&lt; 2</text>
<polygon fill="#ffffff" stroke="transparent" points="365.5,-92.6393 365.5,-111.6393 414.5,-111.6393 414.5,-92.6393 365.5,-92.6393"/>
<polygon fill="none" stroke="#000000" points="365.5,-92.6393 365.5,-111.6393 414.5,-111.6393 414.5,-92.6393 365.5,-92.6393"/>
<text text-anchor="start" x="379.1105" y="-98.7393" font-family="Helvetica,sans-Serif" font-size="11.00" fill="#000000">0 rows</text>
<polygon fill="#ffffff" stroke="transparent" points="414.5,-92.6393 414.5,-111.6393 437.5,-111.6393 437.5,-92.6393 414.5,-92.6393"/>
<polygon fill="none" stroke="#000000" points="414.5,-92.6393 414.5,-111.6393 437.5,-111.6393 437.5,-92.6393 414.5,-92.6393"/>
<text text-anchor="start" x="428.3862" y="-98.7393" font-family="Helvetica,sans-Serif" font-size="11.00" fill="#000000"> &#160;</text>
</a>
</g>
</g>
<!-- favorite_shops&#45;&gt;users -->
<g id="edge10" class="edge">
<title>favorite_shops:w&#45;&gt;users:e</title>
<path fill="none" stroke="#000000" d="M308.6807,-120.9569C237.8882,-124.1326 214.7998,-151.1168 156,-201.6393 131.8762,-222.3672 147.3057,-260.6393 115.5,-260.6393"/>
<polygon fill="#000000" stroke="#000000" points="315.5018,-120.8107 323.5772,-124.2385 319.5009,-120.725 323.5,-120.6393 323.5,-120.6393 323.5,-120.6393 319.5009,-120.725 323.4228,-117.0401 315.5018,-120.8107 315.5018,-120.8107"/>
<ellipse fill="none" stroke="#000000" cx="312.3026" cy="-120.8793" rx="3.2" ry="3.2"/>
</g>
<!-- favorite_shops&#45;&gt;shops -->
<g id="edge9" class="edge">
<title>favorite_shops:w&#45;&gt;shops:e</title>
<path fill="none" stroke="#000000" d="M309.1362,-122.9657C253.2911,-144.2654 350.8375,-304.6393 271.5,-304.6393"/>
<polygon fill="#000000" stroke="#000000" points="315.6029,-121.9184 324.0756,-124.193 319.5515,-121.2788 323.5,-120.6393 323.5,-120.6393 323.5,-120.6393 319.5515,-121.2788 322.9244,-117.0856 315.6029,-121.9184 315.6029,-121.9184"/>
<ellipse fill="none" stroke="#000000" cx="312.4441" cy="-122.43" rx="3.2" ry="3.2"/>
</g>
<!-- reviews -->
<g id="node8" class="node">
<title>reviews</title>
<g id="a_node8"><a xlink:href="../../tables/reviews.html" xlink:title="reviews" target="_top">
<polygon fill="#ffffff" stroke="transparent" points="726,-385.1393 726,-556.1393 819,-556.1393 819,-385.1393 726,-385.1393"/>
<polygon fill="#f5f5f5" stroke="transparent" points="726.5,-532.6393 726.5,-555.6393 819.5,-555.6393 819.5,-532.6393 726.5,-532.6393"/>
<polygon fill="none" stroke="#000000" points="726.5,-532.6393 726.5,-555.6393 819.5,-555.6393 819.5,-532.6393 726.5,-532.6393"/>
<text text-anchor="start" x="731.5" y="-541.7393" font-family="Helvetica,sans-Serif" font-weight="bold" font-size="11.00" fill="#000000">reviews</text>
<text text-anchor="start" x="784.5437" y="-540.7393" font-family="Helvetica,sans-Serif" font-size="11.00" fill="#000000">[table]</text>
<polygon fill="none" stroke="#000000" points="726.5,-510.6393 726.5,-532.6393 819.5,-532.6393 819.5,-510.6393 726.5,-510.6393"/>
<image xlink:href="../../images/primaryKeys.png" width="11px" height="12px" preserveAspectRatio="xMinYMin meet" x="731.5" y="-527.639"/>
<text text-anchor="start" x="746.5" y="-517.7393" font-family="Helvetica,sans-Serif" font-size="11.00" fill="#000000">id</text>
<polygon fill="#ffffff" stroke="transparent" points="726.5,-488.6393 726.5,-510.6393 819.5,-510.6393 819.5,-488.6393 726.5,-488.6393"/>
<polygon fill="none" stroke="#000000" points="726.5,-488.6393 726.5,-510.6393 819.5,-510.6393 819.5,-488.6393 726.5,-488.6393"/>
<image xlink:href="../../images/foreignKeys.png" width="11px" height="12px" preserveAspectRatio="xMinYMin meet" x="731.5" y="-505.639"/>
<text text-anchor="start" x="746.5" y="-495.7393" font-family="Helvetica,sans-Serif" font-size="11.00" fill="#000000">customer_id</text>
<polygon fill="#ffffff" stroke="transparent" points="726.5,-466.6393 726.5,-488.6393 819.5,-488.6393 819.5,-466.6393 726.5,-466.6393"/>
<polygon fill="none" stroke="#000000" points="726.5,-466.6393 726.5,-488.6393 819.5,-488.6393 819.5,-466.6393 726.5,-466.6393"/>
<image xlink:href="../../images/foreignKeys.png" width="11px" height="12px" preserveAspectRatio="xMinYMin meet" x="731.5" y="-483.639"/>
<text text-anchor="start" x="746.5" y="-473.7393" font-family="Helvetica,sans-Serif" font-size="11.00" fill="#000000">shop_id</text>
<polygon fill="#ffffff" stroke="transparent" points="726.5,-444.6393 726.5,-466.6393 819.5,-466.6393 819.5,-444.6393 726.5,-444.6393"/>
<polygon fill="none" stroke="#000000" points="726.5,-444.6393 726.5,-466.6393 819.5,-466.6393 819.5,-444.6393 726.5,-444.6393"/>
<image xlink:href="../../images/foreignKeys.png" width="11px" height="12px" preserveAspectRatio="xMinYMin meet" x="731.5" y="-461.639"/>
<text text-anchor="start" x="746.5" y="-451.7393" font-family="Helvetica,sans-Serif" font-size="11.00" fill="#000000">employee_id</text>
<polygon fill="none" stroke="#000000" points="726.5,-422.6393 726.5,-444.6393 819.5,-444.6393 819.5,-422.6393 726.5,-422.6393"/>
<image xlink:href="../../images/foreignKeys.png" width="11px" height="12px" preserveAspectRatio="xMinYMin meet" x="731.5" y="-439.639"/>
<text text-anchor="start" x="746.5" y="-429.7393" font-family="Helvetica,sans-Serif" font-size="11.00" fill="#000000">booking_id</text>
<polygon fill="none" stroke="#000000" points="726.5,-403.6393 726.5,-422.6393 819.5,-422.6393 819.5,-403.6393 726.5,-403.6393"/>
<text text-anchor="start" x="729.5" y="-409.7393" font-family="Helvetica,sans-Serif" font-size="11.00" fill="#000000">...</text>
<polygon fill="#ffffff" stroke="transparent" points="726.5,-384.6393 726.5,-403.6393 758.5,-403.6393 758.5,-384.6393 726.5,-384.6393"/>
<polygon fill="none" stroke="#000000" points="726.5,-384.6393 726.5,-403.6393 758.5,-403.6393 758.5,-384.6393 726.5,-384.6393"/>
<text text-anchor="start" x="729.5" y="-390.7393" font-family="Helvetica,sans-Serif" font-size="11.00" fill="#000000">&lt; 4</text>
<polygon fill="#ffffff" stroke="transparent" points="758.5,-384.6393 758.5,-403.6393 801.5,-403.6393 801.5,-384.6393 758.5,-384.6393"/>
<polygon fill="none" stroke="#000000" points="758.5,-384.6393 758.5,-403.6393 801.5,-403.6393 801.5,-384.6393 758.5,-384.6393"/>
<text text-anchor="start" x="766.1105" y="-390.7393" font-family="Helvetica,sans-Serif" font-size="11.00" fill="#000000">0 rows</text>
<polygon fill="#ffffff" stroke="transparent" points="801.5,-384.6393 801.5,-403.6393 819.5,-403.6393 819.5,-384.6393 801.5,-384.6393"/>
<polygon fill="none" stroke="#000000" points="801.5,-384.6393 801.5,-403.6393 819.5,-403.6393 819.5,-384.6393 801.5,-384.6393"/>
<text text-anchor="start" x="810.3862" y="-390.7393" font-family="Helvetica,sans-Serif" font-size="11.00" fill="#000000"> &#160;</text>
</a>
</g>
</g>
<!-- reviews&#45;&gt;bookings -->
<g id="edge11" class="edge">
<title>reviews:w&#45;&gt;bookings:e</title>
<path fill="none" stroke="#000000" d="M712.1193,-430.0908C679.6975,-409.9236 728.6692,-310.6393 675.5,-310.6393"/>
<polygon fill="#000000" stroke="#000000" points="718.733,-431.7227 725.6375,-437.1344 722.6165,-432.681 726.5,-433.6393 726.5,-433.6393 726.5,-433.6393 722.6165,-432.681 727.3625,-430.1441 718.733,-431.7227 718.733,-431.7227"/>
<ellipse fill="none" stroke="#000000" cx="715.6261" cy="-430.956" rx="3.2" ry="3.2"/>
</g>
<!-- reviews&#45;&gt;users -->
<g id="edge12" class="edge">
<title>reviews:w&#45;&gt;users:e</title>
<path fill="none" stroke="#000000" d="M711.9266,-499.7478C539.1294,-502.3312 481.3334,-549.6377 312,-490.6393 230.6595,-462.299 207.2383,-444.8787 156,-375.6393 123.7662,-332.081 169.6881,-260.6393 115.5,-260.6393"/>
<polygon fill="#000000" stroke="#000000" points="718.5002,-499.6989 726.5268,-503.2392 722.5001,-499.6691 726.5,-499.6393 726.5,-499.6393 726.5,-499.6393 722.5001,-499.6691 726.4732,-496.0394 718.5002,-499.6989 718.5002,-499.6989"/>
<ellipse fill="none" stroke="#000000" cx="715.3003" cy="-499.7228" rx="3.2" ry="3.2"/>
</g>
<!-- reviews&#45;&gt;employees -->
<g id="edge13" class="edge">
<title>reviews:w&#45;&gt;employees:e</title>
<path fill="none" stroke="#000000" d="M711.9959,-455.6703C614.7906,-456.0787 583.8744,-460.0593 482,-439.6393 457.8144,-434.7914 454.1667,-421.6393 429.5,-421.6393"/>
<polygon fill="#000000" stroke="#000000" points="718.5,-455.6564 726.5077,-459.2393 722.5,-455.6479 726.5,-455.6393 726.5,-455.6393 726.5,-455.6393 722.5,-455.6479 726.4923,-452.0393 718.5,-455.6564 718.5,-455.6564"/>
<ellipse fill="none" stroke="#000000" cx="715.3" cy="-455.6633" rx="3.2" ry="3.2"/>
</g>
<!-- reviews&#45;&gt;shops -->
<g id="edge14" class="edge">
<title>reviews:w&#45;&gt;shops:e</title>
<path fill="none" stroke="#000000" d="M711.9091,-477.9555C610.3207,-481.9476 380.3602,-521.4883 312,-466.6393 254.1137,-420.1939 345.7159,-304.6393 271.5,-304.6393"/>
<polygon fill="#000000" stroke="#000000" points="718.5019,-477.8127 726.578,-481.2384 722.5009,-477.726 726.5,-477.6393 726.5,-477.6393 726.5,-477.6393 722.5009,-477.726 726.422,-474.0401 718.5019,-477.8127 718.5019,-477.8127"/>
<ellipse fill="none" stroke="#000000" cx="715.3026" cy="-477.882" rx="3.2" ry="3.2"/>
</g>
</g>
</svg>
