<?xml version="1.0" encoding="UTF-8" standalone="no"?>
<!DOCTYPE svg PUBLIC "-//W3C//DTD SVG 1.1//EN"
 "http://www.w3.org/Graphics/SVG/1.1/DTD/svg11.dtd">
<!-- Generated by graphviz version 2.40.1 (20161225.0304)
 -->
<!-- Title: oneDegreeRelationshipsDiagram Pages: 1 -->
<svg width="835pt" height="467pt"
 viewBox="0.00 0.00 835.00 466.82" xmlns="http://www.w3.org/2000/svg" xmlns:xlink="http://www.w3.org/1999/xlink">
<g id="graph0" class="graph" transform="scale(1 1) rotate(0) translate(4 462.8164)">
<title>oneDegreeRelationshipsDiagram</title>
<polygon fill="#ffffff" stroke="transparent" points="-4,4 -4,-462.8164 831,-462.8164 831,4 -4,4"/>
<text text-anchor="middle" x="72.4936" y="-7.3" font-family="Helvetica,sans-Serif" font-size="11.00" fill="#000000">Generated by SchemaSpy</text>
<!-- bookings -->
<g id="node1" class="node">
<title>bookings</title>
<g id="a_node1"><a xlink:href="../../tables/bookings.html" xlink:title="bookings" target="_top">
<polygon fill="#ffffff" stroke="transparent" points="490,-38.2 490,-326.2 677,-326.2 677,-38.2 490,-38.2"/>
<polygon fill="#f5f5f5" stroke="transparent" points="492.5,-301.2 492.5,-324.2 675.5,-324.2 675.5,-301.2 492.5,-301.2"/>
<polygon fill="none" stroke="#000000" points="492.5,-301.2 492.5,-324.2 675.5,-324.2 675.5,-301.2 492.5,-301.2"/>
<text text-anchor="start" x="497.5" y="-310.3" font-family="Helvetica,sans-Serif" font-weight="bold" font-size="11.00" fill="#000000">bookings</text>
<text text-anchor="start" x="640.5437" y="-309.3" font-family="Helvetica,sans-Serif" font-size="11.00" fill="#000000">[table]</text>
<polygon fill="none" stroke="#000000" points="492.5,-279.2 492.5,-301.2 585.5,-301.2 585.5,-279.2 492.5,-279.2"/>
<image xlink:href="../../images/primaryKeys.png" width="11px" height="12px" preserveAspectRatio="xMinYMin meet" x="497.5" y="-296.2"/>
<text text-anchor="start" x="512.5" y="-286.3" font-family="Helvetica,sans-Serif" font-size="11.00" fill="#000000">id</text>
<polygon fill="none" stroke="#000000" points="585.5,-279.2 585.5,-301.2 675.5,-301.2 675.5,-279.2 585.5,-279.2"/>
<text text-anchor="start" x="588.5" y="-286.9" font-family="Helvetica,sans-Serif" font-size="11.00" fill="#000000">bigserial[19]</text>
<polygon fill="#ffffff" stroke="transparent" points="492.5,-257.2 492.5,-279.2 585.5,-279.2 585.5,-257.2 492.5,-257.2"/>
<polygon fill="none" stroke="#000000" points="492.5,-257.2 492.5,-279.2 585.5,-279.2 585.5,-257.2 492.5,-257.2"/>
<image xlink:href="../../images/foreignKeys.png" width="11px" height="12px" preserveAspectRatio="xMinYMin meet" x="497.5" y="-274.2"/>
<text text-anchor="start" x="512.5" y="-264.3" font-family="Helvetica,sans-Serif" font-size="11.00" fill="#000000">shop_id</text>
<polygon fill="none" stroke="#000000" points="585.5,-257.2 585.5,-279.2 675.5,-279.2 675.5,-257.2 585.5,-257.2"/>
<text text-anchor="start" x="588.5" y="-264.9" font-family="Helvetica,sans-Serif" font-size="11.00" fill="#000000">int8[19]</text>
<polygon fill="#ffffff" stroke="transparent" points="492.5,-235.2 492.5,-257.2 585.5,-257.2 585.5,-235.2 492.5,-235.2"/>
<polygon fill="none" stroke="#000000" points="492.5,-235.2 492.5,-257.2 585.5,-257.2 585.5,-235.2 492.5,-235.2"/>
<image xlink:href="../../images/foreignKeys.png" width="11px" height="12px" preserveAspectRatio="xMinYMin meet" x="497.5" y="-252.2"/>
<text text-anchor="start" x="512.5" y="-242.3" font-family="Helvetica,sans-Serif" font-size="11.00" fill="#000000">customer_id</text>
<polygon fill="none" stroke="#000000" points="585.5,-235.2 585.5,-257.2 675.5,-257.2 675.5,-235.2 585.5,-235.2"/>
<text text-anchor="start" x="588.5" y="-242.9" font-family="Helvetica,sans-Serif" font-size="11.00" fill="#000000">int8[19]</text>
<polygon fill="#ffffff" stroke="transparent" points="492.5,-213.2 492.5,-235.2 585.5,-235.2 585.5,-213.2 492.5,-213.2"/>
<polygon fill="none" stroke="#000000" points="492.5,-213.2 492.5,-235.2 585.5,-235.2 585.5,-213.2 492.5,-213.2"/>
<image xlink:href="../../images/foreignKeys.png" width="11px" height="12px" preserveAspectRatio="xMinYMin meet" x="497.5" y="-230.2"/>
<text text-anchor="start" x="512.5" y="-220.3" font-family="Helvetica,sans-Serif" font-size="11.00" fill="#000000">employee_id</text>
<polygon fill="none" stroke="#000000" points="585.5,-213.2 585.5,-235.2 675.5,-235.2 675.5,-213.2 585.5,-213.2"/>
<text text-anchor="start" x="588.5" y="-220.9" font-family="Helvetica,sans-Serif" font-size="11.00" fill="#000000">int8[19]</text>
<polygon fill="none" stroke="#000000" points="492.5,-191.2 492.5,-213.2 585.5,-213.2 585.5,-191.2 492.5,-191.2"/>
<image xlink:href="../../images/foreignKeys.png" width="11px" height="12px" preserveAspectRatio="xMinYMin meet" x="497.5" y="-208.2"/>
<text text-anchor="start" x="512.5" y="-198.3" font-family="Helvetica,sans-Serif" font-size="11.00" fill="#000000">service_id</text>
<polygon fill="none" stroke="#000000" points="585.5,-191.2 585.5,-213.2 675.5,-213.2 675.5,-191.2 585.5,-191.2"/>
<text text-anchor="start" x="588.5" y="-198.9" font-family="Helvetica,sans-Serif" font-size="11.00" fill="#000000">int8[19]</text>
<polygon fill="none" stroke="#000000" points="492.5,-169.2 492.5,-191.2 585.5,-191.2 585.5,-169.2 492.5,-169.2"/>
<text text-anchor="start" x="512.5" y="-176.3" font-family="Helvetica,sans-Serif" font-size="11.00" fill="#000000">start_time</text>
<polygon fill="none" stroke="#000000" points="585.5,-169.2 585.5,-191.2 675.5,-191.2 675.5,-169.2 585.5,-169.2"/>
<text text-anchor="start" x="588.5" y="-176.9" font-family="Helvetica,sans-Serif" font-size="11.00" fill="#000000">timestamp[29,6]</text>
<polygon fill="none" stroke="#000000" points="492.5,-147.2 492.5,-169.2 585.5,-169.2 585.5,-147.2 492.5,-147.2"/>
<text text-anchor="start" x="512.5" y="-154.3" font-family="Helvetica,sans-Serif" font-size="11.00" fill="#000000">end_time</text>
<polygon fill="none" stroke="#000000" points="585.5,-147.2 585.5,-169.2 675.5,-169.2 675.5,-147.2 585.5,-147.2"/>
<text text-anchor="start" x="588.5" y="-154.9" font-family="Helvetica,sans-Serif" font-size="11.00" fill="#000000">timestamp[29,6]</text>
<polygon fill="none" stroke="#000000" points="492.5,-125.2 492.5,-147.2 585.5,-147.2 585.5,-125.2 492.5,-125.2"/>
<text text-anchor="start" x="512.5" y="-132.3" font-family="Helvetica,sans-Serif" font-size="11.00" fill="#000000">status</text>
<polygon fill="none" stroke="#000000" points="585.5,-125.2 585.5,-147.2 675.5,-147.2 675.5,-125.2 585.5,-125.2"/>
<text text-anchor="start" x="588.5" y="-132.9" font-family="Helvetica,sans-Serif" font-size="11.00" fill="#000000">varchar[20]</text>
<polygon fill="none" stroke="#000000" points="492.5,-103.2 492.5,-125.2 585.5,-125.2 585.5,-103.2 492.5,-103.2"/>
<text text-anchor="start" x="512.5" y="-110.3" font-family="Helvetica,sans-Serif" font-size="11.00" fill="#000000">notes</text>
<polygon fill="none" stroke="#000000" points="585.5,-103.2 585.5,-125.2 675.5,-125.2 675.5,-103.2 585.5,-103.2"/>
<text text-anchor="start" x="588.0043" y="-110.9" font-family="Helvetica,sans-Serif" font-size="11.00" fill="#000000">text[2147483647]</text>
<polygon fill="none" stroke="#000000" points="492.5,-81.2 492.5,-103.2 585.5,-103.2 585.5,-81.2 492.5,-81.2"/>
<text text-anchor="start" x="512.5" y="-88.3" font-family="Helvetica,sans-Serif" font-size="11.00" fill="#000000">created_at</text>
<polygon fill="none" stroke="#000000" points="585.5,-81.2 585.5,-103.2 675.5,-103.2 675.5,-81.2 585.5,-81.2"/>
<text text-anchor="start" x="588.5" y="-88.9" font-family="Helvetica,sans-Serif" font-size="11.00" fill="#000000">timestamp[29,6]</text>
<polygon fill="none" stroke="#000000" points="492.5,-59.2 492.5,-81.2 585.5,-81.2 585.5,-59.2 492.5,-59.2"/>
<text text-anchor="start" x="512.5" y="-66.3" font-family="Helvetica,sans-Serif" font-size="11.00" fill="#000000">updated_at</text>
<polygon fill="none" stroke="#000000" points="585.5,-59.2 585.5,-81.2 675.5,-81.2 675.5,-59.2 585.5,-59.2"/>
<text text-anchor="start" x="588.5" y="-66.9" font-family="Helvetica,sans-Serif" font-size="11.00" fill="#000000">timestamp[29,6]</text>
<polygon fill="#ffffff" stroke="transparent" points="492.5,-40.2 492.5,-59.2 530.5,-59.2 530.5,-40.2 492.5,-40.2"/>
<polygon fill="none" stroke="#000000" points="492.5,-40.2 492.5,-59.2 530.5,-59.2 530.5,-40.2 492.5,-40.2"/>
<text text-anchor="start" x="495.5" y="-46.3" font-family="Helvetica,sans-Serif" font-size="11.00" fill="#000000">&lt; 4</text>
<polygon fill="#ffffff" stroke="transparent" points="530.5,-40.2 530.5,-59.2 585.5,-59.2 585.5,-40.2 530.5,-40.2"/>
<polygon fill="none" stroke="#000000" points="530.5,-40.2 530.5,-59.2 585.5,-59.2 585.5,-40.2 530.5,-40.2"/>
<text text-anchor="start" x="550.1105" y="-46.3" font-family="Helvetica,sans-Serif" font-size="11.00" fill="#000000">0 rows</text>
<polygon fill="#ffffff" stroke="transparent" points="585.5,-40.2 585.5,-59.2 675.5,-59.2 675.5,-40.2 585.5,-40.2"/>
<polygon fill="none" stroke="#000000" points="585.5,-40.2 585.5,-59.2 675.5,-59.2 675.5,-40.2 585.5,-40.2"/>
<text text-anchor="start" x="656.9053" y="-46.3" font-family="Helvetica,sans-Serif" font-size="11.00" fill="#000000">1 &gt;</text>
<polygon fill="none" stroke="#000000" stroke-width="2" points="491,-39.2 491,-325.2 676,-325.2 676,-39.2 491,-39.2"/>
</a>
</g>
</g>
<!-- users -->
<g id="node2" class="node">
<title>users</title>
<g id="a_node2"><a xlink:href="../../tables/users.html" xlink:title="users" target="_top">
<polygon fill="#ffffff" stroke="transparent" points="8,-193.7 8,-298.7 115,-298.7 115,-193.7 8,-193.7"/>
<polygon fill="#f5f5f5" stroke="transparent" points="8.5,-275.2 8.5,-298.2 115.5,-298.2 115.5,-275.2 8.5,-275.2"/>
<polygon fill="none" stroke="#000000" points="8.5,-275.2 8.5,-298.2 115.5,-298.2 115.5,-275.2 8.5,-275.2"/>
<text text-anchor="start" x="13.5" y="-284.3" font-family="Helvetica,sans-Serif" font-weight="bold" font-size="11.00" fill="#000000">users</text>
<text text-anchor="start" x="80.5437" y="-283.3" font-family="Helvetica,sans-Serif" font-size="11.00" fill="#000000">[table]</text>
<polygon fill="none" stroke="#000000" points="8.5,-253.2 8.5,-275.2 115.5,-275.2 115.5,-253.2 8.5,-253.2"/>
<image xlink:href="../../images/primaryKeys.png" width="11px" height="12px" preserveAspectRatio="xMinYMin meet" x="13.5" y="-270.2"/>
<text text-anchor="start" x="28.5" y="-260.3" font-family="Helvetica,sans-Serif" font-size="11.00" fill="#000000">id</text>
<polygon fill="#ffffff" stroke="transparent" points="8.5,-231.2 8.5,-253.2 115.5,-253.2 115.5,-231.2 8.5,-231.2"/>
<polygon fill="none" stroke="#000000" points="8.5,-231.2 8.5,-253.2 115.5,-253.2 115.5,-231.2 8.5,-231.2"/>
<text text-anchor="start" x="28.5" y="-238.3" font-family="Helvetica,sans-Serif" font-size="11.00" fill="#000000">email</text>
<polygon fill="none" stroke="#000000" points="8.5,-212.2 8.5,-231.2 115.5,-231.2 115.5,-212.2 8.5,-212.2"/>
<text text-anchor="start" x="11.5" y="-218.3" font-family="Helvetica,sans-Serif" font-size="11.00" fill="#000000">...</text>
<polygon fill="#ffffff" stroke="transparent" points="8.5,-193.2 8.5,-212.2 38.5,-212.2 38.5,-193.2 8.5,-193.2"/>
<polygon fill="none" stroke="#000000" points="8.5,-193.2 8.5,-212.2 38.5,-212.2 38.5,-193.2 8.5,-193.2"/>
<text text-anchor="start" x="11.5" y="-199.3" font-family="Helvetica,sans-Serif" font-size="11.00" fill="#000000"> &#160;</text>
<polygon fill="#ffffff" stroke="transparent" points="38.5,-193.2 38.5,-212.2 85.5,-212.2 85.5,-193.2 38.5,-193.2"/>
<polygon fill="none" stroke="#000000" points="38.5,-193.2 38.5,-212.2 85.5,-212.2 85.5,-193.2 38.5,-193.2"/>
<text text-anchor="start" x="50.1105" y="-199.3" font-family="Helvetica,sans-Serif" font-size="11.00" fill="#000000">6 rows</text>
<polygon fill="#ffffff" stroke="transparent" points="85.5,-193.2 85.5,-212.2 115.5,-212.2 115.5,-193.2 85.5,-193.2"/>
<polygon fill="none" stroke="#000000" points="85.5,-193.2 85.5,-212.2 115.5,-212.2 115.5,-193.2 85.5,-193.2"/>
<text text-anchor="start" x="96.9053" y="-199.3" font-family="Helvetica,sans-Serif" font-size="11.00" fill="#000000">5 &gt;</text>
</a>
</g>
</g>
<!-- bookings&#45;&gt;users -->
<g id="edge1" class="edge">
<title>bookings:w&#45;&gt;users:e</title>
<path fill="none" stroke="#000000" d="M478.5987,-241.7537C465.3618,-230.2859 472.1914,-199.7957 449,-188.2 394.5393,-160.9697 372.3146,-179.8569 312,-188.2 240.6411,-198.0709 220.1683,-199.4593 156,-232.2 135.5656,-242.6263 138.4406,-264.2 115.5,-264.2"/>
<polygon fill="#000000" stroke="#000000" points="484.8803,-243.7628 491.4033,-249.6289 488.6901,-244.9814 492.5,-246.2 492.5,-246.2 492.5,-246.2 488.6901,-244.9814 493.5967,-242.7711 484.8803,-243.7628 484.8803,-243.7628"/>
<ellipse fill="none" stroke="#000000" cx="481.8324" cy="-242.7879" rx="3.2" ry="3.2"/>
</g>
<!-- employees -->
<g id="node3" class="node">
<title>employees</title>
<g id="a_node3"><a xlink:href="../../tables/employees.html" xlink:title="employees" target="_top">
<polygon fill="#ffffff" stroke="transparent" points="332,-198.7 332,-325.7 429,-325.7 429,-198.7 332,-198.7"/>
<polygon fill="#f5f5f5" stroke="transparent" points="332.5,-302.2 332.5,-325.2 429.5,-325.2 429.5,-302.2 332.5,-302.2"/>
<polygon fill="none" stroke="#000000" points="332.5,-302.2 332.5,-325.2 429.5,-325.2 429.5,-302.2 332.5,-302.2"/>
<text text-anchor="start" x="337.5" y="-311.3" font-family="Helvetica,sans-Serif" font-weight="bold" font-size="11.00" fill="#000000">employees</text>
<text text-anchor="start" x="395.0219" y="-310.3" font-family="Helvetica,sans-Serif" font-size="11.00" fill="#000000">[table]</text>
<polygon fill="none" stroke="#000000" points="332.5,-280.2 332.5,-302.2 429.5,-302.2 429.5,-280.2 332.5,-280.2"/>
<image xlink:href="../../images/primaryKeys.png" width="11px" height="12px" preserveAspectRatio="xMinYMin meet" x="337.5" y="-297.2"/>
<text text-anchor="start" x="352.5" y="-287.3" font-family="Helvetica,sans-Serif" font-size="11.00" fill="#000000">id</text>
<polygon fill="#ffffff" stroke="transparent" points="332.5,-258.2 332.5,-280.2 429.5,-280.2 429.5,-258.2 332.5,-258.2"/>
<polygon fill="none" stroke="#000000" points="332.5,-258.2 332.5,-280.2 429.5,-280.2 429.5,-258.2 332.5,-258.2"/>
<image xlink:href="../../images/foreignKeys.png" width="11px" height="12px" preserveAspectRatio="xMinYMin meet" x="337.5" y="-275.2"/>
<text text-anchor="start" x="352.5" y="-265.3" font-family="Helvetica,sans-Serif" font-size="11.00" fill="#000000">shop_id</text>
<polygon fill="#ffffff" stroke="transparent" points="332.5,-236.2 332.5,-258.2 429.5,-258.2 429.5,-236.2 332.5,-236.2"/>
<polygon fill="none" stroke="#000000" points="332.5,-236.2 332.5,-258.2 429.5,-258.2 429.5,-236.2 332.5,-236.2"/>
<image xlink:href="../../images/foreignKeys.png" width="11px" height="12px" preserveAspectRatio="xMinYMin meet" x="337.5" y="-253.2"/>
<text text-anchor="start" x="352.5" y="-243.3" font-family="Helvetica,sans-Serif" font-size="11.00" fill="#000000">user_id</text>
<polygon fill="none" stroke="#000000" points="332.5,-217.2 332.5,-236.2 429.5,-236.2 429.5,-217.2 332.5,-217.2"/>
<text text-anchor="start" x="335.5" y="-223.3" font-family="Helvetica,sans-Serif" font-size="11.00" fill="#000000">...</text>
<polygon fill="#ffffff" stroke="transparent" points="332.5,-198.2 332.5,-217.2 361.5,-217.2 361.5,-198.2 332.5,-198.2"/>
<polygon fill="none" stroke="#000000" points="332.5,-198.2 332.5,-217.2 361.5,-217.2 361.5,-198.2 332.5,-198.2"/>
<text text-anchor="start" x="335.5" y="-204.3" font-family="Helvetica,sans-Serif" font-size="11.00" fill="#000000">&lt; 2</text>
<polygon fill="#ffffff" stroke="transparent" points="361.5,-198.2 361.5,-217.2 403.5,-217.2 403.5,-198.2 361.5,-198.2"/>
<polygon fill="none" stroke="#000000" points="361.5,-198.2 361.5,-217.2 403.5,-217.2 403.5,-198.2 361.5,-198.2"/>
<text text-anchor="start" x="368.1105" y="-204.3" font-family="Helvetica,sans-Serif" font-size="11.00" fill="#000000">0 rows</text>
<polygon fill="#ffffff" stroke="transparent" points="403.5,-198.2 403.5,-217.2 429.5,-217.2 429.5,-198.2 403.5,-198.2"/>
<polygon fill="none" stroke="#000000" points="403.5,-198.2 403.5,-217.2 429.5,-217.2 429.5,-198.2 403.5,-198.2"/>
<text text-anchor="start" x="410.9053" y="-204.3" font-family="Helvetica,sans-Serif" font-size="11.00" fill="#000000">3 &gt;</text>
</a>
</g>
</g>
<!-- bookings&#45;&gt;employees -->
<g id="edge2" class="edge">
<title>bookings:w&#45;&gt;employees:e</title>
<path fill="none" stroke="#000000" d="M478.4617,-227.8022C455.7196,-241.7188 464.6264,-291.2 429.5,-291.2"/>
<polygon fill="#000000" stroke="#000000" points="484.751,-226.1884 493.3948,-227.687 488.6255,-225.1942 492.5,-224.2 492.5,-224.2 492.5,-224.2 488.6255,-225.1942 491.6052,-220.713 484.751,-226.1884 484.751,-226.1884"/>
<ellipse fill="none" stroke="#000000" cx="481.6515" cy="-226.9838" rx="3.2" ry="3.2"/>
</g>
<!-- services -->
<g id="node4" class="node">
<title>services</title>
<g id="a_node4"><a xlink:href="../../tables/services.html" xlink:title="services" target="_top">
<polygon fill="#ffffff" stroke="transparent" points="320,-44.7 320,-149.7 441,-149.7 441,-44.7 320,-44.7"/>
<polygon fill="#f5f5f5" stroke="transparent" points="320.5,-126.2 320.5,-149.2 441.5,-149.2 441.5,-126.2 320.5,-126.2"/>
<polygon fill="none" stroke="#000000" points="320.5,-126.2 320.5,-149.2 441.5,-149.2 441.5,-126.2 320.5,-126.2"/>
<text text-anchor="start" x="325.5" y="-135.3" font-family="Helvetica,sans-Serif" font-weight="bold" font-size="11.00" fill="#000000">services</text>
<text text-anchor="start" x="406.5437" y="-134.3" font-family="Helvetica,sans-Serif" font-size="11.00" fill="#000000">[table]</text>
<polygon fill="none" stroke="#000000" points="320.5,-104.2 320.5,-126.2 441.5,-126.2 441.5,-104.2 320.5,-104.2"/>
<image xlink:href="../../images/primaryKeys.png" width="11px" height="12px" preserveAspectRatio="xMinYMin meet" x="325.5" y="-121.2"/>
<text text-anchor="start" x="340.5" y="-111.3" font-family="Helvetica,sans-Serif" font-size="11.00" fill="#000000">id</text>
<polygon fill="#ffffff" stroke="transparent" points="320.5,-82.2 320.5,-104.2 441.5,-104.2 441.5,-82.2 320.5,-82.2"/>
<polygon fill="none" stroke="#000000" points="320.5,-82.2 320.5,-104.2 441.5,-104.2 441.5,-82.2 320.5,-82.2"/>
<image xlink:href="../../images/foreignKeys.png" width="11px" height="12px" preserveAspectRatio="xMinYMin meet" x="325.5" y="-99.2"/>
<text text-anchor="start" x="340.5" y="-89.3" font-family="Helvetica,sans-Serif" font-size="11.00" fill="#000000">shop_id</text>
<polygon fill="none" stroke="#000000" points="320.5,-63.2 320.5,-82.2 441.5,-82.2 441.5,-63.2 320.5,-63.2"/>
<text text-anchor="start" x="323.5" y="-69.3" font-family="Helvetica,sans-Serif" font-size="11.00" fill="#000000">...</text>
<polygon fill="#ffffff" stroke="transparent" points="320.5,-44.2 320.5,-63.2 361.5,-63.2 361.5,-44.2 320.5,-44.2"/>
<polygon fill="none" stroke="#000000" points="320.5,-44.2 320.5,-63.2 361.5,-63.2 361.5,-44.2 320.5,-44.2"/>
<text text-anchor="start" x="323.5" y="-50.3" font-family="Helvetica,sans-Serif" font-size="11.00" fill="#000000">&lt; 1</text>
<polygon fill="#ffffff" stroke="transparent" points="361.5,-44.2 361.5,-63.2 409.5,-63.2 409.5,-44.2 361.5,-44.2"/>
<polygon fill="none" stroke="#000000" points="361.5,-44.2 361.5,-63.2 409.5,-63.2 409.5,-44.2 361.5,-44.2"/>
<text text-anchor="start" x="374.1105" y="-50.3" font-family="Helvetica,sans-Serif" font-size="11.00" fill="#000000">0 rows</text>
<polygon fill="#ffffff" stroke="transparent" points="409.5,-44.2 409.5,-63.2 441.5,-63.2 441.5,-44.2 409.5,-44.2"/>
<polygon fill="none" stroke="#000000" points="409.5,-44.2 409.5,-63.2 441.5,-63.2 441.5,-44.2 409.5,-44.2"/>
<text text-anchor="start" x="422.9053" y="-50.3" font-family="Helvetica,sans-Serif" font-size="11.00" fill="#000000">2 &gt;</text>
</a>
</g>
</g>
<!-- bookings&#45;&gt;services -->
<g id="edge3" class="edge">
<title>bookings:w&#45;&gt;services:e</title>
<path fill="none" stroke="#000000" d="M478.6673,-198.0038C456.4713,-180.6252 480.3679,-115.2 441.5,-115.2"/>
<polygon fill="#000000" stroke="#000000" points="484.8445,-199.8776 491.4549,-205.645 488.6722,-201.0388 492.5,-202.2 492.5,-202.2 492.5,-202.2 488.6722,-201.0388 493.5451,-198.755 484.8445,-199.8776 484.8445,-199.8776"/>
<ellipse fill="none" stroke="#000000" cx="481.7823" cy="-198.9487" rx="3.2" ry="3.2"/>
</g>
<!-- shops -->
<g id="node5" class="node">
<title>shops</title>
<g id="a_node5"><a xlink:href="../../tables/shops.html" xlink:title="shops" target="_top">
<polygon fill="#ffffff" stroke="transparent" points="164,-252.7 164,-379.7 271,-379.7 271,-252.7 164,-252.7"/>
<polygon fill="#f5f5f5" stroke="transparent" points="164.5,-356.2 164.5,-379.2 271.5,-379.2 271.5,-356.2 164.5,-356.2"/>
<polygon fill="none" stroke="#000000" points="164.5,-356.2 164.5,-379.2 271.5,-379.2 271.5,-356.2 164.5,-356.2"/>
<text text-anchor="start" x="169.5" y="-365.3" font-family="Helvetica,sans-Serif" font-weight="bold" font-size="11.00" fill="#000000">shops</text>
<text text-anchor="start" x="236.5437" y="-364.3" font-family="Helvetica,sans-Serif" font-size="11.00" fill="#000000">[table]</text>
<polygon fill="none" stroke="#000000" points="164.5,-334.2 164.5,-356.2 271.5,-356.2 271.5,-334.2 164.5,-334.2"/>
<image xlink:href="../../images/primaryKeys.png" width="11px" height="12px" preserveAspectRatio="xMinYMin meet" x="169.5" y="-351.2"/>
<text text-anchor="start" x="184.5" y="-341.3" font-family="Helvetica,sans-Serif" font-size="11.00" fill="#000000">id</text>
<polygon fill="#ffffff" stroke="transparent" points="164.5,-312.2 164.5,-334.2 271.5,-334.2 271.5,-312.2 164.5,-312.2"/>
<polygon fill="none" stroke="#000000" points="164.5,-312.2 164.5,-334.2 271.5,-334.2 271.5,-312.2 164.5,-312.2"/>
<text text-anchor="start" x="184.5" y="-319.3" font-family="Helvetica,sans-Serif" font-size="11.00" fill="#000000">city</text>
<polygon fill="#ffffff" stroke="transparent" points="164.5,-290.2 164.5,-312.2 271.5,-312.2 271.5,-290.2 164.5,-290.2"/>
<polygon fill="none" stroke="#000000" points="164.5,-290.2 164.5,-312.2 271.5,-312.2 271.5,-290.2 164.5,-290.2"/>
<image xlink:href="../../images/foreignKeys.png" width="11px" height="12px" preserveAspectRatio="xMinYMin meet" x="169.5" y="-307.2"/>
<text text-anchor="start" x="184.5" y="-297.3" font-family="Helvetica,sans-Serif" font-size="11.00" fill="#000000">owner_id</text>
<polygon fill="none" stroke="#000000" points="164.5,-271.2 164.5,-290.2 271.5,-290.2 271.5,-271.2 164.5,-271.2"/>
<text text-anchor="start" x="167.5" y="-277.3" font-family="Helvetica,sans-Serif" font-size="11.00" fill="#000000">...</text>
<polygon fill="#ffffff" stroke="transparent" points="164.5,-252.2 164.5,-271.2 201.5,-271.2 201.5,-252.2 164.5,-252.2"/>
<polygon fill="none" stroke="#000000" points="164.5,-252.2 164.5,-271.2 201.5,-271.2 201.5,-252.2 164.5,-252.2"/>
<text text-anchor="start" x="167.5" y="-258.3" font-family="Helvetica,sans-Serif" font-size="11.00" fill="#000000">&lt; 1</text>
<polygon fill="#ffffff" stroke="transparent" points="201.5,-252.2 201.5,-271.2 241.5,-271.2 241.5,-252.2 201.5,-252.2"/>
<polygon fill="none" stroke="#000000" points="201.5,-252.2 201.5,-271.2 241.5,-271.2 241.5,-252.2 201.5,-252.2"/>
<text text-anchor="start" x="211.6105" y="-258.3" font-family="Helvetica,sans-Serif" font-size="11.00" fill="#000000">1 row</text>
<polygon fill="#ffffff" stroke="transparent" points="241.5,-252.2 241.5,-271.2 271.5,-271.2 271.5,-252.2 241.5,-252.2"/>
<polygon fill="none" stroke="#000000" points="241.5,-252.2 241.5,-271.2 271.5,-271.2 271.5,-252.2 241.5,-252.2"/>
<text text-anchor="start" x="252.9053" y="-258.3" font-family="Helvetica,sans-Serif" font-size="11.00" fill="#000000">5 &gt;</text>
</a>
</g>
</g>
<!-- bookings&#45;&gt;shops -->
<g id="edge4" class="edge">
<title>bookings:w&#45;&gt;shops:e</title>
<path fill="none" stroke="#000000" d="M478.2422,-272.5659C463.2755,-285.1301 474.4494,-321.4192 449,-336.2 380.6945,-375.8713 350.4902,-345.2 271.5,-345.2"/>
<polygon fill="#000000" stroke="#000000" points="484.8506,-270.5424 493.5541,-271.6422 488.6753,-269.3712 492.5,-268.2 492.5,-268.2 492.5,-268.2 488.6753,-269.3712 491.4459,-264.7578 484.8506,-270.5424 484.8506,-270.5424"/>
<ellipse fill="none" stroke="#000000" cx="481.7908" cy="-271.4793" rx="3.2" ry="3.2"/>
</g>
<!-- employees&#45;&gt;users -->
<g id="edge6" class="edge">
<title>employees:w&#45;&gt;users:e</title>
<path fill="none" stroke="#000000" d="M317.8225,-246.6106C304.7659,-245.4797 297.078,-243.0429 279,-242.2 224.3927,-239.6538 208.9833,-228.7384 156,-242.2 136.1465,-247.2442 135.9843,-264.2 115.5,-264.2"/>
<polygon fill="#000000" stroke="#000000" points="324.5064,-246.8789 332.3555,-250.7971 328.5032,-247.0395 332.5,-247.2 332.5,-247.2 332.5,-247.2 328.5032,-247.0395 332.6445,-243.6029 324.5064,-246.8789 324.5064,-246.8789"/>
<ellipse fill="none" stroke="#000000" cx="321.309" cy="-246.7505" rx="3.2" ry="3.2"/>
</g>
<!-- employees&#45;&gt;shops -->
<g id="edge5" class="edge">
<title>employees:w&#45;&gt;shops:e</title>
<path fill="none" stroke="#000000" d="M318.5677,-272.8656C294.7783,-288.0469 309.0598,-345.2 271.5,-345.2"/>
<polygon fill="#000000" stroke="#000000" points="324.7633,-271.2356 333.416,-272.6815 328.6316,-270.2178 332.5,-269.2 332.5,-269.2 332.5,-269.2 328.6316,-270.2178 331.584,-265.7185 324.7633,-271.2356 324.7633,-271.2356"/>
<ellipse fill="none" stroke="#000000" cx="321.6686" cy="-272.0498" rx="3.2" ry="3.2"/>
</g>
<!-- services&#45;&gt;shops -->
<g id="edge11" class="edge">
<title>services:w&#45;&gt;shops:e</title>
<path fill="none" stroke="#000000" d="M306.0712,-94.8758C222.8803,-116.7402 380.1379,-345.2 271.5,-345.2"/>
<polygon fill="#000000" stroke="#000000" points="312.5534,-94.123 320.9154,-96.776 316.5267,-93.6615 320.5,-93.2 320.5,-93.2 320.5,-93.2 316.5267,-93.6615 320.0846,-89.624 312.5534,-94.123 312.5534,-94.123"/>
<ellipse fill="none" stroke="#000000" cx="309.3748" cy="-94.4922" rx="3.2" ry="3.2"/>
</g>
<!-- shops&#45;&gt;users -->
<g id="edge12" class="edge">
<title>shops:w&#45;&gt;users:e</title>
<path fill="none" stroke="#000000" d="M150.6217,-296.6631C138.0786,-286.783 136.8196,-264.2 115.5,-264.2"/>
<polygon fill="#000000" stroke="#000000" points="156.896,-298.7142 163.3814,-304.6218 160.698,-299.9571 164.5,-301.2 164.5,-301.2 164.5,-301.2 160.698,-299.9571 165.6186,-297.7782 156.896,-298.7142 156.896,-298.7142"/>
<ellipse fill="none" stroke="#000000" cx="153.8544" cy="-297.7198" rx="3.2" ry="3.2"/>
</g>
<!-- reviews -->
<g id="node6" class="node">
<title>reviews</title>
<g id="a_node6"><a xlink:href="../../tables/reviews.html" xlink:title="reviews" target="_top">
<polygon fill="#ffffff" stroke="transparent" points="726,-281.7 726,-452.7 819,-452.7 819,-281.7 726,-281.7"/>
<polygon fill="#f5f5f5" stroke="transparent" points="726.5,-429.2 726.5,-452.2 819.5,-452.2 819.5,-429.2 726.5,-429.2"/>
<polygon fill="none" stroke="#000000" points="726.5,-429.2 726.5,-452.2 819.5,-452.2 819.5,-429.2 726.5,-429.2"/>
<text text-anchor="start" x="731.5" y="-438.3" font-family="Helvetica,sans-Serif" font-weight="bold" font-size="11.00" fill="#000000">reviews</text>
<text text-anchor="start" x="784.5437" y="-437.3" font-family="Helvetica,sans-Serif" font-size="11.00" fill="#000000">[table]</text>
<polygon fill="none" stroke="#000000" points="726.5,-407.2 726.5,-429.2 819.5,-429.2 819.5,-407.2 726.5,-407.2"/>
<image xlink:href="../../images/primaryKeys.png" width="11px" height="12px" preserveAspectRatio="xMinYMin meet" x="731.5" y="-424.2"/>
<text text-anchor="start" x="746.5" y="-414.3" font-family="Helvetica,sans-Serif" font-size="11.00" fill="#000000">id</text>
<polygon fill="#ffffff" stroke="transparent" points="726.5,-385.2 726.5,-407.2 819.5,-407.2 819.5,-385.2 726.5,-385.2"/>
<polygon fill="none" stroke="#000000" points="726.5,-385.2 726.5,-407.2 819.5,-407.2 819.5,-385.2 726.5,-385.2"/>
<image xlink:href="../../images/foreignKeys.png" width="11px" height="12px" preserveAspectRatio="xMinYMin meet" x="731.5" y="-402.2"/>
<text text-anchor="start" x="746.5" y="-392.3" font-family="Helvetica,sans-Serif" font-size="11.00" fill="#000000">customer_id</text>
<polygon fill="#ffffff" stroke="transparent" points="726.5,-363.2 726.5,-385.2 819.5,-385.2 819.5,-363.2 726.5,-363.2"/>
<polygon fill="none" stroke="#000000" points="726.5,-363.2 726.5,-385.2 819.5,-385.2 819.5,-363.2 726.5,-363.2"/>
<image xlink:href="../../images/foreignKeys.png" width="11px" height="12px" preserveAspectRatio="xMinYMin meet" x="731.5" y="-380.2"/>
<text text-anchor="start" x="746.5" y="-370.3" font-family="Helvetica,sans-Serif" font-size="11.00" fill="#000000">shop_id</text>
<polygon fill="#ffffff" stroke="transparent" points="726.5,-341.2 726.5,-363.2 819.5,-363.2 819.5,-341.2 726.5,-341.2"/>
<polygon fill="none" stroke="#000000" points="726.5,-341.2 726.5,-363.2 819.5,-363.2 819.5,-341.2 726.5,-341.2"/>
<image xlink:href="../../images/foreignKeys.png" width="11px" height="12px" preserveAspectRatio="xMinYMin meet" x="731.5" y="-358.2"/>
<text text-anchor="start" x="746.5" y="-348.3" font-family="Helvetica,sans-Serif" font-size="11.00" fill="#000000">employee_id</text>
<polygon fill="none" stroke="#000000" points="726.5,-319.2 726.5,-341.2 819.5,-341.2 819.5,-319.2 726.5,-319.2"/>
<image xlink:href="../../images/foreignKeys.png" width="11px" height="12px" preserveAspectRatio="xMinYMin meet" x="731.5" y="-336.2"/>
<text text-anchor="start" x="746.5" y="-326.3" font-family="Helvetica,sans-Serif" font-size="11.00" fill="#000000">booking_id</text>
<polygon fill="none" stroke="#000000" points="726.5,-300.2 726.5,-319.2 819.5,-319.2 819.5,-300.2 726.5,-300.2"/>
<text text-anchor="start" x="729.5" y="-306.3" font-family="Helvetica,sans-Serif" font-size="11.00" fill="#000000">...</text>
<polygon fill="#ffffff" stroke="transparent" points="726.5,-281.2 726.5,-300.2 758.5,-300.2 758.5,-281.2 726.5,-281.2"/>
<polygon fill="none" stroke="#000000" points="726.5,-281.2 726.5,-300.2 758.5,-300.2 758.5,-281.2 726.5,-281.2"/>
<text text-anchor="start" x="729.5" y="-287.3" font-family="Helvetica,sans-Serif" font-size="11.00" fill="#000000">&lt; 4</text>
<polygon fill="#ffffff" stroke="transparent" points="758.5,-281.2 758.5,-300.2 801.5,-300.2 801.5,-281.2 758.5,-281.2"/>
<polygon fill="none" stroke="#000000" points="758.5,-281.2 758.5,-300.2 801.5,-300.2 801.5,-281.2 758.5,-281.2"/>
<text text-anchor="start" x="766.1105" y="-287.3" font-family="Helvetica,sans-Serif" font-size="11.00" fill="#000000">0 rows</text>
<polygon fill="#ffffff" stroke="transparent" points="801.5,-281.2 801.5,-300.2 819.5,-300.2 819.5,-281.2 801.5,-281.2"/>
<polygon fill="none" stroke="#000000" points="801.5,-281.2 801.5,-300.2 819.5,-300.2 819.5,-281.2 801.5,-281.2"/>
<text text-anchor="start" x="810.3862" y="-287.3" font-family="Helvetica,sans-Serif" font-size="11.00" fill="#000000"> &#160;</text>
</a>
</g>
</g>
<!-- reviews&#45;&gt;bookings -->
<g id="edge7" class="edge">
<title>reviews:w&#45;&gt;bookings:e</title>
<path fill="none" stroke="#000000" d="M712.7365,-325.9193C698.9186,-315.6004 698.4554,-290.2 675.5,-290.2"/>
<polygon fill="#000000" stroke="#000000" points="718.8609,-327.8241 725.4308,-333.6376 722.6805,-329.012 726.5,-330.2 726.5,-330.2 726.5,-330.2 722.6805,-329.012 727.5692,-326.7624 718.8609,-327.8241 718.8609,-327.8241"/>
<ellipse fill="none" stroke="#000000" cx="715.8053" cy="-326.8737" rx="3.2" ry="3.2"/>
</g>
<!-- reviews&#45;&gt;users -->
<g id="edge8" class="edge">
<title>reviews:w&#45;&gt;users:e</title>
<path fill="none" stroke="#000000" d="M711.8018,-396.362C468.4889,-401.7298 356.1313,-537.7055 156,-390.2 108.6498,-355.3008 174.3218,-264.2 115.5,-264.2"/>
<polygon fill="#000000" stroke="#000000" points="718.5005,-396.2882 726.5397,-399.7998 722.5002,-396.2441 726.5,-396.2 726.5,-396.2 726.5,-396.2 722.5002,-396.2441 726.4603,-392.6002 718.5005,-396.2882 718.5005,-396.2882"/>
<ellipse fill="none" stroke="#000000" cx="715.3007" cy="-396.3235" rx="3.2" ry="3.2"/>
</g>
<!-- reviews&#45;&gt;employees -->
<g id="edge9" class="edge">
<title>reviews:w&#45;&gt;employees:e</title>
<path fill="none" stroke="#000000" d="M711.9627,-352.3579C614.2823,-354.4833 578.0586,-376.729 482,-337.2 453.3112,-325.3943 460.5229,-291.2 429.5,-291.2"/>
<polygon fill="#000000" stroke="#000000" points="718.5005,-352.287 726.5391,-355.7998 722.5002,-352.2435 726.5,-352.2 726.5,-352.2 726.5,-352.2 722.5002,-352.2435 726.4609,-348.6002 718.5005,-352.287 718.5005,-352.287"/>
<ellipse fill="none" stroke="#000000" cx="715.3007" cy="-352.3217" rx="3.2" ry="3.2"/>
</g>
<!-- reviews&#45;&gt;shops -->
<g id="edge10" class="edge">
<title>reviews:w&#45;&gt;shops:e</title>
<path fill="none" stroke="#000000" d="M711.934,-374.2214C539.4346,-374.7275 489.3118,-383.7789 312,-356.2 293.5695,-353.3333 290.1521,-345.2 271.5,-345.2"/>
<polygon fill="#000000" stroke="#000000" points="718.5,-374.2118 726.5053,-377.8 722.5,-374.2059 726.5,-374.2 726.5,-374.2 726.5,-374.2 722.5,-374.2059 726.4947,-370.6 718.5,-374.2118 718.5,-374.2118"/>
<ellipse fill="none" stroke="#000000" cx="715.3" cy="-374.2165" rx="3.2" ry="3.2"/>
</g>
</g>
</svg>
