<?xml version="1.0" encoding="UTF-8" standalone="no"?>
<!DOCTYPE svg PUBLIC "-//W3C//DTD SVG 1.1//EN"
 "http://www.w3.org/Graphics/SVG/1.1/DTD/svg11.dtd">
<!-- Generated by graphviz version 2.40.1 (20161225.0304)
 -->
<!-- Title: twoDegreesRelationshipsDiagram Pages: 1 -->
<svg width="743pt" height="447pt"
 viewBox="0.00 0.00 743.00 447.41" xmlns="http://www.w3.org/2000/svg" xmlns:xlink="http://www.w3.org/1999/xlink">
<g id="graph0" class="graph" transform="scale(1 1) rotate(0) translate(4 443.4061)">
<title>twoDegreesRelationshipsDiagram</title>
<polygon fill="#ffffff" stroke="transparent" points="-4,4 -4,-443.4061 739,-443.4061 739,4 -4,4"/>
<text text-anchor="middle" x="72.4936" y="-7.3" font-family="Helvetica,sans-Serif" font-size="11.00" fill="#000000">Generated by SchemaSpy</text>
<!-- bookings -->
<g id="node1" class="node">
<title>bookings</title>
<g id="a_node1"><a xlink:href="../../tables/bookings.html" xlink:title="bookings" target="_top">
<polygon fill="#ffffff" stroke="transparent" points="466,-323.1863 466,-384.1863 553,-384.1863 553,-323.1863 466,-323.1863"/>
<polygon fill="#f5f5f5" stroke="transparent" points="466.5,-360.6863 466.5,-383.6863 553.5,-383.6863 553.5,-360.6863 466.5,-360.6863"/>
<polygon fill="none" stroke="#000000" points="466.5,-360.6863 466.5,-383.6863 553.5,-383.6863 553.5,-360.6863 466.5,-360.6863"/>
<text text-anchor="start" x="471.4923" y="-369.7863" font-family="Helvetica,sans-Serif" font-weight="bold" font-size="11.00" fill="#000000">bookings</text>
<text text-anchor="start" x="519.0219" y="-368.7863" font-family="Helvetica,sans-Serif" font-size="11.00" fill="#000000">[table]</text>
<polygon fill="none" stroke="#000000" points="466.5,-341.6863 466.5,-360.6863 553.5,-360.6863 553.5,-341.6863 466.5,-341.6863"/>
<text text-anchor="start" x="469.5" y="-347.7863" font-family="Helvetica,sans-Serif" font-size="11.00" fill="#000000">...</text>
<polygon fill="#ffffff" stroke="transparent" points="466.5,-322.6863 466.5,-341.6863 490.5,-341.6863 490.5,-322.6863 466.5,-322.6863"/>
<polygon fill="none" stroke="#000000" points="466.5,-322.6863 466.5,-341.6863 490.5,-341.6863 490.5,-322.6863 466.5,-322.6863"/>
<text text-anchor="start" x="469.5" y="-328.7863" font-family="Helvetica,sans-Serif" font-size="11.00" fill="#000000">&lt; 4</text>
<polygon fill="#ffffff" stroke="transparent" points="490.5,-322.6863 490.5,-341.6863 530.5,-341.6863 530.5,-322.6863 490.5,-322.6863"/>
<polygon fill="none" stroke="#000000" points="490.5,-322.6863 490.5,-341.6863 530.5,-341.6863 530.5,-322.6863 490.5,-322.6863"/>
<text text-anchor="start" x="495.1105" y="-328.7863" font-family="Helvetica,sans-Serif" font-size="11.00" fill="#000000">0 rows</text>
<polygon fill="#ffffff" stroke="transparent" points="530.5,-322.6863 530.5,-341.6863 553.5,-341.6863 553.5,-322.6863 530.5,-322.6863"/>
<polygon fill="none" stroke="#000000" points="530.5,-322.6863 530.5,-341.6863 553.5,-341.6863 553.5,-322.6863 530.5,-322.6863"/>
<text text-anchor="start" x="534.9053" y="-328.7863" font-family="Helvetica,sans-Serif" font-size="11.00" fill="#000000">1 &gt;</text>
</a>
</g>
</g>
<!-- users -->
<g id="node2" class="node">
<title>users</title>
<g id="a_node2"><a xlink:href="../../tables/users.html" xlink:title="users" target="_top">
<polygon fill="#ffffff" stroke="transparent" points="8,-318.1863 8,-379.1863 79,-379.1863 79,-318.1863 8,-318.1863"/>
<polygon fill="#f5f5f5" stroke="transparent" points="8.5,-355.6863 8.5,-378.6863 79.5,-378.6863 79.5,-355.6863 8.5,-355.6863"/>
<polygon fill="none" stroke="#000000" points="8.5,-355.6863 8.5,-378.6863 79.5,-378.6863 79.5,-355.6863 8.5,-355.6863"/>
<text text-anchor="start" x="13.5" y="-364.7863" font-family="Helvetica,sans-Serif" font-weight="bold" font-size="11.00" fill="#000000">users</text>
<text text-anchor="start" x="44.5437" y="-363.7863" font-family="Helvetica,sans-Serif" font-size="11.00" fill="#000000">[table]</text>
<polygon fill="none" stroke="#000000" points="8.5,-336.6863 8.5,-355.6863 79.5,-355.6863 79.5,-336.6863 8.5,-336.6863"/>
<text text-anchor="start" x="11.5" y="-342.7863" font-family="Helvetica,sans-Serif" font-size="11.00" fill="#000000">...</text>
<polygon fill="#ffffff" stroke="transparent" points="8.5,-317.6863 8.5,-336.6863 20.5,-336.6863 20.5,-317.6863 8.5,-317.6863"/>
<polygon fill="none" stroke="#000000" points="8.5,-317.6863 8.5,-336.6863 20.5,-336.6863 20.5,-317.6863 8.5,-317.6863"/>
<text text-anchor="start" x="11.4431" y="-323.7863" font-family="Helvetica,sans-Serif" font-size="11.00" fill="#000000"> &#160;</text>
<polygon fill="#ffffff" stroke="transparent" points="20.5,-317.6863 20.5,-336.6863 58.5,-336.6863 58.5,-317.6863 20.5,-317.6863"/>
<polygon fill="none" stroke="#000000" points="20.5,-317.6863 20.5,-336.6863 58.5,-336.6863 58.5,-317.6863 20.5,-317.6863"/>
<text text-anchor="start" x="23.3053" y="-323.7863" font-family="Helvetica,sans-Serif" font-size="11.00" fill="#000000">6 rows</text>
<polygon fill="#ffffff" stroke="transparent" points="58.5,-317.6863 58.5,-336.6863 79.5,-336.6863 79.5,-317.6863 58.5,-317.6863"/>
<polygon fill="none" stroke="#000000" points="58.5,-317.6863 58.5,-336.6863 79.5,-336.6863 79.5,-317.6863 58.5,-317.6863"/>
<text text-anchor="start" x="61.2027" y="-323.7863" font-family="Helvetica,sans-Serif" font-size="11.00" fill="#000000">5 &gt;</text>
</a>
</g>
</g>
<!-- bookings&#45;&gt;users -->
<g id="edge1" class="edge">
<title>bookings:w&#45;&gt;users:e</title>
<path fill="none" stroke="#000000" d="M452.0877,-351.71C423.9338,-355.9839 414.526,-372.4231 380,-377.6863 319.8065,-386.8623 303.6048,-383.5613 243,-377.6863 169.3001,-370.5418 153.5454,-345.6863 79.5,-345.6863"/>
<polygon fill="#000000" stroke="#000000" points="458.5201,-351.2532 466.7551,-354.2772 462.5101,-350.9697 466.5,-350.6863 466.5,-350.6863 466.5,-350.6863 462.5101,-350.9697 466.2449,-347.0953 458.5201,-351.2532 458.5201,-351.2532"/>
<ellipse fill="none" stroke="#000000" cx="455.3281" cy="-351.4799" rx="3.2" ry="3.2"/>
</g>
<!-- employees -->
<g id="node3" class="node">
<title>employees</title>
<g id="a_node3"><a xlink:href="../../tables/employees.html" xlink:title="employees" target="_top">
<polygon fill="#ffffff" stroke="transparent" points="263,-95.1863 263,-222.1863 360,-222.1863 360,-95.1863 263,-95.1863"/>
<polygon fill="#f5f5f5" stroke="transparent" points="263.5,-198.6863 263.5,-221.6863 360.5,-221.6863 360.5,-198.6863 263.5,-198.6863"/>
<polygon fill="none" stroke="#000000" points="263.5,-198.6863 263.5,-221.6863 360.5,-221.6863 360.5,-198.6863 263.5,-198.6863"/>
<text text-anchor="start" x="268.5" y="-207.7863" font-family="Helvetica,sans-Serif" font-weight="bold" font-size="11.00" fill="#000000">employees</text>
<text text-anchor="start" x="326.0219" y="-206.7863" font-family="Helvetica,sans-Serif" font-size="11.00" fill="#000000">[table]</text>
<polygon fill="none" stroke="#000000" points="263.5,-176.6863 263.5,-198.6863 360.5,-198.6863 360.5,-176.6863 263.5,-176.6863"/>
<image xlink:href="../../images/primaryKeys.png" width="11px" height="12px" preserveAspectRatio="xMinYMin meet" x="268.5" y="-193.686"/>
<text text-anchor="start" x="283.5" y="-183.7863" font-family="Helvetica,sans-Serif" font-size="11.00" fill="#000000">id</text>
<polygon fill="#ffffff" stroke="transparent" points="263.5,-154.6863 263.5,-176.6863 360.5,-176.6863 360.5,-154.6863 263.5,-154.6863"/>
<polygon fill="none" stroke="#000000" points="263.5,-154.6863 263.5,-176.6863 360.5,-176.6863 360.5,-154.6863 263.5,-154.6863"/>
<image xlink:href="../../images/foreignKeys.png" width="11px" height="12px" preserveAspectRatio="xMinYMin meet" x="268.5" y="-171.686"/>
<text text-anchor="start" x="283.5" y="-161.7863" font-family="Helvetica,sans-Serif" font-size="11.00" fill="#000000">shop_id</text>
<polygon fill="#ffffff" stroke="transparent" points="263.5,-132.6863 263.5,-154.6863 360.5,-154.6863 360.5,-132.6863 263.5,-132.6863"/>
<polygon fill="none" stroke="#000000" points="263.5,-132.6863 263.5,-154.6863 360.5,-154.6863 360.5,-132.6863 263.5,-132.6863"/>
<image xlink:href="../../images/foreignKeys.png" width="11px" height="12px" preserveAspectRatio="xMinYMin meet" x="268.5" y="-149.686"/>
<text text-anchor="start" x="283.5" y="-139.7863" font-family="Helvetica,sans-Serif" font-size="11.00" fill="#000000">user_id</text>
<polygon fill="none" stroke="#000000" points="263.5,-113.6863 263.5,-132.6863 360.5,-132.6863 360.5,-113.6863 263.5,-113.6863"/>
<text text-anchor="start" x="266.5" y="-119.7863" font-family="Helvetica,sans-Serif" font-size="11.00" fill="#000000">...</text>
<polygon fill="#ffffff" stroke="transparent" points="263.5,-94.6863 263.5,-113.6863 292.5,-113.6863 292.5,-94.6863 263.5,-94.6863"/>
<polygon fill="none" stroke="#000000" points="263.5,-94.6863 263.5,-113.6863 292.5,-113.6863 292.5,-94.6863 263.5,-94.6863"/>
<text text-anchor="start" x="266.5" y="-100.7863" font-family="Helvetica,sans-Serif" font-size="11.00" fill="#000000">&lt; 2</text>
<polygon fill="#ffffff" stroke="transparent" points="292.5,-94.6863 292.5,-113.6863 334.5,-113.6863 334.5,-94.6863 292.5,-94.6863"/>
<polygon fill="none" stroke="#000000" points="292.5,-94.6863 292.5,-113.6863 334.5,-113.6863 334.5,-94.6863 292.5,-94.6863"/>
<text text-anchor="start" x="299.1105" y="-100.7863" font-family="Helvetica,sans-Serif" font-size="11.00" fill="#000000">0 rows</text>
<polygon fill="#ffffff" stroke="transparent" points="334.5,-94.6863 334.5,-113.6863 360.5,-113.6863 360.5,-94.6863 334.5,-94.6863"/>
<polygon fill="none" stroke="#000000" points="334.5,-94.6863 334.5,-113.6863 360.5,-113.6863 360.5,-94.6863 334.5,-94.6863"/>
<text text-anchor="start" x="341.9053" y="-100.7863" font-family="Helvetica,sans-Serif" font-size="11.00" fill="#000000">3 &gt;</text>
</a>
</g>
</g>
<!-- bookings&#45;&gt;employees -->
<g id="edge2" class="edge">
<title>bookings:w&#45;&gt;employees:e</title>
<path fill="none" stroke="#000000" d="M452.0345,-349.0708C434.5324,-344.5953 427.6857,-331.1385 413,-312.6863 375.4767,-265.539 420.7567,-187.6863 360.5,-187.6863"/>
<polygon fill="#000000" stroke="#000000" points="458.5494,-349.7983 466.1004,-354.264 462.5247,-350.2423 466.5,-350.6863 466.5,-350.6863 466.5,-350.6863 462.5247,-350.2423 466.8996,-347.1085 458.5494,-349.7983 458.5494,-349.7983"/>
<ellipse fill="none" stroke="#000000" cx="455.3692" cy="-349.4431" rx="3.2" ry="3.2"/>
</g>
<!-- services -->
<g id="node4" class="node">
<title>services</title>
<g id="a_node4"><a xlink:href="../../tables/services.html" xlink:title="services" target="_top">
<polygon fill="#ffffff" stroke="transparent" points="251,-243.1863 251,-348.1863 372,-348.1863 372,-243.1863 251,-243.1863"/>
<polygon fill="#f5f5f5" stroke="transparent" points="251.5,-324.6863 251.5,-347.6863 372.5,-347.6863 372.5,-324.6863 251.5,-324.6863"/>
<polygon fill="none" stroke="#000000" points="251.5,-324.6863 251.5,-347.6863 372.5,-347.6863 372.5,-324.6863 251.5,-324.6863"/>
<text text-anchor="start" x="256.5" y="-333.7863" font-family="Helvetica,sans-Serif" font-weight="bold" font-size="11.00" fill="#000000">services</text>
<text text-anchor="start" x="337.5437" y="-332.7863" font-family="Helvetica,sans-Serif" font-size="11.00" fill="#000000">[table]</text>
<polygon fill="none" stroke="#000000" points="251.5,-302.6863 251.5,-324.6863 372.5,-324.6863 372.5,-302.6863 251.5,-302.6863"/>
<image xlink:href="../../images/primaryKeys.png" width="11px" height="12px" preserveAspectRatio="xMinYMin meet" x="256.5" y="-319.686"/>
<text text-anchor="start" x="271.5" y="-309.7863" font-family="Helvetica,sans-Serif" font-size="11.00" fill="#000000">id</text>
<polygon fill="#ffffff" stroke="transparent" points="251.5,-280.6863 251.5,-302.6863 372.5,-302.6863 372.5,-280.6863 251.5,-280.6863"/>
<polygon fill="none" stroke="#000000" points="251.5,-280.6863 251.5,-302.6863 372.5,-302.6863 372.5,-280.6863 251.5,-280.6863"/>
<image xlink:href="../../images/foreignKeys.png" width="11px" height="12px" preserveAspectRatio="xMinYMin meet" x="256.5" y="-297.686"/>
<text text-anchor="start" x="271.5" y="-287.7863" font-family="Helvetica,sans-Serif" font-size="11.00" fill="#000000">shop_id</text>
<polygon fill="none" stroke="#000000" points="251.5,-261.6863 251.5,-280.6863 372.5,-280.6863 372.5,-261.6863 251.5,-261.6863"/>
<text text-anchor="start" x="254.5" y="-267.7863" font-family="Helvetica,sans-Serif" font-size="11.00" fill="#000000">...</text>
<polygon fill="#ffffff" stroke="transparent" points="251.5,-242.6863 251.5,-261.6863 292.5,-261.6863 292.5,-242.6863 251.5,-242.6863"/>
<polygon fill="none" stroke="#000000" points="251.5,-242.6863 251.5,-261.6863 292.5,-261.6863 292.5,-242.6863 251.5,-242.6863"/>
<text text-anchor="start" x="254.5" y="-248.7863" font-family="Helvetica,sans-Serif" font-size="11.00" fill="#000000">&lt; 1</text>
<polygon fill="#ffffff" stroke="transparent" points="292.5,-242.6863 292.5,-261.6863 340.5,-261.6863 340.5,-242.6863 292.5,-242.6863"/>
<polygon fill="none" stroke="#000000" points="292.5,-242.6863 292.5,-261.6863 340.5,-261.6863 340.5,-242.6863 292.5,-242.6863"/>
<text text-anchor="start" x="305.1105" y="-248.7863" font-family="Helvetica,sans-Serif" font-size="11.00" fill="#000000">0 rows</text>
<polygon fill="#ffffff" stroke="transparent" points="340.5,-242.6863 340.5,-261.6863 372.5,-261.6863 372.5,-242.6863 340.5,-242.6863"/>
<polygon fill="none" stroke="#000000" points="340.5,-242.6863 340.5,-261.6863 372.5,-261.6863 372.5,-242.6863 340.5,-242.6863"/>
<text text-anchor="start" x="353.9053" y="-248.7863" font-family="Helvetica,sans-Serif" font-size="11.00" fill="#000000">2 &gt;</text>
</a>
</g>
</g>
<!-- bookings&#45;&gt;services -->
<g id="edge3" class="edge">
<title>bookings:w&#45;&gt;services:e</title>
<path fill="none" stroke="#000000" d="M451.8351,-349.19C419.9873,-342.2679 411.9609,-313.6863 372.5,-313.6863"/>
<polygon fill="#000000" stroke="#000000" points="458.5413,-349.8742 466.1346,-354.2677 462.5207,-350.2802 466.5,-350.6863 466.5,-350.6863 466.5,-350.6863 462.5207,-350.2802 466.8654,-347.1049 458.5413,-349.8742 458.5413,-349.8742"/>
<ellipse fill="none" stroke="#000000" cx="455.3578" cy="-349.5494" rx="3.2" ry="3.2"/>
</g>
<!-- shops -->
<g id="node5" class="node">
<title>shops</title>
<g id="a_node5"><a xlink:href="../../tables/shops.html" xlink:title="shops" target="_top">
<polygon fill="#ffffff" stroke="transparent" points="128,-264.1863 128,-325.1863 202,-325.1863 202,-264.1863 128,-264.1863"/>
<polygon fill="#f5f5f5" stroke="transparent" points="128,-301.6863 128,-324.6863 202,-324.6863 202,-301.6863 128,-301.6863"/>
<polygon fill="none" stroke="#000000" points="128,-301.6863 128,-324.6863 202,-324.6863 202,-301.6863 128,-301.6863"/>
<text text-anchor="start" x="133" y="-310.7863" font-family="Helvetica,sans-Serif" font-weight="bold" font-size="11.00" fill="#000000">shops</text>
<text text-anchor="start" x="167.0437" y="-309.7863" font-family="Helvetica,sans-Serif" font-size="11.00" fill="#000000">[table]</text>
<polygon fill="none" stroke="#000000" points="128,-282.6863 128,-301.6863 202,-301.6863 202,-282.6863 128,-282.6863"/>
<text text-anchor="start" x="131" y="-288.7863" font-family="Helvetica,sans-Serif" font-size="11.00" fill="#000000">...</text>
<polygon fill="#ffffff" stroke="transparent" points="128,-263.6863 128,-282.6863 149,-282.6863 149,-263.6863 128,-263.6863"/>
<polygon fill="none" stroke="#000000" points="128,-263.6863 128,-282.6863 149,-282.6863 149,-263.6863 128,-263.6863"/>
<text text-anchor="start" x="130.7027" y="-269.7863" font-family="Helvetica,sans-Serif" font-size="11.00" fill="#000000">&lt; 1</text>
<polygon fill="#ffffff" stroke="transparent" points="149,-263.6863 149,-282.6863 181,-282.6863 181,-263.6863 149,-263.6863"/>
<polygon fill="none" stroke="#000000" points="149,-263.6863 149,-282.6863 181,-282.6863 181,-263.6863 149,-263.6863"/>
<text text-anchor="start" x="151.5553" y="-269.7863" font-family="Helvetica,sans-Serif" font-size="11.00" fill="#000000">1 row</text>
<polygon fill="#ffffff" stroke="transparent" points="181,-263.6863 181,-282.6863 202,-282.6863 202,-263.6863 181,-263.6863"/>
<polygon fill="none" stroke="#000000" points="181,-263.6863 181,-282.6863 202,-282.6863 202,-263.6863 181,-263.6863"/>
<text text-anchor="start" x="183.7027" y="-269.7863" font-family="Helvetica,sans-Serif" font-size="11.00" fill="#000000">5 &gt;</text>
</a>
</g>
</g>
<!-- bookings&#45;&gt;shops -->
<g id="edge4" class="edge">
<title>bookings:w&#45;&gt;shops:e</title>
<path fill="none" stroke="#000000" d="M452.0963,-351.0875C363.2559,-356.0627 325.3898,-404.8606 243,-358.6863 212.5458,-341.6186 236.9108,-291.6863 202,-291.6863"/>
<polygon fill="#000000" stroke="#000000" points="458.5031,-350.9091 466.6003,-354.2849 462.5016,-350.7977 466.5,-350.6863 466.5,-350.6863 466.5,-350.6863 462.5016,-350.7977 466.3997,-347.0877 458.5031,-350.9091 458.5031,-350.9091"/>
<ellipse fill="none" stroke="#000000" cx="455.3043" cy="-350.9982" rx="3.2" ry="3.2"/>
</g>
<!-- employees&#45;&gt;users -->
<g id="edge8" class="edge">
<title>employees:w&#45;&gt;users:e</title>
<path fill="none" stroke="#000000" d="M248.7672,-144.2614C181.2489,-149.7872 166.4345,-194.5597 120,-253.6863 92.4066,-288.8218 124.1755,-345.6863 79.5,-345.6863"/>
<polygon fill="#000000" stroke="#000000" points="255.5061,-143.9984 263.6404,-147.2835 259.503,-143.8423 263.5,-143.6863 263.5,-143.6863 263.5,-143.6863 259.503,-143.8423 263.3596,-140.089 255.5061,-143.9984 255.5061,-143.9984"/>
<ellipse fill="none" stroke="#000000" cx="252.3085" cy="-144.1232" rx="3.2" ry="3.2"/>
</g>
<!-- employees&#45;&gt;shops -->
<g id="edge7" class="edge">
<title>employees:w&#45;&gt;shops:e</title>
<path fill="none" stroke="#000000" d="M249.0749,-168.8009C211.9196,-188.2039 258.4726,-291.6863 202,-291.6863"/>
<polygon fill="#000000" stroke="#000000" points="255.6802,-167.3748 264.2598,-169.2052 259.5901,-166.5305 263.5,-165.6863 263.5,-165.6863 263.5,-165.6863 259.5901,-166.5305 262.7402,-162.1674 255.6802,-167.3748 255.6802,-167.3748"/>
<ellipse fill="none" stroke="#000000" cx="252.5523" cy="-168.0501" rx="3.2" ry="3.2"/>
</g>
<!-- services&#45;&gt;shops -->
<g id="edge13" class="edge">
<title>services:w&#45;&gt;shops:e</title>
<path fill="none" stroke="#000000" d="M236.8428,-291.6863C225.4139,-291.6863 218.1563,-291.6863 202,-291.6863"/>
<polygon fill="#000000" stroke="#000000" points="243.5,-291.6863 251.5,-295.2863 247.5,-291.6863 251.5,-291.6863 251.5,-291.6863 251.5,-291.6863 247.5,-291.6863 251.5,-288.0863 243.5,-291.6863 243.5,-291.6863"/>
<ellipse fill="none" stroke="#000000" cx="240.3" cy="-291.6864" rx="3.2" ry="3.2"/>
</g>
<!-- shops&#45;&gt;users -->
<g id="edge14" class="edge">
<title>shops:w&#45;&gt;users:e</title>
<path fill="none" stroke="#000000" d="M114.3096,-296.6697C100.0505,-310.0379 105.7104,-345.6863 79.5,-345.6863"/>
<polygon fill="#000000" stroke="#000000" points="120.4825,-294.4227 129.2314,-295.0691 124.2413,-293.0545 128,-291.6863 128,-291.6863 128,-291.6863 124.2413,-293.0545 126.7686,-288.3034 120.4825,-294.4227 120.4825,-294.4227"/>
<ellipse fill="none" stroke="#000000" cx="117.4756" cy="-295.5173" rx="3.2" ry="3.2"/>
</g>
<!-- employee_services -->
<g id="node6" class="node">
<title>employee_services</title>
<g id="a_node6"><a xlink:href="../../tables/employee_services.html" xlink:title="employee_services" target="_top">
<polygon fill="#ffffff" stroke="transparent" points="421,-211.6863 421,-301.6863 598,-301.6863 598,-211.6863 421,-211.6863"/>
<polygon fill="#f5f5f5" stroke="transparent" points="423.5,-276.6863 423.5,-299.6863 596.5,-299.6863 596.5,-276.6863 423.5,-276.6863"/>
<polygon fill="none" stroke="#000000" points="423.5,-276.6863 423.5,-299.6863 596.5,-299.6863 596.5,-276.6863 423.5,-276.6863"/>
<text text-anchor="start" x="428.5" y="-285.7863" font-family="Helvetica,sans-Serif" font-weight="bold" font-size="11.00" fill="#000000">employee_services</text>
<text text-anchor="start" x="561.5437" y="-284.7863" font-family="Helvetica,sans-Serif" font-size="11.00" fill="#000000">[table]</text>
<polygon fill="none" stroke="#000000" points="423.5,-254.6863 423.5,-276.6863 554.5,-276.6863 554.5,-254.6863 423.5,-254.6863"/>
<image xlink:href="../../images/primaryKeys.png" width="11px" height="12px" preserveAspectRatio="xMinYMin meet" x="428.5" y="-271.686"/>
<text text-anchor="start" x="443.5" y="-261.7863" font-family="Helvetica,sans-Serif" font-size="11.00" fill="#000000">employee_id</text>
<polygon fill="none" stroke="#000000" points="554.5,-254.6863 554.5,-276.6863 596.5,-276.6863 596.5,-254.6863 554.5,-254.6863"/>
<text text-anchor="start" x="557.4644" y="-262.3863" font-family="Helvetica,sans-Serif" font-size="11.00" fill="#000000">int8[19]</text>
<polygon fill="none" stroke="#000000" points="423.5,-232.6863 423.5,-254.6863 554.5,-254.6863 554.5,-232.6863 423.5,-232.6863"/>
<image xlink:href="../../images/primaryKeys.png" width="11px" height="12px" preserveAspectRatio="xMinYMin meet" x="428.5" y="-249.686"/>
<text text-anchor="start" x="443.5" y="-239.7863" font-family="Helvetica,sans-Serif" font-size="11.00" fill="#000000">service_id</text>
<polygon fill="none" stroke="#000000" points="554.5,-232.6863 554.5,-254.6863 596.5,-254.6863 596.5,-232.6863 554.5,-232.6863"/>
<text text-anchor="start" x="557.4644" y="-240.3863" font-family="Helvetica,sans-Serif" font-size="11.00" fill="#000000">int8[19]</text>
<polygon fill="#ffffff" stroke="transparent" points="423.5,-213.6863 423.5,-232.6863 480.5,-232.6863 480.5,-213.6863 423.5,-213.6863"/>
<polygon fill="none" stroke="#000000" points="423.5,-213.6863 423.5,-232.6863 480.5,-232.6863 480.5,-213.6863 423.5,-213.6863"/>
<text text-anchor="start" x="426.5" y="-219.7863" font-family="Helvetica,sans-Serif" font-size="11.00" fill="#000000">&lt; 2</text>
<polygon fill="#ffffff" stroke="transparent" points="480.5,-213.6863 480.5,-232.6863 554.5,-232.6863 554.5,-213.6863 480.5,-213.6863"/>
<polygon fill="none" stroke="#000000" points="480.5,-213.6863 480.5,-232.6863 554.5,-232.6863 554.5,-213.6863 480.5,-213.6863"/>
<text text-anchor="start" x="519.1105" y="-219.7863" font-family="Helvetica,sans-Serif" font-size="11.00" fill="#000000">0 rows</text>
<polygon fill="#ffffff" stroke="transparent" points="554.5,-213.6863 554.5,-232.6863 596.5,-232.6863 596.5,-213.6863 554.5,-213.6863"/>
<polygon fill="none" stroke="#000000" points="554.5,-213.6863 554.5,-232.6863 596.5,-232.6863 596.5,-213.6863 554.5,-213.6863"/>
<text text-anchor="start" x="577.9053" y="-219.7863" font-family="Helvetica,sans-Serif" font-size="11.00" fill="#000000">0 &gt;</text>
<polygon fill="none" stroke="#000000" stroke-width="2" points="422,-212.6863 422,-300.6863 597,-300.6863 597,-212.6863 422,-212.6863"/>
</a>
</g>
</g>
<!-- employee_services&#45;&gt;employees -->
<g id="edge5" class="edge">
<title>employee_services:w&#45;&gt;employees:e</title>
<path fill="none" stroke="#000000" d="M409.4879,-262.1321C384.4985,-246.873 399.3177,-187.6863 360.5,-187.6863"/>
<polygon fill="#000000" stroke="#000000" points="415.7456,-263.7193 422.6149,-269.1758 419.6228,-264.7028 423.5,-265.6863 423.5,-265.6863 423.5,-265.6863 419.6228,-264.7028 424.3851,-262.1968 415.7456,-263.7193 415.7456,-263.7193"/>
<ellipse fill="none" stroke="#000000" cx="412.6438" cy="-262.9325" rx="3.2" ry="3.2"/>
</g>
<!-- employee_services&#45;&gt;services -->
<g id="edge6" class="edge">
<title>employee_services:w&#45;&gt;services:e</title>
<path fill="none" stroke="#000000" d="M409.6872,-248.2792C391.5536,-263.8523 404.9781,-313.6863 372.5,-313.6863"/>
<polygon fill="#000000" stroke="#000000" points="415.9087,-246.2105 424.6359,-247.1024 419.7043,-244.9484 423.5,-243.6863 423.5,-243.6863 423.5,-243.6863 419.7043,-244.9484 422.3641,-240.2702 415.9087,-246.2105 415.9087,-246.2105"/>
<ellipse fill="none" stroke="#000000" cx="412.8721" cy="-247.2202" rx="3.2" ry="3.2"/>
</g>
<!-- reviews -->
<g id="node7" class="node">
<title>reviews</title>
<g id="a_node7"><a xlink:href="../../tables/reviews.html" xlink:title="reviews" target="_top">
<polygon fill="#ffffff" stroke="transparent" points="647,-241.1863 647,-302.1863 727,-302.1863 727,-241.1863 647,-241.1863"/>
<polygon fill="#f5f5f5" stroke="transparent" points="647,-278.6863 647,-301.6863 727,-301.6863 727,-278.6863 647,-278.6863"/>
<polygon fill="none" stroke="#000000" points="647,-278.6863 647,-301.6863 727,-301.6863 727,-278.6863 647,-278.6863"/>
<text text-anchor="start" x="651.8633" y="-287.7863" font-family="Helvetica,sans-Serif" font-weight="bold" font-size="11.00" fill="#000000">reviews</text>
<text text-anchor="start" x="692.5219" y="-286.7863" font-family="Helvetica,sans-Serif" font-size="11.00" fill="#000000">[table]</text>
<polygon fill="none" stroke="#000000" points="647,-259.6863 647,-278.6863 727,-278.6863 727,-259.6863 647,-259.6863"/>
<text text-anchor="start" x="650" y="-265.7863" font-family="Helvetica,sans-Serif" font-size="11.00" fill="#000000">...</text>
<polygon fill="#ffffff" stroke="transparent" points="647,-240.6863 647,-259.6863 672,-259.6863 672,-240.6863 647,-240.6863"/>
<polygon fill="none" stroke="#000000" points="647,-240.6863 647,-259.6863 672,-259.6863 672,-240.6863 647,-240.6863"/>
<text text-anchor="start" x="650" y="-246.7863" font-family="Helvetica,sans-Serif" font-size="11.00" fill="#000000">&lt; 4</text>
<polygon fill="#ffffff" stroke="transparent" points="672,-240.6863 672,-259.6863 712,-259.6863 712,-240.6863 672,-240.6863"/>
<polygon fill="none" stroke="#000000" points="672,-240.6863 672,-259.6863 712,-259.6863 712,-240.6863 672,-240.6863"/>
<text text-anchor="start" x="676.6105" y="-246.7863" font-family="Helvetica,sans-Serif" font-size="11.00" fill="#000000">0 rows</text>
<polygon fill="#ffffff" stroke="transparent" points="712,-240.6863 712,-259.6863 727,-259.6863 727,-240.6863 712,-240.6863"/>
<polygon fill="none" stroke="#000000" points="712,-240.6863 712,-259.6863 727,-259.6863 727,-240.6863 712,-240.6863"/>
<text text-anchor="start" x="717.8862" y="-246.7863" font-family="Helvetica,sans-Serif" font-size="11.00" fill="#000000"> &#160;</text>
</a>
</g>
</g>
<!-- reviews&#45;&gt;bookings -->
<g id="edge9" class="edge">
<title>reviews:w&#45;&gt;bookings:e</title>
<path fill="none" stroke="#000000" d="M632.8097,-272.5714C621.5542,-280.543 621.3369,-299.1368 606,-312.6863 584.4134,-331.7572 582.3041,-350.6863 553.5,-350.6863"/>
<polygon fill="#000000" stroke="#000000" points="639.284,-270.7989 647.9507,-272.1585 643.142,-269.7426 647,-268.6863 647,-268.6863 647,-268.6863 643.142,-269.7426 646.0493,-265.2141 639.284,-270.7989 639.284,-270.7989"/>
<ellipse fill="none" stroke="#000000" cx="636.1976" cy="-271.6439" rx="3.2" ry="3.2"/>
</g>
<!-- reviews&#45;&gt;users -->
<g id="edge10" class="edge">
<title>reviews:w&#45;&gt;users:e</title>
<path fill="none" stroke="#000000" d="M632.6585,-271.3593C600.2553,-286.6652 648.8111,-363.5963 606,-394.6863 475.4458,-489.4965 403.6165,-405.0391 243,-389.6863 187.8667,-384.4163 172.0633,-388.5773 120,-369.6863 100.3316,-362.5497 100.4231,-345.6863 79.5,-345.6863"/>
<polygon fill="#000000" stroke="#000000" points="639.1354,-270.1521 647.6596,-272.2253 643.0677,-269.4192 647,-268.6863 647,-268.6863 647,-268.6863 643.0677,-269.4192 646.3404,-265.1472 639.1354,-270.1521 639.1354,-270.1521"/>
<ellipse fill="none" stroke="#000000" cx="635.9896" cy="-270.7385" rx="3.2" ry="3.2"/>
</g>
<!-- reviews&#45;&gt;employees -->
<g id="edge11" class="edge">
<title>reviews:w&#45;&gt;employees:e</title>
<path fill="none" stroke="#000000" d="M633.1073,-264.3317C618.7622,-251.7983 630.8218,-215.5841 606,-200.6863 512.3148,-144.4572 469.764,-187.6863 360.5,-187.6863"/>
<polygon fill="#000000" stroke="#000000" points="639.3662,-266.2935 645.9232,-272.1215 643.1831,-267.4899 647,-268.6863 647,-268.6863 647,-268.6863 643.1831,-267.4899 648.0768,-265.2511 639.3662,-266.2935 639.3662,-266.2935"/>
<ellipse fill="none" stroke="#000000" cx="636.3127" cy="-265.3364" rx="3.2" ry="3.2"/>
</g>
<!-- reviews&#45;&gt;shops -->
<g id="edge12" class="edge">
<title>reviews:w&#45;&gt;shops:e</title>
<path fill="none" stroke="#000000" d="M632.643,-265.6133C608.6598,-252.2453 635.8128,-198.5342 606,-169.6863 486.923,-54.4636 371.043,20.483 243,-84.6863 170.5257,-144.2138 295.7873,-291.6863 202,-291.6863"/>
<polygon fill="#000000" stroke="#000000" points="639.1772,-267.0118 646.2465,-272.2066 643.0886,-267.8491 647,-268.6863 647,-268.6863 647,-268.6863 643.0886,-267.8491 647.7535,-265.166 639.1772,-267.0118 639.1772,-267.0118"/>
<ellipse fill="none" stroke="#000000" cx="636.0481" cy="-266.3421" rx="3.2" ry="3.2"/>
</g>
</g>
</svg>
