<?xml version="1.0" encoding="UTF-8" standalone="no"?>
<!DOCTYPE svg PUBLIC "-//W3C//DTD SVG 1.1//EN"
 "http://www.w3.org/Graphics/SVG/1.1/DTD/svg11.dtd">
<!-- Generated by graphviz version 2.40.1 (20161225.0304)
 -->
<!-- Title: twoDegreesRelationshipsDiagram Pages: 1 -->
<svg width="855pt" height="686pt"
 viewBox="0.00 0.00 855.00 686.12" xmlns="http://www.w3.org/2000/svg" xmlns:xlink="http://www.w3.org/1999/xlink">
<g id="graph0" class="graph" transform="scale(1 1) rotate(0) translate(4 682.1204)">
<title>twoDegreesRelationshipsDiagram</title>
<polygon fill="#ffffff" stroke="transparent" points="-4,4 -4,-682.1204 851,-682.1204 851,4 -4,4"/>
<text text-anchor="middle" x="72.4936" y="-7.3" font-family="Helvetica,sans-Serif" font-size="11.00" fill="#000000">Generated by SchemaSpy</text>
<!-- bookings -->
<g id="node1" class="node">
<title>bookings</title>
<g id="a_node1"><a xlink:href="../../tables/bookings.html" xlink:title="bookings" target="_top">
<polygon fill="#ffffff" stroke="transparent" points="582,-164.1204 582,-335.1204 675,-335.1204 675,-164.1204 582,-164.1204"/>
<polygon fill="#f5f5f5" stroke="transparent" points="582.5,-311.6204 582.5,-334.6204 675.5,-334.6204 675.5,-311.6204 582.5,-311.6204"/>
<polygon fill="none" stroke="#000000" points="582.5,-311.6204 582.5,-334.6204 675.5,-334.6204 675.5,-311.6204 582.5,-311.6204"/>
<text text-anchor="start" x="587.5" y="-320.7204" font-family="Helvetica,sans-Serif" font-weight="bold" font-size="11.00" fill="#000000">bookings</text>
<text text-anchor="start" x="640.5437" y="-319.7204" font-family="Helvetica,sans-Serif" font-size="11.00" fill="#000000">[table]</text>
<polygon fill="none" stroke="#000000" points="582.5,-289.6204 582.5,-311.6204 675.5,-311.6204 675.5,-289.6204 582.5,-289.6204"/>
<image xlink:href="../../images/primaryKeys.png" width="11px" height="12px" preserveAspectRatio="xMinYMin meet" x="587.5" y="-306.62"/>
<text text-anchor="start" x="602.5" y="-296.7204" font-family="Helvetica,sans-Serif" font-size="11.00" fill="#000000">id</text>
<polygon fill="#ffffff" stroke="transparent" points="582.5,-267.6204 582.5,-289.6204 675.5,-289.6204 675.5,-267.6204 582.5,-267.6204"/>
<polygon fill="none" stroke="#000000" points="582.5,-267.6204 582.5,-289.6204 675.5,-289.6204 675.5,-267.6204 582.5,-267.6204"/>
<image xlink:href="../../images/foreignKeys.png" width="11px" height="12px" preserveAspectRatio="xMinYMin meet" x="587.5" y="-284.62"/>
<text text-anchor="start" x="602.5" y="-274.7204" font-family="Helvetica,sans-Serif" font-size="11.00" fill="#000000">shop_id</text>
<polygon fill="#ffffff" stroke="transparent" points="582.5,-245.6204 582.5,-267.6204 675.5,-267.6204 675.5,-245.6204 582.5,-245.6204"/>
<polygon fill="none" stroke="#000000" points="582.5,-245.6204 582.5,-267.6204 675.5,-267.6204 675.5,-245.6204 582.5,-245.6204"/>
<image xlink:href="../../images/foreignKeys.png" width="11px" height="12px" preserveAspectRatio="xMinYMin meet" x="587.5" y="-262.62"/>
<text text-anchor="start" x="602.5" y="-252.7204" font-family="Helvetica,sans-Serif" font-size="11.00" fill="#000000">customer_id</text>
<polygon fill="#ffffff" stroke="transparent" points="582.5,-223.6204 582.5,-245.6204 675.5,-245.6204 675.5,-223.6204 582.5,-223.6204"/>
<polygon fill="none" stroke="#000000" points="582.5,-223.6204 582.5,-245.6204 675.5,-245.6204 675.5,-223.6204 582.5,-223.6204"/>
<image xlink:href="../../images/foreignKeys.png" width="11px" height="12px" preserveAspectRatio="xMinYMin meet" x="587.5" y="-240.62"/>
<text text-anchor="start" x="602.5" y="-230.7204" font-family="Helvetica,sans-Serif" font-size="11.00" fill="#000000">employee_id</text>
<polygon fill="none" stroke="#000000" points="582.5,-201.6204 582.5,-223.6204 675.5,-223.6204 675.5,-201.6204 582.5,-201.6204"/>
<image xlink:href="../../images/foreignKeys.png" width="11px" height="12px" preserveAspectRatio="xMinYMin meet" x="587.5" y="-218.62"/>
<text text-anchor="start" x="602.5" y="-208.7204" font-family="Helvetica,sans-Serif" font-size="11.00" fill="#000000">service_id</text>
<polygon fill="none" stroke="#000000" points="582.5,-182.6204 582.5,-201.6204 675.5,-201.6204 675.5,-182.6204 582.5,-182.6204"/>
<text text-anchor="start" x="585.5" y="-188.7204" font-family="Helvetica,sans-Serif" font-size="11.00" fill="#000000">...</text>
<polygon fill="#ffffff" stroke="transparent" points="582.5,-163.6204 582.5,-182.6204 609.5,-182.6204 609.5,-163.6204 582.5,-163.6204"/>
<polygon fill="none" stroke="#000000" points="582.5,-163.6204 582.5,-182.6204 609.5,-182.6204 609.5,-163.6204 582.5,-163.6204"/>
<text text-anchor="start" x="585.5" y="-169.7204" font-family="Helvetica,sans-Serif" font-size="11.00" fill="#000000">&lt; 4</text>
<polygon fill="#ffffff" stroke="transparent" points="609.5,-163.6204 609.5,-182.6204 650.5,-182.6204 650.5,-163.6204 609.5,-163.6204"/>
<polygon fill="none" stroke="#000000" points="609.5,-163.6204 609.5,-182.6204 650.5,-182.6204 650.5,-163.6204 609.5,-163.6204"/>
<text text-anchor="start" x="615.1105" y="-169.7204" font-family="Helvetica,sans-Serif" font-size="11.00" fill="#000000">0 rows</text>
<polygon fill="#ffffff" stroke="transparent" points="650.5,-163.6204 650.5,-182.6204 675.5,-182.6204 675.5,-163.6204 650.5,-163.6204"/>
<polygon fill="none" stroke="#000000" points="650.5,-163.6204 650.5,-182.6204 675.5,-182.6204 675.5,-163.6204 650.5,-163.6204"/>
<text text-anchor="start" x="656.9053" y="-169.7204" font-family="Helvetica,sans-Serif" font-size="11.00" fill="#000000">1 &gt;</text>
</a>
</g>
</g>
<!-- users -->
<g id="node2" class="node">
<title>users</title>
<g id="a_node2"><a xlink:href="../../tables/users.html" xlink:title="users" target="_top">
<polygon fill="#ffffff" stroke="transparent" points="8,-156.1204 8,-261.1204 115,-261.1204 115,-156.1204 8,-156.1204"/>
<polygon fill="#f5f5f5" stroke="transparent" points="8.5,-237.6204 8.5,-260.6204 115.5,-260.6204 115.5,-237.6204 8.5,-237.6204"/>
<polygon fill="none" stroke="#000000" points="8.5,-237.6204 8.5,-260.6204 115.5,-260.6204 115.5,-237.6204 8.5,-237.6204"/>
<text text-anchor="start" x="13.5" y="-246.7204" font-family="Helvetica,sans-Serif" font-weight="bold" font-size="11.00" fill="#000000">users</text>
<text text-anchor="start" x="80.5437" y="-245.7204" font-family="Helvetica,sans-Serif" font-size="11.00" fill="#000000">[table]</text>
<polygon fill="none" stroke="#000000" points="8.5,-215.6204 8.5,-237.6204 115.5,-237.6204 115.5,-215.6204 8.5,-215.6204"/>
<image xlink:href="../../images/primaryKeys.png" width="11px" height="12px" preserveAspectRatio="xMinYMin meet" x="13.5" y="-232.62"/>
<text text-anchor="start" x="28.5" y="-222.7204" font-family="Helvetica,sans-Serif" font-size="11.00" fill="#000000">id</text>
<polygon fill="#ffffff" stroke="transparent" points="8.5,-193.6204 8.5,-215.6204 115.5,-215.6204 115.5,-193.6204 8.5,-193.6204"/>
<polygon fill="none" stroke="#000000" points="8.5,-193.6204 8.5,-215.6204 115.5,-215.6204 115.5,-193.6204 8.5,-193.6204"/>
<text text-anchor="start" x="28.5" y="-200.7204" font-family="Helvetica,sans-Serif" font-size="11.00" fill="#000000">email</text>
<polygon fill="none" stroke="#000000" points="8.5,-174.6204 8.5,-193.6204 115.5,-193.6204 115.5,-174.6204 8.5,-174.6204"/>
<text text-anchor="start" x="11.5" y="-180.7204" font-family="Helvetica,sans-Serif" font-size="11.00" fill="#000000">...</text>
<polygon fill="#ffffff" stroke="transparent" points="8.5,-155.6204 8.5,-174.6204 38.5,-174.6204 38.5,-155.6204 8.5,-155.6204"/>
<polygon fill="none" stroke="#000000" points="8.5,-155.6204 8.5,-174.6204 38.5,-174.6204 38.5,-155.6204 8.5,-155.6204"/>
<text text-anchor="start" x="11.5" y="-161.7204" font-family="Helvetica,sans-Serif" font-size="11.00" fill="#000000"> &#160;</text>
<polygon fill="#ffffff" stroke="transparent" points="38.5,-155.6204 38.5,-174.6204 85.5,-174.6204 85.5,-155.6204 38.5,-155.6204"/>
<polygon fill="none" stroke="#000000" points="38.5,-155.6204 38.5,-174.6204 85.5,-174.6204 85.5,-155.6204 38.5,-155.6204"/>
<text text-anchor="start" x="50.1105" y="-161.7204" font-family="Helvetica,sans-Serif" font-size="11.00" fill="#000000">6 rows</text>
<polygon fill="#ffffff" stroke="transparent" points="85.5,-155.6204 85.5,-174.6204 115.5,-174.6204 115.5,-155.6204 85.5,-155.6204"/>
<polygon fill="none" stroke="#000000" points="85.5,-155.6204 85.5,-174.6204 115.5,-174.6204 115.5,-155.6204 85.5,-155.6204"/>
<text text-anchor="start" x="96.9053" y="-161.7204" font-family="Helvetica,sans-Serif" font-size="11.00" fill="#000000">5 &gt;</text>
</a>
</g>
</g>
<!-- bookings&#45;&gt;users -->
<g id="edge1" class="edge">
<title>bookings:w&#45;&gt;users:e</title>
<path fill="none" stroke="#000000" d="M567.9056,-254.8169C515.0265,-239.6974 578.8198,-133.6058 519,-92.6204 385.3261,-1.034 279.9043,-22.1958 156,-126.6204 119.3339,-157.522 163.4511,-226.6204 115.5,-226.6204"/>
<polygon fill="#000000" stroke="#000000" points="574.5604,-255.6392 582.0585,-260.1932 578.5302,-256.1298 582.5,-256.6204 582.5,-256.6204 582.5,-256.6204 578.5302,-256.1298 582.9415,-253.0476 574.5604,-255.6392 574.5604,-255.6392"/>
<ellipse fill="none" stroke="#000000" cx="571.3845" cy="-255.2468" rx="3.2" ry="3.2"/>
</g>
<!-- employees -->
<g id="node3" class="node">
<title>employees</title>
<g id="a_node3"><a xlink:href="../../tables/employees.html" xlink:title="employees" target="_top">
<polygon fill="#ffffff" stroke="transparent" points="320,-294.6204 320,-582.6204 511,-582.6204 511,-294.6204 320,-294.6204"/>
<polygon fill="#f5f5f5" stroke="transparent" points="322.5,-557.6204 322.5,-580.6204 509.5,-580.6204 509.5,-557.6204 322.5,-557.6204"/>
<polygon fill="none" stroke="#000000" points="322.5,-557.6204 322.5,-580.6204 509.5,-580.6204 509.5,-557.6204 322.5,-557.6204"/>
<text text-anchor="start" x="327.5" y="-566.7204" font-family="Helvetica,sans-Serif" font-weight="bold" font-size="11.00" fill="#000000">employees</text>
<text text-anchor="start" x="474.5437" y="-565.7204" font-family="Helvetica,sans-Serif" font-size="11.00" fill="#000000">[table]</text>
<polygon fill="none" stroke="#000000" points="322.5,-535.6204 322.5,-557.6204 419.5,-557.6204 419.5,-535.6204 322.5,-535.6204"/>
<image xlink:href="../../images/primaryKeys.png" width="11px" height="12px" preserveAspectRatio="xMinYMin meet" x="327.5" y="-552.62"/>
<text text-anchor="start" x="342.5" y="-542.7204" font-family="Helvetica,sans-Serif" font-size="11.00" fill="#000000">id</text>
<polygon fill="none" stroke="#000000" points="419.5,-535.6204 419.5,-557.6204 509.5,-557.6204 509.5,-535.6204 419.5,-535.6204"/>
<text text-anchor="start" x="422.5" y="-543.3204" font-family="Helvetica,sans-Serif" font-size="11.00" fill="#000000">bigserial[19]</text>
<polygon fill="#ffffff" stroke="transparent" points="322.5,-513.6204 322.5,-535.6204 419.5,-535.6204 419.5,-513.6204 322.5,-513.6204"/>
<polygon fill="none" stroke="#000000" points="322.5,-513.6204 322.5,-535.6204 419.5,-535.6204 419.5,-513.6204 322.5,-513.6204"/>
<image xlink:href="../../images/foreignKeys.png" width="11px" height="12px" preserveAspectRatio="xMinYMin meet" x="327.5" y="-530.62"/>
<text text-anchor="start" x="342.5" y="-520.7204" font-family="Helvetica,sans-Serif" font-size="11.00" fill="#000000">shop_id</text>
<polygon fill="none" stroke="#000000" points="419.5,-513.6204 419.5,-535.6204 509.5,-535.6204 509.5,-513.6204 419.5,-513.6204"/>
<text text-anchor="start" x="422.5" y="-521.3204" font-family="Helvetica,sans-Serif" font-size="11.00" fill="#000000">int8[19]</text>
<polygon fill="#ffffff" stroke="transparent" points="322.5,-491.6204 322.5,-513.6204 419.5,-513.6204 419.5,-491.6204 322.5,-491.6204"/>
<polygon fill="none" stroke="#000000" points="322.5,-491.6204 322.5,-513.6204 419.5,-513.6204 419.5,-491.6204 322.5,-491.6204"/>
<image xlink:href="../../images/foreignKeys.png" width="11px" height="12px" preserveAspectRatio="xMinYMin meet" x="327.5" y="-508.62"/>
<text text-anchor="start" x="342.5" y="-498.7204" font-family="Helvetica,sans-Serif" font-size="11.00" fill="#000000">user_id</text>
<polygon fill="none" stroke="#000000" points="419.5,-491.6204 419.5,-513.6204 509.5,-513.6204 509.5,-491.6204 419.5,-491.6204"/>
<text text-anchor="start" x="422.5" y="-499.3204" font-family="Helvetica,sans-Serif" font-size="11.00" fill="#000000">int8[19]</text>
<polygon fill="none" stroke="#000000" points="322.5,-469.6204 322.5,-491.6204 419.5,-491.6204 419.5,-469.6204 322.5,-469.6204"/>
<text text-anchor="start" x="342.5" y="-476.7204" font-family="Helvetica,sans-Serif" font-size="11.00" fill="#000000">position</text>
<polygon fill="none" stroke="#000000" points="419.5,-469.6204 419.5,-491.6204 509.5,-491.6204 509.5,-469.6204 419.5,-469.6204"/>
<text text-anchor="start" x="422.5" y="-477.3204" font-family="Helvetica,sans-Serif" font-size="11.00" fill="#000000">varchar[100]</text>
<polygon fill="none" stroke="#000000" points="322.5,-447.6204 322.5,-469.6204 419.5,-469.6204 419.5,-447.6204 322.5,-447.6204"/>
<text text-anchor="start" x="342.5" y="-454.7204" font-family="Helvetica,sans-Serif" font-size="11.00" fill="#000000">bio</text>
<polygon fill="none" stroke="#000000" points="419.5,-447.6204 419.5,-469.6204 509.5,-469.6204 509.5,-447.6204 419.5,-447.6204"/>
<text text-anchor="start" x="422.0043" y="-455.3204" font-family="Helvetica,sans-Serif" font-size="11.00" fill="#000000">text[2147483647]</text>
<polygon fill="none" stroke="#000000" points="322.5,-425.6204 322.5,-447.6204 419.5,-447.6204 419.5,-425.6204 322.5,-425.6204"/>
<text text-anchor="start" x="342.5" y="-432.7204" font-family="Helvetica,sans-Serif" font-size="11.00" fill="#000000">image_url</text>
<polygon fill="none" stroke="#000000" points="419.5,-425.6204 419.5,-447.6204 509.5,-447.6204 509.5,-425.6204 419.5,-425.6204"/>
<text text-anchor="start" x="422.0043" y="-433.3204" font-family="Helvetica,sans-Serif" font-size="11.00" fill="#000000">text[2147483647]</text>
<polygon fill="none" stroke="#000000" points="322.5,-403.6204 322.5,-425.6204 419.5,-425.6204 419.5,-403.6204 322.5,-403.6204"/>
<text text-anchor="start" x="342.5" y="-410.7204" font-family="Helvetica,sans-Serif" font-size="11.00" fill="#000000">rating</text>
<polygon fill="none" stroke="#000000" points="419.5,-403.6204 419.5,-425.6204 509.5,-425.6204 509.5,-403.6204 419.5,-403.6204"/>
<text text-anchor="start" x="422.5" y="-411.3204" font-family="Helvetica,sans-Serif" font-size="11.00" fill="#000000">float8[17,17]</text>
<polygon fill="none" stroke="#000000" points="322.5,-381.6204 322.5,-403.6204 419.5,-403.6204 419.5,-381.6204 322.5,-381.6204"/>
<text text-anchor="start" x="342.5" y="-388.7204" font-family="Helvetica,sans-Serif" font-size="11.00" fill="#000000">total_reviews</text>
<polygon fill="none" stroke="#000000" points="419.5,-381.6204 419.5,-403.6204 509.5,-403.6204 509.5,-381.6204 419.5,-381.6204"/>
<text text-anchor="start" x="422.5" y="-389.3204" font-family="Helvetica,sans-Serif" font-size="11.00" fill="#000000">int4[10]</text>
<polygon fill="none" stroke="#000000" points="322.5,-359.6204 322.5,-381.6204 419.5,-381.6204 419.5,-359.6204 322.5,-359.6204"/>
<text text-anchor="start" x="342.5" y="-366.7204" font-family="Helvetica,sans-Serif" font-size="11.00" fill="#000000">is_active</text>
<polygon fill="none" stroke="#000000" points="419.5,-359.6204 419.5,-381.6204 509.5,-381.6204 509.5,-359.6204 419.5,-359.6204"/>
<text text-anchor="start" x="422.5" y="-367.3204" font-family="Helvetica,sans-Serif" font-size="11.00" fill="#000000">bool[1]</text>
<polygon fill="none" stroke="#000000" points="322.5,-337.6204 322.5,-359.6204 419.5,-359.6204 419.5,-337.6204 322.5,-337.6204"/>
<text text-anchor="start" x="342.5" y="-344.7204" font-family="Helvetica,sans-Serif" font-size="11.00" fill="#000000">created_at</text>
<polygon fill="none" stroke="#000000" points="419.5,-337.6204 419.5,-359.6204 509.5,-359.6204 509.5,-337.6204 419.5,-337.6204"/>
<text text-anchor="start" x="422.5" y="-345.3204" font-family="Helvetica,sans-Serif" font-size="11.00" fill="#000000">timestamp[29,6]</text>
<polygon fill="none" stroke="#000000" points="322.5,-315.6204 322.5,-337.6204 419.5,-337.6204 419.5,-315.6204 322.5,-315.6204"/>
<text text-anchor="start" x="342.5" y="-322.7204" font-family="Helvetica,sans-Serif" font-size="11.00" fill="#000000">updated_at</text>
<polygon fill="none" stroke="#000000" points="419.5,-315.6204 419.5,-337.6204 509.5,-337.6204 509.5,-315.6204 419.5,-315.6204"/>
<text text-anchor="start" x="422.5" y="-323.3204" font-family="Helvetica,sans-Serif" font-size="11.00" fill="#000000">timestamp[29,6]</text>
<polygon fill="#ffffff" stroke="transparent" points="322.5,-296.6204 322.5,-315.6204 362.5,-315.6204 362.5,-296.6204 322.5,-296.6204"/>
<polygon fill="none" stroke="#000000" points="322.5,-296.6204 322.5,-315.6204 362.5,-315.6204 362.5,-296.6204 322.5,-296.6204"/>
<text text-anchor="start" x="325.5" y="-302.7204" font-family="Helvetica,sans-Serif" font-size="11.00" fill="#000000">&lt; 2</text>
<polygon fill="#ffffff" stroke="transparent" points="362.5,-296.6204 362.5,-315.6204 419.5,-315.6204 419.5,-296.6204 362.5,-296.6204"/>
<polygon fill="none" stroke="#000000" points="362.5,-296.6204 362.5,-315.6204 419.5,-315.6204 419.5,-296.6204 362.5,-296.6204"/>
<text text-anchor="start" x="384.1105" y="-302.7204" font-family="Helvetica,sans-Serif" font-size="11.00" fill="#000000">0 rows</text>
<polygon fill="#ffffff" stroke="transparent" points="419.5,-296.6204 419.5,-315.6204 509.5,-315.6204 509.5,-296.6204 419.5,-296.6204"/>
<polygon fill="none" stroke="#000000" points="419.5,-296.6204 419.5,-315.6204 509.5,-315.6204 509.5,-296.6204 419.5,-296.6204"/>
<text text-anchor="start" x="490.9053" y="-302.7204" font-family="Helvetica,sans-Serif" font-size="11.00" fill="#000000">3 &gt;</text>
<polygon fill="none" stroke="#000000" stroke-width="2" points="321,-295.6204 321,-581.6204 510,-581.6204 510,-295.6204 321,-295.6204"/>
</a>
</g>
</g>
<!-- bookings&#45;&gt;employees -->
<g id="edge2" class="edge">
<title>bookings:w&#45;&gt;employees:e</title>
<path fill="none" stroke="#000000" d="M568.8543,-239.5212C520.8229,-279.2143 575.421,-546.6204 509.5,-546.6204"/>
<polygon fill="#000000" stroke="#000000" points="574.9708,-237.3245 583.7168,-238.0085 578.7354,-235.9725 582.5,-234.6204 582.5,-234.6204 582.5,-234.6204 578.7354,-235.9725 581.2832,-231.2323 574.9708,-237.3245 574.9708,-237.3245"/>
<ellipse fill="none" stroke="#000000" cx="571.9592" cy="-238.4062" rx="3.2" ry="3.2"/>
</g>
<!-- services -->
<g id="node4" class="node">
<title>services</title>
<g id="a_node4"><a xlink:href="../../tables/services.html" xlink:title="services" target="_top">
<polygon fill="#ffffff" stroke="transparent" points="374,-185.1204 374,-246.1204 457,-246.1204 457,-185.1204 374,-185.1204"/>
<polygon fill="#f5f5f5" stroke="transparent" points="374.5,-222.6204 374.5,-245.6204 457.5,-245.6204 457.5,-222.6204 374.5,-222.6204"/>
<polygon fill="none" stroke="#000000" points="374.5,-222.6204 374.5,-245.6204 457.5,-245.6204 457.5,-222.6204 374.5,-222.6204"/>
<text text-anchor="start" x="379.3337" y="-231.7204" font-family="Helvetica,sans-Serif" font-weight="bold" font-size="11.00" fill="#000000">services</text>
<text text-anchor="start" x="423.0219" y="-230.7204" font-family="Helvetica,sans-Serif" font-size="11.00" fill="#000000">[table]</text>
<polygon fill="none" stroke="#000000" points="374.5,-203.6204 374.5,-222.6204 457.5,-222.6204 457.5,-203.6204 374.5,-203.6204"/>
<text text-anchor="start" x="377.5" y="-209.7204" font-family="Helvetica,sans-Serif" font-size="11.00" fill="#000000">...</text>
<polygon fill="#ffffff" stroke="transparent" points="374.5,-184.6204 374.5,-203.6204 396.5,-203.6204 396.5,-184.6204 374.5,-184.6204"/>
<polygon fill="none" stroke="#000000" points="374.5,-184.6204 374.5,-203.6204 396.5,-203.6204 396.5,-184.6204 374.5,-184.6204"/>
<text text-anchor="start" x="377.5" y="-190.7204" font-family="Helvetica,sans-Serif" font-size="11.00" fill="#000000">&lt; 1</text>
<polygon fill="#ffffff" stroke="transparent" points="396.5,-184.6204 396.5,-203.6204 435.5,-203.6204 435.5,-184.6204 396.5,-184.6204"/>
<polygon fill="none" stroke="#000000" points="396.5,-184.6204 396.5,-203.6204 435.5,-203.6204 435.5,-184.6204 396.5,-184.6204"/>
<text text-anchor="start" x="400.1105" y="-190.7204" font-family="Helvetica,sans-Serif" font-size="11.00" fill="#000000">0 rows</text>
<polygon fill="#ffffff" stroke="transparent" points="435.5,-184.6204 435.5,-203.6204 457.5,-203.6204 457.5,-184.6204 435.5,-184.6204"/>
<polygon fill="none" stroke="#000000" points="435.5,-184.6204 435.5,-203.6204 457.5,-203.6204 457.5,-184.6204 435.5,-184.6204"/>
<text text-anchor="start" x="438.9053" y="-190.7204" font-family="Helvetica,sans-Serif" font-size="11.00" fill="#000000">2 &gt;</text>
</a>
</g>
</g>
<!-- bookings&#45;&gt;services -->
<g id="edge3" class="edge">
<title>bookings:w&#45;&gt;services:e</title>
<path fill="none" stroke="#000000" d="M567.905,-212.6204C523.9741,-212.6204 507.8472,-212.6204 457.5,-212.6204"/>
<polygon fill="#000000" stroke="#000000" points="574.5,-212.6205 582.5,-216.2204 578.5,-212.6205 582.5,-212.6204 582.5,-212.6204 582.5,-212.6204 578.5,-212.6205 582.5,-209.0204 574.5,-212.6205 574.5,-212.6205"/>
<ellipse fill="none" stroke="#000000" cx="571.3" cy="-212.6205" rx="3.2" ry="3.2"/>
</g>
<!-- shops -->
<g id="node5" class="node">
<title>shops</title>
<g id="a_node5"><a xlink:href="../../tables/shops.html" xlink:title="shops" target="_top">
<polygon fill="#ffffff" stroke="transparent" points="164,-178.1204 164,-305.1204 271,-305.1204 271,-178.1204 164,-178.1204"/>
<polygon fill="#f5f5f5" stroke="transparent" points="164.5,-281.6204 164.5,-304.6204 271.5,-304.6204 271.5,-281.6204 164.5,-281.6204"/>
<polygon fill="none" stroke="#000000" points="164.5,-281.6204 164.5,-304.6204 271.5,-304.6204 271.5,-281.6204 164.5,-281.6204"/>
<text text-anchor="start" x="169.5" y="-290.7204" font-family="Helvetica,sans-Serif" font-weight="bold" font-size="11.00" fill="#000000">shops</text>
<text text-anchor="start" x="236.5437" y="-289.7204" font-family="Helvetica,sans-Serif" font-size="11.00" fill="#000000">[table]</text>
<polygon fill="none" stroke="#000000" points="164.5,-259.6204 164.5,-281.6204 271.5,-281.6204 271.5,-259.6204 164.5,-259.6204"/>
<image xlink:href="../../images/primaryKeys.png" width="11px" height="12px" preserveAspectRatio="xMinYMin meet" x="169.5" y="-276.62"/>
<text text-anchor="start" x="184.5" y="-266.7204" font-family="Helvetica,sans-Serif" font-size="11.00" fill="#000000">id</text>
<polygon fill="#ffffff" stroke="transparent" points="164.5,-237.6204 164.5,-259.6204 271.5,-259.6204 271.5,-237.6204 164.5,-237.6204"/>
<polygon fill="none" stroke="#000000" points="164.5,-237.6204 164.5,-259.6204 271.5,-259.6204 271.5,-237.6204 164.5,-237.6204"/>
<text text-anchor="start" x="184.5" y="-244.7204" font-family="Helvetica,sans-Serif" font-size="11.00" fill="#000000">city</text>
<polygon fill="#ffffff" stroke="transparent" points="164.5,-215.6204 164.5,-237.6204 271.5,-237.6204 271.5,-215.6204 164.5,-215.6204"/>
<polygon fill="none" stroke="#000000" points="164.5,-215.6204 164.5,-237.6204 271.5,-237.6204 271.5,-215.6204 164.5,-215.6204"/>
<image xlink:href="../../images/foreignKeys.png" width="11px" height="12px" preserveAspectRatio="xMinYMin meet" x="169.5" y="-232.62"/>
<text text-anchor="start" x="184.5" y="-222.7204" font-family="Helvetica,sans-Serif" font-size="11.00" fill="#000000">owner_id</text>
<polygon fill="none" stroke="#000000" points="164.5,-196.6204 164.5,-215.6204 271.5,-215.6204 271.5,-196.6204 164.5,-196.6204"/>
<text text-anchor="start" x="167.5" y="-202.7204" font-family="Helvetica,sans-Serif" font-size="11.00" fill="#000000">...</text>
<polygon fill="#ffffff" stroke="transparent" points="164.5,-177.6204 164.5,-196.6204 201.5,-196.6204 201.5,-177.6204 164.5,-177.6204"/>
<polygon fill="none" stroke="#000000" points="164.5,-177.6204 164.5,-196.6204 201.5,-196.6204 201.5,-177.6204 164.5,-177.6204"/>
<text text-anchor="start" x="167.5" y="-183.7204" font-family="Helvetica,sans-Serif" font-size="11.00" fill="#000000">&lt; 1</text>
<polygon fill="#ffffff" stroke="transparent" points="201.5,-177.6204 201.5,-196.6204 241.5,-196.6204 241.5,-177.6204 201.5,-177.6204"/>
<polygon fill="none" stroke="#000000" points="201.5,-177.6204 201.5,-196.6204 241.5,-196.6204 241.5,-177.6204 201.5,-177.6204"/>
<text text-anchor="start" x="211.6105" y="-183.7204" font-family="Helvetica,sans-Serif" font-size="11.00" fill="#000000">1 row</text>
<polygon fill="#ffffff" stroke="transparent" points="241.5,-177.6204 241.5,-196.6204 271.5,-196.6204 271.5,-177.6204 241.5,-177.6204"/>
<polygon fill="none" stroke="#000000" points="241.5,-177.6204 241.5,-196.6204 271.5,-196.6204 271.5,-177.6204 241.5,-177.6204"/>
<text text-anchor="start" x="252.9053" y="-183.7204" font-family="Helvetica,sans-Serif" font-size="11.00" fill="#000000">5 &gt;</text>
</a>
</g>
</g>
<!-- bookings&#45;&gt;shops -->
<g id="edge4" class="edge">
<title>bookings:w&#45;&gt;shops:e</title>
<path fill="none" stroke="#000000" d="M567.9087,-278.5898C441.606,-278.0527 404.7719,-270.6204 271.5,-270.6204"/>
<polygon fill="#000000" stroke="#000000" points="574.5,-278.6036 582.4924,-282.2204 578.5,-278.612 582.5,-278.6204 582.5,-278.6204 582.5,-278.6204 578.5,-278.612 582.5076,-275.0204 574.5,-278.6036 574.5,-278.6036"/>
<ellipse fill="none" stroke="#000000" cx="571.3" cy="-278.5969" rx="3.2" ry="3.2"/>
</g>
<!-- employees&#45;&gt;users -->
<g id="edge8" class="edge">
<title>employees:w&#45;&gt;users:e</title>
<path fill="none" stroke="#000000" d="M307.8976,-502.037C211.5853,-494.0154 213.9421,-404.5895 156,-315.6204 132.2833,-279.2039 158.9585,-226.6204 115.5,-226.6204"/>
<polygon fill="#000000" stroke="#000000" points="314.5064,-502.301 322.3563,-506.2176 318.5032,-502.4607 322.5,-502.6204 322.5,-502.6204 322.5,-502.6204 318.5032,-502.4607 322.6437,-499.0233 314.5064,-502.301 314.5064,-502.301"/>
<ellipse fill="none" stroke="#000000" cx="311.3089" cy="-502.1732" rx="3.2" ry="3.2"/>
</g>
<!-- employees&#45;&gt;shops -->
<g id="edge7" class="edge">
<title>employees:w&#45;&gt;shops:e</title>
<path fill="none" stroke="#000000" d="M308.1883,-522.9984C223.5189,-501.366 381.2447,-270.6204 271.5,-270.6204"/>
<polygon fill="#000000" stroke="#000000" points="314.5509,-523.7195 322.0946,-528.1975 318.5254,-524.1699 322.5,-524.6204 322.5,-524.6204 322.5,-524.6204 318.5254,-524.1699 322.9054,-521.0433 314.5509,-523.7195 314.5509,-523.7195"/>
<ellipse fill="none" stroke="#000000" cx="311.3712" cy="-523.3591" rx="3.2" ry="3.2"/>
</g>
<!-- services&#45;&gt;shops -->
<g id="edge15" class="edge">
<title>services:w&#45;&gt;shops:e</title>
<path fill="none" stroke="#000000" d="M360.0682,-214.2937C321.8212,-223.8034 318.7009,-270.6204 271.5,-270.6204"/>
<polygon fill="#000000" stroke="#000000" points="366.5532,-213.5419 374.9146,-216.1965 370.5266,-213.0811 374.5,-212.6204 374.5,-212.6204 374.5,-212.6204 370.5266,-213.0811 374.0854,-209.0444 366.5532,-213.5419 366.5532,-213.5419"/>
<ellipse fill="none" stroke="#000000" cx="363.3745" cy="-213.9104" rx="3.2" ry="3.2"/>
</g>
<!-- shops&#45;&gt;users -->
<g id="edge16" class="edge">
<title>shops:w&#45;&gt;users:e</title>
<path fill="none" stroke="#000000" d="M149.9909,-226.6204C138.6774,-226.6204 131.4931,-226.6204 115.5,-226.6204"/>
<polygon fill="#000000" stroke="#000000" points="156.5,-226.6205 164.5,-230.2204 160.5,-226.6205 164.5,-226.6204 164.5,-226.6204 164.5,-226.6204 160.5,-226.6205 164.5,-223.0204 156.5,-226.6205 156.5,-226.6205"/>
<ellipse fill="none" stroke="#000000" cx="153.3" cy="-226.6205" rx="3.2" ry="3.2"/>
</g>
<!-- employee_services -->
<g id="node6" class="node">
<title>employee_services</title>
<g id="a_node6"><a xlink:href="../../tables/employee_services.html" xlink:title="employee_services" target="_top">
<polygon fill="#ffffff" stroke="transparent" points="560,-412.6204 560,-498.6204 697,-498.6204 697,-412.6204 560,-412.6204"/>
<polygon fill="#f5f5f5" stroke="transparent" points="560.5,-475.6204 560.5,-498.6204 697.5,-498.6204 697.5,-475.6204 560.5,-475.6204"/>
<polygon fill="none" stroke="#000000" points="560.5,-475.6204 560.5,-498.6204 697.5,-498.6204 697.5,-475.6204 560.5,-475.6204"/>
<text text-anchor="start" x="565.4376" y="-484.7204" font-family="Helvetica,sans-Serif" font-weight="bold" font-size="11.00" fill="#000000">employee_services</text>
<text text-anchor="start" x="663.0219" y="-483.7204" font-family="Helvetica,sans-Serif" font-size="11.00" fill="#000000">[table]</text>
<polygon fill="none" stroke="#000000" points="560.5,-453.6204 560.5,-475.6204 697.5,-475.6204 697.5,-453.6204 560.5,-453.6204"/>
<image xlink:href="../../images/primaryKeys.png" width="11px" height="12px" preserveAspectRatio="xMinYMin meet" x="565.5" y="-470.62"/>
<text text-anchor="start" x="583.5" y="-460.7204" font-family="Helvetica,sans-Serif" font-size="11.00" fill="#000000">employee_id</text>
<polygon fill="none" stroke="#000000" points="560.5,-431.6204 560.5,-453.6204 697.5,-453.6204 697.5,-431.6204 560.5,-431.6204"/>
<image xlink:href="../../images/primaryKeys.png" width="11px" height="12px" preserveAspectRatio="xMinYMin meet" x="565.5" y="-448.62"/>
<text text-anchor="start" x="583.5" y="-438.7204" font-family="Helvetica,sans-Serif" font-size="11.00" fill="#000000">service_id</text>
<polygon fill="#ffffff" stroke="transparent" points="560.5,-412.6204 560.5,-431.6204 614.5,-431.6204 614.5,-412.6204 560.5,-412.6204"/>
<polygon fill="none" stroke="#000000" points="560.5,-412.6204 560.5,-431.6204 614.5,-431.6204 614.5,-412.6204 560.5,-412.6204"/>
<text text-anchor="start" x="563.5" y="-418.7204" font-family="Helvetica,sans-Serif" font-size="11.00" fill="#000000">&lt; 2</text>
<polygon fill="#ffffff" stroke="transparent" points="614.5,-412.6204 614.5,-431.6204 668.5,-431.6204 668.5,-412.6204 614.5,-412.6204"/>
<polygon fill="none" stroke="#000000" points="614.5,-412.6204 614.5,-431.6204 668.5,-431.6204 668.5,-412.6204 614.5,-412.6204"/>
<text text-anchor="start" x="633.1105" y="-418.7204" font-family="Helvetica,sans-Serif" font-size="11.00" fill="#000000">0 rows</text>
<polygon fill="#ffffff" stroke="transparent" points="668.5,-412.6204 668.5,-431.6204 697.5,-431.6204 697.5,-412.6204 668.5,-412.6204"/>
<polygon fill="none" stroke="#000000" points="668.5,-412.6204 668.5,-431.6204 697.5,-431.6204 697.5,-412.6204 668.5,-412.6204"/>
<text text-anchor="start" x="688.3862" y="-418.7204" font-family="Helvetica,sans-Serif" font-size="11.00" fill="#000000"> &#160;</text>
</a>
</g>
</g>
<!-- employee_services&#45;&gt;employees -->
<g id="edge5" class="edge">
<title>employee_services:w&#45;&gt;employees:e</title>
<path fill="none" stroke="#000000" d="M546.5743,-469.0291C525.8419,-486.0613 546.3829,-546.6204 509.5,-546.6204"/>
<polygon fill="#000000" stroke="#000000" points="552.8731,-467.035 561.5866,-468.0525 556.6865,-465.8277 560.5,-464.6204 560.5,-464.6204 560.5,-464.6204 556.6865,-465.8277 559.4134,-461.1883 552.8731,-467.035 552.8731,-467.035"/>
<ellipse fill="none" stroke="#000000" cx="549.8223" cy="-468.0009" rx="3.2" ry="3.2"/>
</g>
<!-- employee_services&#45;&gt;services -->
<g id="edge6" class="edge">
<title>employee_services:w&#45;&gt;services:e</title>
<path fill="none" stroke="#000000" d="M546.1177,-441.0326C496.8751,-428.4158 550.4296,-343.3239 519,-283.6204 499.5529,-246.6789 499.2476,-212.6204 457.5,-212.6204"/>
<polygon fill="#000000" stroke="#000000" points="552.5483,-441.7425 560.1049,-446.1987 556.5242,-442.1815 560.5,-442.6204 560.5,-442.6204 560.5,-442.6204 556.5242,-442.1815 560.8951,-439.0422 552.5483,-441.7425 552.5483,-441.7425"/>
<ellipse fill="none" stroke="#000000" cx="549.3676" cy="-441.3913" rx="3.2" ry="3.2"/>
</g>
<!-- favorite_shops -->
<g id="node7" class="node">
<title>favorite_shops</title>
<g id="a_node7"><a xlink:href="../../tables/favorite_shops.html" xlink:title="favorite_shops" target="_top">
<polygon fill="#ffffff" stroke="transparent" points="358.5,-103.1204 358.5,-164.1204 472.5,-164.1204 472.5,-103.1204 358.5,-103.1204"/>
<polygon fill="#f5f5f5" stroke="transparent" points="358.5,-140.6204 358.5,-163.6204 472.5,-163.6204 472.5,-140.6204 358.5,-140.6204"/>
<polygon fill="none" stroke="#000000" points="358.5,-140.6204 358.5,-163.6204 472.5,-163.6204 472.5,-140.6204 358.5,-140.6204"/>
<text text-anchor="start" x="363.2396" y="-149.7204" font-family="Helvetica,sans-Serif" font-weight="bold" font-size="11.00" fill="#000000">favorite_shops</text>
<text text-anchor="start" x="438.0219" y="-148.7204" font-family="Helvetica,sans-Serif" font-size="11.00" fill="#000000">[table]</text>
<polygon fill="none" stroke="#000000" points="358.5,-121.6204 358.5,-140.6204 472.5,-140.6204 472.5,-121.6204 358.5,-121.6204"/>
<text text-anchor="start" x="361.5" y="-127.7204" font-family="Helvetica,sans-Serif" font-size="11.00" fill="#000000">...</text>
<polygon fill="#ffffff" stroke="transparent" points="358.5,-102.6204 358.5,-121.6204 400.5,-121.6204 400.5,-102.6204 358.5,-102.6204"/>
<polygon fill="none" stroke="#000000" points="358.5,-102.6204 358.5,-121.6204 400.5,-121.6204 400.5,-102.6204 358.5,-102.6204"/>
<text text-anchor="start" x="361.5" y="-108.7204" font-family="Helvetica,sans-Serif" font-size="11.00" fill="#000000">&lt; 2</text>
<polygon fill="#ffffff" stroke="transparent" points="400.5,-102.6204 400.5,-121.6204 449.5,-121.6204 449.5,-102.6204 400.5,-102.6204"/>
<polygon fill="none" stroke="#000000" points="400.5,-102.6204 400.5,-121.6204 449.5,-121.6204 449.5,-102.6204 400.5,-102.6204"/>
<text text-anchor="start" x="414.1105" y="-108.7204" font-family="Helvetica,sans-Serif" font-size="11.00" fill="#000000">0 rows</text>
<polygon fill="#ffffff" stroke="transparent" points="449.5,-102.6204 449.5,-121.6204 472.5,-121.6204 472.5,-102.6204 449.5,-102.6204"/>
<polygon fill="none" stroke="#000000" points="449.5,-102.6204 449.5,-121.6204 472.5,-121.6204 472.5,-102.6204 449.5,-102.6204"/>
<text text-anchor="start" x="463.3862" y="-108.7204" font-family="Helvetica,sans-Serif" font-size="11.00" fill="#000000"> &#160;</text>
</a>
</g>
</g>
<!-- favorite_shops&#45;&gt;users -->
<g id="edge10" class="edge">
<title>favorite_shops:w&#45;&gt;users:e</title>
<path fill="none" stroke="#000000" d="M343.9873,-130.5183C263.1387,-129.4124 228.5801,-120.5878 156,-167.6204 129.3084,-184.9168 147.3057,-226.6204 115.5,-226.6204"/>
<polygon fill="#000000" stroke="#000000" points="350.5002,-130.5641 358.4746,-134.2203 354.5001,-130.5923 358.5,-130.6204 358.5,-130.6204 358.5,-130.6204 354.5001,-130.5923 358.5254,-127.0205 350.5002,-130.5641 350.5002,-130.5641"/>
<ellipse fill="none" stroke="#000000" cx="347.3003" cy="-130.5415" rx="3.2" ry="3.2"/>
</g>
<!-- favorite_shops&#45;&gt;shops -->
<g id="edge9" class="edge">
<title>favorite_shops:w&#45;&gt;shops:e</title>
<path fill="none" stroke="#000000" d="M344.1126,-133.0227C328.7078,-139.1099 324.9163,-155.9864 312,-174.6204 285.6191,-212.6795 317.8081,-270.6204 271.5,-270.6204"/>
<polygon fill="#000000" stroke="#000000" points="350.6092,-131.938 359.0929,-134.1713 354.5546,-131.2792 358.5,-130.6204 358.5,-130.6204 358.5,-130.6204 354.5546,-131.2792 357.9071,-127.0696 350.6092,-131.938 350.6092,-131.938"/>
<ellipse fill="none" stroke="#000000" cx="347.4529" cy="-132.465" rx="3.2" ry="3.2"/>
</g>
<!-- reviews -->
<g id="node8" class="node">
<title>reviews</title>
<g id="a_node8"><a xlink:href="../../tables/reviews.html" xlink:title="reviews" target="_top">
<polygon fill="#ffffff" stroke="transparent" points="746,-503.1204 746,-674.1204 839,-674.1204 839,-503.1204 746,-503.1204"/>
<polygon fill="#f5f5f5" stroke="transparent" points="746.5,-650.6204 746.5,-673.6204 839.5,-673.6204 839.5,-650.6204 746.5,-650.6204"/>
<polygon fill="none" stroke="#000000" points="746.5,-650.6204 746.5,-673.6204 839.5,-673.6204 839.5,-650.6204 746.5,-650.6204"/>
<text text-anchor="start" x="751.5" y="-659.7204" font-family="Helvetica,sans-Serif" font-weight="bold" font-size="11.00" fill="#000000">reviews</text>
<text text-anchor="start" x="804.5437" y="-658.7204" font-family="Helvetica,sans-Serif" font-size="11.00" fill="#000000">[table]</text>
<polygon fill="none" stroke="#000000" points="746.5,-628.6204 746.5,-650.6204 839.5,-650.6204 839.5,-628.6204 746.5,-628.6204"/>
<image xlink:href="../../images/primaryKeys.png" width="11px" height="12px" preserveAspectRatio="xMinYMin meet" x="751.5" y="-645.62"/>
<text text-anchor="start" x="766.5" y="-635.7204" font-family="Helvetica,sans-Serif" font-size="11.00" fill="#000000">id</text>
<polygon fill="#ffffff" stroke="transparent" points="746.5,-606.6204 746.5,-628.6204 839.5,-628.6204 839.5,-606.6204 746.5,-606.6204"/>
<polygon fill="none" stroke="#000000" points="746.5,-606.6204 746.5,-628.6204 839.5,-628.6204 839.5,-606.6204 746.5,-606.6204"/>
<image xlink:href="../../images/foreignKeys.png" width="11px" height="12px" preserveAspectRatio="xMinYMin meet" x="751.5" y="-623.62"/>
<text text-anchor="start" x="766.5" y="-613.7204" font-family="Helvetica,sans-Serif" font-size="11.00" fill="#000000">customer_id</text>
<polygon fill="#ffffff" stroke="transparent" points="746.5,-584.6204 746.5,-606.6204 839.5,-606.6204 839.5,-584.6204 746.5,-584.6204"/>
<polygon fill="none" stroke="#000000" points="746.5,-584.6204 746.5,-606.6204 839.5,-606.6204 839.5,-584.6204 746.5,-584.6204"/>
<image xlink:href="../../images/foreignKeys.png" width="11px" height="12px" preserveAspectRatio="xMinYMin meet" x="751.5" y="-601.62"/>
<text text-anchor="start" x="766.5" y="-591.7204" font-family="Helvetica,sans-Serif" font-size="11.00" fill="#000000">shop_id</text>
<polygon fill="#ffffff" stroke="transparent" points="746.5,-562.6204 746.5,-584.6204 839.5,-584.6204 839.5,-562.6204 746.5,-562.6204"/>
<polygon fill="none" stroke="#000000" points="746.5,-562.6204 746.5,-584.6204 839.5,-584.6204 839.5,-562.6204 746.5,-562.6204"/>
<image xlink:href="../../images/foreignKeys.png" width="11px" height="12px" preserveAspectRatio="xMinYMin meet" x="751.5" y="-579.62"/>
<text text-anchor="start" x="766.5" y="-569.7204" font-family="Helvetica,sans-Serif" font-size="11.00" fill="#000000">employee_id</text>
<polygon fill="none" stroke="#000000" points="746.5,-540.6204 746.5,-562.6204 839.5,-562.6204 839.5,-540.6204 746.5,-540.6204"/>
<image xlink:href="../../images/foreignKeys.png" width="11px" height="12px" preserveAspectRatio="xMinYMin meet" x="751.5" y="-557.62"/>
<text text-anchor="start" x="766.5" y="-547.7204" font-family="Helvetica,sans-Serif" font-size="11.00" fill="#000000">booking_id</text>
<polygon fill="none" stroke="#000000" points="746.5,-521.6204 746.5,-540.6204 839.5,-540.6204 839.5,-521.6204 746.5,-521.6204"/>
<text text-anchor="start" x="749.5" y="-527.7204" font-family="Helvetica,sans-Serif" font-size="11.00" fill="#000000">...</text>
<polygon fill="#ffffff" stroke="transparent" points="746.5,-502.6204 746.5,-521.6204 778.5,-521.6204 778.5,-502.6204 746.5,-502.6204"/>
<polygon fill="none" stroke="#000000" points="746.5,-502.6204 746.5,-521.6204 778.5,-521.6204 778.5,-502.6204 746.5,-502.6204"/>
<text text-anchor="start" x="749.5" y="-508.7204" font-family="Helvetica,sans-Serif" font-size="11.00" fill="#000000">&lt; 4</text>
<polygon fill="#ffffff" stroke="transparent" points="778.5,-502.6204 778.5,-521.6204 821.5,-521.6204 821.5,-502.6204 778.5,-502.6204"/>
<polygon fill="none" stroke="#000000" points="778.5,-502.6204 778.5,-521.6204 821.5,-521.6204 821.5,-502.6204 778.5,-502.6204"/>
<text text-anchor="start" x="786.1105" y="-508.7204" font-family="Helvetica,sans-Serif" font-size="11.00" fill="#000000">0 rows</text>
<polygon fill="#ffffff" stroke="transparent" points="821.5,-502.6204 821.5,-521.6204 839.5,-521.6204 839.5,-502.6204 821.5,-502.6204"/>
<polygon fill="none" stroke="#000000" points="821.5,-502.6204 821.5,-521.6204 839.5,-521.6204 839.5,-502.6204 821.5,-502.6204"/>
<text text-anchor="start" x="830.3862" y="-508.7204" font-family="Helvetica,sans-Serif" font-size="11.00" fill="#000000"> &#160;</text>
</a>
</g>
</g>
<!-- reviews&#45;&gt;bookings -->
<g id="edge11" class="edge">
<title>reviews:w&#45;&gt;bookings:e</title>
<path fill="none" stroke="#000000" d="M733.2188,-545.9063C695.7769,-508.5449 728.2584,-300.6204 675.5,-300.6204"/>
<polygon fill="#000000" stroke="#000000" points="739.1513,-548.4587 745.0772,-554.9273 742.8256,-550.0396 746.5,-551.6204 746.5,-551.6204 746.5,-551.6204 742.8256,-550.0396 747.9228,-548.3135 739.1513,-548.4587 739.1513,-548.4587"/>
<ellipse fill="none" stroke="#000000" cx="736.2118" cy="-547.194" rx="3.2" ry="3.2"/>
</g>
<!-- reviews&#45;&gt;users -->
<g id="edge12" class="edge">
<title>reviews:w&#45;&gt;users:e</title>
<path fill="none" stroke="#000000" d="M732.0284,-617.7809C549.8648,-621.8342 480.9277,-700.6002 312,-617.6204 210.1867,-567.6082 203.7352,-518.5209 156,-415.6204 137.9243,-376.6555 158.4535,-226.6204 115.5,-226.6204"/>
<polygon fill="#000000" stroke="#000000" points="738.5005,-617.7092 746.5399,-621.2202 742.5002,-617.6648 746.5,-617.6204 746.5,-617.6204 746.5,-617.6204 742.5002,-617.6648 746.4601,-614.0206 738.5005,-617.7092 738.5005,-617.7092"/>
<ellipse fill="none" stroke="#000000" cx="735.3007" cy="-617.7447" rx="3.2" ry="3.2"/>
</g>
<!-- reviews&#45;&gt;employees -->
<g id="edge13" class="edge">
<title>reviews:w&#45;&gt;employees:e</title>
<path fill="none" stroke="#000000" d="M731.8201,-573.4409C637.91,-571.0983 610.4417,-546.6204 509.5,-546.6204"/>
<polygon fill="#000000" stroke="#000000" points="738.5006,-573.5225 746.4559,-577.2202 742.5003,-573.5715 746.5,-573.6204 746.5,-573.6204 746.5,-573.6204 742.5003,-573.5715 746.5441,-570.0207 738.5006,-573.5225 738.5006,-573.5225"/>
<ellipse fill="none" stroke="#000000" cx="735.3008" cy="-573.4834" rx="3.2" ry="3.2"/>
</g>
<!-- reviews&#45;&gt;shops -->
<g id="edge14" class="edge">
<title>reviews:w&#45;&gt;shops:e</title>
<path fill="none" stroke="#000000" d="M731.8442,-596.0101C625.4598,-601.1609 380.8645,-654.6719 312,-593.6204 257.8696,-545.6314 343.8398,-270.6204 271.5,-270.6204"/>
<polygon fill="#000000" stroke="#000000" points="738.5028,-595.8331 746.5957,-599.2192 742.5014,-595.7268 746.5,-595.6204 746.5,-595.6204 746.5,-595.6204 742.5014,-595.7268 746.4043,-592.0217 738.5028,-595.8331 738.5028,-595.8331"/>
<ellipse fill="none" stroke="#000000" cx="735.304" cy="-595.9182" rx="3.2" ry="3.2"/>
</g>
</g>
</svg>
