<?xml version="1.0" encoding="UTF-8" standalone="no"?>
<!DOCTYPE svg PUBLIC "-//W3C//DTD SVG 1.1//EN"
 "http://www.w3.org/Graphics/SVG/1.1/DTD/svg11.dtd">
<!-- Generated by graphviz version 2.40.1 (20161225.0304)
 -->
<!-- Title: oneDegreeRelationshipsDiagram Pages: 1 -->
<svg width="855pt" height="589pt"
 viewBox="0.00 0.00 855.00 589.43" xmlns="http://www.w3.org/2000/svg" xmlns:xlink="http://www.w3.org/1999/xlink">
<g id="graph0" class="graph" transform="scale(1 1) rotate(0) translate(4 585.4278)">
<title>oneDegreeRelationshipsDiagram</title>
<polygon fill="#ffffff" stroke="transparent" points="-4,4 -4,-585.4278 851,-585.4278 851,4 -4,4"/>
<text text-anchor="middle" x="72.4936" y="-7.3" font-family="Helvetica,sans-Serif" font-size="11.00" fill="#000000">Generated by SchemaSpy</text>
<!-- bookings -->
<g id="node1" class="node">
<title>bookings</title>
<g id="a_node1"><a xlink:href="../../tables/bookings.html" xlink:title="bookings" target="_top">
<polygon fill="#ffffff" stroke="transparent" points="582,-303.7 582,-474.7 675,-474.7 675,-303.7 582,-303.7"/>
<polygon fill="#f5f5f5" stroke="transparent" points="582.5,-451.2 582.5,-474.2 675.5,-474.2 675.5,-451.2 582.5,-451.2"/>
<polygon fill="none" stroke="#000000" points="582.5,-451.2 582.5,-474.2 675.5,-474.2 675.5,-451.2 582.5,-451.2"/>
<text text-anchor="start" x="587.5" y="-460.3" font-family="Helvetica,sans-Serif" font-weight="bold" font-size="11.00" fill="#000000">bookings</text>
<text text-anchor="start" x="640.5437" y="-459.3" font-family="Helvetica,sans-Serif" font-size="11.00" fill="#000000">[table]</text>
<polygon fill="none" stroke="#000000" points="582.5,-429.2 582.5,-451.2 675.5,-451.2 675.5,-429.2 582.5,-429.2"/>
<image xlink:href="../../images/primaryKeys.png" width="11px" height="12px" preserveAspectRatio="xMinYMin meet" x="587.5" y="-446.2"/>
<text text-anchor="start" x="602.5" y="-436.3" font-family="Helvetica,sans-Serif" font-size="11.00" fill="#000000">id</text>
<polygon fill="#ffffff" stroke="transparent" points="582.5,-407.2 582.5,-429.2 675.5,-429.2 675.5,-407.2 582.5,-407.2"/>
<polygon fill="none" stroke="#000000" points="582.5,-407.2 582.5,-429.2 675.5,-429.2 675.5,-407.2 582.5,-407.2"/>
<image xlink:href="../../images/foreignKeys.png" width="11px" height="12px" preserveAspectRatio="xMinYMin meet" x="587.5" y="-424.2"/>
<text text-anchor="start" x="602.5" y="-414.3" font-family="Helvetica,sans-Serif" font-size="11.00" fill="#000000">shop_id</text>
<polygon fill="#ffffff" stroke="transparent" points="582.5,-385.2 582.5,-407.2 675.5,-407.2 675.5,-385.2 582.5,-385.2"/>
<polygon fill="none" stroke="#000000" points="582.5,-385.2 582.5,-407.2 675.5,-407.2 675.5,-385.2 582.5,-385.2"/>
<image xlink:href="../../images/foreignKeys.png" width="11px" height="12px" preserveAspectRatio="xMinYMin meet" x="587.5" y="-402.2"/>
<text text-anchor="start" x="602.5" y="-392.3" font-family="Helvetica,sans-Serif" font-size="11.00" fill="#000000">customer_id</text>
<polygon fill="#ffffff" stroke="transparent" points="582.5,-363.2 582.5,-385.2 675.5,-385.2 675.5,-363.2 582.5,-363.2"/>
<polygon fill="none" stroke="#000000" points="582.5,-363.2 582.5,-385.2 675.5,-385.2 675.5,-363.2 582.5,-363.2"/>
<image xlink:href="../../images/foreignKeys.png" width="11px" height="12px" preserveAspectRatio="xMinYMin meet" x="587.5" y="-380.2"/>
<text text-anchor="start" x="602.5" y="-370.3" font-family="Helvetica,sans-Serif" font-size="11.00" fill="#000000">employee_id</text>
<polygon fill="none" stroke="#000000" points="582.5,-341.2 582.5,-363.2 675.5,-363.2 675.5,-341.2 582.5,-341.2"/>
<image xlink:href="../../images/foreignKeys.png" width="11px" height="12px" preserveAspectRatio="xMinYMin meet" x="587.5" y="-358.2"/>
<text text-anchor="start" x="602.5" y="-348.3" font-family="Helvetica,sans-Serif" font-size="11.00" fill="#000000">service_id</text>
<polygon fill="none" stroke="#000000" points="582.5,-322.2 582.5,-341.2 675.5,-341.2 675.5,-322.2 582.5,-322.2"/>
<text text-anchor="start" x="585.5" y="-328.3" font-family="Helvetica,sans-Serif" font-size="11.00" fill="#000000">...</text>
<polygon fill="#ffffff" stroke="transparent" points="582.5,-303.2 582.5,-322.2 609.5,-322.2 609.5,-303.2 582.5,-303.2"/>
<polygon fill="none" stroke="#000000" points="582.5,-303.2 582.5,-322.2 609.5,-322.2 609.5,-303.2 582.5,-303.2"/>
<text text-anchor="start" x="585.5" y="-309.3" font-family="Helvetica,sans-Serif" font-size="11.00" fill="#000000">&lt; 4</text>
<polygon fill="#ffffff" stroke="transparent" points="609.5,-303.2 609.5,-322.2 650.5,-322.2 650.5,-303.2 609.5,-303.2"/>
<polygon fill="none" stroke="#000000" points="609.5,-303.2 609.5,-322.2 650.5,-322.2 650.5,-303.2 609.5,-303.2"/>
<text text-anchor="start" x="615.1105" y="-309.3" font-family="Helvetica,sans-Serif" font-size="11.00" fill="#000000">0 rows</text>
<polygon fill="#ffffff" stroke="transparent" points="650.5,-303.2 650.5,-322.2 675.5,-322.2 675.5,-303.2 650.5,-303.2"/>
<polygon fill="none" stroke="#000000" points="650.5,-303.2 650.5,-322.2 675.5,-322.2 675.5,-303.2 650.5,-303.2"/>
<text text-anchor="start" x="656.9053" y="-309.3" font-family="Helvetica,sans-Serif" font-size="11.00" fill="#000000">1 &gt;</text>
</a>
</g>
</g>
<!-- users -->
<g id="node2" class="node">
<title>users</title>
<g id="a_node2"><a xlink:href="../../tables/users.html" xlink:title="users" target="_top">
<polygon fill="#ffffff" stroke="transparent" points="8,-315.7 8,-420.7 115,-420.7 115,-315.7 8,-315.7"/>
<polygon fill="#f5f5f5" stroke="transparent" points="8.5,-397.2 8.5,-420.2 115.5,-420.2 115.5,-397.2 8.5,-397.2"/>
<polygon fill="none" stroke="#000000" points="8.5,-397.2 8.5,-420.2 115.5,-420.2 115.5,-397.2 8.5,-397.2"/>
<text text-anchor="start" x="13.5" y="-406.3" font-family="Helvetica,sans-Serif" font-weight="bold" font-size="11.00" fill="#000000">users</text>
<text text-anchor="start" x="80.5437" y="-405.3" font-family="Helvetica,sans-Serif" font-size="11.00" fill="#000000">[table]</text>
<polygon fill="none" stroke="#000000" points="8.5,-375.2 8.5,-397.2 115.5,-397.2 115.5,-375.2 8.5,-375.2"/>
<image xlink:href="../../images/primaryKeys.png" width="11px" height="12px" preserveAspectRatio="xMinYMin meet" x="13.5" y="-392.2"/>
<text text-anchor="start" x="28.5" y="-382.3" font-family="Helvetica,sans-Serif" font-size="11.00" fill="#000000">id</text>
<polygon fill="#ffffff" stroke="transparent" points="8.5,-353.2 8.5,-375.2 115.5,-375.2 115.5,-353.2 8.5,-353.2"/>
<polygon fill="none" stroke="#000000" points="8.5,-353.2 8.5,-375.2 115.5,-375.2 115.5,-353.2 8.5,-353.2"/>
<text text-anchor="start" x="28.5" y="-360.3" font-family="Helvetica,sans-Serif" font-size="11.00" fill="#000000">email</text>
<polygon fill="none" stroke="#000000" points="8.5,-334.2 8.5,-353.2 115.5,-353.2 115.5,-334.2 8.5,-334.2"/>
<text text-anchor="start" x="11.5" y="-340.3" font-family="Helvetica,sans-Serif" font-size="11.00" fill="#000000">...</text>
<polygon fill="#ffffff" stroke="transparent" points="8.5,-315.2 8.5,-334.2 38.5,-334.2 38.5,-315.2 8.5,-315.2"/>
<polygon fill="none" stroke="#000000" points="8.5,-315.2 8.5,-334.2 38.5,-334.2 38.5,-315.2 8.5,-315.2"/>
<text text-anchor="start" x="11.5" y="-321.3" font-family="Helvetica,sans-Serif" font-size="11.00" fill="#000000"> &#160;</text>
<polygon fill="#ffffff" stroke="transparent" points="38.5,-315.2 38.5,-334.2 85.5,-334.2 85.5,-315.2 38.5,-315.2"/>
<polygon fill="none" stroke="#000000" points="38.5,-315.2 38.5,-334.2 85.5,-334.2 85.5,-315.2 38.5,-315.2"/>
<text text-anchor="start" x="50.1105" y="-321.3" font-family="Helvetica,sans-Serif" font-size="11.00" fill="#000000">6 rows</text>
<polygon fill="#ffffff" stroke="transparent" points="85.5,-315.2 85.5,-334.2 115.5,-334.2 115.5,-315.2 85.5,-315.2"/>
<polygon fill="none" stroke="#000000" points="85.5,-315.2 85.5,-334.2 115.5,-334.2 115.5,-315.2 85.5,-315.2"/>
<text text-anchor="start" x="96.9053" y="-321.3" font-family="Helvetica,sans-Serif" font-size="11.00" fill="#000000">5 &gt;</text>
</a>
</g>
</g>
<!-- bookings&#45;&gt;users -->
<g id="edge1" class="edge">
<title>bookings:w&#45;&gt;users:e</title>
<path fill="none" stroke="#000000" d="M567.8157,-396.0994C444.3158,-394.378 409.4231,-371.0567 279,-364.2 224.4087,-361.33 208.9833,-350.7384 156,-364.2 136.1465,-369.2442 135.9843,-386.2 115.5,-386.2"/>
<polygon fill="#000000" stroke="#000000" points="574.5002,-396.1451 582.4753,-399.7999 578.5001,-396.1726 582.5,-396.2 582.5,-396.2 582.5,-396.2 578.5001,-396.1726 582.5247,-392.6001 574.5002,-396.1451 574.5002,-396.1451"/>
<ellipse fill="none" stroke="#000000" cx="571.3003" cy="-396.1232" rx="3.2" ry="3.2"/>
</g>
<!-- employees -->
<g id="node3" class="node">
<title>employees</title>
<g id="a_node3"><a xlink:href="../../tables/employees.html" xlink:title="employees" target="_top">
<polygon fill="#ffffff" stroke="transparent" points="320,-38.2 320,-326.2 511,-326.2 511,-38.2 320,-38.2"/>
<polygon fill="#f5f5f5" stroke="transparent" points="322.5,-301.2 322.5,-324.2 509.5,-324.2 509.5,-301.2 322.5,-301.2"/>
<polygon fill="none" stroke="#000000" points="322.5,-301.2 322.5,-324.2 509.5,-324.2 509.5,-301.2 322.5,-301.2"/>
<text text-anchor="start" x="327.5" y="-310.3" font-family="Helvetica,sans-Serif" font-weight="bold" font-size="11.00" fill="#000000">employees</text>
<text text-anchor="start" x="474.5437" y="-309.3" font-family="Helvetica,sans-Serif" font-size="11.00" fill="#000000">[table]</text>
<polygon fill="none" stroke="#000000" points="322.5,-279.2 322.5,-301.2 419.5,-301.2 419.5,-279.2 322.5,-279.2"/>
<image xlink:href="../../images/primaryKeys.png" width="11px" height="12px" preserveAspectRatio="xMinYMin meet" x="327.5" y="-296.2"/>
<text text-anchor="start" x="342.5" y="-286.3" font-family="Helvetica,sans-Serif" font-size="11.00" fill="#000000">id</text>
<polygon fill="none" stroke="#000000" points="419.5,-279.2 419.5,-301.2 509.5,-301.2 509.5,-279.2 419.5,-279.2"/>
<text text-anchor="start" x="422.5" y="-286.9" font-family="Helvetica,sans-Serif" font-size="11.00" fill="#000000">bigserial[19]</text>
<polygon fill="#ffffff" stroke="transparent" points="322.5,-257.2 322.5,-279.2 419.5,-279.2 419.5,-257.2 322.5,-257.2"/>
<polygon fill="none" stroke="#000000" points="322.5,-257.2 322.5,-279.2 419.5,-279.2 419.5,-257.2 322.5,-257.2"/>
<image xlink:href="../../images/foreignKeys.png" width="11px" height="12px" preserveAspectRatio="xMinYMin meet" x="327.5" y="-274.2"/>
<text text-anchor="start" x="342.5" y="-264.3" font-family="Helvetica,sans-Serif" font-size="11.00" fill="#000000">shop_id</text>
<polygon fill="none" stroke="#000000" points="419.5,-257.2 419.5,-279.2 509.5,-279.2 509.5,-257.2 419.5,-257.2"/>
<text text-anchor="start" x="422.5" y="-264.9" font-family="Helvetica,sans-Serif" font-size="11.00" fill="#000000">int8[19]</text>
<polygon fill="#ffffff" stroke="transparent" points="322.5,-235.2 322.5,-257.2 419.5,-257.2 419.5,-235.2 322.5,-235.2"/>
<polygon fill="none" stroke="#000000" points="322.5,-235.2 322.5,-257.2 419.5,-257.2 419.5,-235.2 322.5,-235.2"/>
<image xlink:href="../../images/foreignKeys.png" width="11px" height="12px" preserveAspectRatio="xMinYMin meet" x="327.5" y="-252.2"/>
<text text-anchor="start" x="342.5" y="-242.3" font-family="Helvetica,sans-Serif" font-size="11.00" fill="#000000">user_id</text>
<polygon fill="none" stroke="#000000" points="419.5,-235.2 419.5,-257.2 509.5,-257.2 509.5,-235.2 419.5,-235.2"/>
<text text-anchor="start" x="422.5" y="-242.9" font-family="Helvetica,sans-Serif" font-size="11.00" fill="#000000">int8[19]</text>
<polygon fill="none" stroke="#000000" points="322.5,-213.2 322.5,-235.2 419.5,-235.2 419.5,-213.2 322.5,-213.2"/>
<text text-anchor="start" x="342.5" y="-220.3" font-family="Helvetica,sans-Serif" font-size="11.00" fill="#000000">position</text>
<polygon fill="none" stroke="#000000" points="419.5,-213.2 419.5,-235.2 509.5,-235.2 509.5,-213.2 419.5,-213.2"/>
<text text-anchor="start" x="422.5" y="-220.9" font-family="Helvetica,sans-Serif" font-size="11.00" fill="#000000">varchar[100]</text>
<polygon fill="none" stroke="#000000" points="322.5,-191.2 322.5,-213.2 419.5,-213.2 419.5,-191.2 322.5,-191.2"/>
<text text-anchor="start" x="342.5" y="-198.3" font-family="Helvetica,sans-Serif" font-size="11.00" fill="#000000">bio</text>
<polygon fill="none" stroke="#000000" points="419.5,-191.2 419.5,-213.2 509.5,-213.2 509.5,-191.2 419.5,-191.2"/>
<text text-anchor="start" x="422.0043" y="-198.9" font-family="Helvetica,sans-Serif" font-size="11.00" fill="#000000">text[2147483647]</text>
<polygon fill="none" stroke="#000000" points="322.5,-169.2 322.5,-191.2 419.5,-191.2 419.5,-169.2 322.5,-169.2"/>
<text text-anchor="start" x="342.5" y="-176.3" font-family="Helvetica,sans-Serif" font-size="11.00" fill="#000000">image_url</text>
<polygon fill="none" stroke="#000000" points="419.5,-169.2 419.5,-191.2 509.5,-191.2 509.5,-169.2 419.5,-169.2"/>
<text text-anchor="start" x="422.0043" y="-176.9" font-family="Helvetica,sans-Serif" font-size="11.00" fill="#000000">text[2147483647]</text>
<polygon fill="none" stroke="#000000" points="322.5,-147.2 322.5,-169.2 419.5,-169.2 419.5,-147.2 322.5,-147.2"/>
<text text-anchor="start" x="342.5" y="-154.3" font-family="Helvetica,sans-Serif" font-size="11.00" fill="#000000">rating</text>
<polygon fill="none" stroke="#000000" points="419.5,-147.2 419.5,-169.2 509.5,-169.2 509.5,-147.2 419.5,-147.2"/>
<text text-anchor="start" x="422.5" y="-154.9" font-family="Helvetica,sans-Serif" font-size="11.00" fill="#000000">float8[17,17]</text>
<polygon fill="none" stroke="#000000" points="322.5,-125.2 322.5,-147.2 419.5,-147.2 419.5,-125.2 322.5,-125.2"/>
<text text-anchor="start" x="342.5" y="-132.3" font-family="Helvetica,sans-Serif" font-size="11.00" fill="#000000">total_reviews</text>
<polygon fill="none" stroke="#000000" points="419.5,-125.2 419.5,-147.2 509.5,-147.2 509.5,-125.2 419.5,-125.2"/>
<text text-anchor="start" x="422.5" y="-132.9" font-family="Helvetica,sans-Serif" font-size="11.00" fill="#000000">int4[10]</text>
<polygon fill="none" stroke="#000000" points="322.5,-103.2 322.5,-125.2 419.5,-125.2 419.5,-103.2 322.5,-103.2"/>
<text text-anchor="start" x="342.5" y="-110.3" font-family="Helvetica,sans-Serif" font-size="11.00" fill="#000000">is_active</text>
<polygon fill="none" stroke="#000000" points="419.5,-103.2 419.5,-125.2 509.5,-125.2 509.5,-103.2 419.5,-103.2"/>
<text text-anchor="start" x="422.5" y="-110.9" font-family="Helvetica,sans-Serif" font-size="11.00" fill="#000000">bool[1]</text>
<polygon fill="none" stroke="#000000" points="322.5,-81.2 322.5,-103.2 419.5,-103.2 419.5,-81.2 322.5,-81.2"/>
<text text-anchor="start" x="342.5" y="-88.3" font-family="Helvetica,sans-Serif" font-size="11.00" fill="#000000">created_at</text>
<polygon fill="none" stroke="#000000" points="419.5,-81.2 419.5,-103.2 509.5,-103.2 509.5,-81.2 419.5,-81.2"/>
<text text-anchor="start" x="422.5" y="-88.9" font-family="Helvetica,sans-Serif" font-size="11.00" fill="#000000">timestamp[29,6]</text>
<polygon fill="none" stroke="#000000" points="322.5,-59.2 322.5,-81.2 419.5,-81.2 419.5,-59.2 322.5,-59.2"/>
<text text-anchor="start" x="342.5" y="-66.3" font-family="Helvetica,sans-Serif" font-size="11.00" fill="#000000">updated_at</text>
<polygon fill="none" stroke="#000000" points="419.5,-59.2 419.5,-81.2 509.5,-81.2 509.5,-59.2 419.5,-59.2"/>
<text text-anchor="start" x="422.5" y="-66.9" font-family="Helvetica,sans-Serif" font-size="11.00" fill="#000000">timestamp[29,6]</text>
<polygon fill="#ffffff" stroke="transparent" points="322.5,-40.2 322.5,-59.2 362.5,-59.2 362.5,-40.2 322.5,-40.2"/>
<polygon fill="none" stroke="#000000" points="322.5,-40.2 322.5,-59.2 362.5,-59.2 362.5,-40.2 322.5,-40.2"/>
<text text-anchor="start" x="325.5" y="-46.3" font-family="Helvetica,sans-Serif" font-size="11.00" fill="#000000">&lt; 2</text>
<polygon fill="#ffffff" stroke="transparent" points="362.5,-40.2 362.5,-59.2 419.5,-59.2 419.5,-40.2 362.5,-40.2"/>
<polygon fill="none" stroke="#000000" points="362.5,-40.2 362.5,-59.2 419.5,-59.2 419.5,-40.2 362.5,-40.2"/>
<text text-anchor="start" x="384.1105" y="-46.3" font-family="Helvetica,sans-Serif" font-size="11.00" fill="#000000">0 rows</text>
<polygon fill="#ffffff" stroke="transparent" points="419.5,-40.2 419.5,-59.2 509.5,-59.2 509.5,-40.2 419.5,-40.2"/>
<polygon fill="none" stroke="#000000" points="419.5,-40.2 419.5,-59.2 509.5,-59.2 509.5,-40.2 419.5,-40.2"/>
<text text-anchor="start" x="490.9053" y="-46.3" font-family="Helvetica,sans-Serif" font-size="11.00" fill="#000000">3 &gt;</text>
<polygon fill="none" stroke="#000000" stroke-width="2" points="321,-39.2 321,-325.2 510,-325.2 510,-39.2 321,-39.2"/>
</a>
</g>
</g>
<!-- bookings&#45;&gt;employees -->
<g id="edge2" class="edge">
<title>bookings:w&#45;&gt;employees:e</title>
<path fill="none" stroke="#000000" d="M568.3738,-371.2104C537.9444,-356.2467 553.3583,-290.2 509.5,-290.2"/>
<polygon fill="#000000" stroke="#000000" points="574.6734,-372.5436 581.7546,-377.722 578.5867,-373.3718 582.5,-374.2 582.5,-374.2 582.5,-374.2 578.5867,-373.3718 583.2454,-370.678 574.6734,-372.5436 574.6734,-372.5436"/>
<ellipse fill="none" stroke="#000000" cx="571.5427" cy="-371.881" rx="3.2" ry="3.2"/>
</g>
<!-- shops -->
<g id="node4" class="node">
<title>shops</title>
<g id="a_node4"><a xlink:href="../../tables/shops.html" xlink:title="shops" target="_top">
<polygon fill="#ffffff" stroke="transparent" points="164,-374.7 164,-501.7 271,-501.7 271,-374.7 164,-374.7"/>
<polygon fill="#f5f5f5" stroke="transparent" points="164.5,-478.2 164.5,-501.2 271.5,-501.2 271.5,-478.2 164.5,-478.2"/>
<polygon fill="none" stroke="#000000" points="164.5,-478.2 164.5,-501.2 271.5,-501.2 271.5,-478.2 164.5,-478.2"/>
<text text-anchor="start" x="169.5" y="-487.3" font-family="Helvetica,sans-Serif" font-weight="bold" font-size="11.00" fill="#000000">shops</text>
<text text-anchor="start" x="236.5437" y="-486.3" font-family="Helvetica,sans-Serif" font-size="11.00" fill="#000000">[table]</text>
<polygon fill="none" stroke="#000000" points="164.5,-456.2 164.5,-478.2 271.5,-478.2 271.5,-456.2 164.5,-456.2"/>
<image xlink:href="../../images/primaryKeys.png" width="11px" height="12px" preserveAspectRatio="xMinYMin meet" x="169.5" y="-473.2"/>
<text text-anchor="start" x="184.5" y="-463.3" font-family="Helvetica,sans-Serif" font-size="11.00" fill="#000000">id</text>
<polygon fill="#ffffff" stroke="transparent" points="164.5,-434.2 164.5,-456.2 271.5,-456.2 271.5,-434.2 164.5,-434.2"/>
<polygon fill="none" stroke="#000000" points="164.5,-434.2 164.5,-456.2 271.5,-456.2 271.5,-434.2 164.5,-434.2"/>
<text text-anchor="start" x="184.5" y="-441.3" font-family="Helvetica,sans-Serif" font-size="11.00" fill="#000000">city</text>
<polygon fill="#ffffff" stroke="transparent" points="164.5,-412.2 164.5,-434.2 271.5,-434.2 271.5,-412.2 164.5,-412.2"/>
<polygon fill="none" stroke="#000000" points="164.5,-412.2 164.5,-434.2 271.5,-434.2 271.5,-412.2 164.5,-412.2"/>
<image xlink:href="../../images/foreignKeys.png" width="11px" height="12px" preserveAspectRatio="xMinYMin meet" x="169.5" y="-429.2"/>
<text text-anchor="start" x="184.5" y="-419.3" font-family="Helvetica,sans-Serif" font-size="11.00" fill="#000000">owner_id</text>
<polygon fill="none" stroke="#000000" points="164.5,-393.2 164.5,-412.2 271.5,-412.2 271.5,-393.2 164.5,-393.2"/>
<text text-anchor="start" x="167.5" y="-399.3" font-family="Helvetica,sans-Serif" font-size="11.00" fill="#000000">...</text>
<polygon fill="#ffffff" stroke="transparent" points="164.5,-374.2 164.5,-393.2 201.5,-393.2 201.5,-374.2 164.5,-374.2"/>
<polygon fill="none" stroke="#000000" points="164.5,-374.2 164.5,-393.2 201.5,-393.2 201.5,-374.2 164.5,-374.2"/>
<text text-anchor="start" x="167.5" y="-380.3" font-family="Helvetica,sans-Serif" font-size="11.00" fill="#000000">&lt; 1</text>
<polygon fill="#ffffff" stroke="transparent" points="201.5,-374.2 201.5,-393.2 241.5,-393.2 241.5,-374.2 201.5,-374.2"/>
<polygon fill="none" stroke="#000000" points="201.5,-374.2 201.5,-393.2 241.5,-393.2 241.5,-374.2 201.5,-374.2"/>
<text text-anchor="start" x="211.6105" y="-380.3" font-family="Helvetica,sans-Serif" font-size="11.00" fill="#000000">1 row</text>
<polygon fill="#ffffff" stroke="transparent" points="241.5,-374.2 241.5,-393.2 271.5,-393.2 271.5,-374.2 241.5,-374.2"/>
<polygon fill="none" stroke="#000000" points="241.5,-374.2 241.5,-393.2 271.5,-393.2 271.5,-374.2 241.5,-374.2"/>
<text text-anchor="start" x="252.9053" y="-380.3" font-family="Helvetica,sans-Serif" font-size="11.00" fill="#000000">5 &gt;</text>
</a>
</g>
</g>
<!-- bookings&#45;&gt;shops -->
<g id="edge3" class="edge">
<title>bookings:w&#45;&gt;shops:e</title>
<path fill="none" stroke="#000000" d="M567.7479,-418.3873C440.1799,-421.677 406.3714,-467.2 271.5,-467.2"/>
<polygon fill="#000000" stroke="#000000" points="574.5006,-418.3016 582.5457,-421.7997 578.5003,-418.2508 582.5,-418.2 582.5,-418.2 582.5,-418.2 578.5003,-418.2508 582.4543,-414.6003 574.5006,-418.3016 574.5006,-418.3016"/>
<ellipse fill="none" stroke="#000000" cx="571.3009" cy="-418.3423" rx="3.2" ry="3.2"/>
</g>
<!-- employees&#45;&gt;users -->
<g id="edge6" class="edge">
<title>employees:w&#45;&gt;users:e</title>
<path fill="none" stroke="#000000" d="M307.8017,-246.639C235.4568,-251.1487 218.0047,-289.9127 156,-340.2 134.844,-357.358 142.7392,-386.2 115.5,-386.2"/>
<polygon fill="#000000" stroke="#000000" points="314.5036,-246.4389 322.6075,-249.7984 318.5018,-246.3194 322.5,-246.2 322.5,-246.2 322.5,-246.2 318.5018,-246.3194 322.3925,-242.6016 314.5036,-246.4389 314.5036,-246.4389"/>
<ellipse fill="none" stroke="#000000" cx="311.305" cy="-246.5344" rx="3.2" ry="3.2"/>
</g>
<!-- employees&#45;&gt;shops -->
<g id="edge5" class="edge">
<title>employees:w&#45;&gt;shops:e</title>
<path fill="none" stroke="#000000" d="M307.8841,-270.4349C246.7772,-292.2977 357.0964,-467.2 271.5,-467.2"/>
<polygon fill="#000000" stroke="#000000" points="314.5919,-269.4092 323.0442,-271.7586 318.546,-268.8046 322.5,-268.2 322.5,-268.2 322.5,-268.2 318.546,-268.8046 321.9558,-264.6414 314.5919,-269.4092 314.5919,-269.4092"/>
<ellipse fill="none" stroke="#000000" cx="311.4287" cy="-269.8929" rx="3.2" ry="3.2"/>
</g>
<!-- shops&#45;&gt;users -->
<g id="edge11" class="edge">
<title>shops:w&#45;&gt;users:e</title>
<path fill="none" stroke="#000000" d="M150.6217,-418.6631C138.0786,-408.783 136.8196,-386.2 115.5,-386.2"/>
<polygon fill="#000000" stroke="#000000" points="156.896,-420.7142 163.3814,-426.6218 160.698,-421.9571 164.5,-423.2 164.5,-423.2 164.5,-423.2 160.698,-421.9571 165.6186,-419.7782 156.896,-420.7142 156.896,-420.7142"/>
<ellipse fill="none" stroke="#000000" cx="153.8544" cy="-419.7198" rx="3.2" ry="3.2"/>
</g>
<!-- employee_services -->
<g id="node5" class="node">
<title>employee_services</title>
<g id="a_node5"><a xlink:href="../../tables/employee_services.html" xlink:title="employee_services" target="_top">
<polygon fill="#ffffff" stroke="transparent" points="560,-169.2 560,-255.2 697,-255.2 697,-169.2 560,-169.2"/>
<polygon fill="#f5f5f5" stroke="transparent" points="560.5,-232.2 560.5,-255.2 697.5,-255.2 697.5,-232.2 560.5,-232.2"/>
<polygon fill="none" stroke="#000000" points="560.5,-232.2 560.5,-255.2 697.5,-255.2 697.5,-232.2 560.5,-232.2"/>
<text text-anchor="start" x="565.4376" y="-241.3" font-family="Helvetica,sans-Serif" font-weight="bold" font-size="11.00" fill="#000000">employee_services</text>
<text text-anchor="start" x="663.0219" y="-240.3" font-family="Helvetica,sans-Serif" font-size="11.00" fill="#000000">[table]</text>
<polygon fill="none" stroke="#000000" points="560.5,-210.2 560.5,-232.2 697.5,-232.2 697.5,-210.2 560.5,-210.2"/>
<image xlink:href="../../images/primaryKeys.png" width="11px" height="12px" preserveAspectRatio="xMinYMin meet" x="565.5" y="-227.2"/>
<text text-anchor="start" x="583.5" y="-217.3" font-family="Helvetica,sans-Serif" font-size="11.00" fill="#000000">employee_id</text>
<polygon fill="none" stroke="#000000" points="560.5,-188.2 560.5,-210.2 697.5,-210.2 697.5,-188.2 560.5,-188.2"/>
<image xlink:href="../../images/primaryKeys.png" width="11px" height="12px" preserveAspectRatio="xMinYMin meet" x="565.5" y="-205.2"/>
<text text-anchor="start" x="583.5" y="-195.3" font-family="Helvetica,sans-Serif" font-size="11.00" fill="#000000">service_id</text>
<polygon fill="#ffffff" stroke="transparent" points="560.5,-169.2 560.5,-188.2 614.5,-188.2 614.5,-169.2 560.5,-169.2"/>
<polygon fill="none" stroke="#000000" points="560.5,-169.2 560.5,-188.2 614.5,-188.2 614.5,-169.2 560.5,-169.2"/>
<text text-anchor="start" x="563.5" y="-175.3" font-family="Helvetica,sans-Serif" font-size="11.00" fill="#000000">&lt; 2</text>
<polygon fill="#ffffff" stroke="transparent" points="614.5,-169.2 614.5,-188.2 668.5,-188.2 668.5,-169.2 614.5,-169.2"/>
<polygon fill="none" stroke="#000000" points="614.5,-169.2 614.5,-188.2 668.5,-188.2 668.5,-169.2 614.5,-169.2"/>
<text text-anchor="start" x="633.1105" y="-175.3" font-family="Helvetica,sans-Serif" font-size="11.00" fill="#000000">0 rows</text>
<polygon fill="#ffffff" stroke="transparent" points="668.5,-169.2 668.5,-188.2 697.5,-188.2 697.5,-169.2 668.5,-169.2"/>
<polygon fill="none" stroke="#000000" points="668.5,-169.2 668.5,-188.2 697.5,-188.2 697.5,-169.2 668.5,-169.2"/>
<text text-anchor="start" x="688.3862" y="-175.3" font-family="Helvetica,sans-Serif" font-size="11.00" fill="#000000"> &#160;</text>
</a>
</g>
</g>
<!-- employee_services&#45;&gt;employees -->
<g id="edge4" class="edge">
<title>employee_services:w&#45;&gt;employees:e</title>
<path fill="none" stroke="#000000" d="M546.7846,-225.7273C528.7142,-241.0779 541.6758,-290.2 509.5,-290.2"/>
<polygon fill="#000000" stroke="#000000" points="552.9032,-223.7077 561.6284,-224.6186 556.7016,-222.4538 560.5,-221.2 560.5,-221.2 560.5,-221.2 556.7016,-222.4538 559.3716,-217.7814 552.9032,-223.7077 552.9032,-223.7077"/>
<ellipse fill="none" stroke="#000000" cx="549.8644" cy="-224.7107" rx="3.2" ry="3.2"/>
</g>
<!-- reviews -->
<g id="node6" class="node">
<title>reviews</title>
<g id="a_node6"><a xlink:href="../../tables/reviews.html" xlink:title="reviews" target="_top">
<polygon fill="#ffffff" stroke="transparent" points="746,-398.7 746,-569.7 839,-569.7 839,-398.7 746,-398.7"/>
<polygon fill="#f5f5f5" stroke="transparent" points="746.5,-546.2 746.5,-569.2 839.5,-569.2 839.5,-546.2 746.5,-546.2"/>
<polygon fill="none" stroke="#000000" points="746.5,-546.2 746.5,-569.2 839.5,-569.2 839.5,-546.2 746.5,-546.2"/>
<text text-anchor="start" x="751.5" y="-555.3" font-family="Helvetica,sans-Serif" font-weight="bold" font-size="11.00" fill="#000000">reviews</text>
<text text-anchor="start" x="804.5437" y="-554.3" font-family="Helvetica,sans-Serif" font-size="11.00" fill="#000000">[table]</text>
<polygon fill="none" stroke="#000000" points="746.5,-524.2 746.5,-546.2 839.5,-546.2 839.5,-524.2 746.5,-524.2"/>
<image xlink:href="../../images/primaryKeys.png" width="11px" height="12px" preserveAspectRatio="xMinYMin meet" x="751.5" y="-541.2"/>
<text text-anchor="start" x="766.5" y="-531.3" font-family="Helvetica,sans-Serif" font-size="11.00" fill="#000000">id</text>
<polygon fill="#ffffff" stroke="transparent" points="746.5,-502.2 746.5,-524.2 839.5,-524.2 839.5,-502.2 746.5,-502.2"/>
<polygon fill="none" stroke="#000000" points="746.5,-502.2 746.5,-524.2 839.5,-524.2 839.5,-502.2 746.5,-502.2"/>
<image xlink:href="../../images/foreignKeys.png" width="11px" height="12px" preserveAspectRatio="xMinYMin meet" x="751.5" y="-519.2"/>
<text text-anchor="start" x="766.5" y="-509.3" font-family="Helvetica,sans-Serif" font-size="11.00" fill="#000000">customer_id</text>
<polygon fill="#ffffff" stroke="transparent" points="746.5,-480.2 746.5,-502.2 839.5,-502.2 839.5,-480.2 746.5,-480.2"/>
<polygon fill="none" stroke="#000000" points="746.5,-480.2 746.5,-502.2 839.5,-502.2 839.5,-480.2 746.5,-480.2"/>
<image xlink:href="../../images/foreignKeys.png" width="11px" height="12px" preserveAspectRatio="xMinYMin meet" x="751.5" y="-497.2"/>
<text text-anchor="start" x="766.5" y="-487.3" font-family="Helvetica,sans-Serif" font-size="11.00" fill="#000000">shop_id</text>
<polygon fill="#ffffff" stroke="transparent" points="746.5,-458.2 746.5,-480.2 839.5,-480.2 839.5,-458.2 746.5,-458.2"/>
<polygon fill="none" stroke="#000000" points="746.5,-458.2 746.5,-480.2 839.5,-480.2 839.5,-458.2 746.5,-458.2"/>
<image xlink:href="../../images/foreignKeys.png" width="11px" height="12px" preserveAspectRatio="xMinYMin meet" x="751.5" y="-475.2"/>
<text text-anchor="start" x="766.5" y="-465.3" font-family="Helvetica,sans-Serif" font-size="11.00" fill="#000000">employee_id</text>
<polygon fill="none" stroke="#000000" points="746.5,-436.2 746.5,-458.2 839.5,-458.2 839.5,-436.2 746.5,-436.2"/>
<image xlink:href="../../images/foreignKeys.png" width="11px" height="12px" preserveAspectRatio="xMinYMin meet" x="751.5" y="-453.2"/>
<text text-anchor="start" x="766.5" y="-443.3" font-family="Helvetica,sans-Serif" font-size="11.00" fill="#000000">booking_id</text>
<polygon fill="none" stroke="#000000" points="746.5,-417.2 746.5,-436.2 839.5,-436.2 839.5,-417.2 746.5,-417.2"/>
<text text-anchor="start" x="749.5" y="-423.3" font-family="Helvetica,sans-Serif" font-size="11.00" fill="#000000">...</text>
<polygon fill="#ffffff" stroke="transparent" points="746.5,-398.2 746.5,-417.2 778.5,-417.2 778.5,-398.2 746.5,-398.2"/>
<polygon fill="none" stroke="#000000" points="746.5,-398.2 746.5,-417.2 778.5,-417.2 778.5,-398.2 746.5,-398.2"/>
<text text-anchor="start" x="749.5" y="-404.3" font-family="Helvetica,sans-Serif" font-size="11.00" fill="#000000">&lt; 4</text>
<polygon fill="#ffffff" stroke="transparent" points="778.5,-398.2 778.5,-417.2 821.5,-417.2 821.5,-398.2 778.5,-398.2"/>
<polygon fill="none" stroke="#000000" points="778.5,-398.2 778.5,-417.2 821.5,-417.2 821.5,-398.2 778.5,-398.2"/>
<text text-anchor="start" x="786.1105" y="-404.3" font-family="Helvetica,sans-Serif" font-size="11.00" fill="#000000">0 rows</text>
<polygon fill="#ffffff" stroke="transparent" points="821.5,-398.2 821.5,-417.2 839.5,-417.2 839.5,-398.2 821.5,-398.2"/>
<polygon fill="none" stroke="#000000" points="821.5,-398.2 821.5,-417.2 839.5,-417.2 839.5,-398.2 821.5,-398.2"/>
<text text-anchor="start" x="830.3862" y="-404.3" font-family="Helvetica,sans-Serif" font-size="11.00" fill="#000000"> &#160;</text>
</a>
</g>
</g>
<!-- reviews&#45;&gt;bookings -->
<g id="edge7" class="edge">
<title>reviews:w&#45;&gt;bookings:e</title>
<path fill="none" stroke="#000000" d="M732.0434,-446.6507C711.4721,-445.0005 701.7586,-440.2 675.5,-440.2"/>
<polygon fill="#000000" stroke="#000000" points="738.5058,-446.8962 746.3633,-450.7974 742.5029,-447.0481 746.5,-447.2 746.5,-447.2 746.5,-447.2 742.5029,-447.0481 746.6367,-443.6026 738.5058,-446.8962 738.5058,-446.8962"/>
<ellipse fill="none" stroke="#000000" cx="735.3081" cy="-446.7747" rx="3.2" ry="3.2"/>
</g>
<!-- reviews&#45;&gt;users -->
<g id="edge8" class="edge">
<title>reviews:w&#45;&gt;users:e</title>
<path fill="none" stroke="#000000" d="M732.0408,-513.3559C479.7135,-518.8003 364.0147,-664.1043 156,-512.2 108.4963,-477.51 174.3218,-386.2 115.5,-386.2"/>
<polygon fill="#000000" stroke="#000000" points="738.5005,-513.2863 746.5388,-516.7998 742.5002,-513.2431 746.5,-513.2 746.5,-513.2 746.5,-513.2 742.5002,-513.2431 746.4612,-509.6002 738.5005,-513.2863 738.5005,-513.2863"/>
<ellipse fill="none" stroke="#000000" cx="735.3007" cy="-513.3208" rx="3.2" ry="3.2"/>
</g>
<!-- reviews&#45;&gt;employees -->
<g id="edge9" class="edge">
<title>reviews:w&#45;&gt;employees:e</title>
<path fill="none" stroke="#000000" d="M732.1245,-467.4065C679.5941,-451.9047 763.2248,-340.0235 705,-293.2 637.2816,-238.7419 596.3991,-290.2 509.5,-290.2"/>
<polygon fill="#000000" stroke="#000000" points="738.5615,-468.2095 746.0543,-472.7723 742.5308,-468.7048 746.5,-469.2 746.5,-469.2 746.5,-469.2 742.5308,-468.7048 746.9457,-465.6277 738.5615,-468.2095 738.5615,-468.2095"/>
<ellipse fill="none" stroke="#000000" cx="735.3862" cy="-467.8133" rx="3.2" ry="3.2"/>
</g>
<!-- reviews&#45;&gt;shops -->
<g id="edge10" class="edge">
<title>reviews:w&#45;&gt;shops:e</title>
<path fill="none" stroke="#000000" d="M731.9394,-491.1804C657.2578,-490.9701 633.3264,-489.0627 552,-485.2 427.2176,-479.2733 396.4231,-467.2 271.5,-467.2"/>
<polygon fill="#000000" stroke="#000000" points="738.5,-491.1892 746.4951,-494.8 742.5,-491.1946 746.5,-491.2 746.5,-491.2 746.5,-491.2 742.5,-491.1946 746.5049,-487.6 738.5,-491.1892 738.5,-491.1892"/>
<ellipse fill="none" stroke="#000000" cx="735.3" cy="-491.1848" rx="3.2" ry="3.2"/>
</g>
</g>
</svg>
