<?xml version="1.0" encoding="UTF-8" standalone="no"?>
<!DOCTYPE svg PUBLIC "-//W3C//DTD SVG 1.1//EN"
 "http://www.w3.org/Graphics/SVG/1.1/DTD/svg11.dtd">
<!-- Generated by graphviz version 2.40.1 (20161225.0304)
 -->
<!-- Title: oneDegreeRelationshipsDiagram Pages: 1 -->
<svg width="371pt" height="303pt"
 viewBox="0.00 0.00 371.00 303.20" xmlns="http://www.w3.org/2000/svg" xmlns:xlink="http://www.w3.org/1999/xlink">
<g id="graph0" class="graph" transform="scale(1 1) rotate(0) translate(4 299.2)">
<title>oneDegreeRelationshipsDiagram</title>
<polygon fill="#ffffff" stroke="transparent" points="-4,4 -4,-299.2 367,-299.2 367,4 -4,4"/>
<text text-anchor="middle" x="72.4936" y="-7.3" font-family="Helvetica,sans-Serif" font-size="11.00" fill="#000000">Generated by SchemaSpy</text>
<!-- employee_services -->
<g id="node1" class="node">
<title>employee_services</title>
<g id="a_node1"><a xlink:href="../../tables/employee_services.html" xlink:title="employee_services" target="_top">
<polygon fill="#ffffff" stroke="transparent" points="178,-139.7 178,-229.7 355,-229.7 355,-139.7 178,-139.7"/>
<polygon fill="#f5f5f5" stroke="transparent" points="180.5,-204.7 180.5,-227.7 353.5,-227.7 353.5,-204.7 180.5,-204.7"/>
<polygon fill="none" stroke="#000000" points="180.5,-204.7 180.5,-227.7 353.5,-227.7 353.5,-204.7 180.5,-204.7"/>
<text text-anchor="start" x="185.5" y="-213.8" font-family="Helvetica,sans-Serif" font-weight="bold" font-size="11.00" fill="#000000">employee_services</text>
<text text-anchor="start" x="318.5437" y="-212.8" font-family="Helvetica,sans-Serif" font-size="11.00" fill="#000000">[table]</text>
<polygon fill="none" stroke="#000000" points="180.5,-182.7 180.5,-204.7 311.5,-204.7 311.5,-182.7 180.5,-182.7"/>
<image xlink:href="../../images/primaryKeys.png" width="11px" height="12px" preserveAspectRatio="xMinYMin meet" x="185.5" y="-199.7"/>
<text text-anchor="start" x="200.5" y="-189.8" font-family="Helvetica,sans-Serif" font-size="11.00" fill="#000000">employee_id</text>
<polygon fill="none" stroke="#000000" points="311.5,-182.7 311.5,-204.7 353.5,-204.7 353.5,-182.7 311.5,-182.7"/>
<text text-anchor="start" x="314.4644" y="-190.4" font-family="Helvetica,sans-Serif" font-size="11.00" fill="#000000">int8[19]</text>
<polygon fill="none" stroke="#000000" points="180.5,-160.7 180.5,-182.7 311.5,-182.7 311.5,-160.7 180.5,-160.7"/>
<image xlink:href="../../images/primaryKeys.png" width="11px" height="12px" preserveAspectRatio="xMinYMin meet" x="185.5" y="-177.7"/>
<text text-anchor="start" x="200.5" y="-167.8" font-family="Helvetica,sans-Serif" font-size="11.00" fill="#000000">service_id</text>
<polygon fill="none" stroke="#000000" points="311.5,-160.7 311.5,-182.7 353.5,-182.7 353.5,-160.7 311.5,-160.7"/>
<text text-anchor="start" x="314.4644" y="-168.4" font-family="Helvetica,sans-Serif" font-size="11.00" fill="#000000">int8[19]</text>
<polygon fill="#ffffff" stroke="transparent" points="180.5,-141.7 180.5,-160.7 237.5,-160.7 237.5,-141.7 180.5,-141.7"/>
<polygon fill="none" stroke="#000000" points="180.5,-141.7 180.5,-160.7 237.5,-160.7 237.5,-141.7 180.5,-141.7"/>
<text text-anchor="start" x="183.5" y="-147.8" font-family="Helvetica,sans-Serif" font-size="11.00" fill="#000000">&lt; 2</text>
<polygon fill="#ffffff" stroke="transparent" points="237.5,-141.7 237.5,-160.7 311.5,-160.7 311.5,-141.7 237.5,-141.7"/>
<polygon fill="none" stroke="#000000" points="237.5,-141.7 237.5,-160.7 311.5,-160.7 311.5,-141.7 237.5,-141.7"/>
<text text-anchor="start" x="276.1105" y="-147.8" font-family="Helvetica,sans-Serif" font-size="11.00" fill="#000000">0 rows</text>
<polygon fill="#ffffff" stroke="transparent" points="311.5,-141.7 311.5,-160.7 353.5,-160.7 353.5,-141.7 311.5,-141.7"/>
<polygon fill="none" stroke="#000000" points="311.5,-141.7 311.5,-160.7 353.5,-160.7 353.5,-141.7 311.5,-141.7"/>
<text text-anchor="start" x="334.9053" y="-147.8" font-family="Helvetica,sans-Serif" font-size="11.00" fill="#000000">0 &gt;</text>
<polygon fill="none" stroke="#000000" stroke-width="2" points="179,-140.7 179,-228.7 354,-228.7 354,-140.7 179,-140.7"/>
</a>
</g>
</g>
<!-- employees -->
<g id="node2" class="node">
<title>employees</title>
<g id="a_node2"><a xlink:href="../../tables/employees.html" xlink:title="employees" target="_top">
<polygon fill="#ffffff" stroke="transparent" points="20,-164.2 20,-291.2 117,-291.2 117,-164.2 20,-164.2"/>
<polygon fill="#f5f5f5" stroke="transparent" points="20.5,-267.7 20.5,-290.7 117.5,-290.7 117.5,-267.7 20.5,-267.7"/>
<polygon fill="none" stroke="#000000" points="20.5,-267.7 20.5,-290.7 117.5,-290.7 117.5,-267.7 20.5,-267.7"/>
<text text-anchor="start" x="25.5" y="-276.8" font-family="Helvetica,sans-Serif" font-weight="bold" font-size="11.00" fill="#000000">employees</text>
<text text-anchor="start" x="83.0219" y="-275.8" font-family="Helvetica,sans-Serif" font-size="11.00" fill="#000000">[table]</text>
<polygon fill="none" stroke="#000000" points="20.5,-245.7 20.5,-267.7 117.5,-267.7 117.5,-245.7 20.5,-245.7"/>
<image xlink:href="../../images/primaryKeys.png" width="11px" height="12px" preserveAspectRatio="xMinYMin meet" x="25.5" y="-262.7"/>
<text text-anchor="start" x="40.5" y="-252.8" font-family="Helvetica,sans-Serif" font-size="11.00" fill="#000000">id</text>
<polygon fill="#ffffff" stroke="transparent" points="20.5,-223.7 20.5,-245.7 117.5,-245.7 117.5,-223.7 20.5,-223.7"/>
<polygon fill="none" stroke="#000000" points="20.5,-223.7 20.5,-245.7 117.5,-245.7 117.5,-223.7 20.5,-223.7"/>
<image xlink:href="../../images/foreignKeys.png" width="11px" height="12px" preserveAspectRatio="xMinYMin meet" x="25.5" y="-240.7"/>
<text text-anchor="start" x="40.5" y="-230.8" font-family="Helvetica,sans-Serif" font-size="11.00" fill="#000000">shop_id</text>
<polygon fill="#ffffff" stroke="transparent" points="20.5,-201.7 20.5,-223.7 117.5,-223.7 117.5,-201.7 20.5,-201.7"/>
<polygon fill="none" stroke="#000000" points="20.5,-201.7 20.5,-223.7 117.5,-223.7 117.5,-201.7 20.5,-201.7"/>
<image xlink:href="../../images/foreignKeys.png" width="11px" height="12px" preserveAspectRatio="xMinYMin meet" x="25.5" y="-218.7"/>
<text text-anchor="start" x="40.5" y="-208.8" font-family="Helvetica,sans-Serif" font-size="11.00" fill="#000000">user_id</text>
<polygon fill="none" stroke="#000000" points="20.5,-182.7 20.5,-201.7 117.5,-201.7 117.5,-182.7 20.5,-182.7"/>
<text text-anchor="start" x="23.5" y="-188.8" font-family="Helvetica,sans-Serif" font-size="11.00" fill="#000000">...</text>
<polygon fill="#ffffff" stroke="transparent" points="20.5,-163.7 20.5,-182.7 49.5,-182.7 49.5,-163.7 20.5,-163.7"/>
<polygon fill="none" stroke="#000000" points="20.5,-163.7 20.5,-182.7 49.5,-182.7 49.5,-163.7 20.5,-163.7"/>
<text text-anchor="start" x="23.5" y="-169.8" font-family="Helvetica,sans-Serif" font-size="11.00" fill="#000000">&lt; 2</text>
<polygon fill="#ffffff" stroke="transparent" points="49.5,-163.7 49.5,-182.7 91.5,-182.7 91.5,-163.7 49.5,-163.7"/>
<polygon fill="none" stroke="#000000" points="49.5,-163.7 49.5,-182.7 91.5,-182.7 91.5,-163.7 49.5,-163.7"/>
<text text-anchor="start" x="56.1105" y="-169.8" font-family="Helvetica,sans-Serif" font-size="11.00" fill="#000000">0 rows</text>
<polygon fill="#ffffff" stroke="transparent" points="91.5,-163.7 91.5,-182.7 117.5,-182.7 117.5,-163.7 91.5,-163.7"/>
<polygon fill="none" stroke="#000000" points="91.5,-163.7 91.5,-182.7 117.5,-182.7 117.5,-163.7 91.5,-163.7"/>
<text text-anchor="start" x="98.9053" y="-169.8" font-family="Helvetica,sans-Serif" font-size="11.00" fill="#000000">3 &gt;</text>
</a>
</g>
</g>
<!-- employee_services&#45;&gt;employees -->
<g id="edge1" class="edge">
<title>employee_services:w&#45;&gt;employees:e</title>
<path fill="none" stroke="#000000" d="M166.4901,-197.2677C144.4182,-210.5949 151.3748,-256.7 117.5,-256.7"/>
<polygon fill="#000000" stroke="#000000" points="172.7474,-195.6743 181.3884,-197.1887 176.6237,-194.6871 180.5,-193.7 180.5,-193.7 180.5,-193.7 176.6237,-194.6871 179.6116,-190.2113 172.7474,-195.6743 172.7474,-195.6743"/>
<ellipse fill="none" stroke="#000000" cx="169.6464" cy="-196.464" rx="3.2" ry="3.2"/>
</g>
<!-- services -->
<g id="node3" class="node">
<title>services</title>
<g id="a_node3"><a xlink:href="../../tables/services.html" xlink:title="services" target="_top">
<polygon fill="#ffffff" stroke="transparent" points="8,-38.2 8,-143.2 129,-143.2 129,-38.2 8,-38.2"/>
<polygon fill="#f5f5f5" stroke="transparent" points="8.5,-119.7 8.5,-142.7 129.5,-142.7 129.5,-119.7 8.5,-119.7"/>
<polygon fill="none" stroke="#000000" points="8.5,-119.7 8.5,-142.7 129.5,-142.7 129.5,-119.7 8.5,-119.7"/>
<text text-anchor="start" x="13.5" y="-128.8" font-family="Helvetica,sans-Serif" font-weight="bold" font-size="11.00" fill="#000000">services</text>
<text text-anchor="start" x="94.5437" y="-127.8" font-family="Helvetica,sans-Serif" font-size="11.00" fill="#000000">[table]</text>
<polygon fill="none" stroke="#000000" points="8.5,-97.7 8.5,-119.7 129.5,-119.7 129.5,-97.7 8.5,-97.7"/>
<image xlink:href="../../images/primaryKeys.png" width="11px" height="12px" preserveAspectRatio="xMinYMin meet" x="13.5" y="-114.7"/>
<text text-anchor="start" x="28.5" y="-104.8" font-family="Helvetica,sans-Serif" font-size="11.00" fill="#000000">id</text>
<polygon fill="#ffffff" stroke="transparent" points="8.5,-75.7 8.5,-97.7 129.5,-97.7 129.5,-75.7 8.5,-75.7"/>
<polygon fill="none" stroke="#000000" points="8.5,-75.7 8.5,-97.7 129.5,-97.7 129.5,-75.7 8.5,-75.7"/>
<image xlink:href="../../images/foreignKeys.png" width="11px" height="12px" preserveAspectRatio="xMinYMin meet" x="13.5" y="-92.7"/>
<text text-anchor="start" x="28.5" y="-82.8" font-family="Helvetica,sans-Serif" font-size="11.00" fill="#000000">shop_id</text>
<polygon fill="none" stroke="#000000" points="8.5,-56.7 8.5,-75.7 129.5,-75.7 129.5,-56.7 8.5,-56.7"/>
<text text-anchor="start" x="11.5" y="-62.8" font-family="Helvetica,sans-Serif" font-size="11.00" fill="#000000">...</text>
<polygon fill="#ffffff" stroke="transparent" points="8.5,-37.7 8.5,-56.7 49.5,-56.7 49.5,-37.7 8.5,-37.7"/>
<polygon fill="none" stroke="#000000" points="8.5,-37.7 8.5,-56.7 49.5,-56.7 49.5,-37.7 8.5,-37.7"/>
<text text-anchor="start" x="11.5" y="-43.8" font-family="Helvetica,sans-Serif" font-size="11.00" fill="#000000">&lt; 1</text>
<polygon fill="#ffffff" stroke="transparent" points="49.5,-37.7 49.5,-56.7 97.5,-56.7 97.5,-37.7 49.5,-37.7"/>
<polygon fill="none" stroke="#000000" points="49.5,-37.7 49.5,-56.7 97.5,-56.7 97.5,-37.7 49.5,-37.7"/>
<text text-anchor="start" x="62.1105" y="-43.8" font-family="Helvetica,sans-Serif" font-size="11.00" fill="#000000">0 rows</text>
<polygon fill="#ffffff" stroke="transparent" points="97.5,-37.7 97.5,-56.7 129.5,-56.7 129.5,-37.7 97.5,-37.7"/>
<polygon fill="none" stroke="#000000" points="97.5,-37.7 97.5,-56.7 129.5,-56.7 129.5,-37.7 97.5,-37.7"/>
<text text-anchor="start" x="110.9053" y="-43.8" font-family="Helvetica,sans-Serif" font-size="11.00" fill="#000000">2 &gt;</text>
</a>
</g>
</g>
<!-- employee_services&#45;&gt;services -->
<g id="edge2" class="edge">
<title>employee_services:w&#45;&gt;services:e</title>
<path fill="none" stroke="#000000" d="M166.4033,-166.7565C150.025,-151.9048 159.3329,-108.7 129.5,-108.7"/>
<polygon fill="#000000" stroke="#000000" points="172.9507,-169.0526 179.3087,-175.0972 176.7254,-170.3763 180.5,-171.7 180.5,-171.7 180.5,-171.7 176.7254,-170.3763 181.6913,-168.3028 172.9507,-169.0526 172.9507,-169.0526"/>
<ellipse fill="none" stroke="#000000" cx="169.931" cy="-167.9936" rx="3.2" ry="3.2"/>
</g>
</g>
</svg>
