<?xml version="1.0" encoding="UTF-8" standalone="no"?>
<!DOCTYPE svg PUBLIC "-//W3C//DTD SVG 1.1//EN"
 "http://www.w3.org/Graphics/SVG/1.1/DTD/svg11.dtd">
<!-- Generated by graphviz version 2.40.1 (20161225.0304)
 -->
<!-- Title: oneDegreeRelationshipsDiagram Pages: 1 -->
<svg width="530pt" height="241pt"
 viewBox="0.00 0.00 530.00 240.70" xmlns="http://www.w3.org/2000/svg" xmlns:xlink="http://www.w3.org/1999/xlink">
<g id="graph0" class="graph" transform="scale(1 1) rotate(0) translate(4 236.7)">
<title>oneDegreeRelationshipsDiagram</title>
<polygon fill="#ffffff" stroke="transparent" points="-4,4 -4,-236.7 526,-236.7 526,4 -4,4"/>
<text text-anchor="middle" x="72.4936" y="-7.3" font-family="Helvetica,sans-Serif" font-size="11.00" fill="#000000">Generated by SchemaSpy</text>
<!-- favorite_shops -->
<g id="node1" class="node">
<title>favorite_shops</title>
<g id="a_node1"><a xlink:href="../../tables/favorite_shops.html" xlink:title="favorite_shops" target="_top">
<polygon fill="#ffffff" stroke="transparent" points="320,-94.7 320,-228.7 514,-228.7 514,-94.7 320,-94.7"/>
<polygon fill="#f5f5f5" stroke="transparent" points="322,-203.7 322,-226.7 512,-226.7 512,-203.7 322,-203.7"/>
<polygon fill="none" stroke="#000000" points="322,-203.7 322,-226.7 512,-226.7 512,-203.7 322,-203.7"/>
<text text-anchor="start" x="327" y="-212.8" font-family="Helvetica,sans-Serif" font-weight="bold" font-size="11.00" fill="#000000">favorite_shops</text>
<text text-anchor="start" x="477.0437" y="-211.8" font-family="Helvetica,sans-Serif" font-size="11.00" fill="#000000">[table]</text>
<polygon fill="none" stroke="#000000" points="322,-181.7 322,-203.7 428,-203.7 428,-181.7 322,-181.7"/>
<image xlink:href="../../images/primaryKeys.png" width="11px" height="12px" preserveAspectRatio="xMinYMin meet" x="327" y="-198.7"/>
<text text-anchor="start" x="342" y="-188.8" font-family="Helvetica,sans-Serif" font-size="11.00" fill="#000000">id</text>
<polygon fill="none" stroke="#000000" points="428,-181.7 428,-203.7 512,-203.7 512,-181.7 428,-181.7"/>
<text text-anchor="start" x="431" y="-189.4" font-family="Helvetica,sans-Serif" font-size="11.00" fill="#000000">bigserial[19]</text>
<polygon fill="#ffffff" stroke="transparent" points="322,-159.7 322,-181.7 428,-181.7 428,-159.7 322,-159.7"/>
<polygon fill="none" stroke="#000000" points="322,-159.7 322,-181.7 428,-181.7 428,-159.7 322,-159.7"/>
<image xlink:href="../../images/foreignKeys.png" width="11px" height="12px" preserveAspectRatio="xMinYMin meet" x="327" y="-176.7"/>
<text text-anchor="start" x="342" y="-166.8" font-family="Helvetica,sans-Serif" font-size="11.00" fill="#000000">user_id</text>
<polygon fill="none" stroke="#000000" points="428,-159.7 428,-181.7 512,-181.7 512,-159.7 428,-159.7"/>
<text text-anchor="start" x="431" y="-167.4" font-family="Helvetica,sans-Serif" font-size="11.00" fill="#000000">int8[19]</text>
<polygon fill="#ffffff" stroke="transparent" points="322,-137.7 322,-159.7 428,-159.7 428,-137.7 322,-137.7"/>
<polygon fill="none" stroke="#000000" points="322,-137.7 322,-159.7 428,-159.7 428,-137.7 322,-137.7"/>
<image xlink:href="../../images/foreignKeys.png" width="11px" height="12px" preserveAspectRatio="xMinYMin meet" x="327" y="-154.7"/>
<text text-anchor="start" x="342" y="-144.8" font-family="Helvetica,sans-Serif" font-size="11.00" fill="#000000">shop_id</text>
<polygon fill="none" stroke="#000000" points="428,-137.7 428,-159.7 512,-159.7 512,-137.7 428,-137.7"/>
<text text-anchor="start" x="431" y="-145.4" font-family="Helvetica,sans-Serif" font-size="11.00" fill="#000000">int8[19]</text>
<polygon fill="none" stroke="#000000" points="322,-115.7 322,-137.7 428,-137.7 428,-115.7 322,-115.7"/>
<text text-anchor="start" x="342" y="-122.8" font-family="Helvetica,sans-Serif" font-size="11.00" fill="#000000">created_at</text>
<polygon fill="none" stroke="#000000" points="428,-115.7 428,-137.7 512,-137.7 512,-115.7 428,-115.7"/>
<text text-anchor="start" x="430.8807" y="-123.4" font-family="Helvetica,sans-Serif" font-size="11.00" fill="#000000">timestamp[29,6]</text>
<polygon fill="#ffffff" stroke="transparent" points="322,-96.7 322,-115.7 366,-115.7 366,-96.7 322,-96.7"/>
<polygon fill="none" stroke="#000000" points="322,-96.7 322,-115.7 366,-115.7 366,-96.7 322,-96.7"/>
<text text-anchor="start" x="325" y="-102.8" font-family="Helvetica,sans-Serif" font-size="11.00" fill="#000000">&lt; 2</text>
<polygon fill="#ffffff" stroke="transparent" points="366,-96.7 366,-115.7 428,-115.7 428,-96.7 366,-96.7"/>
<polygon fill="none" stroke="#000000" points="366,-96.7 366,-115.7 428,-115.7 428,-96.7 366,-96.7"/>
<text text-anchor="start" x="392.6105" y="-102.8" font-family="Helvetica,sans-Serif" font-size="11.00" fill="#000000">0 rows</text>
<polygon fill="#ffffff" stroke="transparent" points="428,-96.7 428,-115.7 512,-115.7 512,-96.7 428,-96.7"/>
<polygon fill="none" stroke="#000000" points="428,-96.7 428,-115.7 512,-115.7 512,-96.7 428,-96.7"/>
<text text-anchor="start" x="493.4053" y="-102.8" font-family="Helvetica,sans-Serif" font-size="11.00" fill="#000000">0 &gt;</text>
<polygon fill="none" stroke="#000000" stroke-width="2" points="321,-95.7 321,-227.7 513,-227.7 513,-95.7 321,-95.7"/>
</a>
</g>
</g>
<!-- shops -->
<g id="node2" class="node">
<title>shops</title>
<g id="a_node2"><a xlink:href="../../tables/shops.html" xlink:title="shops" target="_top">
<polygon fill="#ffffff" stroke="transparent" points="164,-38.2 164,-165.2 271,-165.2 271,-38.2 164,-38.2"/>
<polygon fill="#f5f5f5" stroke="transparent" points="164.5,-141.7 164.5,-164.7 271.5,-164.7 271.5,-141.7 164.5,-141.7"/>
<polygon fill="none" stroke="#000000" points="164.5,-141.7 164.5,-164.7 271.5,-164.7 271.5,-141.7 164.5,-141.7"/>
<text text-anchor="start" x="169.5" y="-150.8" font-family="Helvetica,sans-Serif" font-weight="bold" font-size="11.00" fill="#000000">shops</text>
<text text-anchor="start" x="236.5437" y="-149.8" font-family="Helvetica,sans-Serif" font-size="11.00" fill="#000000">[table]</text>
<polygon fill="none" stroke="#000000" points="164.5,-119.7 164.5,-141.7 271.5,-141.7 271.5,-119.7 164.5,-119.7"/>
<image xlink:href="../../images/primaryKeys.png" width="11px" height="12px" preserveAspectRatio="xMinYMin meet" x="169.5" y="-136.7"/>
<text text-anchor="start" x="184.5" y="-126.8" font-family="Helvetica,sans-Serif" font-size="11.00" fill="#000000">id</text>
<polygon fill="#ffffff" stroke="transparent" points="164.5,-97.7 164.5,-119.7 271.5,-119.7 271.5,-97.7 164.5,-97.7"/>
<polygon fill="none" stroke="#000000" points="164.5,-97.7 164.5,-119.7 271.5,-119.7 271.5,-97.7 164.5,-97.7"/>
<text text-anchor="start" x="184.5" y="-104.8" font-family="Helvetica,sans-Serif" font-size="11.00" fill="#000000">city</text>
<polygon fill="#ffffff" stroke="transparent" points="164.5,-75.7 164.5,-97.7 271.5,-97.7 271.5,-75.7 164.5,-75.7"/>
<polygon fill="none" stroke="#000000" points="164.5,-75.7 164.5,-97.7 271.5,-97.7 271.5,-75.7 164.5,-75.7"/>
<image xlink:href="../../images/foreignKeys.png" width="11px" height="12px" preserveAspectRatio="xMinYMin meet" x="169.5" y="-92.7"/>
<text text-anchor="start" x="184.5" y="-82.8" font-family="Helvetica,sans-Serif" font-size="11.00" fill="#000000">owner_id</text>
<polygon fill="none" stroke="#000000" points="164.5,-56.7 164.5,-75.7 271.5,-75.7 271.5,-56.7 164.5,-56.7"/>
<text text-anchor="start" x="167.5" y="-62.8" font-family="Helvetica,sans-Serif" font-size="11.00" fill="#000000">...</text>
<polygon fill="#ffffff" stroke="transparent" points="164.5,-37.7 164.5,-56.7 201.5,-56.7 201.5,-37.7 164.5,-37.7"/>
<polygon fill="none" stroke="#000000" points="164.5,-37.7 164.5,-56.7 201.5,-56.7 201.5,-37.7 164.5,-37.7"/>
<text text-anchor="start" x="167.5" y="-43.8" font-family="Helvetica,sans-Serif" font-size="11.00" fill="#000000">&lt; 1</text>
<polygon fill="#ffffff" stroke="transparent" points="201.5,-37.7 201.5,-56.7 241.5,-56.7 241.5,-37.7 201.5,-37.7"/>
<polygon fill="none" stroke="#000000" points="201.5,-37.7 201.5,-56.7 241.5,-56.7 241.5,-37.7 201.5,-37.7"/>
<text text-anchor="start" x="211.6105" y="-43.8" font-family="Helvetica,sans-Serif" font-size="11.00" fill="#000000">1 row</text>
<polygon fill="#ffffff" stroke="transparent" points="241.5,-37.7 241.5,-56.7 271.5,-56.7 271.5,-37.7 241.5,-37.7"/>
<polygon fill="none" stroke="#000000" points="241.5,-37.7 241.5,-56.7 271.5,-56.7 271.5,-37.7 241.5,-37.7"/>
<text text-anchor="start" x="252.9053" y="-43.8" font-family="Helvetica,sans-Serif" font-size="11.00" fill="#000000">5 &gt;</text>
</a>
</g>
</g>
<!-- favorite_shops&#45;&gt;shops -->
<g id="edge1" class="edge">
<title>favorite_shops:w&#45;&gt;shops:e</title>
<path fill="none" stroke="#000000" d="M307.7839,-146.044C295.5637,-141.037 289.5568,-130.7 271.5,-130.7"/>
<polygon fill="#000000" stroke="#000000" points="314.1361,-147.2308 321.3388,-152.2388 318.068,-147.9654 322,-148.7 322,-148.7 322,-148.7 318.068,-147.9654 322.6612,-145.1612 314.1361,-147.2308 314.1361,-147.2308"/>
<ellipse fill="none" stroke="#000000" cx="310.9905" cy="-146.6431" rx="3.2" ry="3.2"/>
</g>
<!-- users -->
<g id="node3" class="node">
<title>users</title>
<g id="a_node3"><a xlink:href="../../tables/users.html" xlink:title="users" target="_top">
<polygon fill="#ffffff" stroke="transparent" points="8,-67.2 8,-172.2 115,-172.2 115,-67.2 8,-67.2"/>
<polygon fill="#f5f5f5" stroke="transparent" points="8.5,-148.7 8.5,-171.7 115.5,-171.7 115.5,-148.7 8.5,-148.7"/>
<polygon fill="none" stroke="#000000" points="8.5,-148.7 8.5,-171.7 115.5,-171.7 115.5,-148.7 8.5,-148.7"/>
<text text-anchor="start" x="13.5" y="-157.8" font-family="Helvetica,sans-Serif" font-weight="bold" font-size="11.00" fill="#000000">users</text>
<text text-anchor="start" x="80.5437" y="-156.8" font-family="Helvetica,sans-Serif" font-size="11.00" fill="#000000">[table]</text>
<polygon fill="none" stroke="#000000" points="8.5,-126.7 8.5,-148.7 115.5,-148.7 115.5,-126.7 8.5,-126.7"/>
<image xlink:href="../../images/primaryKeys.png" width="11px" height="12px" preserveAspectRatio="xMinYMin meet" x="13.5" y="-143.7"/>
<text text-anchor="start" x="28.5" y="-133.8" font-family="Helvetica,sans-Serif" font-size="11.00" fill="#000000">id</text>
<polygon fill="#ffffff" stroke="transparent" points="8.5,-104.7 8.5,-126.7 115.5,-126.7 115.5,-104.7 8.5,-104.7"/>
<polygon fill="none" stroke="#000000" points="8.5,-104.7 8.5,-126.7 115.5,-126.7 115.5,-104.7 8.5,-104.7"/>
<text text-anchor="start" x="28.5" y="-111.8" font-family="Helvetica,sans-Serif" font-size="11.00" fill="#000000">email</text>
<polygon fill="none" stroke="#000000" points="8.5,-85.7 8.5,-104.7 115.5,-104.7 115.5,-85.7 8.5,-85.7"/>
<text text-anchor="start" x="11.5" y="-91.8" font-family="Helvetica,sans-Serif" font-size="11.00" fill="#000000">...</text>
<polygon fill="#ffffff" stroke="transparent" points="8.5,-66.7 8.5,-85.7 38.5,-85.7 38.5,-66.7 8.5,-66.7"/>
<polygon fill="none" stroke="#000000" points="8.5,-66.7 8.5,-85.7 38.5,-85.7 38.5,-66.7 8.5,-66.7"/>
<text text-anchor="start" x="11.5" y="-72.8" font-family="Helvetica,sans-Serif" font-size="11.00" fill="#000000"> &#160;</text>
<polygon fill="#ffffff" stroke="transparent" points="38.5,-66.7 38.5,-85.7 85.5,-85.7 85.5,-66.7 38.5,-66.7"/>
<polygon fill="none" stroke="#000000" points="38.5,-66.7 38.5,-85.7 85.5,-85.7 85.5,-66.7 38.5,-66.7"/>
<text text-anchor="start" x="50.1105" y="-72.8" font-family="Helvetica,sans-Serif" font-size="11.00" fill="#000000">6 rows</text>
<polygon fill="#ffffff" stroke="transparent" points="85.5,-66.7 85.5,-85.7 115.5,-85.7 115.5,-66.7 85.5,-66.7"/>
<polygon fill="none" stroke="#000000" points="85.5,-66.7 85.5,-85.7 115.5,-85.7 115.5,-66.7 85.5,-66.7"/>
<text text-anchor="start" x="96.9053" y="-72.8" font-family="Helvetica,sans-Serif" font-size="11.00" fill="#000000">5 &gt;</text>
</a>
</g>
</g>
<!-- favorite_shops&#45;&gt;users -->
<g id="edge2" class="edge">
<title>favorite_shops:w&#45;&gt;users:e</title>
<path fill="none" stroke="#000000" d="M307.3701,-171.6355C298.4837,-172.8585 292.2053,-174.9348 279,-175.7 224.4249,-178.8623 206.832,-195.8135 156,-175.7 133.0487,-166.6185 140.1827,-137.7 115.5,-137.7"/>
<polygon fill="#000000" stroke="#000000" points="314.0163,-171.2106 322.2298,-174.2927 318.0082,-170.9553 322,-170.7 322,-170.7 322,-170.7 318.0082,-170.9553 321.7702,-167.1073 314.0163,-171.2106 314.0163,-171.2106"/>
<ellipse fill="none" stroke="#000000" cx="310.8228" cy="-171.4148" rx="3.2" ry="3.2"/>
</g>
<!-- shops&#45;&gt;users -->
<g id="edge3" class="edge">
<title>shops:w&#45;&gt;users:e</title>
<path fill="none" stroke="#000000" d="M150.5912,-91.7765C136.7553,-104.6764 140.7939,-137.7 115.5,-137.7"/>
<polygon fill="#000000" stroke="#000000" points="156.9849,-89.4429 165.7343,-90.0818 160.7425,-88.0715 164.5,-86.7 164.5,-86.7 164.5,-86.7 160.7425,-88.0715 163.2657,-83.3182 156.9849,-89.4429 156.9849,-89.4429"/>
<ellipse fill="none" stroke="#000000" cx="153.9789" cy="-90.5401" rx="3.2" ry="3.2"/>
</g>
</g>
</svg>
