<?xml version="1.0" encoding="UTF-8" standalone="no"?>
<!DOCTYPE svg PUBLIC "-//W3C//DTD SVG 1.1//EN"
 "http://www.w3.org/Graphics/SVG/1.1/DTD/svg11.dtd">
<!-- Generated by graphviz version 2.40.1 (20161225.0304)
 -->
<!-- Title: twoDegreesRelationshipsDiagram Pages: 1 -->
<svg width="795pt" height="461pt"
 viewBox="0.00 0.00 795.00 460.99" xmlns="http://www.w3.org/2000/svg" xmlns:xlink="http://www.w3.org/1999/xlink">
<g id="graph0" class="graph" transform="scale(1 1) rotate(0) translate(4 456.9853)">
<title>twoDegreesRelationshipsDiagram</title>
<polygon fill="#ffffff" stroke="transparent" points="-4,4 -4,-456.9853 791,-456.9853 791,4 -4,4"/>
<text text-anchor="middle" x="72.4936" y="-7.3" font-family="Helvetica,sans-Serif" font-size="11.00" fill="#000000">Generated by SchemaSpy</text>
<!-- bookings -->
<g id="node1" class="node">
<title>bookings</title>
<g id="a_node1"><a xlink:href="../../tables/bookings.html" xlink:title="bookings" target="_top">
<polygon fill="#ffffff" stroke="transparent" points="563,-277.9853 563,-338.9853 650,-338.9853 650,-277.9853 563,-277.9853"/>
<polygon fill="#f5f5f5" stroke="transparent" points="563.5,-315.4853 563.5,-338.4853 650.5,-338.4853 650.5,-315.4853 563.5,-315.4853"/>
<polygon fill="none" stroke="#000000" points="563.5,-315.4853 563.5,-338.4853 650.5,-338.4853 650.5,-315.4853 563.5,-315.4853"/>
<text text-anchor="start" x="568.4923" y="-324.5853" font-family="Helvetica,sans-Serif" font-weight="bold" font-size="11.00" fill="#000000">bookings</text>
<text text-anchor="start" x="616.0219" y="-323.5853" font-family="Helvetica,sans-Serif" font-size="11.00" fill="#000000">[table]</text>
<polygon fill="none" stroke="#000000" points="563.5,-296.4853 563.5,-315.4853 650.5,-315.4853 650.5,-296.4853 563.5,-296.4853"/>
<text text-anchor="start" x="566.5" y="-302.5853" font-family="Helvetica,sans-Serif" font-size="11.00" fill="#000000">...</text>
<polygon fill="#ffffff" stroke="transparent" points="563.5,-277.4853 563.5,-296.4853 587.5,-296.4853 587.5,-277.4853 563.5,-277.4853"/>
<polygon fill="none" stroke="#000000" points="563.5,-277.4853 563.5,-296.4853 587.5,-296.4853 587.5,-277.4853 563.5,-277.4853"/>
<text text-anchor="start" x="566.5" y="-283.5853" font-family="Helvetica,sans-Serif" font-size="11.00" fill="#000000">&lt; 4</text>
<polygon fill="#ffffff" stroke="transparent" points="587.5,-277.4853 587.5,-296.4853 627.5,-296.4853 627.5,-277.4853 587.5,-277.4853"/>
<polygon fill="none" stroke="#000000" points="587.5,-277.4853 587.5,-296.4853 627.5,-296.4853 627.5,-277.4853 587.5,-277.4853"/>
<text text-anchor="start" x="592.1105" y="-283.5853" font-family="Helvetica,sans-Serif" font-size="11.00" fill="#000000">0 rows</text>
<polygon fill="#ffffff" stroke="transparent" points="627.5,-277.4853 627.5,-296.4853 650.5,-296.4853 650.5,-277.4853 627.5,-277.4853"/>
<polygon fill="none" stroke="#000000" points="627.5,-277.4853 627.5,-296.4853 650.5,-296.4853 650.5,-277.4853 627.5,-277.4853"/>
<text text-anchor="start" x="631.9053" y="-283.5853" font-family="Helvetica,sans-Serif" font-size="11.00" fill="#000000">1 &gt;</text>
</a>
</g>
</g>
<!-- users -->
<g id="node2" class="node">
<title>users</title>
<g id="a_node2"><a xlink:href="../../tables/users.html" xlink:title="users" target="_top">
<polygon fill="#ffffff" stroke="transparent" points="8,-146.9853 8,-251.9853 115,-251.9853 115,-146.9853 8,-146.9853"/>
<polygon fill="#f5f5f5" stroke="transparent" points="8.5,-228.4853 8.5,-251.4853 115.5,-251.4853 115.5,-228.4853 8.5,-228.4853"/>
<polygon fill="none" stroke="#000000" points="8.5,-228.4853 8.5,-251.4853 115.5,-251.4853 115.5,-228.4853 8.5,-228.4853"/>
<text text-anchor="start" x="13.5" y="-237.5853" font-family="Helvetica,sans-Serif" font-weight="bold" font-size="11.00" fill="#000000">users</text>
<text text-anchor="start" x="80.5437" y="-236.5853" font-family="Helvetica,sans-Serif" font-size="11.00" fill="#000000">[table]</text>
<polygon fill="none" stroke="#000000" points="8.5,-206.4853 8.5,-228.4853 115.5,-228.4853 115.5,-206.4853 8.5,-206.4853"/>
<image xlink:href="../../images/primaryKeys.png" width="11px" height="12px" preserveAspectRatio="xMinYMin meet" x="13.5" y="-223.485"/>
<text text-anchor="start" x="28.5" y="-213.5853" font-family="Helvetica,sans-Serif" font-size="11.00" fill="#000000">id</text>
<polygon fill="#ffffff" stroke="transparent" points="8.5,-184.4853 8.5,-206.4853 115.5,-206.4853 115.5,-184.4853 8.5,-184.4853"/>
<polygon fill="none" stroke="#000000" points="8.5,-184.4853 8.5,-206.4853 115.5,-206.4853 115.5,-184.4853 8.5,-184.4853"/>
<text text-anchor="start" x="28.5" y="-191.5853" font-family="Helvetica,sans-Serif" font-size="11.00" fill="#000000">email</text>
<polygon fill="none" stroke="#000000" points="8.5,-165.4853 8.5,-184.4853 115.5,-184.4853 115.5,-165.4853 8.5,-165.4853"/>
<text text-anchor="start" x="11.5" y="-171.5853" font-family="Helvetica,sans-Serif" font-size="11.00" fill="#000000">...</text>
<polygon fill="#ffffff" stroke="transparent" points="8.5,-146.4853 8.5,-165.4853 38.5,-165.4853 38.5,-146.4853 8.5,-146.4853"/>
<polygon fill="none" stroke="#000000" points="8.5,-146.4853 8.5,-165.4853 38.5,-165.4853 38.5,-146.4853 8.5,-146.4853"/>
<text text-anchor="start" x="11.5" y="-152.5853" font-family="Helvetica,sans-Serif" font-size="11.00" fill="#000000"> &#160;</text>
<polygon fill="#ffffff" stroke="transparent" points="38.5,-146.4853 38.5,-165.4853 85.5,-165.4853 85.5,-146.4853 38.5,-146.4853"/>
<polygon fill="none" stroke="#000000" points="38.5,-146.4853 38.5,-165.4853 85.5,-165.4853 85.5,-146.4853 38.5,-146.4853"/>
<text text-anchor="start" x="50.1105" y="-152.5853" font-family="Helvetica,sans-Serif" font-size="11.00" fill="#000000">6 rows</text>
<polygon fill="#ffffff" stroke="transparent" points="85.5,-146.4853 85.5,-165.4853 115.5,-165.4853 115.5,-146.4853 85.5,-146.4853"/>
<polygon fill="none" stroke="#000000" points="85.5,-146.4853 85.5,-165.4853 115.5,-165.4853 115.5,-146.4853 85.5,-146.4853"/>
<text text-anchor="start" x="96.9053" y="-152.5853" font-family="Helvetica,sans-Serif" font-size="11.00" fill="#000000">5 &gt;</text>
</a>
</g>
</g>
<!-- bookings&#45;&gt;users -->
<g id="edge1" class="edge">
<title>bookings:w&#45;&gt;users:e</title>
<path fill="none" stroke="#000000" d="M549.7643,-310.2597C539.4272,-319.8715 540.8974,-341.3322 522,-349.4853 436.3025,-386.4589 404.4906,-361.9991 312,-349.4853 240.7303,-339.8427 210.7112,-353.1654 156,-306.4853 122.9397,-278.2779 158.9585,-217.4853 115.5,-217.4853"/>
<polygon fill="#000000" stroke="#000000" points="555.9435,-308.1119 564.682,-308.8858 559.7217,-306.7986 563.5,-305.4853 563.5,-305.4853 563.5,-305.4853 559.7217,-306.7986 562.318,-302.0849 555.9435,-308.1119 555.9435,-308.1119"/>
<ellipse fill="none" stroke="#000000" cx="552.9209" cy="-309.1626" rx="3.2" ry="3.2"/>
</g>
<!-- employees -->
<g id="node3" class="node">
<title>employees</title>
<g id="a_node3"><a xlink:href="../../tables/employees.html" xlink:title="employees" target="_top">
<polygon fill="#ffffff" stroke="transparent" points="369,-387.9853 369,-448.9853 465,-448.9853 465,-387.9853 369,-387.9853"/>
<polygon fill="#f5f5f5" stroke="transparent" points="369,-425.4853 369,-448.4853 465,-448.4853 465,-425.4853 369,-425.4853"/>
<polygon fill="none" stroke="#000000" points="369,-425.4853 369,-448.4853 465,-448.4853 465,-425.4853 369,-425.4853"/>
<text text-anchor="start" x="373.9114" y="-434.5853" font-family="Helvetica,sans-Serif" font-weight="bold" font-size="11.00" fill="#000000">employees</text>
<text text-anchor="start" x="430.5219" y="-433.5853" font-family="Helvetica,sans-Serif" font-size="11.00" fill="#000000">[table]</text>
<polygon fill="none" stroke="#000000" points="369,-406.4853 369,-425.4853 465,-425.4853 465,-406.4853 369,-406.4853"/>
<text text-anchor="start" x="372" y="-412.5853" font-family="Helvetica,sans-Serif" font-size="11.00" fill="#000000">...</text>
<polygon fill="#ffffff" stroke="transparent" points="369,-387.4853 369,-406.4853 398,-406.4853 398,-387.4853 369,-387.4853"/>
<polygon fill="none" stroke="#000000" points="369,-387.4853 369,-406.4853 398,-406.4853 398,-387.4853 369,-387.4853"/>
<text text-anchor="start" x="372" y="-393.5853" font-family="Helvetica,sans-Serif" font-size="11.00" fill="#000000">&lt; 2</text>
<polygon fill="#ffffff" stroke="transparent" points="398,-387.4853 398,-406.4853 440,-406.4853 440,-387.4853 398,-387.4853"/>
<polygon fill="none" stroke="#000000" points="398,-387.4853 398,-406.4853 440,-406.4853 440,-387.4853 398,-387.4853"/>
<text text-anchor="start" x="404.6105" y="-393.5853" font-family="Helvetica,sans-Serif" font-size="11.00" fill="#000000">0 rows</text>
<polygon fill="#ffffff" stroke="transparent" points="440,-387.4853 440,-406.4853 465,-406.4853 465,-387.4853 440,-387.4853"/>
<polygon fill="none" stroke="#000000" points="440,-387.4853 440,-406.4853 465,-406.4853 465,-387.4853 440,-387.4853"/>
<text text-anchor="start" x="446.4053" y="-393.5853" font-family="Helvetica,sans-Serif" font-size="11.00" fill="#000000">3 &gt;</text>
</a>
</g>
</g>
<!-- bookings&#45;&gt;employees -->
<g id="edge2" class="edge">
<title>bookings:w&#45;&gt;employees:e</title>
<path fill="none" stroke="#000000" d="M549.4793,-308.9055C532.9892,-319.4212 541.8108,-351.8699 522,-373.4853 500.7384,-396.6837 496.4678,-415.4853 465,-415.4853"/>
<polygon fill="#000000" stroke="#000000" points="555.7279,-307.3813 564.3532,-308.9828 559.614,-306.4333 563.5,-305.4853 563.5,-305.4853 563.5,-305.4853 559.614,-306.4333 562.6468,-301.9879 555.7279,-307.3813 555.7279,-307.3813"/>
<ellipse fill="none" stroke="#000000" cx="552.6191" cy="-308.1397" rx="3.2" ry="3.2"/>
</g>
<!-- services -->
<g id="node4" class="node">
<title>services</title>
<g id="a_node4"><a xlink:href="../../tables/services.html" xlink:title="services" target="_top">
<polygon fill="#ffffff" stroke="transparent" points="375.5,-277.9853 375.5,-338.9853 458.5,-338.9853 458.5,-277.9853 375.5,-277.9853"/>
<polygon fill="#f5f5f5" stroke="transparent" points="376,-315.4853 376,-338.4853 459,-338.4853 459,-315.4853 376,-315.4853"/>
<polygon fill="none" stroke="#000000" points="376,-315.4853 376,-338.4853 459,-338.4853 459,-315.4853 376,-315.4853"/>
<text text-anchor="start" x="380.8337" y="-324.5853" font-family="Helvetica,sans-Serif" font-weight="bold" font-size="11.00" fill="#000000">services</text>
<text text-anchor="start" x="424.5219" y="-323.5853" font-family="Helvetica,sans-Serif" font-size="11.00" fill="#000000">[table]</text>
<polygon fill="none" stroke="#000000" points="376,-296.4853 376,-315.4853 459,-315.4853 459,-296.4853 376,-296.4853"/>
<text text-anchor="start" x="379" y="-302.5853" font-family="Helvetica,sans-Serif" font-size="11.00" fill="#000000">...</text>
<polygon fill="#ffffff" stroke="transparent" points="376,-277.4853 376,-296.4853 398,-296.4853 398,-277.4853 376,-277.4853"/>
<polygon fill="none" stroke="#000000" points="376,-277.4853 376,-296.4853 398,-296.4853 398,-277.4853 376,-277.4853"/>
<text text-anchor="start" x="379" y="-283.5853" font-family="Helvetica,sans-Serif" font-size="11.00" fill="#000000">&lt; 1</text>
<polygon fill="#ffffff" stroke="transparent" points="398,-277.4853 398,-296.4853 437,-296.4853 437,-277.4853 398,-277.4853"/>
<polygon fill="none" stroke="#000000" points="398,-277.4853 398,-296.4853 437,-296.4853 437,-277.4853 398,-277.4853"/>
<text text-anchor="start" x="401.6105" y="-283.5853" font-family="Helvetica,sans-Serif" font-size="11.00" fill="#000000">0 rows</text>
<polygon fill="#ffffff" stroke="transparent" points="437,-277.4853 437,-296.4853 459,-296.4853 459,-277.4853 437,-277.4853"/>
<polygon fill="none" stroke="#000000" points="437,-277.4853 437,-296.4853 459,-296.4853 459,-277.4853 437,-277.4853"/>
<text text-anchor="start" x="440.4053" y="-283.5853" font-family="Helvetica,sans-Serif" font-size="11.00" fill="#000000">2 &gt;</text>
</a>
</g>
</g>
<!-- bookings&#45;&gt;services -->
<g id="edge3" class="edge">
<title>bookings:w&#45;&gt;services:e</title>
<path fill="none" stroke="#000000" d="M548.9559,-305.4853C513.9779,-305.4853 500.1832,-305.4853 459,-305.4853"/>
<polygon fill="#000000" stroke="#000000" points="555.5,-305.4854 563.5,-309.0853 559.5,-305.4853 563.5,-305.4853 563.5,-305.4853 563.5,-305.4853 559.5,-305.4853 563.5,-301.8853 555.5,-305.4854 555.5,-305.4854"/>
<ellipse fill="none" stroke="#000000" cx="552.3" cy="-305.4854" rx="3.2" ry="3.2"/>
</g>
<!-- shops -->
<g id="node5" class="node">
<title>shops</title>
<g id="a_node5"><a xlink:href="../../tables/shops.html" xlink:title="shops" target="_top">
<polygon fill="#ffffff" stroke="transparent" points="164,-168.9853 164,-295.9853 271,-295.9853 271,-168.9853 164,-168.9853"/>
<polygon fill="#f5f5f5" stroke="transparent" points="164.5,-272.4853 164.5,-295.4853 271.5,-295.4853 271.5,-272.4853 164.5,-272.4853"/>
<polygon fill="none" stroke="#000000" points="164.5,-272.4853 164.5,-295.4853 271.5,-295.4853 271.5,-272.4853 164.5,-272.4853"/>
<text text-anchor="start" x="169.5" y="-281.5853" font-family="Helvetica,sans-Serif" font-weight="bold" font-size="11.00" fill="#000000">shops</text>
<text text-anchor="start" x="236.5437" y="-280.5853" font-family="Helvetica,sans-Serif" font-size="11.00" fill="#000000">[table]</text>
<polygon fill="none" stroke="#000000" points="164.5,-250.4853 164.5,-272.4853 271.5,-272.4853 271.5,-250.4853 164.5,-250.4853"/>
<image xlink:href="../../images/primaryKeys.png" width="11px" height="12px" preserveAspectRatio="xMinYMin meet" x="169.5" y="-267.485"/>
<text text-anchor="start" x="184.5" y="-257.5853" font-family="Helvetica,sans-Serif" font-size="11.00" fill="#000000">id</text>
<polygon fill="#ffffff" stroke="transparent" points="164.5,-228.4853 164.5,-250.4853 271.5,-250.4853 271.5,-228.4853 164.5,-228.4853"/>
<polygon fill="none" stroke="#000000" points="164.5,-228.4853 164.5,-250.4853 271.5,-250.4853 271.5,-228.4853 164.5,-228.4853"/>
<text text-anchor="start" x="184.5" y="-235.5853" font-family="Helvetica,sans-Serif" font-size="11.00" fill="#000000">city</text>
<polygon fill="#ffffff" stroke="transparent" points="164.5,-206.4853 164.5,-228.4853 271.5,-228.4853 271.5,-206.4853 164.5,-206.4853"/>
<polygon fill="none" stroke="#000000" points="164.5,-206.4853 164.5,-228.4853 271.5,-228.4853 271.5,-206.4853 164.5,-206.4853"/>
<image xlink:href="../../images/foreignKeys.png" width="11px" height="12px" preserveAspectRatio="xMinYMin meet" x="169.5" y="-223.485"/>
<text text-anchor="start" x="184.5" y="-213.5853" font-family="Helvetica,sans-Serif" font-size="11.00" fill="#000000">owner_id</text>
<polygon fill="none" stroke="#000000" points="164.5,-187.4853 164.5,-206.4853 271.5,-206.4853 271.5,-187.4853 164.5,-187.4853"/>
<text text-anchor="start" x="167.5" y="-193.5853" font-family="Helvetica,sans-Serif" font-size="11.00" fill="#000000">...</text>
<polygon fill="#ffffff" stroke="transparent" points="164.5,-168.4853 164.5,-187.4853 201.5,-187.4853 201.5,-168.4853 164.5,-168.4853"/>
<polygon fill="none" stroke="#000000" points="164.5,-168.4853 164.5,-187.4853 201.5,-187.4853 201.5,-168.4853 164.5,-168.4853"/>
<text text-anchor="start" x="167.5" y="-174.5853" font-family="Helvetica,sans-Serif" font-size="11.00" fill="#000000">&lt; 1</text>
<polygon fill="#ffffff" stroke="transparent" points="201.5,-168.4853 201.5,-187.4853 241.5,-187.4853 241.5,-168.4853 201.5,-168.4853"/>
<polygon fill="none" stroke="#000000" points="201.5,-168.4853 201.5,-187.4853 241.5,-187.4853 241.5,-168.4853 201.5,-168.4853"/>
<text text-anchor="start" x="211.6105" y="-174.5853" font-family="Helvetica,sans-Serif" font-size="11.00" fill="#000000">1 row</text>
<polygon fill="#ffffff" stroke="transparent" points="241.5,-168.4853 241.5,-187.4853 271.5,-187.4853 271.5,-168.4853 241.5,-168.4853"/>
<polygon fill="none" stroke="#000000" points="241.5,-168.4853 241.5,-187.4853 271.5,-187.4853 271.5,-168.4853 241.5,-168.4853"/>
<text text-anchor="start" x="252.9053" y="-174.5853" font-family="Helvetica,sans-Serif" font-size="11.00" fill="#000000">5 &gt;</text>
</a>
</g>
</g>
<!-- bookings&#45;&gt;shops -->
<g id="edge4" class="edge">
<title>bookings:w&#45;&gt;shops:e</title>
<path fill="none" stroke="#000000" d="M549.7276,-300.861C539.9763,-292.3622 539.3998,-274.489 522,-267.4853 418.6899,-225.9012 382.8653,-261.4853 271.5,-261.4853"/>
<polygon fill="#000000" stroke="#000000" points="555.9161,-302.9389 562.3541,-308.8981 559.708,-304.2121 563.5,-305.4853 563.5,-305.4853 563.5,-305.4853 559.708,-304.2121 564.6459,-302.0726 555.9161,-302.9389 555.9161,-302.9389"/>
<ellipse fill="none" stroke="#000000" cx="552.8825" cy="-301.9203" rx="3.2" ry="3.2"/>
</g>
<!-- employees&#45;&gt;users -->
<g id="edge6" class="edge">
<title>employees:w&#45;&gt;users:e</title>
<path fill="none" stroke="#000000" d="M354.4109,-415.6637C267.6548,-417.7458 222.5873,-436.2352 156,-373.4853 103.8688,-324.3584 187.1318,-217.4853 115.5,-217.4853"/>
<polygon fill="#000000" stroke="#000000" points="361.0006,-415.5832 369.044,-419.085 365.0003,-415.5343 369,-415.4853 369,-415.4853 369,-415.4853 365.0003,-415.5343 368.956,-411.8856 361.0006,-415.5832 361.0006,-415.5832"/>
<ellipse fill="none" stroke="#000000" cx="357.8008" cy="-415.6223" rx="3.2" ry="3.2"/>
</g>
<!-- employees&#45;&gt;shops -->
<g id="edge5" class="edge">
<title>employees:w&#45;&gt;shops:e</title>
<path fill="none" stroke="#000000" d="M354.5979,-413.495C330.5365,-405.8454 329.9438,-377.367 312,-349.4853 288.6998,-313.2807 314.5544,-261.4853 271.5,-261.4853"/>
<polygon fill="#000000" stroke="#000000" points="361.0753,-414.3901 368.5072,-419.0514 365.0377,-414.9377 369,-415.4853 369,-415.4853 369,-415.4853 365.0377,-414.9377 369.4928,-411.9192 361.0753,-414.3901 361.0753,-414.3901"/>
<ellipse fill="none" stroke="#000000" cx="357.9054" cy="-413.9521" rx="3.2" ry="3.2"/>
</g>
<!-- services&#45;&gt;shops -->
<g id="edge13" class="edge">
<title>services:w&#45;&gt;shops:e</title>
<path fill="none" stroke="#000000" d="M361.5034,-304.1202C324.304,-296.6935 316.5786,-261.4853 271.5,-261.4853"/>
<polygon fill="#000000" stroke="#000000" points="368.0352,-304.7353 375.6625,-309.0695 372.0176,-305.1103 376,-305.4853 376,-305.4853 376,-305.4853 372.0176,-305.1103 376.3375,-301.9012 368.0352,-304.7353 368.0352,-304.7353"/>
<ellipse fill="none" stroke="#000000" cx="364.8493" cy="-304.4352" rx="3.2" ry="3.2"/>
</g>
<!-- shops&#45;&gt;users -->
<g id="edge14" class="edge">
<title>shops:w&#45;&gt;users:e</title>
<path fill="none" stroke="#000000" d="M149.9909,-217.4853C138.6774,-217.4853 131.4931,-217.4853 115.5,-217.4853"/>
<polygon fill="#000000" stroke="#000000" points="156.5,-217.4854 164.5,-221.0853 160.5,-217.4853 164.5,-217.4853 164.5,-217.4853 164.5,-217.4853 160.5,-217.4853 164.5,-213.8853 156.5,-217.4854 156.5,-217.4854"/>
<ellipse fill="none" stroke="#000000" cx="153.3" cy="-217.4854" rx="3.2" ry="3.2"/>
</g>
<!-- favorite_shops -->
<g id="node6" class="node">
<title>favorite_shops</title>
<g id="a_node6"><a xlink:href="../../tables/favorite_shops.html" xlink:title="favorite_shops" target="_top">
<polygon fill="#ffffff" stroke="transparent" points="320,-68.4853 320,-202.4853 514,-202.4853 514,-68.4853 320,-68.4853"/>
<polygon fill="#f5f5f5" stroke="transparent" points="322,-177.4853 322,-200.4853 512,-200.4853 512,-177.4853 322,-177.4853"/>
<polygon fill="none" stroke="#000000" points="322,-177.4853 322,-200.4853 512,-200.4853 512,-177.4853 322,-177.4853"/>
<text text-anchor="start" x="327" y="-186.5853" font-family="Helvetica,sans-Serif" font-weight="bold" font-size="11.00" fill="#000000">favorite_shops</text>
<text text-anchor="start" x="477.0437" y="-185.5853" font-family="Helvetica,sans-Serif" font-size="11.00" fill="#000000">[table]</text>
<polygon fill="none" stroke="#000000" points="322,-155.4853 322,-177.4853 428,-177.4853 428,-155.4853 322,-155.4853"/>
<image xlink:href="../../images/primaryKeys.png" width="11px" height="12px" preserveAspectRatio="xMinYMin meet" x="327" y="-172.485"/>
<text text-anchor="start" x="342" y="-162.5853" font-family="Helvetica,sans-Serif" font-size="11.00" fill="#000000">id</text>
<polygon fill="none" stroke="#000000" points="428,-155.4853 428,-177.4853 512,-177.4853 512,-155.4853 428,-155.4853"/>
<text text-anchor="start" x="431" y="-163.1853" font-family="Helvetica,sans-Serif" font-size="11.00" fill="#000000">bigserial[19]</text>
<polygon fill="#ffffff" stroke="transparent" points="322,-133.4853 322,-155.4853 428,-155.4853 428,-133.4853 322,-133.4853"/>
<polygon fill="none" stroke="#000000" points="322,-133.4853 322,-155.4853 428,-155.4853 428,-133.4853 322,-133.4853"/>
<image xlink:href="../../images/foreignKeys.png" width="11px" height="12px" preserveAspectRatio="xMinYMin meet" x="327" y="-150.485"/>
<text text-anchor="start" x="342" y="-140.5853" font-family="Helvetica,sans-Serif" font-size="11.00" fill="#000000">user_id</text>
<polygon fill="none" stroke="#000000" points="428,-133.4853 428,-155.4853 512,-155.4853 512,-133.4853 428,-133.4853"/>
<text text-anchor="start" x="431" y="-141.1853" font-family="Helvetica,sans-Serif" font-size="11.00" fill="#000000">int8[19]</text>
<polygon fill="#ffffff" stroke="transparent" points="322,-111.4853 322,-133.4853 428,-133.4853 428,-111.4853 322,-111.4853"/>
<polygon fill="none" stroke="#000000" points="322,-111.4853 322,-133.4853 428,-133.4853 428,-111.4853 322,-111.4853"/>
<image xlink:href="../../images/foreignKeys.png" width="11px" height="12px" preserveAspectRatio="xMinYMin meet" x="327" y="-128.485"/>
<text text-anchor="start" x="342" y="-118.5853" font-family="Helvetica,sans-Serif" font-size="11.00" fill="#000000">shop_id</text>
<polygon fill="none" stroke="#000000" points="428,-111.4853 428,-133.4853 512,-133.4853 512,-111.4853 428,-111.4853"/>
<text text-anchor="start" x="431" y="-119.1853" font-family="Helvetica,sans-Serif" font-size="11.00" fill="#000000">int8[19]</text>
<polygon fill="none" stroke="#000000" points="322,-89.4853 322,-111.4853 428,-111.4853 428,-89.4853 322,-89.4853"/>
<text text-anchor="start" x="342" y="-96.5853" font-family="Helvetica,sans-Serif" font-size="11.00" fill="#000000">created_at</text>
<polygon fill="none" stroke="#000000" points="428,-89.4853 428,-111.4853 512,-111.4853 512,-89.4853 428,-89.4853"/>
<text text-anchor="start" x="430.8807" y="-97.1853" font-family="Helvetica,sans-Serif" font-size="11.00" fill="#000000">timestamp[29,6]</text>
<polygon fill="#ffffff" stroke="transparent" points="322,-70.4853 322,-89.4853 366,-89.4853 366,-70.4853 322,-70.4853"/>
<polygon fill="none" stroke="#000000" points="322,-70.4853 322,-89.4853 366,-89.4853 366,-70.4853 322,-70.4853"/>
<text text-anchor="start" x="325" y="-76.5853" font-family="Helvetica,sans-Serif" font-size="11.00" fill="#000000">&lt; 2</text>
<polygon fill="#ffffff" stroke="transparent" points="366,-70.4853 366,-89.4853 428,-89.4853 428,-70.4853 366,-70.4853"/>
<polygon fill="none" stroke="#000000" points="366,-70.4853 366,-89.4853 428,-89.4853 428,-70.4853 366,-70.4853"/>
<text text-anchor="start" x="392.6105" y="-76.5853" font-family="Helvetica,sans-Serif" font-size="11.00" fill="#000000">0 rows</text>
<polygon fill="#ffffff" stroke="transparent" points="428,-70.4853 428,-89.4853 512,-89.4853 512,-70.4853 428,-70.4853"/>
<polygon fill="none" stroke="#000000" points="428,-70.4853 428,-89.4853 512,-89.4853 512,-70.4853 428,-70.4853"/>
<text text-anchor="start" x="493.4053" y="-76.5853" font-family="Helvetica,sans-Serif" font-size="11.00" fill="#000000">0 &gt;</text>
<polygon fill="none" stroke="#000000" stroke-width="2" points="321,-69.4853 321,-201.4853 513,-201.4853 513,-69.4853 321,-69.4853"/>
</a>
</g>
</g>
<!-- favorite_shops&#45;&gt;users -->
<g id="edge8" class="edge">
<title>favorite_shops:w&#45;&gt;users:e</title>
<path fill="none" stroke="#000000" d="M307.4359,-144.1866C243.9699,-141.5935 215.6304,-123.812 156,-158.4853 128.5046,-174.4731 147.3057,-217.4853 115.5,-217.4853"/>
<polygon fill="#000000" stroke="#000000" points="314.0017,-144.3212 321.9261,-148.0846 318.0008,-144.4033 322,-144.4853 322,-144.4853 322,-144.4853 318.0008,-144.4033 322.0739,-140.8861 314.0017,-144.3212 314.0017,-144.3212"/>
<ellipse fill="none" stroke="#000000" cx="310.8024" cy="-144.2555" rx="3.2" ry="3.2"/>
</g>
<!-- favorite_shops&#45;&gt;shops -->
<g id="edge7" class="edge">
<title>favorite_shops:w&#45;&gt;shops:e</title>
<path fill="none" stroke="#000000" d="M307.6234,-125.6497C269.6344,-146.3399 331.3233,-261.4853 271.5,-261.4853"/>
<polygon fill="#000000" stroke="#000000" points="314.187,-124.205 322.7739,-126.0012 318.0935,-123.3452 322,-122.4853 322,-122.4853 322,-122.4853 318.0935,-123.3452 321.2261,-118.9695 314.187,-124.205 314.187,-124.205"/>
<ellipse fill="none" stroke="#000000" cx="311.0618" cy="-124.8929" rx="3.2" ry="3.2"/>
</g>
<!-- reviews -->
<g id="node7" class="node">
<title>reviews</title>
<g id="a_node7"><a xlink:href="../../tables/reviews.html" xlink:title="reviews" target="_top">
<polygon fill="#ffffff" stroke="transparent" points="699,-237.9853 699,-298.9853 779,-298.9853 779,-237.9853 699,-237.9853"/>
<polygon fill="#f5f5f5" stroke="transparent" points="699,-275.4853 699,-298.4853 779,-298.4853 779,-275.4853 699,-275.4853"/>
<polygon fill="none" stroke="#000000" points="699,-275.4853 699,-298.4853 779,-298.4853 779,-275.4853 699,-275.4853"/>
<text text-anchor="start" x="703.8633" y="-284.5853" font-family="Helvetica,sans-Serif" font-weight="bold" font-size="11.00" fill="#000000">reviews</text>
<text text-anchor="start" x="744.5219" y="-283.5853" font-family="Helvetica,sans-Serif" font-size="11.00" fill="#000000">[table]</text>
<polygon fill="none" stroke="#000000" points="699,-256.4853 699,-275.4853 779,-275.4853 779,-256.4853 699,-256.4853"/>
<text text-anchor="start" x="702" y="-262.5853" font-family="Helvetica,sans-Serif" font-size="11.00" fill="#000000">...</text>
<polygon fill="#ffffff" stroke="transparent" points="699,-237.4853 699,-256.4853 724,-256.4853 724,-237.4853 699,-237.4853"/>
<polygon fill="none" stroke="#000000" points="699,-237.4853 699,-256.4853 724,-256.4853 724,-237.4853 699,-237.4853"/>
<text text-anchor="start" x="702" y="-243.5853" font-family="Helvetica,sans-Serif" font-size="11.00" fill="#000000">&lt; 4</text>
<polygon fill="#ffffff" stroke="transparent" points="724,-237.4853 724,-256.4853 764,-256.4853 764,-237.4853 724,-237.4853"/>
<polygon fill="none" stroke="#000000" points="724,-237.4853 724,-256.4853 764,-256.4853 764,-237.4853 724,-237.4853"/>
<text text-anchor="start" x="728.6105" y="-243.5853" font-family="Helvetica,sans-Serif" font-size="11.00" fill="#000000">0 rows</text>
<polygon fill="#ffffff" stroke="transparent" points="764,-237.4853 764,-256.4853 779,-256.4853 779,-237.4853 764,-237.4853"/>
<polygon fill="none" stroke="#000000" points="764,-237.4853 764,-256.4853 779,-256.4853 779,-237.4853 764,-237.4853"/>
<text text-anchor="start" x="769.8862" y="-243.5853" font-family="Helvetica,sans-Serif" font-size="11.00" fill="#000000"> &#160;</text>
</a>
</g>
</g>
<!-- reviews&#45;&gt;bookings -->
<g id="edge9" class="edge">
<title>reviews:w&#45;&gt;bookings:e</title>
<path fill="none" stroke="#000000" d="M684.9951,-270.3901C672.5984,-281.0713 672.3288,-305.4853 650.5,-305.4853"/>
<polygon fill="#000000" stroke="#000000" points="691.4496,-268.1296 700.1899,-268.883 695.2248,-266.8075 699,-265.4853 699,-265.4853 699,-265.4853 695.2248,-266.8075 697.8101,-262.0877 691.4496,-268.1296 691.4496,-268.1296"/>
<ellipse fill="none" stroke="#000000" cx="688.4295" cy="-269.1873" rx="3.2" ry="3.2"/>
</g>
<!-- reviews&#45;&gt;users -->
<g id="edge10" class="edge">
<title>reviews:w&#45;&gt;users:e</title>
<path fill="none" stroke="#000000" d="M684.7688,-262.3048C628.7802,-237.9221 572.7904,-80.9557 522,-57.4853 437.2753,-18.3339 402.8914,-36.2753 312,-57.4853 236.7037,-75.0561 210.5486,-79.6883 156,-134.4853 127.042,-163.5752 156.5462,-217.4853 115.5,-217.4853"/>
<polygon fill="#000000" stroke="#000000" points="691.1926,-263.7404 698.2148,-268.9986 695.0963,-264.6129 699,-265.4853 699,-265.4853 699,-265.4853 695.0963,-264.6129 699.7852,-261.972 691.1926,-263.7404 691.1926,-263.7404"/>
<ellipse fill="none" stroke="#000000" cx="688.0696" cy="-263.0425" rx="3.2" ry="3.2"/>
</g>
<!-- reviews&#45;&gt;employees -->
<g id="edge11" class="edge">
<title>reviews:w&#45;&gt;employees:e</title>
<path fill="none" stroke="#000000" d="M684.8961,-268.941C665.4804,-281.6223 684.5236,-326.076 658,-349.4853 590.0315,-409.4733 555.6547,-415.4853 465,-415.4853"/>
<polygon fill="#000000" stroke="#000000" points="691.2298,-267.3892 699.8567,-268.9819 695.1149,-266.4372 699,-265.4853 699,-265.4853 699,-265.4853 695.1149,-266.4372 698.1433,-261.9887 691.2298,-267.3892 691.2298,-267.3892"/>
<ellipse fill="none" stroke="#000000" cx="688.1218" cy="-268.1507" rx="3.2" ry="3.2"/>
</g>
<!-- reviews&#45;&gt;shops -->
<g id="edge12" class="edge">
<title>reviews:w&#45;&gt;shops:e</title>
<path fill="none" stroke="#000000" d="M684.3956,-265.28C617.078,-263.3315 596.021,-248.0679 522,-243.4853 428.845,-237.7182 403.3001,-224.1101 312,-243.4853 292.7314,-247.5744 291.1977,-261.4853 271.5,-261.4853"/>
<polygon fill="#000000" stroke="#000000" points="691.0008,-265.3728 698.9494,-269.085 695.0004,-265.4291 699,-265.4853 699,-265.4853 699,-265.4853 695.0004,-265.4291 699.0506,-261.8857 691.0008,-265.3728 691.0008,-265.3728"/>
<ellipse fill="none" stroke="#000000" cx="687.8011" cy="-265.3278" rx="3.2" ry="3.2"/>
</g>
</g>
</svg>
