<?xml version="1.0" encoding="UTF-8" standalone="no"?>
<!DOCTYPE svg PUBLIC "-//W3C//DTD SVG 1.1//EN"
 "http://www.w3.org/Graphics/SVG/1.1/DTD/svg11.dtd">
<!-- Generated by graphviz version 2.40.1 (20161225.0304)
 -->
<!-- Title: oneDegreeRelationshipsDiagram Pages: 1 -->
<svg width="811pt" height="350pt"
 viewBox="0.00 0.00 811.00 349.70" xmlns="http://www.w3.org/2000/svg" xmlns:xlink="http://www.w3.org/1999/xlink">
<g id="graph0" class="graph" transform="scale(1 1) rotate(0) translate(4 345.7)">
<title>oneDegreeRelationshipsDiagram</title>
<polygon fill="#ffffff" stroke="transparent" points="-4,4 -4,-345.7 807,-345.7 807,4 -4,4"/>
<text text-anchor="middle" x="72.4936" y="-7.3" font-family="Helvetica,sans-Serif" font-size="11.00" fill="#000000">Generated by SchemaSpy</text>
<!-- bookings -->
<g id="node1" class="node">
<title>bookings</title>
<g id="a_node1"><a xlink:href="../../tables/bookings.html" xlink:title="bookings" target="_top">
<polygon fill="#ffffff" stroke="transparent" points="466,-38.2 466,-209.2 559,-209.2 559,-38.2 466,-38.2"/>
<polygon fill="#f5f5f5" stroke="transparent" points="466.5,-185.7 466.5,-208.7 559.5,-208.7 559.5,-185.7 466.5,-185.7"/>
<polygon fill="none" stroke="#000000" points="466.5,-185.7 466.5,-208.7 559.5,-208.7 559.5,-185.7 466.5,-185.7"/>
<text text-anchor="start" x="471.5" y="-194.8" font-family="Helvetica,sans-Serif" font-weight="bold" font-size="11.00" fill="#000000">bookings</text>
<text text-anchor="start" x="524.5437" y="-193.8" font-family="Helvetica,sans-Serif" font-size="11.00" fill="#000000">[table]</text>
<polygon fill="none" stroke="#000000" points="466.5,-163.7 466.5,-185.7 559.5,-185.7 559.5,-163.7 466.5,-163.7"/>
<image xlink:href="../../images/primaryKeys.png" width="11px" height="12px" preserveAspectRatio="xMinYMin meet" x="471.5" y="-180.7"/>
<text text-anchor="start" x="486.5" y="-170.8" font-family="Helvetica,sans-Serif" font-size="11.00" fill="#000000">id</text>
<polygon fill="#ffffff" stroke="transparent" points="466.5,-141.7 466.5,-163.7 559.5,-163.7 559.5,-141.7 466.5,-141.7"/>
<polygon fill="none" stroke="#000000" points="466.5,-141.7 466.5,-163.7 559.5,-163.7 559.5,-141.7 466.5,-141.7"/>
<image xlink:href="../../images/foreignKeys.png" width="11px" height="12px" preserveAspectRatio="xMinYMin meet" x="471.5" y="-158.7"/>
<text text-anchor="start" x="486.5" y="-148.8" font-family="Helvetica,sans-Serif" font-size="11.00" fill="#000000">shop_id</text>
<polygon fill="#ffffff" stroke="transparent" points="466.5,-119.7 466.5,-141.7 559.5,-141.7 559.5,-119.7 466.5,-119.7"/>
<polygon fill="none" stroke="#000000" points="466.5,-119.7 466.5,-141.7 559.5,-141.7 559.5,-119.7 466.5,-119.7"/>
<image xlink:href="../../images/foreignKeys.png" width="11px" height="12px" preserveAspectRatio="xMinYMin meet" x="471.5" y="-136.7"/>
<text text-anchor="start" x="486.5" y="-126.8" font-family="Helvetica,sans-Serif" font-size="11.00" fill="#000000">customer_id</text>
<polygon fill="#ffffff" stroke="transparent" points="466.5,-97.7 466.5,-119.7 559.5,-119.7 559.5,-97.7 466.5,-97.7"/>
<polygon fill="none" stroke="#000000" points="466.5,-97.7 466.5,-119.7 559.5,-119.7 559.5,-97.7 466.5,-97.7"/>
<image xlink:href="../../images/foreignKeys.png" width="11px" height="12px" preserveAspectRatio="xMinYMin meet" x="471.5" y="-114.7"/>
<text text-anchor="start" x="486.5" y="-104.8" font-family="Helvetica,sans-Serif" font-size="11.00" fill="#000000">employee_id</text>
<polygon fill="none" stroke="#000000" points="466.5,-75.7 466.5,-97.7 559.5,-97.7 559.5,-75.7 466.5,-75.7"/>
<image xlink:href="../../images/foreignKeys.png" width="11px" height="12px" preserveAspectRatio="xMinYMin meet" x="471.5" y="-92.7"/>
<text text-anchor="start" x="486.5" y="-82.8" font-family="Helvetica,sans-Serif" font-size="11.00" fill="#000000">service_id</text>
<polygon fill="none" stroke="#000000" points="466.5,-56.7 466.5,-75.7 559.5,-75.7 559.5,-56.7 466.5,-56.7"/>
<text text-anchor="start" x="469.5" y="-62.8" font-family="Helvetica,sans-Serif" font-size="11.00" fill="#000000">...</text>
<polygon fill="#ffffff" stroke="transparent" points="466.5,-37.7 466.5,-56.7 493.5,-56.7 493.5,-37.7 466.5,-37.7"/>
<polygon fill="none" stroke="#000000" points="466.5,-37.7 466.5,-56.7 493.5,-56.7 493.5,-37.7 466.5,-37.7"/>
<text text-anchor="start" x="469.5" y="-43.8" font-family="Helvetica,sans-Serif" font-size="11.00" fill="#000000">&lt; 4</text>
<polygon fill="#ffffff" stroke="transparent" points="493.5,-37.7 493.5,-56.7 534.5,-56.7 534.5,-37.7 493.5,-37.7"/>
<polygon fill="none" stroke="#000000" points="493.5,-37.7 493.5,-56.7 534.5,-56.7 534.5,-37.7 493.5,-37.7"/>
<text text-anchor="start" x="499.1105" y="-43.8" font-family="Helvetica,sans-Serif" font-size="11.00" fill="#000000">0 rows</text>
<polygon fill="#ffffff" stroke="transparent" points="534.5,-37.7 534.5,-56.7 559.5,-56.7 559.5,-37.7 534.5,-37.7"/>
<polygon fill="none" stroke="#000000" points="534.5,-37.7 534.5,-56.7 559.5,-56.7 559.5,-37.7 534.5,-37.7"/>
<text text-anchor="start" x="540.9053" y="-43.8" font-family="Helvetica,sans-Serif" font-size="11.00" fill="#000000">1 &gt;</text>
</a>
</g>
</g>
<!-- users -->
<g id="node2" class="node">
<title>users</title>
<g id="a_node2"><a xlink:href="../../tables/users.html" xlink:title="users" target="_top">
<polygon fill="#ffffff" stroke="transparent" points="8,-79.2 8,-184.2 115,-184.2 115,-79.2 8,-79.2"/>
<polygon fill="#f5f5f5" stroke="transparent" points="8.5,-160.7 8.5,-183.7 115.5,-183.7 115.5,-160.7 8.5,-160.7"/>
<polygon fill="none" stroke="#000000" points="8.5,-160.7 8.5,-183.7 115.5,-183.7 115.5,-160.7 8.5,-160.7"/>
<text text-anchor="start" x="13.5" y="-169.8" font-family="Helvetica,sans-Serif" font-weight="bold" font-size="11.00" fill="#000000">users</text>
<text text-anchor="start" x="80.5437" y="-168.8" font-family="Helvetica,sans-Serif" font-size="11.00" fill="#000000">[table]</text>
<polygon fill="none" stroke="#000000" points="8.5,-138.7 8.5,-160.7 115.5,-160.7 115.5,-138.7 8.5,-138.7"/>
<image xlink:href="../../images/primaryKeys.png" width="11px" height="12px" preserveAspectRatio="xMinYMin meet" x="13.5" y="-155.7"/>
<text text-anchor="start" x="28.5" y="-145.8" font-family="Helvetica,sans-Serif" font-size="11.00" fill="#000000">id</text>
<polygon fill="#ffffff" stroke="transparent" points="8.5,-116.7 8.5,-138.7 115.5,-138.7 115.5,-116.7 8.5,-116.7"/>
<polygon fill="none" stroke="#000000" points="8.5,-116.7 8.5,-138.7 115.5,-138.7 115.5,-116.7 8.5,-116.7"/>
<text text-anchor="start" x="28.5" y="-123.8" font-family="Helvetica,sans-Serif" font-size="11.00" fill="#000000">email</text>
<polygon fill="none" stroke="#000000" points="8.5,-97.7 8.5,-116.7 115.5,-116.7 115.5,-97.7 8.5,-97.7"/>
<text text-anchor="start" x="11.5" y="-103.8" font-family="Helvetica,sans-Serif" font-size="11.00" fill="#000000">...</text>
<polygon fill="#ffffff" stroke="transparent" points="8.5,-78.7 8.5,-97.7 38.5,-97.7 38.5,-78.7 8.5,-78.7"/>
<polygon fill="none" stroke="#000000" points="8.5,-78.7 8.5,-97.7 38.5,-97.7 38.5,-78.7 8.5,-78.7"/>
<text text-anchor="start" x="11.5" y="-84.8" font-family="Helvetica,sans-Serif" font-size="11.00" fill="#000000"> &#160;</text>
<polygon fill="#ffffff" stroke="transparent" points="38.5,-78.7 38.5,-97.7 85.5,-97.7 85.5,-78.7 38.5,-78.7"/>
<polygon fill="none" stroke="#000000" points="38.5,-78.7 38.5,-97.7 85.5,-97.7 85.5,-78.7 38.5,-78.7"/>
<text text-anchor="start" x="50.1105" y="-84.8" font-family="Helvetica,sans-Serif" font-size="11.00" fill="#000000">6 rows</text>
<polygon fill="#ffffff" stroke="transparent" points="85.5,-78.7 85.5,-97.7 115.5,-97.7 115.5,-78.7 85.5,-78.7"/>
<polygon fill="none" stroke="#000000" points="85.5,-78.7 85.5,-97.7 115.5,-97.7 115.5,-78.7 85.5,-78.7"/>
<text text-anchor="start" x="96.9053" y="-84.8" font-family="Helvetica,sans-Serif" font-size="11.00" fill="#000000">5 &gt;</text>
</a>
</g>
</g>
<!-- bookings&#45;&gt;users -->
<g id="edge1" class="edge">
<title>bookings:w&#45;&gt;users:e</title>
<path fill="none" stroke="#000000" d="M452.7118,-126.114C439.9037,-114.2834 448.1083,-82.8141 425,-70.7 380.5192,-47.3819 361.7069,-63.5241 312,-70.7 240.4569,-81.0282 219.9409,-82.9857 156,-116.7 135.4614,-127.5295 138.7188,-149.7 115.5,-149.7"/>
<polygon fill="#000000" stroke="#000000" points="458.9089,-128.1751 465.3638,-134.116 462.7044,-129.4376 466.5,-130.7 466.5,-130.7 466.5,-130.7 462.7044,-129.4376 467.6362,-127.284 458.9089,-128.1751 458.9089,-128.1751"/>
<ellipse fill="none" stroke="#000000" cx="455.8724" cy="-127.1652" rx="3.2" ry="3.2"/>
</g>
<!-- employees -->
<g id="node3" class="node">
<title>employees</title>
<g id="a_node3"><a xlink:href="../../tables/employees.html" xlink:title="employees" target="_top">
<polygon fill="#ffffff" stroke="transparent" points="320,-81.2 320,-208.2 417,-208.2 417,-81.2 320,-81.2"/>
<polygon fill="#f5f5f5" stroke="transparent" points="320.5,-184.7 320.5,-207.7 417.5,-207.7 417.5,-184.7 320.5,-184.7"/>
<polygon fill="none" stroke="#000000" points="320.5,-184.7 320.5,-207.7 417.5,-207.7 417.5,-184.7 320.5,-184.7"/>
<text text-anchor="start" x="325.5" y="-193.8" font-family="Helvetica,sans-Serif" font-weight="bold" font-size="11.00" fill="#000000">employees</text>
<text text-anchor="start" x="383.0219" y="-192.8" font-family="Helvetica,sans-Serif" font-size="11.00" fill="#000000">[table]</text>
<polygon fill="none" stroke="#000000" points="320.5,-162.7 320.5,-184.7 417.5,-184.7 417.5,-162.7 320.5,-162.7"/>
<image xlink:href="../../images/primaryKeys.png" width="11px" height="12px" preserveAspectRatio="xMinYMin meet" x="325.5" y="-179.7"/>
<text text-anchor="start" x="340.5" y="-169.8" font-family="Helvetica,sans-Serif" font-size="11.00" fill="#000000">id</text>
<polygon fill="#ffffff" stroke="transparent" points="320.5,-140.7 320.5,-162.7 417.5,-162.7 417.5,-140.7 320.5,-140.7"/>
<polygon fill="none" stroke="#000000" points="320.5,-140.7 320.5,-162.7 417.5,-162.7 417.5,-140.7 320.5,-140.7"/>
<image xlink:href="../../images/foreignKeys.png" width="11px" height="12px" preserveAspectRatio="xMinYMin meet" x="325.5" y="-157.7"/>
<text text-anchor="start" x="340.5" y="-147.8" font-family="Helvetica,sans-Serif" font-size="11.00" fill="#000000">shop_id</text>
<polygon fill="#ffffff" stroke="transparent" points="320.5,-118.7 320.5,-140.7 417.5,-140.7 417.5,-118.7 320.5,-118.7"/>
<polygon fill="none" stroke="#000000" points="320.5,-118.7 320.5,-140.7 417.5,-140.7 417.5,-118.7 320.5,-118.7"/>
<image xlink:href="../../images/foreignKeys.png" width="11px" height="12px" preserveAspectRatio="xMinYMin meet" x="325.5" y="-135.7"/>
<text text-anchor="start" x="340.5" y="-125.8" font-family="Helvetica,sans-Serif" font-size="11.00" fill="#000000">user_id</text>
<polygon fill="none" stroke="#000000" points="320.5,-99.7 320.5,-118.7 417.5,-118.7 417.5,-99.7 320.5,-99.7"/>
<text text-anchor="start" x="323.5" y="-105.8" font-family="Helvetica,sans-Serif" font-size="11.00" fill="#000000">...</text>
<polygon fill="#ffffff" stroke="transparent" points="320.5,-80.7 320.5,-99.7 349.5,-99.7 349.5,-80.7 320.5,-80.7"/>
<polygon fill="none" stroke="#000000" points="320.5,-80.7 320.5,-99.7 349.5,-99.7 349.5,-80.7 320.5,-80.7"/>
<text text-anchor="start" x="323.5" y="-86.8" font-family="Helvetica,sans-Serif" font-size="11.00" fill="#000000">&lt; 2</text>
<polygon fill="#ffffff" stroke="transparent" points="349.5,-80.7 349.5,-99.7 391.5,-99.7 391.5,-80.7 349.5,-80.7"/>
<polygon fill="none" stroke="#000000" points="349.5,-80.7 349.5,-99.7 391.5,-99.7 391.5,-80.7 349.5,-80.7"/>
<text text-anchor="start" x="356.1105" y="-86.8" font-family="Helvetica,sans-Serif" font-size="11.00" fill="#000000">0 rows</text>
<polygon fill="#ffffff" stroke="transparent" points="391.5,-80.7 391.5,-99.7 417.5,-99.7 417.5,-80.7 391.5,-80.7"/>
<polygon fill="none" stroke="#000000" points="391.5,-80.7 391.5,-99.7 417.5,-99.7 417.5,-80.7 391.5,-80.7"/>
<text text-anchor="start" x="398.9053" y="-86.8" font-family="Helvetica,sans-Serif" font-size="11.00" fill="#000000">3 &gt;</text>
</a>
</g>
</g>
<!-- bookings&#45;&gt;employees -->
<g id="edge2" class="edge">
<title>bookings:w&#45;&gt;employees:e</title>
<path fill="none" stroke="#000000" d="M452.5173,-113.8004C436.592,-129.1236 447.4598,-173.7 417.5,-173.7"/>
<polygon fill="#000000" stroke="#000000" points="458.9844,-111.4415 467.7337,-112.082 462.7422,-110.0707 466.5,-108.7 466.5,-108.7 466.5,-108.7 462.7422,-110.0707 465.2663,-105.318 458.9844,-111.4415 458.9844,-111.4415"/>
<ellipse fill="none" stroke="#000000" cx="455.9781" cy="-112.5381" rx="3.2" ry="3.2"/>
</g>
<!-- shops -->
<g id="node4" class="node">
<title>shops</title>
<g id="a_node4"><a xlink:href="../../tables/shops.html" xlink:title="shops" target="_top">
<polygon fill="#ffffff" stroke="transparent" points="164,-138.2 164,-265.2 271,-265.2 271,-138.2 164,-138.2"/>
<polygon fill="#f5f5f5" stroke="transparent" points="164.5,-241.7 164.5,-264.7 271.5,-264.7 271.5,-241.7 164.5,-241.7"/>
<polygon fill="none" stroke="#000000" points="164.5,-241.7 164.5,-264.7 271.5,-264.7 271.5,-241.7 164.5,-241.7"/>
<text text-anchor="start" x="169.5" y="-250.8" font-family="Helvetica,sans-Serif" font-weight="bold" font-size="11.00" fill="#000000">shops</text>
<text text-anchor="start" x="236.5437" y="-249.8" font-family="Helvetica,sans-Serif" font-size="11.00" fill="#000000">[table]</text>
<polygon fill="none" stroke="#000000" points="164.5,-219.7 164.5,-241.7 271.5,-241.7 271.5,-219.7 164.5,-219.7"/>
<image xlink:href="../../images/primaryKeys.png" width="11px" height="12px" preserveAspectRatio="xMinYMin meet" x="169.5" y="-236.7"/>
<text text-anchor="start" x="184.5" y="-226.8" font-family="Helvetica,sans-Serif" font-size="11.00" fill="#000000">id</text>
<polygon fill="#ffffff" stroke="transparent" points="164.5,-197.7 164.5,-219.7 271.5,-219.7 271.5,-197.7 164.5,-197.7"/>
<polygon fill="none" stroke="#000000" points="164.5,-197.7 164.5,-219.7 271.5,-219.7 271.5,-197.7 164.5,-197.7"/>
<text text-anchor="start" x="184.5" y="-204.8" font-family="Helvetica,sans-Serif" font-size="11.00" fill="#000000">city</text>
<polygon fill="#ffffff" stroke="transparent" points="164.5,-175.7 164.5,-197.7 271.5,-197.7 271.5,-175.7 164.5,-175.7"/>
<polygon fill="none" stroke="#000000" points="164.5,-175.7 164.5,-197.7 271.5,-197.7 271.5,-175.7 164.5,-175.7"/>
<image xlink:href="../../images/foreignKeys.png" width="11px" height="12px" preserveAspectRatio="xMinYMin meet" x="169.5" y="-192.7"/>
<text text-anchor="start" x="184.5" y="-182.8" font-family="Helvetica,sans-Serif" font-size="11.00" fill="#000000">owner_id</text>
<polygon fill="none" stroke="#000000" points="164.5,-156.7 164.5,-175.7 271.5,-175.7 271.5,-156.7 164.5,-156.7"/>
<text text-anchor="start" x="167.5" y="-162.8" font-family="Helvetica,sans-Serif" font-size="11.00" fill="#000000">...</text>
<polygon fill="#ffffff" stroke="transparent" points="164.5,-137.7 164.5,-156.7 201.5,-156.7 201.5,-137.7 164.5,-137.7"/>
<polygon fill="none" stroke="#000000" points="164.5,-137.7 164.5,-156.7 201.5,-156.7 201.5,-137.7 164.5,-137.7"/>
<text text-anchor="start" x="167.5" y="-143.8" font-family="Helvetica,sans-Serif" font-size="11.00" fill="#000000">&lt; 1</text>
<polygon fill="#ffffff" stroke="transparent" points="201.5,-137.7 201.5,-156.7 241.5,-156.7 241.5,-137.7 201.5,-137.7"/>
<polygon fill="none" stroke="#000000" points="201.5,-137.7 201.5,-156.7 241.5,-156.7 241.5,-137.7 201.5,-137.7"/>
<text text-anchor="start" x="211.6105" y="-143.8" font-family="Helvetica,sans-Serif" font-size="11.00" fill="#000000">1 row</text>
<polygon fill="#ffffff" stroke="transparent" points="241.5,-137.7 241.5,-156.7 271.5,-156.7 271.5,-137.7 241.5,-137.7"/>
<polygon fill="none" stroke="#000000" points="241.5,-137.7 241.5,-156.7 271.5,-156.7 271.5,-137.7 241.5,-137.7"/>
<text text-anchor="start" x="252.9053" y="-143.8" font-family="Helvetica,sans-Serif" font-size="11.00" fill="#000000">5 &gt;</text>
</a>
</g>
</g>
<!-- bookings&#45;&gt;shops -->
<g id="edge3" class="edge">
<title>bookings:w&#45;&gt;shops:e</title>
<path fill="none" stroke="#000000" d="M452.3443,-157.2547C438.5567,-169.6678 449.093,-204.135 425,-218.7 366.4389,-254.1022 339.9304,-230.7 271.5,-230.7"/>
<polygon fill="#000000" stroke="#000000" points="458.8845,-155.1504 467.6027,-156.127 462.6922,-153.9252 466.5,-152.7 466.5,-152.7 466.5,-152.7 462.6922,-153.9252 465.3973,-149.273 458.8845,-155.1504 458.8845,-155.1504"/>
<ellipse fill="none" stroke="#000000" cx="455.8383" cy="-156.1305" rx="3.2" ry="3.2"/>
</g>
<!-- employees&#45;&gt;users -->
<g id="edge5" class="edge">
<title>employees:w&#45;&gt;users:e</title>
<path fill="none" stroke="#000000" d="M305.8213,-129.4235C244.2492,-127.0747 221.8823,-110.9611 156,-127.7 136.1465,-132.7442 135.9843,-149.7 115.5,-149.7"/>
<polygon fill="#000000" stroke="#000000" points="312.5014,-129.5493 320.4322,-133.2994 316.5007,-129.6246 320.5,-129.7 320.5,-129.7 320.5,-129.7 316.5007,-129.6246 320.5678,-126.1006 312.5014,-129.5493 312.5014,-129.5493"/>
<ellipse fill="none" stroke="#000000" cx="309.302" cy="-129.489" rx="3.2" ry="3.2"/>
</g>
<!-- employees&#45;&gt;shops -->
<g id="edge4" class="edge">
<title>employees:w&#45;&gt;shops:e</title>
<path fill="none" stroke="#000000" d="M306.5652,-156.4052C287.5168,-173.4125 306.6837,-230.7 271.5,-230.7"/>
<polygon fill="#000000" stroke="#000000" points="312.9204,-154.2594 321.6517,-155.1108 316.7102,-152.9797 320.5,-151.7 320.5,-151.7 320.5,-151.7 316.7102,-152.9797 319.3483,-148.2892 312.9204,-154.2594 312.9204,-154.2594"/>
<ellipse fill="none" stroke="#000000" cx="309.8886" cy="-155.2831" rx="3.2" ry="3.2"/>
</g>
<!-- shops&#45;&gt;users -->
<g id="edge10" class="edge">
<title>shops:w&#45;&gt;users:e</title>
<path fill="none" stroke="#000000" d="M150.6217,-182.1631C138.0786,-172.283 136.8196,-149.7 115.5,-149.7"/>
<polygon fill="#000000" stroke="#000000" points="156.896,-184.2142 163.3814,-190.1218 160.698,-185.4571 164.5,-186.7 164.5,-186.7 164.5,-186.7 160.698,-185.4571 165.6186,-183.2782 156.896,-184.2142 156.896,-184.2142"/>
<ellipse fill="none" stroke="#000000" cx="153.8544" cy="-183.2198" rx="3.2" ry="3.2"/>
</g>
<!-- reviews -->
<g id="node5" class="node">
<title>reviews</title>
<g id="a_node5"><a xlink:href="../../tables/reviews.html" xlink:title="reviews" target="_top">
<polygon fill="#ffffff" stroke="transparent" points="608,-93.7 608,-337.7 795,-337.7 795,-93.7 608,-93.7"/>
<polygon fill="#f5f5f5" stroke="transparent" points="610.5,-312.7 610.5,-335.7 793.5,-335.7 793.5,-312.7 610.5,-312.7"/>
<polygon fill="none" stroke="#000000" points="610.5,-312.7 610.5,-335.7 793.5,-335.7 793.5,-312.7 610.5,-312.7"/>
<text text-anchor="start" x="615.5" y="-321.8" font-family="Helvetica,sans-Serif" font-weight="bold" font-size="11.00" fill="#000000">reviews</text>
<text text-anchor="start" x="758.5437" y="-320.8" font-family="Helvetica,sans-Serif" font-size="11.00" fill="#000000">[table]</text>
<polygon fill="none" stroke="#000000" points="610.5,-290.7 610.5,-312.7 703.5,-312.7 703.5,-290.7 610.5,-290.7"/>
<image xlink:href="../../images/primaryKeys.png" width="11px" height="12px" preserveAspectRatio="xMinYMin meet" x="615.5" y="-307.7"/>
<text text-anchor="start" x="630.5" y="-297.8" font-family="Helvetica,sans-Serif" font-size="11.00" fill="#000000">id</text>
<polygon fill="none" stroke="#000000" points="703.5,-290.7 703.5,-312.7 793.5,-312.7 793.5,-290.7 703.5,-290.7"/>
<text text-anchor="start" x="706.5" y="-298.4" font-family="Helvetica,sans-Serif" font-size="11.00" fill="#000000">bigserial[19]</text>
<polygon fill="#ffffff" stroke="transparent" points="610.5,-268.7 610.5,-290.7 703.5,-290.7 703.5,-268.7 610.5,-268.7"/>
<polygon fill="none" stroke="#000000" points="610.5,-268.7 610.5,-290.7 703.5,-290.7 703.5,-268.7 610.5,-268.7"/>
<image xlink:href="../../images/foreignKeys.png" width="11px" height="12px" preserveAspectRatio="xMinYMin meet" x="615.5" y="-285.7"/>
<text text-anchor="start" x="630.5" y="-275.8" font-family="Helvetica,sans-Serif" font-size="11.00" fill="#000000">customer_id</text>
<polygon fill="none" stroke="#000000" points="703.5,-268.7 703.5,-290.7 793.5,-290.7 793.5,-268.7 703.5,-268.7"/>
<text text-anchor="start" x="706.5" y="-276.4" font-family="Helvetica,sans-Serif" font-size="11.00" fill="#000000">int8[19]</text>
<polygon fill="#ffffff" stroke="transparent" points="610.5,-246.7 610.5,-268.7 703.5,-268.7 703.5,-246.7 610.5,-246.7"/>
<polygon fill="none" stroke="#000000" points="610.5,-246.7 610.5,-268.7 703.5,-268.7 703.5,-246.7 610.5,-246.7"/>
<image xlink:href="../../images/foreignKeys.png" width="11px" height="12px" preserveAspectRatio="xMinYMin meet" x="615.5" y="-263.7"/>
<text text-anchor="start" x="630.5" y="-253.8" font-family="Helvetica,sans-Serif" font-size="11.00" fill="#000000">shop_id</text>
<polygon fill="none" stroke="#000000" points="703.5,-246.7 703.5,-268.7 793.5,-268.7 793.5,-246.7 703.5,-246.7"/>
<text text-anchor="start" x="706.5" y="-254.4" font-family="Helvetica,sans-Serif" font-size="11.00" fill="#000000">int8[19]</text>
<polygon fill="#ffffff" stroke="transparent" points="610.5,-224.7 610.5,-246.7 703.5,-246.7 703.5,-224.7 610.5,-224.7"/>
<polygon fill="none" stroke="#000000" points="610.5,-224.7 610.5,-246.7 703.5,-246.7 703.5,-224.7 610.5,-224.7"/>
<image xlink:href="../../images/foreignKeys.png" width="11px" height="12px" preserveAspectRatio="xMinYMin meet" x="615.5" y="-241.7"/>
<text text-anchor="start" x="630.5" y="-231.8" font-family="Helvetica,sans-Serif" font-size="11.00" fill="#000000">employee_id</text>
<polygon fill="none" stroke="#000000" points="703.5,-224.7 703.5,-246.7 793.5,-246.7 793.5,-224.7 703.5,-224.7"/>
<text text-anchor="start" x="706.5" y="-232.4" font-family="Helvetica,sans-Serif" font-size="11.00" fill="#000000">int8[19]</text>
<polygon fill="none" stroke="#000000" points="610.5,-202.7 610.5,-224.7 703.5,-224.7 703.5,-202.7 610.5,-202.7"/>
<image xlink:href="../../images/foreignKeys.png" width="11px" height="12px" preserveAspectRatio="xMinYMin meet" x="615.5" y="-219.7"/>
<text text-anchor="start" x="630.5" y="-209.8" font-family="Helvetica,sans-Serif" font-size="11.00" fill="#000000">booking_id</text>
<polygon fill="none" stroke="#000000" points="703.5,-202.7 703.5,-224.7 793.5,-224.7 793.5,-202.7 703.5,-202.7"/>
<text text-anchor="start" x="706.5" y="-210.4" font-family="Helvetica,sans-Serif" font-size="11.00" fill="#000000">int8[19]</text>
<polygon fill="none" stroke="#000000" points="610.5,-180.7 610.5,-202.7 703.5,-202.7 703.5,-180.7 610.5,-180.7"/>
<text text-anchor="start" x="630.5" y="-187.8" font-family="Helvetica,sans-Serif" font-size="11.00" fill="#000000">rating</text>
<polygon fill="none" stroke="#000000" points="703.5,-180.7 703.5,-202.7 793.5,-202.7 793.5,-180.7 703.5,-180.7"/>
<text text-anchor="start" x="706.5" y="-188.4" font-family="Helvetica,sans-Serif" font-size="11.00" fill="#000000">int4[10]</text>
<polygon fill="none" stroke="#000000" points="610.5,-158.7 610.5,-180.7 703.5,-180.7 703.5,-158.7 610.5,-158.7"/>
<text text-anchor="start" x="630.5" y="-165.8" font-family="Helvetica,sans-Serif" font-size="11.00" fill="#000000">comment</text>
<polygon fill="none" stroke="#000000" points="703.5,-158.7 703.5,-180.7 793.5,-180.7 793.5,-158.7 703.5,-158.7"/>
<text text-anchor="start" x="706.0043" y="-166.4" font-family="Helvetica,sans-Serif" font-size="11.00" fill="#000000">text[2147483647]</text>
<polygon fill="none" stroke="#000000" points="610.5,-136.7 610.5,-158.7 703.5,-158.7 703.5,-136.7 610.5,-136.7"/>
<text text-anchor="start" x="630.5" y="-143.8" font-family="Helvetica,sans-Serif" font-size="11.00" fill="#000000">created_at</text>
<polygon fill="none" stroke="#000000" points="703.5,-136.7 703.5,-158.7 793.5,-158.7 793.5,-136.7 703.5,-136.7"/>
<text text-anchor="start" x="706.5" y="-144.4" font-family="Helvetica,sans-Serif" font-size="11.00" fill="#000000">timestamp[29,6]</text>
<polygon fill="none" stroke="#000000" points="610.5,-114.7 610.5,-136.7 703.5,-136.7 703.5,-114.7 610.5,-114.7"/>
<text text-anchor="start" x="630.5" y="-121.8" font-family="Helvetica,sans-Serif" font-size="11.00" fill="#000000">updated_at</text>
<polygon fill="none" stroke="#000000" points="703.5,-114.7 703.5,-136.7 793.5,-136.7 793.5,-114.7 703.5,-114.7"/>
<text text-anchor="start" x="706.5" y="-122.4" font-family="Helvetica,sans-Serif" font-size="11.00" fill="#000000">timestamp[29,6]</text>
<polygon fill="#ffffff" stroke="transparent" points="610.5,-95.7 610.5,-114.7 648.5,-114.7 648.5,-95.7 610.5,-95.7"/>
<polygon fill="none" stroke="#000000" points="610.5,-95.7 610.5,-114.7 648.5,-114.7 648.5,-95.7 610.5,-95.7"/>
<text text-anchor="start" x="613.5" y="-101.8" font-family="Helvetica,sans-Serif" font-size="11.00" fill="#000000">&lt; 4</text>
<polygon fill="#ffffff" stroke="transparent" points="648.5,-95.7 648.5,-114.7 703.5,-114.7 703.5,-95.7 648.5,-95.7"/>
<polygon fill="none" stroke="#000000" points="648.5,-95.7 648.5,-114.7 703.5,-114.7 703.5,-95.7 648.5,-95.7"/>
<text text-anchor="start" x="668.1105" y="-101.8" font-family="Helvetica,sans-Serif" font-size="11.00" fill="#000000">0 rows</text>
<polygon fill="#ffffff" stroke="transparent" points="703.5,-95.7 703.5,-114.7 793.5,-114.7 793.5,-95.7 703.5,-95.7"/>
<polygon fill="none" stroke="#000000" points="703.5,-95.7 703.5,-114.7 793.5,-114.7 793.5,-95.7 703.5,-95.7"/>
<text text-anchor="start" x="774.9053" y="-101.8" font-family="Helvetica,sans-Serif" font-size="11.00" fill="#000000">0 &gt;</text>
<polygon fill="none" stroke="#000000" stroke-width="2" points="609,-94.7 609,-336.7 794,-336.7 794,-94.7 609,-94.7"/>
</a>
</g>
</g>
<!-- reviews&#45;&gt;bookings -->
<g id="edge6" class="edge">
<title>reviews:w&#45;&gt;bookings:e</title>
<path fill="none" stroke="#000000" d="M596.4125,-209.2262C582.9862,-198.9822 582.0156,-174.7 559.5,-174.7"/>
<polygon fill="#000000" stroke="#000000" points="602.8752,-211.2786 609.4104,-217.1311 606.6876,-212.4893 610.5,-213.7 610.5,-213.7 610.5,-213.7 606.6876,-212.4893 611.5896,-210.2689 602.8752,-211.2786 602.8752,-211.2786"/>
<ellipse fill="none" stroke="#000000" cx="599.8253" cy="-210.31" rx="3.2" ry="3.2"/>
</g>
<!-- reviews&#45;&gt;users -->
<g id="edge7" class="edge">
<title>reviews:w&#45;&gt;users:e</title>
<path fill="none" stroke="#000000" d="M595.9025,-279.9018C404.065,-285.2097 314.7422,-392.4899 156,-275.7 108.6198,-240.8414 174.3218,-149.7 115.5,-149.7"/>
<polygon fill="#000000" stroke="#000000" points="602.5008,-279.8106 610.5498,-283.2997 606.5004,-279.7553 610.5,-279.7 610.5,-279.7 610.5,-279.7 606.5004,-279.7553 610.4502,-276.1003 602.5008,-279.8106 602.5008,-279.8106"/>
<ellipse fill="none" stroke="#000000" cx="599.3011" cy="-279.8549" rx="3.2" ry="3.2"/>
</g>
<!-- reviews&#45;&gt;employees -->
<g id="edge8" class="edge">
<title>reviews:w&#45;&gt;employees:e</title>
<path fill="none" stroke="#000000" d="M596.0258,-235.9271C538.6151,-237.7105 514.0575,-248.6505 458,-219.7 433.7978,-207.2009 444.7392,-173.7 417.5,-173.7"/>
<polygon fill="#000000" stroke="#000000" points="602.501,-235.8256 610.5565,-239.2996 606.5005,-235.7628 610.5,-235.7 610.5,-235.7 610.5,-235.7 606.5005,-235.7628 610.4435,-232.1004 602.501,-235.8256 602.501,-235.8256"/>
<ellipse fill="none" stroke="#000000" cx="599.3014" cy="-235.8758" rx="3.2" ry="3.2"/>
</g>
<!-- reviews&#45;&gt;shops -->
<g id="edge9" class="edge">
<title>reviews:w&#45;&gt;shops:e</title>
<path fill="none" stroke="#000000" d="M596.0981,-257.6822C474.913,-257.3715 439.1241,-252.9028 312,-237.7 293.8624,-235.5309 289.7669,-230.7 271.5,-230.7"/>
<polygon fill="#000000" stroke="#000000" points="602.5,-257.6901 610.4955,-261.3 606.5,-257.695 610.5,-257.7 610.5,-257.7 610.5,-257.7 606.5,-257.695 610.5045,-254.1 602.5,-257.6901 602.5,-257.6901"/>
<ellipse fill="none" stroke="#000000" cx="599.3" cy="-257.6861" rx="3.2" ry="3.2"/>
</g>
</g>
</svg>
