<?xml version="1.0" encoding="UTF-8" standalone="no"?>
<!DOCTYPE svg PUBLIC "-//W3C//DTD SVG 1.1//EN"
 "http://www.w3.org/Graphics/SVG/1.1/DTD/svg11.dtd">
<!-- Generated by graphviz version 2.40.1 (20161225.0304)
 -->
<!-- Title: twoDegreesRelationshipsDiagram Pages: 1 -->
<svg width="872pt" height="519pt"
 viewBox="0.00 0.00 872.00 519.19" xmlns="http://www.w3.org/2000/svg" xmlns:xlink="http://www.w3.org/1999/xlink">
<g id="graph0" class="graph" transform="scale(1 1) rotate(0) translate(4 515.19)">
<title>twoDegreesRelationshipsDiagram</title>
<polygon fill="#ffffff" stroke="transparent" points="-4,4 -4,-515.19 868,-515.19 868,4 -4,4"/>
<text text-anchor="middle" x="72.4936" y="-7.3" font-family="Helvetica,sans-Serif" font-size="11.00" fill="#000000">Generated by SchemaSpy</text>
<!-- bookings -->
<g id="node1" class="node">
<title>bookings</title>
<g id="a_node1"><a xlink:href="../../tables/bookings.html" xlink:title="bookings" target="_top">
<polygon fill="#ffffff" stroke="transparent" points="505,-125.69 505,-296.69 598,-296.69 598,-125.69 505,-125.69"/>
<polygon fill="#f5f5f5" stroke="transparent" points="505.5,-273.19 505.5,-296.19 598.5,-296.19 598.5,-273.19 505.5,-273.19"/>
<polygon fill="none" stroke="#000000" points="505.5,-273.19 505.5,-296.19 598.5,-296.19 598.5,-273.19 505.5,-273.19"/>
<text text-anchor="start" x="510.5" y="-282.29" font-family="Helvetica,sans-Serif" font-weight="bold" font-size="11.00" fill="#000000">bookings</text>
<text text-anchor="start" x="563.5437" y="-281.29" font-family="Helvetica,sans-Serif" font-size="11.00" fill="#000000">[table]</text>
<polygon fill="none" stroke="#000000" points="505.5,-251.19 505.5,-273.19 598.5,-273.19 598.5,-251.19 505.5,-251.19"/>
<image xlink:href="../../images/primaryKeys.png" width="11px" height="12px" preserveAspectRatio="xMinYMin meet" x="510.5" y="-268.19"/>
<text text-anchor="start" x="525.5" y="-258.29" font-family="Helvetica,sans-Serif" font-size="11.00" fill="#000000">id</text>
<polygon fill="#ffffff" stroke="transparent" points="505.5,-229.19 505.5,-251.19 598.5,-251.19 598.5,-229.19 505.5,-229.19"/>
<polygon fill="none" stroke="#000000" points="505.5,-229.19 505.5,-251.19 598.5,-251.19 598.5,-229.19 505.5,-229.19"/>
<image xlink:href="../../images/foreignKeys.png" width="11px" height="12px" preserveAspectRatio="xMinYMin meet" x="510.5" y="-246.19"/>
<text text-anchor="start" x="525.5" y="-236.29" font-family="Helvetica,sans-Serif" font-size="11.00" fill="#000000">shop_id</text>
<polygon fill="#ffffff" stroke="transparent" points="505.5,-207.19 505.5,-229.19 598.5,-229.19 598.5,-207.19 505.5,-207.19"/>
<polygon fill="none" stroke="#000000" points="505.5,-207.19 505.5,-229.19 598.5,-229.19 598.5,-207.19 505.5,-207.19"/>
<image xlink:href="../../images/foreignKeys.png" width="11px" height="12px" preserveAspectRatio="xMinYMin meet" x="510.5" y="-224.19"/>
<text text-anchor="start" x="525.5" y="-214.29" font-family="Helvetica,sans-Serif" font-size="11.00" fill="#000000">customer_id</text>
<polygon fill="#ffffff" stroke="transparent" points="505.5,-185.19 505.5,-207.19 598.5,-207.19 598.5,-185.19 505.5,-185.19"/>
<polygon fill="none" stroke="#000000" points="505.5,-185.19 505.5,-207.19 598.5,-207.19 598.5,-185.19 505.5,-185.19"/>
<image xlink:href="../../images/foreignKeys.png" width="11px" height="12px" preserveAspectRatio="xMinYMin meet" x="510.5" y="-202.19"/>
<text text-anchor="start" x="525.5" y="-192.29" font-family="Helvetica,sans-Serif" font-size="11.00" fill="#000000">employee_id</text>
<polygon fill="none" stroke="#000000" points="505.5,-163.19 505.5,-185.19 598.5,-185.19 598.5,-163.19 505.5,-163.19"/>
<image xlink:href="../../images/foreignKeys.png" width="11px" height="12px" preserveAspectRatio="xMinYMin meet" x="510.5" y="-180.19"/>
<text text-anchor="start" x="525.5" y="-170.29" font-family="Helvetica,sans-Serif" font-size="11.00" fill="#000000">service_id</text>
<polygon fill="none" stroke="#000000" points="505.5,-144.19 505.5,-163.19 598.5,-163.19 598.5,-144.19 505.5,-144.19"/>
<text text-anchor="start" x="508.5" y="-150.29" font-family="Helvetica,sans-Serif" font-size="11.00" fill="#000000">...</text>
<polygon fill="#ffffff" stroke="transparent" points="505.5,-125.19 505.5,-144.19 532.5,-144.19 532.5,-125.19 505.5,-125.19"/>
<polygon fill="none" stroke="#000000" points="505.5,-125.19 505.5,-144.19 532.5,-144.19 532.5,-125.19 505.5,-125.19"/>
<text text-anchor="start" x="508.5" y="-131.29" font-family="Helvetica,sans-Serif" font-size="11.00" fill="#000000">&lt; 4</text>
<polygon fill="#ffffff" stroke="transparent" points="532.5,-125.19 532.5,-144.19 573.5,-144.19 573.5,-125.19 532.5,-125.19"/>
<polygon fill="none" stroke="#000000" points="532.5,-125.19 532.5,-144.19 573.5,-144.19 573.5,-125.19 532.5,-125.19"/>
<text text-anchor="start" x="538.1105" y="-131.29" font-family="Helvetica,sans-Serif" font-size="11.00" fill="#000000">0 rows</text>
<polygon fill="#ffffff" stroke="transparent" points="573.5,-125.19 573.5,-144.19 598.5,-144.19 598.5,-125.19 573.5,-125.19"/>
<polygon fill="none" stroke="#000000" points="573.5,-125.19 573.5,-144.19 598.5,-144.19 598.5,-125.19 573.5,-125.19"/>
<text text-anchor="start" x="579.9053" y="-131.29" font-family="Helvetica,sans-Serif" font-size="11.00" fill="#000000">1 &gt;</text>
</a>
</g>
</g>
<!-- users -->
<g id="node2" class="node">
<title>users</title>
<g id="a_node2"><a xlink:href="../../tables/users.html" xlink:title="users" target="_top">
<polygon fill="#ffffff" stroke="transparent" points="8,-139.69 8,-244.69 115,-244.69 115,-139.69 8,-139.69"/>
<polygon fill="#f5f5f5" stroke="transparent" points="8.5,-221.19 8.5,-244.19 115.5,-244.19 115.5,-221.19 8.5,-221.19"/>
<polygon fill="none" stroke="#000000" points="8.5,-221.19 8.5,-244.19 115.5,-244.19 115.5,-221.19 8.5,-221.19"/>
<text text-anchor="start" x="13.5" y="-230.29" font-family="Helvetica,sans-Serif" font-weight="bold" font-size="11.00" fill="#000000">users</text>
<text text-anchor="start" x="80.5437" y="-229.29" font-family="Helvetica,sans-Serif" font-size="11.00" fill="#000000">[table]</text>
<polygon fill="none" stroke="#000000" points="8.5,-199.19 8.5,-221.19 115.5,-221.19 115.5,-199.19 8.5,-199.19"/>
<image xlink:href="../../images/primaryKeys.png" width="11px" height="12px" preserveAspectRatio="xMinYMin meet" x="13.5" y="-216.19"/>
<text text-anchor="start" x="28.5" y="-206.29" font-family="Helvetica,sans-Serif" font-size="11.00" fill="#000000">id</text>
<polygon fill="#ffffff" stroke="transparent" points="8.5,-177.19 8.5,-199.19 115.5,-199.19 115.5,-177.19 8.5,-177.19"/>
<polygon fill="none" stroke="#000000" points="8.5,-177.19 8.5,-199.19 115.5,-199.19 115.5,-177.19 8.5,-177.19"/>
<text text-anchor="start" x="28.5" y="-184.29" font-family="Helvetica,sans-Serif" font-size="11.00" fill="#000000">email</text>
<polygon fill="none" stroke="#000000" points="8.5,-158.19 8.5,-177.19 115.5,-177.19 115.5,-158.19 8.5,-158.19"/>
<text text-anchor="start" x="11.5" y="-164.29" font-family="Helvetica,sans-Serif" font-size="11.00" fill="#000000">...</text>
<polygon fill="#ffffff" stroke="transparent" points="8.5,-139.19 8.5,-158.19 38.5,-158.19 38.5,-139.19 8.5,-139.19"/>
<polygon fill="none" stroke="#000000" points="8.5,-139.19 8.5,-158.19 38.5,-158.19 38.5,-139.19 8.5,-139.19"/>
<text text-anchor="start" x="11.5" y="-145.29" font-family="Helvetica,sans-Serif" font-size="11.00" fill="#000000"> &#160;</text>
<polygon fill="#ffffff" stroke="transparent" points="38.5,-139.19 38.5,-158.19 85.5,-158.19 85.5,-139.19 38.5,-139.19"/>
<polygon fill="none" stroke="#000000" points="38.5,-139.19 38.5,-158.19 85.5,-158.19 85.5,-139.19 38.5,-139.19"/>
<text text-anchor="start" x="50.1105" y="-145.29" font-family="Helvetica,sans-Serif" font-size="11.00" fill="#000000">6 rows</text>
<polygon fill="#ffffff" stroke="transparent" points="85.5,-139.19 85.5,-158.19 115.5,-158.19 115.5,-139.19 85.5,-139.19"/>
<polygon fill="none" stroke="#000000" points="85.5,-139.19 85.5,-158.19 115.5,-158.19 115.5,-139.19 85.5,-139.19"/>
<text text-anchor="start" x="96.9053" y="-145.29" font-family="Helvetica,sans-Serif" font-size="11.00" fill="#000000">5 &gt;</text>
</a>
</g>
</g>
<!-- bookings&#45;&gt;users -->
<g id="edge1" class="edge">
<title>bookings:w&#45;&gt;users:e</title>
<path fill="none" stroke="#000000" d="M491.0266,-216.1771C445.9892,-201.5123 495.2526,-110.711 442,-76.19 334.5435,-6.5314 253.8139,-28.5362 156,-111.19 119.6886,-141.8736 163.0395,-210.19 115.5,-210.19"/>
<polygon fill="#000000" stroke="#000000" points="497.5763,-217.0879 505.0041,-221.7557 501.5381,-217.639 505.5,-218.19 505.5,-218.19 505.5,-218.19 501.5381,-217.639 505.9959,-214.6243 497.5763,-217.0879 497.5763,-217.0879"/>
<ellipse fill="none" stroke="#000000" cx="494.4068" cy="-216.6471" rx="3.2" ry="3.2"/>
</g>
<!-- employees -->
<g id="node3" class="node">
<title>employees</title>
<g id="a_node3"><a xlink:href="../../tables/employees.html" xlink:title="employees" target="_top">
<polygon fill="#ffffff" stroke="transparent" points="328.5,-278.69 328.5,-405.69 425.5,-405.69 425.5,-278.69 328.5,-278.69"/>
<polygon fill="#f5f5f5" stroke="transparent" points="329,-382.19 329,-405.19 426,-405.19 426,-382.19 329,-382.19"/>
<polygon fill="none" stroke="#000000" points="329,-382.19 329,-405.19 426,-405.19 426,-382.19 329,-382.19"/>
<text text-anchor="start" x="334" y="-391.29" font-family="Helvetica,sans-Serif" font-weight="bold" font-size="11.00" fill="#000000">employees</text>
<text text-anchor="start" x="391.5219" y="-390.29" font-family="Helvetica,sans-Serif" font-size="11.00" fill="#000000">[table]</text>
<polygon fill="none" stroke="#000000" points="329,-360.19 329,-382.19 426,-382.19 426,-360.19 329,-360.19"/>
<image xlink:href="../../images/primaryKeys.png" width="11px" height="12px" preserveAspectRatio="xMinYMin meet" x="334" y="-377.19"/>
<text text-anchor="start" x="349" y="-367.29" font-family="Helvetica,sans-Serif" font-size="11.00" fill="#000000">id</text>
<polygon fill="#ffffff" stroke="transparent" points="329,-338.19 329,-360.19 426,-360.19 426,-338.19 329,-338.19"/>
<polygon fill="none" stroke="#000000" points="329,-338.19 329,-360.19 426,-360.19 426,-338.19 329,-338.19"/>
<image xlink:href="../../images/foreignKeys.png" width="11px" height="12px" preserveAspectRatio="xMinYMin meet" x="334" y="-355.19"/>
<text text-anchor="start" x="349" y="-345.29" font-family="Helvetica,sans-Serif" font-size="11.00" fill="#000000">shop_id</text>
<polygon fill="#ffffff" stroke="transparent" points="329,-316.19 329,-338.19 426,-338.19 426,-316.19 329,-316.19"/>
<polygon fill="none" stroke="#000000" points="329,-316.19 329,-338.19 426,-338.19 426,-316.19 329,-316.19"/>
<image xlink:href="../../images/foreignKeys.png" width="11px" height="12px" preserveAspectRatio="xMinYMin meet" x="334" y="-333.19"/>
<text text-anchor="start" x="349" y="-323.29" font-family="Helvetica,sans-Serif" font-size="11.00" fill="#000000">user_id</text>
<polygon fill="none" stroke="#000000" points="329,-297.19 329,-316.19 426,-316.19 426,-297.19 329,-297.19"/>
<text text-anchor="start" x="332" y="-303.29" font-family="Helvetica,sans-Serif" font-size="11.00" fill="#000000">...</text>
<polygon fill="#ffffff" stroke="transparent" points="329,-278.19 329,-297.19 358,-297.19 358,-278.19 329,-278.19"/>
<polygon fill="none" stroke="#000000" points="329,-278.19 329,-297.19 358,-297.19 358,-278.19 329,-278.19"/>
<text text-anchor="start" x="332" y="-284.29" font-family="Helvetica,sans-Serif" font-size="11.00" fill="#000000">&lt; 2</text>
<polygon fill="#ffffff" stroke="transparent" points="358,-278.19 358,-297.19 400,-297.19 400,-278.19 358,-278.19"/>
<polygon fill="none" stroke="#000000" points="358,-278.19 358,-297.19 400,-297.19 400,-278.19 358,-278.19"/>
<text text-anchor="start" x="364.6105" y="-284.29" font-family="Helvetica,sans-Serif" font-size="11.00" fill="#000000">0 rows</text>
<polygon fill="#ffffff" stroke="transparent" points="400,-278.19 400,-297.19 426,-297.19 426,-278.19 400,-278.19"/>
<polygon fill="none" stroke="#000000" points="400,-278.19 400,-297.19 426,-297.19 426,-278.19 400,-278.19"/>
<text text-anchor="start" x="407.4053" y="-284.29" font-family="Helvetica,sans-Serif" font-size="11.00" fill="#000000">3 &gt;</text>
</a>
</g>
</g>
<!-- bookings&#45;&gt;employees -->
<g id="edge2" class="edge">
<title>bookings:w&#45;&gt;employees:e</title>
<path fill="none" stroke="#000000" d="M491.0903,-198.2773C431.1145,-218.0216 505.9213,-371.19 426,-371.19"/>
<polygon fill="#000000" stroke="#000000" points="497.5826,-197.3369 506.0161,-199.7528 501.5413,-196.7635 505.5,-196.19 505.5,-196.19 505.5,-196.19 501.5413,-196.7635 504.9839,-192.6272 497.5826,-197.3369 497.5826,-197.3369"/>
<ellipse fill="none" stroke="#000000" cx="494.4157" cy="-197.7957" rx="3.2" ry="3.2"/>
</g>
<!-- services -->
<g id="node4" class="node">
<title>services</title>
<g id="a_node4"><a xlink:href="../../tables/services.html" xlink:title="services" target="_top">
<polygon fill="#ffffff" stroke="transparent" points="335.5,-168.69 335.5,-229.69 418.5,-229.69 418.5,-168.69 335.5,-168.69"/>
<polygon fill="#f5f5f5" stroke="transparent" points="336,-206.19 336,-229.19 419,-229.19 419,-206.19 336,-206.19"/>
<polygon fill="none" stroke="#000000" points="336,-206.19 336,-229.19 419,-229.19 419,-206.19 336,-206.19"/>
<text text-anchor="start" x="340.8337" y="-215.29" font-family="Helvetica,sans-Serif" font-weight="bold" font-size="11.00" fill="#000000">services</text>
<text text-anchor="start" x="384.5219" y="-214.29" font-family="Helvetica,sans-Serif" font-size="11.00" fill="#000000">[table]</text>
<polygon fill="none" stroke="#000000" points="336,-187.19 336,-206.19 419,-206.19 419,-187.19 336,-187.19"/>
<text text-anchor="start" x="339" y="-193.29" font-family="Helvetica,sans-Serif" font-size="11.00" fill="#000000">...</text>
<polygon fill="#ffffff" stroke="transparent" points="336,-168.19 336,-187.19 358,-187.19 358,-168.19 336,-168.19"/>
<polygon fill="none" stroke="#000000" points="336,-168.19 336,-187.19 358,-187.19 358,-168.19 336,-168.19"/>
<text text-anchor="start" x="339" y="-174.29" font-family="Helvetica,sans-Serif" font-size="11.00" fill="#000000">&lt; 1</text>
<polygon fill="#ffffff" stroke="transparent" points="358,-168.19 358,-187.19 397,-187.19 397,-168.19 358,-168.19"/>
<polygon fill="none" stroke="#000000" points="358,-168.19 358,-187.19 397,-187.19 397,-168.19 358,-168.19"/>
<text text-anchor="start" x="361.6105" y="-174.29" font-family="Helvetica,sans-Serif" font-size="11.00" fill="#000000">0 rows</text>
<polygon fill="#ffffff" stroke="transparent" points="397,-168.19 397,-187.19 419,-187.19 419,-168.19 397,-168.19"/>
<polygon fill="none" stroke="#000000" points="397,-168.19 397,-187.19 419,-187.19 419,-168.19 397,-168.19"/>
<text text-anchor="start" x="400.4053" y="-174.29" font-family="Helvetica,sans-Serif" font-size="11.00" fill="#000000">2 &gt;</text>
</a>
</g>
</g>
<!-- bookings&#45;&gt;services -->
<g id="edge3" class="edge">
<title>bookings:w&#45;&gt;services:e</title>
<path fill="none" stroke="#000000" d="M490.8864,-175.3113C463.2653,-179.7944 453.245,-196.19 419,-196.19"/>
<polygon fill="#000000" stroke="#000000" points="497.5234,-174.8021 505.7754,-177.7795 501.5117,-174.496 505.5,-174.19 505.5,-174.19 505.5,-174.19 501.5117,-174.496 505.2246,-170.6006 497.5234,-174.8021 497.5234,-174.8021"/>
<ellipse fill="none" stroke="#000000" cx="494.3328" cy="-175.0469" rx="3.2" ry="3.2"/>
</g>
<!-- shops -->
<g id="node5" class="node">
<title>shops</title>
<g id="a_node5"><a xlink:href="../../tables/shops.html" xlink:title="shops" target="_top">
<polygon fill="#ffffff" stroke="transparent" points="164,-161.69 164,-288.69 271,-288.69 271,-161.69 164,-161.69"/>
<polygon fill="#f5f5f5" stroke="transparent" points="164.5,-265.19 164.5,-288.19 271.5,-288.19 271.5,-265.19 164.5,-265.19"/>
<polygon fill="none" stroke="#000000" points="164.5,-265.19 164.5,-288.19 271.5,-288.19 271.5,-265.19 164.5,-265.19"/>
<text text-anchor="start" x="169.5" y="-274.29" font-family="Helvetica,sans-Serif" font-weight="bold" font-size="11.00" fill="#000000">shops</text>
<text text-anchor="start" x="236.5437" y="-273.29" font-family="Helvetica,sans-Serif" font-size="11.00" fill="#000000">[table]</text>
<polygon fill="none" stroke="#000000" points="164.5,-243.19 164.5,-265.19 271.5,-265.19 271.5,-243.19 164.5,-243.19"/>
<image xlink:href="../../images/primaryKeys.png" width="11px" height="12px" preserveAspectRatio="xMinYMin meet" x="169.5" y="-260.19"/>
<text text-anchor="start" x="184.5" y="-250.29" font-family="Helvetica,sans-Serif" font-size="11.00" fill="#000000">id</text>
<polygon fill="#ffffff" stroke="transparent" points="164.5,-221.19 164.5,-243.19 271.5,-243.19 271.5,-221.19 164.5,-221.19"/>
<polygon fill="none" stroke="#000000" points="164.5,-221.19 164.5,-243.19 271.5,-243.19 271.5,-221.19 164.5,-221.19"/>
<text text-anchor="start" x="184.5" y="-228.29" font-family="Helvetica,sans-Serif" font-size="11.00" fill="#000000">city</text>
<polygon fill="#ffffff" stroke="transparent" points="164.5,-199.19 164.5,-221.19 271.5,-221.19 271.5,-199.19 164.5,-199.19"/>
<polygon fill="none" stroke="#000000" points="164.5,-199.19 164.5,-221.19 271.5,-221.19 271.5,-199.19 164.5,-199.19"/>
<image xlink:href="../../images/foreignKeys.png" width="11px" height="12px" preserveAspectRatio="xMinYMin meet" x="169.5" y="-216.19"/>
<text text-anchor="start" x="184.5" y="-206.29" font-family="Helvetica,sans-Serif" font-size="11.00" fill="#000000">owner_id</text>
<polygon fill="none" stroke="#000000" points="164.5,-180.19 164.5,-199.19 271.5,-199.19 271.5,-180.19 164.5,-180.19"/>
<text text-anchor="start" x="167.5" y="-186.29" font-family="Helvetica,sans-Serif" font-size="11.00" fill="#000000">...</text>
<polygon fill="#ffffff" stroke="transparent" points="164.5,-161.19 164.5,-180.19 201.5,-180.19 201.5,-161.19 164.5,-161.19"/>
<polygon fill="none" stroke="#000000" points="164.5,-161.19 164.5,-180.19 201.5,-180.19 201.5,-161.19 164.5,-161.19"/>
<text text-anchor="start" x="167.5" y="-167.29" font-family="Helvetica,sans-Serif" font-size="11.00" fill="#000000">&lt; 1</text>
<polygon fill="#ffffff" stroke="transparent" points="201.5,-161.19 201.5,-180.19 241.5,-180.19 241.5,-161.19 201.5,-161.19"/>
<polygon fill="none" stroke="#000000" points="201.5,-161.19 201.5,-180.19 241.5,-180.19 241.5,-161.19 201.5,-161.19"/>
<text text-anchor="start" x="211.6105" y="-167.29" font-family="Helvetica,sans-Serif" font-size="11.00" fill="#000000">1 row</text>
<polygon fill="#ffffff" stroke="transparent" points="241.5,-161.19 241.5,-180.19 271.5,-180.19 271.5,-161.19 241.5,-161.19"/>
<polygon fill="none" stroke="#000000" points="241.5,-161.19 241.5,-180.19 271.5,-180.19 271.5,-161.19 241.5,-161.19"/>
<text text-anchor="start" x="252.9053" y="-167.29" font-family="Helvetica,sans-Serif" font-size="11.00" fill="#000000">5 &gt;</text>
</a>
</g>
</g>
<!-- bookings&#45;&gt;shops -->
<g id="edge4" class="edge">
<title>bookings:w&#45;&gt;shops:e</title>
<path fill="none" stroke="#000000" d="M491.066,-240.2831C398.6815,-241.4978 370.7005,-254.19 271.5,-254.19"/>
<polygon fill="#000000" stroke="#000000" points="497.5002,-240.2417 505.5232,-243.7899 501.5001,-240.2159 505.5,-240.19 505.5,-240.19 505.5,-240.19 501.5001,-240.2159 505.4768,-236.5901 497.5002,-240.2417 497.5002,-240.2417"/>
<ellipse fill="none" stroke="#000000" cx="494.3002" cy="-240.2623" rx="3.2" ry="3.2"/>
</g>
<!-- employees&#45;&gt;users -->
<g id="edge8" class="edge">
<title>employees:w&#45;&gt;users:e</title>
<path fill="none" stroke="#000000" d="M314.4766,-327.4072C246.7112,-329.3974 213.9172,-343.4113 156,-299.19 121.4587,-272.8169 158.9585,-210.19 115.5,-210.19"/>
<polygon fill="#000000" stroke="#000000" points="321.0009,-327.3097 329.0538,-330.7896 325.0004,-327.2499 329,-327.19 329,-327.19 329,-327.19 325.0004,-327.2499 328.9462,-323.5904 321.0009,-327.3097 321.0009,-327.3097"/>
<ellipse fill="none" stroke="#000000" cx="317.8013" cy="-327.3575" rx="3.2" ry="3.2"/>
</g>
<!-- employees&#45;&gt;shops -->
<g id="edge7" class="edge">
<title>employees:w&#45;&gt;shops:e</title>
<path fill="none" stroke="#000000" d="M314.733,-345.3483C288.2982,-327.5753 314.8774,-254.19 271.5,-254.19"/>
<polygon fill="#000000" stroke="#000000" points="321.2752,-347.1099 328.0639,-352.6662 325.1376,-348.1499 329,-349.19 329,-349.19 329,-349.19 325.1376,-348.1499 329.9361,-345.7138 321.2752,-347.1099 321.2752,-347.1099"/>
<ellipse fill="none" stroke="#000000" cx="318.1852" cy="-346.2778" rx="3.2" ry="3.2"/>
</g>
<!-- services&#45;&gt;shops -->
<g id="edge15" class="edge">
<title>services:w&#45;&gt;shops:e</title>
<path fill="none" stroke="#000000" d="M321.8791,-199.6445C300.0626,-212.1308 304.3296,-254.19 271.5,-254.19"/>
<polygon fill="#000000" stroke="#000000" points="328.2291,-198.0911 336.8555,-199.6869 332.1146,-197.1406 336,-196.19 336,-196.19 336,-196.19 332.1146,-197.1406 335.1445,-192.6931 328.2291,-198.0911 328.2291,-198.0911"/>
<ellipse fill="none" stroke="#000000" cx="325.1208" cy="-198.8515" rx="3.2" ry="3.2"/>
</g>
<!-- shops&#45;&gt;users -->
<g id="edge16" class="edge">
<title>shops:w&#45;&gt;users:e</title>
<path fill="none" stroke="#000000" d="M149.9909,-210.19C138.6774,-210.19 131.4931,-210.19 115.5,-210.19"/>
<polygon fill="#000000" stroke="#000000" points="156.5,-210.1901 164.5,-213.79 160.5,-210.1901 164.5,-210.19 164.5,-210.19 164.5,-210.19 160.5,-210.1901 164.5,-206.59 156.5,-210.1901 156.5,-210.1901"/>
<ellipse fill="none" stroke="#000000" cx="153.3" cy="-210.1901" rx="3.2" ry="3.2"/>
</g>
<!-- employee_services -->
<g id="node6" class="node">
<title>employee_services</title>
<g id="a_node6"><a xlink:href="../../tables/employee_services.html" xlink:title="employee_services" target="_top">
<polygon fill="#ffffff" stroke="transparent" points="483,-317.69 483,-378.69 620,-378.69 620,-317.69 483,-317.69"/>
<polygon fill="#f5f5f5" stroke="transparent" points="483.5,-355.19 483.5,-378.19 620.5,-378.19 620.5,-355.19 483.5,-355.19"/>
<polygon fill="none" stroke="#000000" points="483.5,-355.19 483.5,-378.19 620.5,-378.19 620.5,-355.19 483.5,-355.19"/>
<text text-anchor="start" x="488.4376" y="-364.29" font-family="Helvetica,sans-Serif" font-weight="bold" font-size="11.00" fill="#000000">employee_services</text>
<text text-anchor="start" x="586.0219" y="-363.29" font-family="Helvetica,sans-Serif" font-size="11.00" fill="#000000">[table]</text>
<polygon fill="none" stroke="#000000" points="483.5,-336.19 483.5,-355.19 620.5,-355.19 620.5,-336.19 483.5,-336.19"/>
<text text-anchor="start" x="486.5" y="-342.29" font-family="Helvetica,sans-Serif" font-size="11.00" fill="#000000">...</text>
<polygon fill="#ffffff" stroke="transparent" points="483.5,-317.19 483.5,-336.19 537.5,-336.19 537.5,-317.19 483.5,-317.19"/>
<polygon fill="none" stroke="#000000" points="483.5,-317.19 483.5,-336.19 537.5,-336.19 537.5,-317.19 483.5,-317.19"/>
<text text-anchor="start" x="486.5" y="-323.29" font-family="Helvetica,sans-Serif" font-size="11.00" fill="#000000">&lt; 2</text>
<polygon fill="#ffffff" stroke="transparent" points="537.5,-317.19 537.5,-336.19 591.5,-336.19 591.5,-317.19 537.5,-317.19"/>
<polygon fill="none" stroke="#000000" points="537.5,-317.19 537.5,-336.19 591.5,-336.19 591.5,-317.19 537.5,-317.19"/>
<text text-anchor="start" x="556.1105" y="-323.29" font-family="Helvetica,sans-Serif" font-size="11.00" fill="#000000">0 rows</text>
<polygon fill="#ffffff" stroke="transparent" points="591.5,-317.19 591.5,-336.19 620.5,-336.19 620.5,-317.19 591.5,-317.19"/>
<polygon fill="none" stroke="#000000" points="591.5,-317.19 591.5,-336.19 620.5,-336.19 620.5,-317.19 591.5,-317.19"/>
<text text-anchor="start" x="611.3862" y="-323.29" font-family="Helvetica,sans-Serif" font-size="11.00" fill="#000000"> &#160;</text>
</a>
</g>
</g>
<!-- employee_services&#45;&gt;employees -->
<g id="edge5" class="edge">
<title>employee_services:w&#45;&gt;employees:e</title>
<path fill="none" stroke="#000000" d="M469.26,-347.9725C453.7827,-354.6798 448.3497,-371.19 426,-371.19"/>
<polygon fill="#000000" stroke="#000000" points="475.6485,-346.7242 484.1904,-348.7232 479.5742,-345.9571 483.5,-345.19 483.5,-345.19 483.5,-345.19 479.5742,-345.9571 482.8096,-341.6568 475.6485,-346.7242 475.6485,-346.7242"/>
<ellipse fill="none" stroke="#000000" cx="472.5079" cy="-347.3379" rx="3.2" ry="3.2"/>
</g>
<!-- employee_services&#45;&gt;services -->
<g id="edge6" class="edge">
<title>employee_services:w&#45;&gt;services:e</title>
<path fill="none" stroke="#000000" d="M469.2253,-342.6038C422.8838,-322.8182 485.5231,-196.19 419,-196.19"/>
<polygon fill="#000000" stroke="#000000" points="475.6281,-343.7638 482.8582,-348.7324 479.5641,-344.4769 483.5,-345.19 483.5,-345.19 483.5,-345.19 479.5641,-344.4769 484.1418,-341.6477 475.6281,-343.7638 475.6281,-343.7638"/>
<ellipse fill="none" stroke="#000000" cx="472.4794" cy="-343.1933" rx="3.2" ry="3.2"/>
</g>
<!-- favorite_shops -->
<g id="node7" class="node">
<title>favorite_shops</title>
<g id="a_node7"><a xlink:href="../../tables/favorite_shops.html" xlink:title="favorite_shops" target="_top">
<polygon fill="#ffffff" stroke="transparent" points="320,-86.69 320,-147.69 434,-147.69 434,-86.69 320,-86.69"/>
<polygon fill="#f5f5f5" stroke="transparent" points="320,-124.19 320,-147.19 434,-147.19 434,-124.19 320,-124.19"/>
<polygon fill="none" stroke="#000000" points="320,-124.19 320,-147.19 434,-147.19 434,-124.19 320,-124.19"/>
<text text-anchor="start" x="324.7396" y="-133.29" font-family="Helvetica,sans-Serif" font-weight="bold" font-size="11.00" fill="#000000">favorite_shops</text>
<text text-anchor="start" x="399.5219" y="-132.29" font-family="Helvetica,sans-Serif" font-size="11.00" fill="#000000">[table]</text>
<polygon fill="none" stroke="#000000" points="320,-105.19 320,-124.19 434,-124.19 434,-105.19 320,-105.19"/>
<text text-anchor="start" x="323" y="-111.29" font-family="Helvetica,sans-Serif" font-size="11.00" fill="#000000">...</text>
<polygon fill="#ffffff" stroke="transparent" points="320,-86.19 320,-105.19 362,-105.19 362,-86.19 320,-86.19"/>
<polygon fill="none" stroke="#000000" points="320,-86.19 320,-105.19 362,-105.19 362,-86.19 320,-86.19"/>
<text text-anchor="start" x="323" y="-92.29" font-family="Helvetica,sans-Serif" font-size="11.00" fill="#000000">&lt; 2</text>
<polygon fill="#ffffff" stroke="transparent" points="362,-86.19 362,-105.19 411,-105.19 411,-86.19 362,-86.19"/>
<polygon fill="none" stroke="#000000" points="362,-86.19 362,-105.19 411,-105.19 411,-86.19 362,-86.19"/>
<text text-anchor="start" x="375.6105" y="-92.29" font-family="Helvetica,sans-Serif" font-size="11.00" fill="#000000">0 rows</text>
<polygon fill="#ffffff" stroke="transparent" points="411,-86.19 411,-105.19 434,-105.19 434,-86.19 411,-86.19"/>
<polygon fill="none" stroke="#000000" points="411,-86.19 411,-105.19 434,-105.19 434,-86.19 411,-86.19"/>
<text text-anchor="start" x="424.8862" y="-92.29" font-family="Helvetica,sans-Serif" font-size="11.00" fill="#000000"> &#160;</text>
</a>
</g>
</g>
<!-- favorite_shops&#45;&gt;users -->
<g id="edge10" class="edge">
<title>favorite_shops:w&#45;&gt;users:e</title>
<path fill="none" stroke="#000000" d="M305.3133,-114.1376C241.369,-113.7367 213.628,-112.1389 156,-151.19 129.6701,-169.0322 147.3057,-210.19 115.5,-210.19"/>
<polygon fill="#000000" stroke="#000000" points="312.0001,-114.1614 319.9871,-117.79 316,-114.1757 320,-114.19 320,-114.19 320,-114.19 316,-114.1757 320.0129,-110.59 312.0001,-114.1614 312.0001,-114.1614"/>
<ellipse fill="none" stroke="#000000" cx="308.8001" cy="-114.15" rx="3.2" ry="3.2"/>
</g>
<!-- favorite_shops&#45;&gt;shops -->
<g id="edge9" class="edge">
<title>favorite_shops:w&#45;&gt;shops:e</title>
<path fill="none" stroke="#000000" d="M305.6445,-117.3772C267.8968,-138.2162 331.434,-254.19 271.5,-254.19"/>
<polygon fill="#000000" stroke="#000000" points="312.1902,-115.924 320.7803,-117.7045 316.0951,-115.057 320,-114.19 320,-114.19 320,-114.19 316.0951,-115.057 319.2197,-110.6756 312.1902,-115.924 312.1902,-115.924"/>
<ellipse fill="none" stroke="#000000" cx="309.0662" cy="-116.6175" rx="3.2" ry="3.2"/>
</g>
<!-- reviews -->
<g id="node8" class="node">
<title>reviews</title>
<g id="a_node8"><a xlink:href="../../tables/reviews.html" xlink:title="reviews" target="_top">
<polygon fill="#ffffff" stroke="transparent" points="669,-263.19 669,-507.19 856,-507.19 856,-263.19 669,-263.19"/>
<polygon fill="#f5f5f5" stroke="transparent" points="671.5,-482.19 671.5,-505.19 854.5,-505.19 854.5,-482.19 671.5,-482.19"/>
<polygon fill="none" stroke="#000000" points="671.5,-482.19 671.5,-505.19 854.5,-505.19 854.5,-482.19 671.5,-482.19"/>
<text text-anchor="start" x="676.5" y="-491.29" font-family="Helvetica,sans-Serif" font-weight="bold" font-size="11.00" fill="#000000">reviews</text>
<text text-anchor="start" x="819.5437" y="-490.29" font-family="Helvetica,sans-Serif" font-size="11.00" fill="#000000">[table]</text>
<polygon fill="none" stroke="#000000" points="671.5,-460.19 671.5,-482.19 764.5,-482.19 764.5,-460.19 671.5,-460.19"/>
<image xlink:href="../../images/primaryKeys.png" width="11px" height="12px" preserveAspectRatio="xMinYMin meet" x="676.5" y="-477.19"/>
<text text-anchor="start" x="691.5" y="-467.29" font-family="Helvetica,sans-Serif" font-size="11.00" fill="#000000">id</text>
<polygon fill="none" stroke="#000000" points="764.5,-460.19 764.5,-482.19 854.5,-482.19 854.5,-460.19 764.5,-460.19"/>
<text text-anchor="start" x="767.5" y="-467.89" font-family="Helvetica,sans-Serif" font-size="11.00" fill="#000000">bigserial[19]</text>
<polygon fill="#ffffff" stroke="transparent" points="671.5,-438.19 671.5,-460.19 764.5,-460.19 764.5,-438.19 671.5,-438.19"/>
<polygon fill="none" stroke="#000000" points="671.5,-438.19 671.5,-460.19 764.5,-460.19 764.5,-438.19 671.5,-438.19"/>
<image xlink:href="../../images/foreignKeys.png" width="11px" height="12px" preserveAspectRatio="xMinYMin meet" x="676.5" y="-455.19"/>
<text text-anchor="start" x="691.5" y="-445.29" font-family="Helvetica,sans-Serif" font-size="11.00" fill="#000000">customer_id</text>
<polygon fill="none" stroke="#000000" points="764.5,-438.19 764.5,-460.19 854.5,-460.19 854.5,-438.19 764.5,-438.19"/>
<text text-anchor="start" x="767.5" y="-445.89" font-family="Helvetica,sans-Serif" font-size="11.00" fill="#000000">int8[19]</text>
<polygon fill="#ffffff" stroke="transparent" points="671.5,-416.19 671.5,-438.19 764.5,-438.19 764.5,-416.19 671.5,-416.19"/>
<polygon fill="none" stroke="#000000" points="671.5,-416.19 671.5,-438.19 764.5,-438.19 764.5,-416.19 671.5,-416.19"/>
<image xlink:href="../../images/foreignKeys.png" width="11px" height="12px" preserveAspectRatio="xMinYMin meet" x="676.5" y="-433.19"/>
<text text-anchor="start" x="691.5" y="-423.29" font-family="Helvetica,sans-Serif" font-size="11.00" fill="#000000">shop_id</text>
<polygon fill="none" stroke="#000000" points="764.5,-416.19 764.5,-438.19 854.5,-438.19 854.5,-416.19 764.5,-416.19"/>
<text text-anchor="start" x="767.5" y="-423.89" font-family="Helvetica,sans-Serif" font-size="11.00" fill="#000000">int8[19]</text>
<polygon fill="#ffffff" stroke="transparent" points="671.5,-394.19 671.5,-416.19 764.5,-416.19 764.5,-394.19 671.5,-394.19"/>
<polygon fill="none" stroke="#000000" points="671.5,-394.19 671.5,-416.19 764.5,-416.19 764.5,-394.19 671.5,-394.19"/>
<image xlink:href="../../images/foreignKeys.png" width="11px" height="12px" preserveAspectRatio="xMinYMin meet" x="676.5" y="-411.19"/>
<text text-anchor="start" x="691.5" y="-401.29" font-family="Helvetica,sans-Serif" font-size="11.00" fill="#000000">employee_id</text>
<polygon fill="none" stroke="#000000" points="764.5,-394.19 764.5,-416.19 854.5,-416.19 854.5,-394.19 764.5,-394.19"/>
<text text-anchor="start" x="767.5" y="-401.89" font-family="Helvetica,sans-Serif" font-size="11.00" fill="#000000">int8[19]</text>
<polygon fill="none" stroke="#000000" points="671.5,-372.19 671.5,-394.19 764.5,-394.19 764.5,-372.19 671.5,-372.19"/>
<image xlink:href="../../images/foreignKeys.png" width="11px" height="12px" preserveAspectRatio="xMinYMin meet" x="676.5" y="-389.19"/>
<text text-anchor="start" x="691.5" y="-379.29" font-family="Helvetica,sans-Serif" font-size="11.00" fill="#000000">booking_id</text>
<polygon fill="none" stroke="#000000" points="764.5,-372.19 764.5,-394.19 854.5,-394.19 854.5,-372.19 764.5,-372.19"/>
<text text-anchor="start" x="767.5" y="-379.89" font-family="Helvetica,sans-Serif" font-size="11.00" fill="#000000">int8[19]</text>
<polygon fill="none" stroke="#000000" points="671.5,-350.19 671.5,-372.19 764.5,-372.19 764.5,-350.19 671.5,-350.19"/>
<text text-anchor="start" x="691.5" y="-357.29" font-family="Helvetica,sans-Serif" font-size="11.00" fill="#000000">rating</text>
<polygon fill="none" stroke="#000000" points="764.5,-350.19 764.5,-372.19 854.5,-372.19 854.5,-350.19 764.5,-350.19"/>
<text text-anchor="start" x="767.5" y="-357.89" font-family="Helvetica,sans-Serif" font-size="11.00" fill="#000000">int4[10]</text>
<polygon fill="none" stroke="#000000" points="671.5,-328.19 671.5,-350.19 764.5,-350.19 764.5,-328.19 671.5,-328.19"/>
<text text-anchor="start" x="691.5" y="-335.29" font-family="Helvetica,sans-Serif" font-size="11.00" fill="#000000">comment</text>
<polygon fill="none" stroke="#000000" points="764.5,-328.19 764.5,-350.19 854.5,-350.19 854.5,-328.19 764.5,-328.19"/>
<text text-anchor="start" x="767.0043" y="-335.89" font-family="Helvetica,sans-Serif" font-size="11.00" fill="#000000">text[2147483647]</text>
<polygon fill="none" stroke="#000000" points="671.5,-306.19 671.5,-328.19 764.5,-328.19 764.5,-306.19 671.5,-306.19"/>
<text text-anchor="start" x="691.5" y="-313.29" font-family="Helvetica,sans-Serif" font-size="11.00" fill="#000000">created_at</text>
<polygon fill="none" stroke="#000000" points="764.5,-306.19 764.5,-328.19 854.5,-328.19 854.5,-306.19 764.5,-306.19"/>
<text text-anchor="start" x="767.5" y="-313.89" font-family="Helvetica,sans-Serif" font-size="11.00" fill="#000000">timestamp[29,6]</text>
<polygon fill="none" stroke="#000000" points="671.5,-284.19 671.5,-306.19 764.5,-306.19 764.5,-284.19 671.5,-284.19"/>
<text text-anchor="start" x="691.5" y="-291.29" font-family="Helvetica,sans-Serif" font-size="11.00" fill="#000000">updated_at</text>
<polygon fill="none" stroke="#000000" points="764.5,-284.19 764.5,-306.19 854.5,-306.19 854.5,-284.19 764.5,-284.19"/>
<text text-anchor="start" x="767.5" y="-291.89" font-family="Helvetica,sans-Serif" font-size="11.00" fill="#000000">timestamp[29,6]</text>
<polygon fill="#ffffff" stroke="transparent" points="671.5,-265.19 671.5,-284.19 709.5,-284.19 709.5,-265.19 671.5,-265.19"/>
<polygon fill="none" stroke="#000000" points="671.5,-265.19 671.5,-284.19 709.5,-284.19 709.5,-265.19 671.5,-265.19"/>
<text text-anchor="start" x="674.5" y="-271.29" font-family="Helvetica,sans-Serif" font-size="11.00" fill="#000000">&lt; 4</text>
<polygon fill="#ffffff" stroke="transparent" points="709.5,-265.19 709.5,-284.19 764.5,-284.19 764.5,-265.19 709.5,-265.19"/>
<polygon fill="none" stroke="#000000" points="709.5,-265.19 709.5,-284.19 764.5,-284.19 764.5,-265.19 709.5,-265.19"/>
<text text-anchor="start" x="729.1105" y="-271.29" font-family="Helvetica,sans-Serif" font-size="11.00" fill="#000000">0 rows</text>
<polygon fill="#ffffff" stroke="transparent" points="764.5,-265.19 764.5,-284.19 854.5,-284.19 854.5,-265.19 764.5,-265.19"/>
<polygon fill="none" stroke="#000000" points="764.5,-265.19 764.5,-284.19 854.5,-284.19 854.5,-265.19 764.5,-265.19"/>
<text text-anchor="start" x="835.9053" y="-271.29" font-family="Helvetica,sans-Serif" font-size="11.00" fill="#000000">0 &gt;</text>
<polygon fill="none" stroke="#000000" stroke-width="2" points="670,-264.19 670,-506.19 855,-506.19 855,-264.19 670,-264.19"/>
</a>
</g>
</g>
<!-- reviews&#45;&gt;bookings -->
<g id="edge11" class="edge">
<title>reviews:w&#45;&gt;bookings:e</title>
<path fill="none" stroke="#000000" d="M657.1992,-380.4354C617.2156,-362.4245 655.664,-262.19 598.5,-262.19"/>
<polygon fill="#000000" stroke="#000000" points="663.6444,-381.6768 670.8191,-386.725 667.5722,-382.4334 671.5,-383.19 671.5,-383.19 671.5,-383.19 667.5722,-382.4334 672.1809,-379.655 663.6444,-381.6768 663.6444,-381.6768"/>
<ellipse fill="none" stroke="#000000" cx="660.5022" cy="-381.0716" rx="3.2" ry="3.2"/>
</g>
<!-- reviews&#45;&gt;users -->
<g id="edge12" class="edge">
<title>reviews:w&#45;&gt;users:e</title>
<path fill="none" stroke="#000000" d="M656.8332,-449.3072C508.5084,-451.6856 458.3028,-488.9467 312,-438.19 230.8704,-410.0438 207.3201,-393.0411 156,-324.19 123.8662,-281.0793 169.2691,-210.19 115.5,-210.19"/>
<polygon fill="#000000" stroke="#000000" points="663.5003,-449.254 671.5288,-452.7899 667.5001,-449.222 671.5,-449.19 671.5,-449.19 671.5,-449.19 667.5001,-449.222 671.4712,-445.5901 663.5003,-449.254 663.5003,-449.254"/>
<ellipse fill="none" stroke="#000000" cx="660.3004" cy="-449.2796" rx="3.2" ry="3.2"/>
</g>
<!-- reviews&#45;&gt;employees -->
<g id="edge13" class="edge">
<title>reviews:w&#45;&gt;employees:e</title>
<path fill="none" stroke="#000000" d="M656.7346,-405.2143C580.933,-405.4478 555.56,-406.9212 475,-389.19 452.3417,-384.2029 449.2007,-371.19 426,-371.19"/>
<polygon fill="#000000" stroke="#000000" points="663.5,-405.2032 671.5059,-408.79 667.5,-405.1966 671.5,-405.19 671.5,-405.19 671.5,-405.19 667.5,-405.1966 671.4941,-401.59 663.5,-405.2032 663.5,-405.2032"/>
<ellipse fill="none" stroke="#000000" cx="660.3" cy="-405.2085" rx="3.2" ry="3.2"/>
</g>
<!-- reviews&#45;&gt;shops -->
<g id="edge14" class="edge">
<title>reviews:w&#45;&gt;shops:e</title>
<path fill="none" stroke="#000000" d="M656.9261,-427.5317C567.8588,-431.2713 370.7742,-463.5441 312,-416.19 254.208,-369.6274 345.7159,-254.19 271.5,-254.19"/>
<polygon fill="#000000" stroke="#000000" points="663.5022,-427.3776 671.5844,-430.789 667.5011,-427.2838 671.5,-427.19 671.5,-427.19 671.5,-427.19 667.5011,-427.2838 671.4156,-423.591 663.5022,-427.3776 663.5022,-427.3776"/>
<ellipse fill="none" stroke="#000000" cx="660.3031" cy="-427.4526" rx="3.2" ry="3.2"/>
</g>
</g>
</svg>
