<?xml version="1.0" encoding="UTF-8" standalone="no"?>
<!DOCTYPE svg PUBLIC "-//W3C//DTD SVG 1.1//EN"
 "http://www.w3.org/Graphics/SVG/1.1/DTD/svg11.dtd">
<!-- Generated by graphviz version 2.40.1 (20161225.0304)
 -->
<!-- Title: twoDegreesRelationshipsDiagram Pages: 1 -->
<svg width="830pt" height="608pt"
 viewBox="0.00 0.00 830.00 607.60" xmlns="http://www.w3.org/2000/svg" xmlns:xlink="http://www.w3.org/1999/xlink">
<g id="graph0" class="graph" transform="scale(1 1) rotate(0) translate(4 603.5954)">
<title>twoDegreesRelationshipsDiagram</title>
<polygon fill="#ffffff" stroke="transparent" points="-4,4 -4,-603.5954 826,-603.5954 826,4 -4,4"/>
<text text-anchor="middle" x="72.4936" y="-7.3" font-family="Helvetica,sans-Serif" font-size="11.00" fill="#000000">Generated by SchemaSpy</text>
<!-- bookings -->
<g id="node1" class="node">
<title>bookings</title>
<g id="a_node1"><a xlink:href="../../tables/bookings.html" xlink:title="bookings" target="_top">
<polygon fill="#ffffff" stroke="transparent" points="570,-365.2416 570,-536.2416 663,-536.2416 663,-365.2416 570,-365.2416"/>
<polygon fill="#f5f5f5" stroke="transparent" points="570.5,-512.7416 570.5,-535.7416 663.5,-535.7416 663.5,-512.7416 570.5,-512.7416"/>
<polygon fill="none" stroke="#000000" points="570.5,-512.7416 570.5,-535.7416 663.5,-535.7416 663.5,-512.7416 570.5,-512.7416"/>
<text text-anchor="start" x="575.5" y="-521.8416" font-family="Helvetica,sans-Serif" font-weight="bold" font-size="11.00" fill="#000000">bookings</text>
<text text-anchor="start" x="628.5437" y="-520.8416" font-family="Helvetica,sans-Serif" font-size="11.00" fill="#000000">[table]</text>
<polygon fill="none" stroke="#000000" points="570.5,-490.7416 570.5,-512.7416 663.5,-512.7416 663.5,-490.7416 570.5,-490.7416"/>
<image xlink:href="../../images/primaryKeys.png" width="11px" height="12px" preserveAspectRatio="xMinYMin meet" x="575.5" y="-507.742"/>
<text text-anchor="start" x="590.5" y="-497.8416" font-family="Helvetica,sans-Serif" font-size="11.00" fill="#000000">id</text>
<polygon fill="#ffffff" stroke="transparent" points="570.5,-468.7416 570.5,-490.7416 663.5,-490.7416 663.5,-468.7416 570.5,-468.7416"/>
<polygon fill="none" stroke="#000000" points="570.5,-468.7416 570.5,-490.7416 663.5,-490.7416 663.5,-468.7416 570.5,-468.7416"/>
<image xlink:href="../../images/foreignKeys.png" width="11px" height="12px" preserveAspectRatio="xMinYMin meet" x="575.5" y="-485.742"/>
<text text-anchor="start" x="590.5" y="-475.8416" font-family="Helvetica,sans-Serif" font-size="11.00" fill="#000000">shop_id</text>
<polygon fill="#ffffff" stroke="transparent" points="570.5,-446.7416 570.5,-468.7416 663.5,-468.7416 663.5,-446.7416 570.5,-446.7416"/>
<polygon fill="none" stroke="#000000" points="570.5,-446.7416 570.5,-468.7416 663.5,-468.7416 663.5,-446.7416 570.5,-446.7416"/>
<image xlink:href="../../images/foreignKeys.png" width="11px" height="12px" preserveAspectRatio="xMinYMin meet" x="575.5" y="-463.742"/>
<text text-anchor="start" x="590.5" y="-453.8416" font-family="Helvetica,sans-Serif" font-size="11.00" fill="#000000">customer_id</text>
<polygon fill="#ffffff" stroke="transparent" points="570.5,-424.7416 570.5,-446.7416 663.5,-446.7416 663.5,-424.7416 570.5,-424.7416"/>
<polygon fill="none" stroke="#000000" points="570.5,-424.7416 570.5,-446.7416 663.5,-446.7416 663.5,-424.7416 570.5,-424.7416"/>
<image xlink:href="../../images/foreignKeys.png" width="11px" height="12px" preserveAspectRatio="xMinYMin meet" x="575.5" y="-441.742"/>
<text text-anchor="start" x="590.5" y="-431.8416" font-family="Helvetica,sans-Serif" font-size="11.00" fill="#000000">employee_id</text>
<polygon fill="none" stroke="#000000" points="570.5,-402.7416 570.5,-424.7416 663.5,-424.7416 663.5,-402.7416 570.5,-402.7416"/>
<image xlink:href="../../images/foreignKeys.png" width="11px" height="12px" preserveAspectRatio="xMinYMin meet" x="575.5" y="-419.742"/>
<text text-anchor="start" x="590.5" y="-409.8416" font-family="Helvetica,sans-Serif" font-size="11.00" fill="#000000">service_id</text>
<polygon fill="none" stroke="#000000" points="570.5,-383.7416 570.5,-402.7416 663.5,-402.7416 663.5,-383.7416 570.5,-383.7416"/>
<text text-anchor="start" x="573.5" y="-389.8416" font-family="Helvetica,sans-Serif" font-size="11.00" fill="#000000">...</text>
<polygon fill="#ffffff" stroke="transparent" points="570.5,-364.7416 570.5,-383.7416 597.5,-383.7416 597.5,-364.7416 570.5,-364.7416"/>
<polygon fill="none" stroke="#000000" points="570.5,-364.7416 570.5,-383.7416 597.5,-383.7416 597.5,-364.7416 570.5,-364.7416"/>
<text text-anchor="start" x="573.5" y="-370.8416" font-family="Helvetica,sans-Serif" font-size="11.00" fill="#000000">&lt; 4</text>
<polygon fill="#ffffff" stroke="transparent" points="597.5,-364.7416 597.5,-383.7416 638.5,-383.7416 638.5,-364.7416 597.5,-364.7416"/>
<polygon fill="none" stroke="#000000" points="597.5,-364.7416 597.5,-383.7416 638.5,-383.7416 638.5,-364.7416 597.5,-364.7416"/>
<text text-anchor="start" x="603.1105" y="-370.8416" font-family="Helvetica,sans-Serif" font-size="11.00" fill="#000000">0 rows</text>
<polygon fill="#ffffff" stroke="transparent" points="638.5,-364.7416 638.5,-383.7416 663.5,-383.7416 663.5,-364.7416 638.5,-364.7416"/>
<polygon fill="none" stroke="#000000" points="638.5,-364.7416 638.5,-383.7416 663.5,-383.7416 663.5,-364.7416 638.5,-364.7416"/>
<text text-anchor="start" x="644.9053" y="-370.8416" font-family="Helvetica,sans-Serif" font-size="11.00" fill="#000000">1 &gt;</text>
</a>
</g>
</g>
<!-- users -->
<g id="node2" class="node">
<title>users</title>
<g id="a_node2"><a xlink:href="../../tables/users.html" xlink:title="users" target="_top">
<polygon fill="#ffffff" stroke="transparent" points="8,-320.2416 8,-381.2416 79,-381.2416 79,-320.2416 8,-320.2416"/>
<polygon fill="#f5f5f5" stroke="transparent" points="8.5,-357.7416 8.5,-380.7416 79.5,-380.7416 79.5,-357.7416 8.5,-357.7416"/>
<polygon fill="none" stroke="#000000" points="8.5,-357.7416 8.5,-380.7416 79.5,-380.7416 79.5,-357.7416 8.5,-357.7416"/>
<text text-anchor="start" x="13.5" y="-366.8416" font-family="Helvetica,sans-Serif" font-weight="bold" font-size="11.00" fill="#000000">users</text>
<text text-anchor="start" x="44.5437" y="-365.8416" font-family="Helvetica,sans-Serif" font-size="11.00" fill="#000000">[table]</text>
<polygon fill="none" stroke="#000000" points="8.5,-338.7416 8.5,-357.7416 79.5,-357.7416 79.5,-338.7416 8.5,-338.7416"/>
<text text-anchor="start" x="11.5" y="-344.8416" font-family="Helvetica,sans-Serif" font-size="11.00" fill="#000000">...</text>
<polygon fill="#ffffff" stroke="transparent" points="8.5,-319.7416 8.5,-338.7416 20.5,-338.7416 20.5,-319.7416 8.5,-319.7416"/>
<polygon fill="none" stroke="#000000" points="8.5,-319.7416 8.5,-338.7416 20.5,-338.7416 20.5,-319.7416 8.5,-319.7416"/>
<text text-anchor="start" x="11.4431" y="-325.8416" font-family="Helvetica,sans-Serif" font-size="11.00" fill="#000000"> &#160;</text>
<polygon fill="#ffffff" stroke="transparent" points="20.5,-319.7416 20.5,-338.7416 58.5,-338.7416 58.5,-319.7416 20.5,-319.7416"/>
<polygon fill="none" stroke="#000000" points="20.5,-319.7416 20.5,-338.7416 58.5,-338.7416 58.5,-319.7416 20.5,-319.7416"/>
<text text-anchor="start" x="23.3053" y="-325.8416" font-family="Helvetica,sans-Serif" font-size="11.00" fill="#000000">6 rows</text>
<polygon fill="#ffffff" stroke="transparent" points="58.5,-319.7416 58.5,-338.7416 79.5,-338.7416 79.5,-319.7416 58.5,-319.7416"/>
<polygon fill="none" stroke="#000000" points="58.5,-319.7416 58.5,-338.7416 79.5,-338.7416 79.5,-319.7416 58.5,-319.7416"/>
<text text-anchor="start" x="61.2027" y="-325.8416" font-family="Helvetica,sans-Serif" font-size="11.00" fill="#000000">5 &gt;</text>
</a>
</g>
</g>
<!-- bookings&#45;&gt;users -->
<g id="edge1" class="edge">
<title>bookings:w&#45;&gt;users:e</title>
<path fill="none" stroke="#000000" d="M555.9695,-460.1719C521.0909,-474.0797 551.4216,-543.8626 507,-569.7416 418.2896,-621.4224 375.5515,-594.8403 276,-569.7416 199.6436,-550.4908 169.5857,-546.9147 120,-485.7416 79.7499,-436.0857 143.4201,-347.7416 79.5,-347.7416"/>
<polygon fill="#000000" stroke="#000000" points="562.6096,-459.0614 571.0939,-461.2923 566.5548,-458.4015 570.5,-457.7416 570.5,-457.7416 570.5,-457.7416 566.5548,-458.4015 569.9061,-454.1909 562.6096,-459.0614 562.6096,-459.0614"/>
<ellipse fill="none" stroke="#000000" cx="559.4534" cy="-459.5893" rx="3.2" ry="3.2"/>
</g>
<!-- employees -->
<g id="node3" class="node">
<title>employees</title>
<g id="a_node3"><a xlink:href="../../tables/employees.html" xlink:title="employees" target="_top">
<polygon fill="#ffffff" stroke="transparent" points="343.5,-498.2416 343.5,-559.2416 439.5,-559.2416 439.5,-498.2416 343.5,-498.2416"/>
<polygon fill="#f5f5f5" stroke="transparent" points="343.5,-535.7416 343.5,-558.7416 439.5,-558.7416 439.5,-535.7416 343.5,-535.7416"/>
<polygon fill="none" stroke="#000000" points="343.5,-535.7416 343.5,-558.7416 439.5,-558.7416 439.5,-535.7416 343.5,-535.7416"/>
<text text-anchor="start" x="348.4114" y="-544.8416" font-family="Helvetica,sans-Serif" font-weight="bold" font-size="11.00" fill="#000000">employees</text>
<text text-anchor="start" x="405.0219" y="-543.8416" font-family="Helvetica,sans-Serif" font-size="11.00" fill="#000000">[table]</text>
<polygon fill="none" stroke="#000000" points="343.5,-516.7416 343.5,-535.7416 439.5,-535.7416 439.5,-516.7416 343.5,-516.7416"/>
<text text-anchor="start" x="346.5" y="-522.8416" font-family="Helvetica,sans-Serif" font-size="11.00" fill="#000000">...</text>
<polygon fill="#ffffff" stroke="transparent" points="343.5,-497.7416 343.5,-516.7416 372.5,-516.7416 372.5,-497.7416 343.5,-497.7416"/>
<polygon fill="none" stroke="#000000" points="343.5,-497.7416 343.5,-516.7416 372.5,-516.7416 372.5,-497.7416 343.5,-497.7416"/>
<text text-anchor="start" x="346.5" y="-503.8416" font-family="Helvetica,sans-Serif" font-size="11.00" fill="#000000">&lt; 2</text>
<polygon fill="#ffffff" stroke="transparent" points="372.5,-497.7416 372.5,-516.7416 414.5,-516.7416 414.5,-497.7416 372.5,-497.7416"/>
<polygon fill="none" stroke="#000000" points="372.5,-497.7416 372.5,-516.7416 414.5,-516.7416 414.5,-497.7416 372.5,-497.7416"/>
<text text-anchor="start" x="379.1105" y="-503.8416" font-family="Helvetica,sans-Serif" font-size="11.00" fill="#000000">0 rows</text>
<polygon fill="#ffffff" stroke="transparent" points="414.5,-497.7416 414.5,-516.7416 439.5,-516.7416 439.5,-497.7416 414.5,-497.7416"/>
<polygon fill="none" stroke="#000000" points="414.5,-497.7416 414.5,-516.7416 439.5,-516.7416 439.5,-497.7416 414.5,-497.7416"/>
<text text-anchor="start" x="420.9053" y="-503.8416" font-family="Helvetica,sans-Serif" font-size="11.00" fill="#000000">3 &gt;</text>
</a>
</g>
</g>
<!-- bookings&#45;&gt;employees -->
<g id="edge2" class="edge">
<title>bookings:w&#45;&gt;employees:e</title>
<path fill="none" stroke="#000000" d="M556.0305,-437.7462C534.6799,-444.4964 531.4899,-466.9175 507,-483.7416 477.8768,-503.7487 474.8333,-525.7416 439.5,-525.7416"/>
<polygon fill="#000000" stroke="#000000" points="562.5757,-436.8395 570.9941,-439.3075 566.5378,-436.2906 570.5,-435.7416 570.5,-435.7416 570.5,-435.7416 566.5378,-436.2906 570.0059,-432.1757 562.5757,-436.8395 562.5757,-436.8395"/>
<ellipse fill="none" stroke="#000000" cx="559.406" cy="-437.2787" rx="3.2" ry="3.2"/>
</g>
<!-- services -->
<g id="node4" class="node">
<title>services</title>
<g id="a_node4"><a xlink:href="../../tables/services.html" xlink:title="services" target="_top">
<polygon fill="#ffffff" stroke="transparent" points="284,-183.7416 284,-449.7416 499,-449.7416 499,-183.7416 284,-183.7416"/>
<polygon fill="#f5f5f5" stroke="transparent" points="286.5,-424.7416 286.5,-447.7416 497.5,-447.7416 497.5,-424.7416 286.5,-424.7416"/>
<polygon fill="none" stroke="#000000" points="286.5,-424.7416 286.5,-447.7416 497.5,-447.7416 497.5,-424.7416 286.5,-424.7416"/>
<text text-anchor="start" x="291.5" y="-433.8416" font-family="Helvetica,sans-Serif" font-weight="bold" font-size="11.00" fill="#000000">services</text>
<text text-anchor="start" x="462.5437" y="-432.8416" font-family="Helvetica,sans-Serif" font-size="11.00" fill="#000000">[table]</text>
<polygon fill="none" stroke="#000000" points="286.5,-402.7416 286.5,-424.7416 407.5,-424.7416 407.5,-402.7416 286.5,-402.7416"/>
<image xlink:href="../../images/primaryKeys.png" width="11px" height="12px" preserveAspectRatio="xMinYMin meet" x="291.5" y="-419.742"/>
<text text-anchor="start" x="306.5" y="-409.8416" font-family="Helvetica,sans-Serif" font-size="11.00" fill="#000000">id</text>
<polygon fill="none" stroke="#000000" points="407.5,-402.7416 407.5,-424.7416 497.5,-424.7416 497.5,-402.7416 407.5,-402.7416"/>
<text text-anchor="start" x="410.5" y="-410.4416" font-family="Helvetica,sans-Serif" font-size="11.00" fill="#000000">bigserial[19]</text>
<polygon fill="#ffffff" stroke="transparent" points="286.5,-380.7416 286.5,-402.7416 407.5,-402.7416 407.5,-380.7416 286.5,-380.7416"/>
<polygon fill="none" stroke="#000000" points="286.5,-380.7416 286.5,-402.7416 407.5,-402.7416 407.5,-380.7416 286.5,-380.7416"/>
<image xlink:href="../../images/foreignKeys.png" width="11px" height="12px" preserveAspectRatio="xMinYMin meet" x="291.5" y="-397.742"/>
<text text-anchor="start" x="306.5" y="-387.8416" font-family="Helvetica,sans-Serif" font-size="11.00" fill="#000000">shop_id</text>
<polygon fill="none" stroke="#000000" points="407.5,-380.7416 407.5,-402.7416 497.5,-402.7416 497.5,-380.7416 407.5,-380.7416"/>
<text text-anchor="start" x="410.5" y="-388.4416" font-family="Helvetica,sans-Serif" font-size="11.00" fill="#000000">int8[19]</text>
<polygon fill="none" stroke="#000000" points="286.5,-358.7416 286.5,-380.7416 407.5,-380.7416 407.5,-358.7416 286.5,-358.7416"/>
<text text-anchor="start" x="306.5" y="-365.8416" font-family="Helvetica,sans-Serif" font-size="11.00" fill="#000000">name</text>
<polygon fill="none" stroke="#000000" points="407.5,-358.7416 407.5,-380.7416 497.5,-380.7416 497.5,-358.7416 407.5,-358.7416"/>
<text text-anchor="start" x="410.5" y="-366.4416" font-family="Helvetica,sans-Serif" font-size="11.00" fill="#000000">varchar[100]</text>
<polygon fill="none" stroke="#000000" points="286.5,-336.7416 286.5,-358.7416 407.5,-358.7416 407.5,-336.7416 286.5,-336.7416"/>
<text text-anchor="start" x="306.5" y="-343.8416" font-family="Helvetica,sans-Serif" font-size="11.00" fill="#000000">description</text>
<polygon fill="none" stroke="#000000" points="407.5,-336.7416 407.5,-358.7416 497.5,-358.7416 497.5,-336.7416 407.5,-336.7416"/>
<text text-anchor="start" x="410.0043" y="-344.4416" font-family="Helvetica,sans-Serif" font-size="11.00" fill="#000000">text[2147483647]</text>
<polygon fill="none" stroke="#000000" points="286.5,-314.7416 286.5,-336.7416 407.5,-336.7416 407.5,-314.7416 286.5,-314.7416"/>
<text text-anchor="start" x="306.5" y="-321.8416" font-family="Helvetica,sans-Serif" font-size="11.00" fill="#000000">duration_minutes</text>
<polygon fill="none" stroke="#000000" points="407.5,-314.7416 407.5,-336.7416 497.5,-336.7416 497.5,-314.7416 407.5,-314.7416"/>
<text text-anchor="start" x="410.5" y="-322.4416" font-family="Helvetica,sans-Serif" font-size="11.00" fill="#000000">int4[10]</text>
<polygon fill="none" stroke="#000000" points="286.5,-292.7416 286.5,-314.7416 407.5,-314.7416 407.5,-292.7416 286.5,-292.7416"/>
<text text-anchor="start" x="306.5" y="-299.8416" font-family="Helvetica,sans-Serif" font-size="11.00" fill="#000000">price</text>
<polygon fill="none" stroke="#000000" points="407.5,-292.7416 407.5,-314.7416 497.5,-314.7416 497.5,-292.7416 407.5,-292.7416"/>
<text text-anchor="start" x="410.5" y="-300.4416" font-family="Helvetica,sans-Serif" font-size="11.00" fill="#000000">numeric[10,2]</text>
<polygon fill="none" stroke="#000000" points="286.5,-270.7416 286.5,-292.7416 407.5,-292.7416 407.5,-270.7416 286.5,-270.7416"/>
<text text-anchor="start" x="306.5" y="-277.8416" font-family="Helvetica,sans-Serif" font-size="11.00" fill="#000000">image_url</text>
<polygon fill="none" stroke="#000000" points="407.5,-270.7416 407.5,-292.7416 497.5,-292.7416 497.5,-270.7416 407.5,-270.7416"/>
<text text-anchor="start" x="410.0043" y="-278.4416" font-family="Helvetica,sans-Serif" font-size="11.00" fill="#000000">text[2147483647]</text>
<polygon fill="none" stroke="#000000" points="286.5,-248.7416 286.5,-270.7416 407.5,-270.7416 407.5,-248.7416 286.5,-248.7416"/>
<text text-anchor="start" x="306.5" y="-255.8416" font-family="Helvetica,sans-Serif" font-size="11.00" fill="#000000">is_active</text>
<polygon fill="none" stroke="#000000" points="407.5,-248.7416 407.5,-270.7416 497.5,-270.7416 497.5,-248.7416 407.5,-248.7416"/>
<text text-anchor="start" x="410.5" y="-256.4416" font-family="Helvetica,sans-Serif" font-size="11.00" fill="#000000">bool[1]</text>
<polygon fill="none" stroke="#000000" points="286.5,-226.7416 286.5,-248.7416 407.5,-248.7416 407.5,-226.7416 286.5,-226.7416"/>
<text text-anchor="start" x="306.5" y="-233.8416" font-family="Helvetica,sans-Serif" font-size="11.00" fill="#000000">created_at</text>
<polygon fill="none" stroke="#000000" points="407.5,-226.7416 407.5,-248.7416 497.5,-248.7416 497.5,-226.7416 407.5,-226.7416"/>
<text text-anchor="start" x="410.5" y="-234.4416" font-family="Helvetica,sans-Serif" font-size="11.00" fill="#000000">timestamp[29,6]</text>
<polygon fill="none" stroke="#000000" points="286.5,-204.7416 286.5,-226.7416 407.5,-226.7416 407.5,-204.7416 286.5,-204.7416"/>
<text text-anchor="start" x="306.5" y="-211.8416" font-family="Helvetica,sans-Serif" font-size="11.00" fill="#000000">updated_at</text>
<polygon fill="none" stroke="#000000" points="407.5,-204.7416 407.5,-226.7416 497.5,-226.7416 497.5,-204.7416 407.5,-204.7416"/>
<text text-anchor="start" x="410.5" y="-212.4416" font-family="Helvetica,sans-Serif" font-size="11.00" fill="#000000">timestamp[29,6]</text>
<polygon fill="#ffffff" stroke="transparent" points="286.5,-185.7416 286.5,-204.7416 338.5,-204.7416 338.5,-185.7416 286.5,-185.7416"/>
<polygon fill="none" stroke="#000000" points="286.5,-185.7416 286.5,-204.7416 338.5,-204.7416 338.5,-185.7416 286.5,-185.7416"/>
<text text-anchor="start" x="289.5" y="-191.8416" font-family="Helvetica,sans-Serif" font-size="11.00" fill="#000000">&lt; 1</text>
<polygon fill="#ffffff" stroke="transparent" points="338.5,-185.7416 338.5,-204.7416 407.5,-204.7416 407.5,-185.7416 338.5,-185.7416"/>
<polygon fill="none" stroke="#000000" points="338.5,-185.7416 338.5,-204.7416 407.5,-204.7416 407.5,-185.7416 338.5,-185.7416"/>
<text text-anchor="start" x="372.1105" y="-191.8416" font-family="Helvetica,sans-Serif" font-size="11.00" fill="#000000">0 rows</text>
<polygon fill="#ffffff" stroke="transparent" points="407.5,-185.7416 407.5,-204.7416 497.5,-204.7416 497.5,-185.7416 407.5,-185.7416"/>
<polygon fill="none" stroke="#000000" points="407.5,-185.7416 407.5,-204.7416 497.5,-204.7416 497.5,-185.7416 407.5,-185.7416"/>
<text text-anchor="start" x="478.9053" y="-191.8416" font-family="Helvetica,sans-Serif" font-size="11.00" fill="#000000">2 &gt;</text>
<polygon fill="none" stroke="#000000" stroke-width="2" points="285,-184.7416 285,-448.7416 498,-448.7416 498,-184.7416 285,-184.7416"/>
</a>
</g>
</g>
<!-- bookings&#45;&gt;services -->
<g id="edge3" class="edge">
<title>bookings:w&#45;&gt;services:e</title>
<path fill="none" stroke="#000000" d="M555.98,-413.7416C534.6442,-413.7416 524.4948,-413.7416 497.5,-413.7416"/>
<polygon fill="#000000" stroke="#000000" points="562.5,-413.7417 570.5,-417.3416 566.5,-413.7416 570.5,-413.7416 570.5,-413.7416 570.5,-413.7416 566.5,-413.7416 570.5,-410.1416 562.5,-413.7417 562.5,-413.7417"/>
<ellipse fill="none" stroke="#000000" cx="559.3" cy="-413.7417" rx="3.2" ry="3.2"/>
</g>
<!-- shops -->
<g id="node5" class="node">
<title>shops</title>
<g id="a_node5"><a xlink:href="../../tables/shops.html" xlink:title="shops" target="_top">
<polygon fill="#ffffff" stroke="transparent" points="128,-299.2416 128,-426.2416 235,-426.2416 235,-299.2416 128,-299.2416"/>
<polygon fill="#f5f5f5" stroke="transparent" points="128.5,-402.7416 128.5,-425.7416 235.5,-425.7416 235.5,-402.7416 128.5,-402.7416"/>
<polygon fill="none" stroke="#000000" points="128.5,-402.7416 128.5,-425.7416 235.5,-425.7416 235.5,-402.7416 128.5,-402.7416"/>
<text text-anchor="start" x="133.5" y="-411.8416" font-family="Helvetica,sans-Serif" font-weight="bold" font-size="11.00" fill="#000000">shops</text>
<text text-anchor="start" x="200.5437" y="-410.8416" font-family="Helvetica,sans-Serif" font-size="11.00" fill="#000000">[table]</text>
<polygon fill="none" stroke="#000000" points="128.5,-380.7416 128.5,-402.7416 235.5,-402.7416 235.5,-380.7416 128.5,-380.7416"/>
<image xlink:href="../../images/primaryKeys.png" width="11px" height="12px" preserveAspectRatio="xMinYMin meet" x="133.5" y="-397.742"/>
<text text-anchor="start" x="148.5" y="-387.8416" font-family="Helvetica,sans-Serif" font-size="11.00" fill="#000000">id</text>
<polygon fill="#ffffff" stroke="transparent" points="128.5,-358.7416 128.5,-380.7416 235.5,-380.7416 235.5,-358.7416 128.5,-358.7416"/>
<polygon fill="none" stroke="#000000" points="128.5,-358.7416 128.5,-380.7416 235.5,-380.7416 235.5,-358.7416 128.5,-358.7416"/>
<text text-anchor="start" x="148.5" y="-365.8416" font-family="Helvetica,sans-Serif" font-size="11.00" fill="#000000">city</text>
<polygon fill="#ffffff" stroke="transparent" points="128.5,-336.7416 128.5,-358.7416 235.5,-358.7416 235.5,-336.7416 128.5,-336.7416"/>
<polygon fill="none" stroke="#000000" points="128.5,-336.7416 128.5,-358.7416 235.5,-358.7416 235.5,-336.7416 128.5,-336.7416"/>
<image xlink:href="../../images/foreignKeys.png" width="11px" height="12px" preserveAspectRatio="xMinYMin meet" x="133.5" y="-353.742"/>
<text text-anchor="start" x="148.5" y="-343.8416" font-family="Helvetica,sans-Serif" font-size="11.00" fill="#000000">owner_id</text>
<polygon fill="none" stroke="#000000" points="128.5,-317.7416 128.5,-336.7416 235.5,-336.7416 235.5,-317.7416 128.5,-317.7416"/>
<text text-anchor="start" x="131.5" y="-323.8416" font-family="Helvetica,sans-Serif" font-size="11.00" fill="#000000">...</text>
<polygon fill="#ffffff" stroke="transparent" points="128.5,-298.7416 128.5,-317.7416 165.5,-317.7416 165.5,-298.7416 128.5,-298.7416"/>
<polygon fill="none" stroke="#000000" points="128.5,-298.7416 128.5,-317.7416 165.5,-317.7416 165.5,-298.7416 128.5,-298.7416"/>
<text text-anchor="start" x="131.5" y="-304.8416" font-family="Helvetica,sans-Serif" font-size="11.00" fill="#000000">&lt; 1</text>
<polygon fill="#ffffff" stroke="transparent" points="165.5,-298.7416 165.5,-317.7416 205.5,-317.7416 205.5,-298.7416 165.5,-298.7416"/>
<polygon fill="none" stroke="#000000" points="165.5,-298.7416 165.5,-317.7416 205.5,-317.7416 205.5,-298.7416 165.5,-298.7416"/>
<text text-anchor="start" x="175.6105" y="-304.8416" font-family="Helvetica,sans-Serif" font-size="11.00" fill="#000000">1 row</text>
<polygon fill="#ffffff" stroke="transparent" points="205.5,-298.7416 205.5,-317.7416 235.5,-317.7416 235.5,-298.7416 205.5,-298.7416"/>
<polygon fill="none" stroke="#000000" points="205.5,-298.7416 205.5,-317.7416 235.5,-317.7416 235.5,-298.7416 205.5,-298.7416"/>
<text text-anchor="start" x="216.9053" y="-304.8416" font-family="Helvetica,sans-Serif" font-size="11.00" fill="#000000">5 &gt;</text>
</a>
</g>
</g>
<!-- bookings&#45;&gt;shops -->
<g id="edge4" class="edge">
<title>bookings:w&#45;&gt;shops:e</title>
<path fill="none" stroke="#000000" d="M556.0787,-479.9263C482.4485,-481.5676 328.125,-492.8595 276,-460.7416 245.7265,-442.088 271.059,-391.7416 235.5,-391.7416"/>
<polygon fill="#000000" stroke="#000000" points="562.5007,-479.8441 570.5461,-483.3413 566.5003,-479.7929 570.5,-479.7416 570.5,-479.7416 570.5,-479.7416 566.5003,-479.7929 570.4539,-476.1419 562.5007,-479.8441 562.5007,-479.8441"/>
<ellipse fill="none" stroke="#000000" cx="559.3009" cy="-479.8851" rx="3.2" ry="3.2"/>
</g>
<!-- employees&#45;&gt;users -->
<g id="edge8" class="edge">
<title>employees:w&#45;&gt;users:e</title>
<path fill="none" stroke="#000000" d="M328.9001,-525.6367C232.8234,-524.1846 193.7711,-507.0478 120,-436.7416 88.5403,-406.7595 122.9585,-347.7416 79.5,-347.7416"/>
<polygon fill="#000000" stroke="#000000" points="335.5002,-525.6841 343.4741,-529.3415 339.5001,-525.7128 343.5,-525.7416 343.5,-525.7416 343.5,-525.7416 339.5001,-525.7128 343.5259,-522.1417 335.5002,-525.6841 335.5002,-525.6841"/>
<ellipse fill="none" stroke="#000000" cx="332.3003" cy="-525.6611" rx="3.2" ry="3.2"/>
</g>
<!-- employees&#45;&gt;shops -->
<g id="edge7" class="edge">
<title>employees:w&#45;&gt;shops:e</title>
<path fill="none" stroke="#000000" d="M329.0409,-524.6897C305.0915,-520.8135 295.6235,-506.368 276,-483.7416 246.7288,-449.9911 280.1755,-391.7416 235.5,-391.7416"/>
<polygon fill="#000000" stroke="#000000" points="335.5211,-525.1611 343.2388,-529.3321 339.5105,-525.4513 343.5,-525.7416 343.5,-525.7416 343.5,-525.7416 339.5105,-525.4513 343.7612,-522.1511 335.5211,-525.1611 335.5211,-525.1611"/>
<ellipse fill="none" stroke="#000000" cx="332.3295" cy="-524.9289" rx="3.2" ry="3.2"/>
</g>
<!-- services&#45;&gt;shops -->
<g id="edge15" class="edge">
<title>services:w&#45;&gt;shops:e</title>
<path fill="none" stroke="#000000" d="M271.776,-391.7416C259.7815,-391.7416 252.3229,-391.7416 235.5,-391.7416"/>
<polygon fill="#000000" stroke="#000000" points="278.5,-391.7417 286.5,-395.3416 282.5,-391.7416 286.5,-391.7416 286.5,-391.7416 286.5,-391.7416 282.5,-391.7416 286.5,-388.1416 278.5,-391.7417 278.5,-391.7417"/>
<ellipse fill="none" stroke="#000000" cx="275.3" cy="-391.7417" rx="3.2" ry="3.2"/>
</g>
<!-- shops&#45;&gt;users -->
<g id="edge16" class="edge">
<title>shops:w&#45;&gt;users:e</title>
<path fill="none" stroke="#000000" d="M113.9909,-347.7416C102.6774,-347.7416 95.4931,-347.7416 79.5,-347.7416"/>
<polygon fill="#000000" stroke="#000000" points="120.5,-347.7417 128.5,-351.3416 124.5,-347.7416 128.5,-347.7416 128.5,-347.7416 128.5,-347.7416 124.5,-347.7416 128.5,-344.1416 120.5,-347.7417 120.5,-347.7417"/>
<ellipse fill="none" stroke="#000000" cx="117.3" cy="-347.7417" rx="3.2" ry="3.2"/>
</g>
<!-- employee_services -->
<g id="node6" class="node">
<title>employee_services</title>
<g id="a_node6"><a xlink:href="../../tables/employee_services.html" xlink:title="employee_services" target="_top">
<polygon fill="#ffffff" stroke="transparent" points="548,-257.7416 548,-343.7416 685,-343.7416 685,-257.7416 548,-257.7416"/>
<polygon fill="#f5f5f5" stroke="transparent" points="548.5,-320.7416 548.5,-343.7416 685.5,-343.7416 685.5,-320.7416 548.5,-320.7416"/>
<polygon fill="none" stroke="#000000" points="548.5,-320.7416 548.5,-343.7416 685.5,-343.7416 685.5,-320.7416 548.5,-320.7416"/>
<text text-anchor="start" x="553.4376" y="-329.8416" font-family="Helvetica,sans-Serif" font-weight="bold" font-size="11.00" fill="#000000">employee_services</text>
<text text-anchor="start" x="651.0219" y="-328.8416" font-family="Helvetica,sans-Serif" font-size="11.00" fill="#000000">[table]</text>
<polygon fill="none" stroke="#000000" points="548.5,-298.7416 548.5,-320.7416 685.5,-320.7416 685.5,-298.7416 548.5,-298.7416"/>
<image xlink:href="../../images/primaryKeys.png" width="11px" height="12px" preserveAspectRatio="xMinYMin meet" x="553.5" y="-315.742"/>
<text text-anchor="start" x="571.5" y="-305.8416" font-family="Helvetica,sans-Serif" font-size="11.00" fill="#000000">employee_id</text>
<polygon fill="none" stroke="#000000" points="548.5,-276.7416 548.5,-298.7416 685.5,-298.7416 685.5,-276.7416 548.5,-276.7416"/>
<image xlink:href="../../images/primaryKeys.png" width="11px" height="12px" preserveAspectRatio="xMinYMin meet" x="553.5" y="-293.742"/>
<text text-anchor="start" x="571.5" y="-283.8416" font-family="Helvetica,sans-Serif" font-size="11.00" fill="#000000">service_id</text>
<polygon fill="#ffffff" stroke="transparent" points="548.5,-257.7416 548.5,-276.7416 602.5,-276.7416 602.5,-257.7416 548.5,-257.7416"/>
<polygon fill="none" stroke="#000000" points="548.5,-257.7416 548.5,-276.7416 602.5,-276.7416 602.5,-257.7416 548.5,-257.7416"/>
<text text-anchor="start" x="551.5" y="-263.8416" font-family="Helvetica,sans-Serif" font-size="11.00" fill="#000000">&lt; 2</text>
<polygon fill="#ffffff" stroke="transparent" points="602.5,-257.7416 602.5,-276.7416 656.5,-276.7416 656.5,-257.7416 602.5,-257.7416"/>
<polygon fill="none" stroke="#000000" points="602.5,-257.7416 602.5,-276.7416 656.5,-276.7416 656.5,-257.7416 602.5,-257.7416"/>
<text text-anchor="start" x="621.1105" y="-263.8416" font-family="Helvetica,sans-Serif" font-size="11.00" fill="#000000">0 rows</text>
<polygon fill="#ffffff" stroke="transparent" points="656.5,-257.7416 656.5,-276.7416 685.5,-276.7416 685.5,-257.7416 656.5,-257.7416"/>
<polygon fill="none" stroke="#000000" points="656.5,-257.7416 656.5,-276.7416 685.5,-276.7416 685.5,-257.7416 656.5,-257.7416"/>
<text text-anchor="start" x="676.3862" y="-263.8416" font-family="Helvetica,sans-Serif" font-size="11.00" fill="#000000"> &#160;</text>
</a>
</g>
</g>
<!-- employee_services&#45;&gt;employees -->
<g id="edge5" class="edge">
<title>employee_services:w&#45;&gt;employees:e</title>
<path fill="none" stroke="#000000" d="M533.9338,-311.5145C488.6767,-324.4882 539.6419,-405.8192 507,-460.7416 485.7217,-496.5439 481.1481,-525.7416 439.5,-525.7416"/>
<polygon fill="#000000" stroke="#000000" points="540.5586,-310.7082 548.935,-313.3152 544.5293,-310.2249 548.5,-309.7416 548.5,-309.7416 548.5,-309.7416 544.5293,-310.2249 548.065,-306.168 540.5586,-310.7082 540.5586,-310.7082"/>
<ellipse fill="none" stroke="#000000" cx="537.382" cy="-311.0948" rx="3.2" ry="3.2"/>
</g>
<!-- employee_services&#45;&gt;services -->
<g id="edge6" class="edge">
<title>employee_services:w&#45;&gt;services:e</title>
<path fill="none" stroke="#000000" d="M534.2844,-291.1118C500.4826,-311.1494 552.0136,-413.7416 497.5,-413.7416"/>
<polygon fill="#000000" stroke="#000000" points="540.7158,-289.5871 549.3305,-291.2445 544.6079,-288.6644 548.5,-287.7416 548.5,-287.7416 548.5,-287.7416 544.6079,-288.6644 547.6695,-284.2387 540.7158,-289.5871 540.7158,-289.5871"/>
<ellipse fill="none" stroke="#000000" cx="537.6021" cy="-290.3253" rx="3.2" ry="3.2"/>
</g>
<!-- favorite_shops -->
<g id="node7" class="node">
<title>favorite_shops</title>
<g id="a_node7"><a xlink:href="../../tables/favorite_shops.html" xlink:title="favorite_shops" target="_top">
<polygon fill="#ffffff" stroke="transparent" points="334.5,-74.2416 334.5,-135.2416 448.5,-135.2416 448.5,-74.2416 334.5,-74.2416"/>
<polygon fill="#f5f5f5" stroke="transparent" points="334.5,-111.7416 334.5,-134.7416 448.5,-134.7416 448.5,-111.7416 334.5,-111.7416"/>
<polygon fill="none" stroke="#000000" points="334.5,-111.7416 334.5,-134.7416 448.5,-134.7416 448.5,-111.7416 334.5,-111.7416"/>
<text text-anchor="start" x="339.2396" y="-120.8416" font-family="Helvetica,sans-Serif" font-weight="bold" font-size="11.00" fill="#000000">favorite_shops</text>
<text text-anchor="start" x="414.0219" y="-119.8416" font-family="Helvetica,sans-Serif" font-size="11.00" fill="#000000">[table]</text>
<polygon fill="none" stroke="#000000" points="334.5,-92.7416 334.5,-111.7416 448.5,-111.7416 448.5,-92.7416 334.5,-92.7416"/>
<text text-anchor="start" x="337.5" y="-98.8416" font-family="Helvetica,sans-Serif" font-size="11.00" fill="#000000">...</text>
<polygon fill="#ffffff" stroke="transparent" points="334.5,-73.7416 334.5,-92.7416 376.5,-92.7416 376.5,-73.7416 334.5,-73.7416"/>
<polygon fill="none" stroke="#000000" points="334.5,-73.7416 334.5,-92.7416 376.5,-92.7416 376.5,-73.7416 334.5,-73.7416"/>
<text text-anchor="start" x="337.5" y="-79.8416" font-family="Helvetica,sans-Serif" font-size="11.00" fill="#000000">&lt; 2</text>
<polygon fill="#ffffff" stroke="transparent" points="376.5,-73.7416 376.5,-92.7416 425.5,-92.7416 425.5,-73.7416 376.5,-73.7416"/>
<polygon fill="none" stroke="#000000" points="376.5,-73.7416 376.5,-92.7416 425.5,-92.7416 425.5,-73.7416 376.5,-73.7416"/>
<text text-anchor="start" x="390.1105" y="-79.8416" font-family="Helvetica,sans-Serif" font-size="11.00" fill="#000000">0 rows</text>
<polygon fill="#ffffff" stroke="transparent" points="425.5,-73.7416 425.5,-92.7416 448.5,-92.7416 448.5,-73.7416 425.5,-73.7416"/>
<polygon fill="none" stroke="#000000" points="425.5,-73.7416 425.5,-92.7416 448.5,-92.7416 448.5,-73.7416 425.5,-73.7416"/>
<text text-anchor="start" x="439.3862" y="-79.8416" font-family="Helvetica,sans-Serif" font-size="11.00" fill="#000000"> &#160;</text>
</a>
</g>
</g>
<!-- favorite_shops&#45;&gt;users -->
<g id="edge10" class="edge">
<title>favorite_shops:w&#45;&gt;users:e</title>
<path fill="none" stroke="#000000" d="M320.2585,-105.6693C287.3001,-120.3762 218.3255,-177.1453 120,-288.7416 98.9737,-312.6058 111.3057,-347.7416 79.5,-347.7416"/>
<polygon fill="#000000" stroke="#000000" points="326.7879,-103.8686 335.4571,-105.212 330.644,-102.8051 334.5,-101.7416 334.5,-101.7416 334.5,-101.7416 330.644,-102.8051 333.5429,-98.2712 326.7879,-103.8686 326.7879,-103.8686"/>
<ellipse fill="none" stroke="#000000" cx="323.7031" cy="-104.7194" rx="3.2" ry="3.2"/>
</g>
<!-- favorite_shops&#45;&gt;shops -->
<g id="edge9" class="edge">
<title>favorite_shops:w&#45;&gt;shops:e</title>
<path fill="none" stroke="#000000" d="M319.8629,-103.2289C297.9992,-108.2158 290.085,-125.4101 276,-149.7416 248.683,-196.9309 290.0257,-391.7416 235.5,-391.7416"/>
<polygon fill="#000000" stroke="#000000" points="326.541,-102.5504 334.8639,-105.3232 330.5205,-102.146 334.5,-101.7416 334.5,-101.7416 334.5,-101.7416 330.5205,-102.146 334.1361,-98.16 326.541,-102.5504 326.541,-102.5504"/>
<ellipse fill="none" stroke="#000000" cx="323.3574" cy="-102.8739" rx="3.2" ry="3.2"/>
</g>
<!-- reviews -->
<g id="node8" class="node">
<title>reviews</title>
<g id="a_node8"><a xlink:href="../../tables/reviews.html" xlink:title="reviews" target="_top">
<polygon fill="#ffffff" stroke="transparent" points="734,-303.2416 734,-364.2416 814,-364.2416 814,-303.2416 734,-303.2416"/>
<polygon fill="#f5f5f5" stroke="transparent" points="734,-340.7416 734,-363.7416 814,-363.7416 814,-340.7416 734,-340.7416"/>
<polygon fill="none" stroke="#000000" points="734,-340.7416 734,-363.7416 814,-363.7416 814,-340.7416 734,-340.7416"/>
<text text-anchor="start" x="738.8633" y="-349.8416" font-family="Helvetica,sans-Serif" font-weight="bold" font-size="11.00" fill="#000000">reviews</text>
<text text-anchor="start" x="779.5219" y="-348.8416" font-family="Helvetica,sans-Serif" font-size="11.00" fill="#000000">[table]</text>
<polygon fill="none" stroke="#000000" points="734,-321.7416 734,-340.7416 814,-340.7416 814,-321.7416 734,-321.7416"/>
<text text-anchor="start" x="737" y="-327.8416" font-family="Helvetica,sans-Serif" font-size="11.00" fill="#000000">...</text>
<polygon fill="#ffffff" stroke="transparent" points="734,-302.7416 734,-321.7416 759,-321.7416 759,-302.7416 734,-302.7416"/>
<polygon fill="none" stroke="#000000" points="734,-302.7416 734,-321.7416 759,-321.7416 759,-302.7416 734,-302.7416"/>
<text text-anchor="start" x="737" y="-308.8416" font-family="Helvetica,sans-Serif" font-size="11.00" fill="#000000">&lt; 4</text>
<polygon fill="#ffffff" stroke="transparent" points="759,-302.7416 759,-321.7416 799,-321.7416 799,-302.7416 759,-302.7416"/>
<polygon fill="none" stroke="#000000" points="759,-302.7416 759,-321.7416 799,-321.7416 799,-302.7416 759,-302.7416"/>
<text text-anchor="start" x="763.6105" y="-308.8416" font-family="Helvetica,sans-Serif" font-size="11.00" fill="#000000">0 rows</text>
<polygon fill="#ffffff" stroke="transparent" points="799,-302.7416 799,-321.7416 814,-321.7416 814,-302.7416 799,-302.7416"/>
<polygon fill="none" stroke="#000000" points="799,-302.7416 799,-321.7416 814,-321.7416 814,-302.7416 799,-302.7416"/>
<text text-anchor="start" x="804.8862" y="-308.8416" font-family="Helvetica,sans-Serif" font-size="11.00" fill="#000000"> &#160;</text>
</a>
</g>
</g>
<!-- reviews&#45;&gt;bookings -->
<g id="edge11" class="edge">
<title>reviews:w&#45;&gt;bookings:e</title>
<path fill="none" stroke="#000000" d="M719.4979,-333.0296C663.8108,-353.3214 740.0862,-501.7416 663.5,-501.7416"/>
<polygon fill="#000000" stroke="#000000" points="726.0977,-331.9884 734.5611,-334.2976 730.0489,-331.365 734,-330.7416 734,-330.7416 734,-330.7416 730.0489,-331.365 733.4389,-327.1856 726.0977,-331.9884 726.0977,-331.9884"/>
<ellipse fill="none" stroke="#000000" cx="722.9368" cy="-332.4871" rx="3.2" ry="3.2"/>
</g>
<!-- reviews&#45;&gt;users -->
<g id="edge12" class="edge">
<title>reviews:w&#45;&gt;users:e</title>
<path fill="none" stroke="#000000" d="M719.5234,-328.9277C673.6946,-315.3089 732.3414,-228.1755 693,-175.7416 577.8292,-22.2426 460.1596,-9.7833 276,-63.7416 196.9671,-86.8981 167.0913,-96.1781 120,-163.7416 72.1197,-232.4372 163.2353,-347.7416 79.5,-347.7416"/>
<polygon fill="#000000" stroke="#000000" points="726.0621,-329.7469 733.5524,-334.3137 730.031,-330.2443 734,-330.7416 734,-330.7416 734,-330.7416 730.031,-330.2443 734.4476,-327.1695 726.0621,-329.7469 726.0621,-329.7469"/>
<ellipse fill="none" stroke="#000000" cx="722.8869" cy="-329.3491" rx="3.2" ry="3.2"/>
</g>
<!-- reviews&#45;&gt;employees -->
<g id="edge13" class="edge">
<title>reviews:w&#45;&gt;employees:e</title>
<path fill="none" stroke="#000000" d="M719.5275,-332.1762C650.5714,-347.8576 763.9987,-487.9518 693,-546.7416 605.9244,-618.8438 552.5526,-525.7416 439.5,-525.7416"/>
<polygon fill="#000000" stroke="#000000" points="726.039,-331.5308 734.3551,-334.3241 730.0195,-331.1362 734,-330.7416 734,-330.7416 734,-330.7416 730.0195,-331.1362 733.6449,-327.1592 726.039,-331.5308 726.039,-331.5308"/>
<ellipse fill="none" stroke="#000000" cx="722.8546" cy="-331.8464" rx="3.2" ry="3.2"/>
</g>
<!-- reviews&#45;&gt;shops -->
<g id="edge14" class="edge">
<title>reviews:w&#45;&gt;shops:e</title>
<path fill="none" stroke="#000000" d="M719.9736,-327.3688C700.5393,-314.9841 718.7476,-271.5037 693,-247.7416 623.8377,-183.9128 348.372,-113.5766 276,-173.7416 200.2197,-236.7401 334.0467,-391.7416 235.5,-391.7416"/>
<polygon fill="#000000" stroke="#000000" points="726.2217,-328.8712 733.1583,-334.2418 730.1109,-329.8064 734,-330.7416 734,-330.7416 734,-330.7416 730.1109,-329.8064 734.8417,-327.2414 726.2217,-328.8712 726.2217,-328.8712"/>
<ellipse fill="none" stroke="#000000" cx="723.1104" cy="-328.123" rx="3.2" ry="3.2"/>
</g>
</g>
</svg>
