<?xml version="1.0" encoding="UTF-8" standalone="no"?>
<!DOCTYPE svg PUBLIC "-//W3C//DTD SVG 1.1//EN"
 "http://www.w3.org/Graphics/SVG/1.1/DTD/svg11.dtd">
<!-- Generated by graphviz version 2.40.1 (20161225.0304)
 -->
<!-- Title: oneDegreeRelationshipsDiagram Pages: 1 -->
<svg width="581pt" height="403pt"
 viewBox="0.00 0.00 581.00 402.70" xmlns="http://www.w3.org/2000/svg" xmlns:xlink="http://www.w3.org/1999/xlink">
<g id="graph0" class="graph" transform="scale(1 1) rotate(0) translate(4 398.7)">
<title>oneDegreeRelationshipsDiagram</title>
<polygon fill="#ffffff" stroke="transparent" points="-4,4 -4,-398.7 577,-398.7 577,4 -4,4"/>
<text text-anchor="middle" x="72.4936" y="-7.3" font-family="Helvetica,sans-Serif" font-size="11.00" fill="#000000">Generated by SchemaSpy</text>
<!-- bookings -->
<g id="node1" class="node">
<title>bookings</title>
<g id="a_node1"><a xlink:href="../../tables/bookings.html" xlink:title="bookings" target="_top">
<polygon fill="#ffffff" stroke="transparent" points="450,-219.7 450,-390.7 543,-390.7 543,-219.7 450,-219.7"/>
<polygon fill="#f5f5f5" stroke="transparent" points="450.5,-367.2 450.5,-390.2 543.5,-390.2 543.5,-367.2 450.5,-367.2"/>
<polygon fill="none" stroke="#000000" points="450.5,-367.2 450.5,-390.2 543.5,-390.2 543.5,-367.2 450.5,-367.2"/>
<text text-anchor="start" x="455.5" y="-376.3" font-family="Helvetica,sans-Serif" font-weight="bold" font-size="11.00" fill="#000000">bookings</text>
<text text-anchor="start" x="508.5437" y="-375.3" font-family="Helvetica,sans-Serif" font-size="11.00" fill="#000000">[table]</text>
<polygon fill="none" stroke="#000000" points="450.5,-345.2 450.5,-367.2 543.5,-367.2 543.5,-345.2 450.5,-345.2"/>
<image xlink:href="../../images/primaryKeys.png" width="11px" height="12px" preserveAspectRatio="xMinYMin meet" x="455.5" y="-362.2"/>
<text text-anchor="start" x="470.5" y="-352.3" font-family="Helvetica,sans-Serif" font-size="11.00" fill="#000000">id</text>
<polygon fill="#ffffff" stroke="transparent" points="450.5,-323.2 450.5,-345.2 543.5,-345.2 543.5,-323.2 450.5,-323.2"/>
<polygon fill="none" stroke="#000000" points="450.5,-323.2 450.5,-345.2 543.5,-345.2 543.5,-323.2 450.5,-323.2"/>
<image xlink:href="../../images/foreignKeys.png" width="11px" height="12px" preserveAspectRatio="xMinYMin meet" x="455.5" y="-340.2"/>
<text text-anchor="start" x="470.5" y="-330.3" font-family="Helvetica,sans-Serif" font-size="11.00" fill="#000000">shop_id</text>
<polygon fill="#ffffff" stroke="transparent" points="450.5,-301.2 450.5,-323.2 543.5,-323.2 543.5,-301.2 450.5,-301.2"/>
<polygon fill="none" stroke="#000000" points="450.5,-301.2 450.5,-323.2 543.5,-323.2 543.5,-301.2 450.5,-301.2"/>
<image xlink:href="../../images/foreignKeys.png" width="11px" height="12px" preserveAspectRatio="xMinYMin meet" x="455.5" y="-318.2"/>
<text text-anchor="start" x="470.5" y="-308.3" font-family="Helvetica,sans-Serif" font-size="11.00" fill="#000000">customer_id</text>
<polygon fill="#ffffff" stroke="transparent" points="450.5,-279.2 450.5,-301.2 543.5,-301.2 543.5,-279.2 450.5,-279.2"/>
<polygon fill="none" stroke="#000000" points="450.5,-279.2 450.5,-301.2 543.5,-301.2 543.5,-279.2 450.5,-279.2"/>
<image xlink:href="../../images/foreignKeys.png" width="11px" height="12px" preserveAspectRatio="xMinYMin meet" x="455.5" y="-296.2"/>
<text text-anchor="start" x="470.5" y="-286.3" font-family="Helvetica,sans-Serif" font-size="11.00" fill="#000000">employee_id</text>
<polygon fill="none" stroke="#000000" points="450.5,-257.2 450.5,-279.2 543.5,-279.2 543.5,-257.2 450.5,-257.2"/>
<image xlink:href="../../images/foreignKeys.png" width="11px" height="12px" preserveAspectRatio="xMinYMin meet" x="455.5" y="-274.2"/>
<text text-anchor="start" x="470.5" y="-264.3" font-family="Helvetica,sans-Serif" font-size="11.00" fill="#000000">service_id</text>
<polygon fill="none" stroke="#000000" points="450.5,-238.2 450.5,-257.2 543.5,-257.2 543.5,-238.2 450.5,-238.2"/>
<text text-anchor="start" x="453.5" y="-244.3" font-family="Helvetica,sans-Serif" font-size="11.00" fill="#000000">...</text>
<polygon fill="#ffffff" stroke="transparent" points="450.5,-219.2 450.5,-238.2 477.5,-238.2 477.5,-219.2 450.5,-219.2"/>
<polygon fill="none" stroke="#000000" points="450.5,-219.2 450.5,-238.2 477.5,-238.2 477.5,-219.2 450.5,-219.2"/>
<text text-anchor="start" x="453.5" y="-225.3" font-family="Helvetica,sans-Serif" font-size="11.00" fill="#000000">&lt; 4</text>
<polygon fill="#ffffff" stroke="transparent" points="477.5,-219.2 477.5,-238.2 518.5,-238.2 518.5,-219.2 477.5,-219.2"/>
<polygon fill="none" stroke="#000000" points="477.5,-219.2 477.5,-238.2 518.5,-238.2 518.5,-219.2 477.5,-219.2"/>
<text text-anchor="start" x="483.1105" y="-225.3" font-family="Helvetica,sans-Serif" font-size="11.00" fill="#000000">0 rows</text>
<polygon fill="#ffffff" stroke="transparent" points="518.5,-219.2 518.5,-238.2 543.5,-238.2 543.5,-219.2 518.5,-219.2"/>
<polygon fill="none" stroke="#000000" points="518.5,-219.2 518.5,-238.2 543.5,-238.2 543.5,-219.2 518.5,-219.2"/>
<text text-anchor="start" x="524.9053" y="-225.3" font-family="Helvetica,sans-Serif" font-size="11.00" fill="#000000">1 &gt;</text>
</a>
</g>
</g>
<!-- services -->
<g id="node2" class="node">
<title>services</title>
<g id="a_node2"><a xlink:href="../../tables/services.html" xlink:title="services" target="_top">
<polygon fill="#ffffff" stroke="transparent" points="164,-38.2 164,-304.2 379,-304.2 379,-38.2 164,-38.2"/>
<polygon fill="#f5f5f5" stroke="transparent" points="166.5,-279.2 166.5,-302.2 377.5,-302.2 377.5,-279.2 166.5,-279.2"/>
<polygon fill="none" stroke="#000000" points="166.5,-279.2 166.5,-302.2 377.5,-302.2 377.5,-279.2 166.5,-279.2"/>
<text text-anchor="start" x="171.5" y="-288.3" font-family="Helvetica,sans-Serif" font-weight="bold" font-size="11.00" fill="#000000">services</text>
<text text-anchor="start" x="342.5437" y="-287.3" font-family="Helvetica,sans-Serif" font-size="11.00" fill="#000000">[table]</text>
<polygon fill="none" stroke="#000000" points="166.5,-257.2 166.5,-279.2 287.5,-279.2 287.5,-257.2 166.5,-257.2"/>
<image xlink:href="../../images/primaryKeys.png" width="11px" height="12px" preserveAspectRatio="xMinYMin meet" x="171.5" y="-274.2"/>
<text text-anchor="start" x="186.5" y="-264.3" font-family="Helvetica,sans-Serif" font-size="11.00" fill="#000000">id</text>
<polygon fill="none" stroke="#000000" points="287.5,-257.2 287.5,-279.2 377.5,-279.2 377.5,-257.2 287.5,-257.2"/>
<text text-anchor="start" x="290.5" y="-264.9" font-family="Helvetica,sans-Serif" font-size="11.00" fill="#000000">bigserial[19]</text>
<polygon fill="#ffffff" stroke="transparent" points="166.5,-235.2 166.5,-257.2 287.5,-257.2 287.5,-235.2 166.5,-235.2"/>
<polygon fill="none" stroke="#000000" points="166.5,-235.2 166.5,-257.2 287.5,-257.2 287.5,-235.2 166.5,-235.2"/>
<image xlink:href="../../images/foreignKeys.png" width="11px" height="12px" preserveAspectRatio="xMinYMin meet" x="171.5" y="-252.2"/>
<text text-anchor="start" x="186.5" y="-242.3" font-family="Helvetica,sans-Serif" font-size="11.00" fill="#000000">shop_id</text>
<polygon fill="none" stroke="#000000" points="287.5,-235.2 287.5,-257.2 377.5,-257.2 377.5,-235.2 287.5,-235.2"/>
<text text-anchor="start" x="290.5" y="-242.9" font-family="Helvetica,sans-Serif" font-size="11.00" fill="#000000">int8[19]</text>
<polygon fill="none" stroke="#000000" points="166.5,-213.2 166.5,-235.2 287.5,-235.2 287.5,-213.2 166.5,-213.2"/>
<text text-anchor="start" x="186.5" y="-220.3" font-family="Helvetica,sans-Serif" font-size="11.00" fill="#000000">name</text>
<polygon fill="none" stroke="#000000" points="287.5,-213.2 287.5,-235.2 377.5,-235.2 377.5,-213.2 287.5,-213.2"/>
<text text-anchor="start" x="290.5" y="-220.9" font-family="Helvetica,sans-Serif" font-size="11.00" fill="#000000">varchar[100]</text>
<polygon fill="none" stroke="#000000" points="166.5,-191.2 166.5,-213.2 287.5,-213.2 287.5,-191.2 166.5,-191.2"/>
<text text-anchor="start" x="186.5" y="-198.3" font-family="Helvetica,sans-Serif" font-size="11.00" fill="#000000">description</text>
<polygon fill="none" stroke="#000000" points="287.5,-191.2 287.5,-213.2 377.5,-213.2 377.5,-191.2 287.5,-191.2"/>
<text text-anchor="start" x="290.0043" y="-198.9" font-family="Helvetica,sans-Serif" font-size="11.00" fill="#000000">text[2147483647]</text>
<polygon fill="none" stroke="#000000" points="166.5,-169.2 166.5,-191.2 287.5,-191.2 287.5,-169.2 166.5,-169.2"/>
<text text-anchor="start" x="186.5" y="-176.3" font-family="Helvetica,sans-Serif" font-size="11.00" fill="#000000">duration_minutes</text>
<polygon fill="none" stroke="#000000" points="287.5,-169.2 287.5,-191.2 377.5,-191.2 377.5,-169.2 287.5,-169.2"/>
<text text-anchor="start" x="290.5" y="-176.9" font-family="Helvetica,sans-Serif" font-size="11.00" fill="#000000">int4[10]</text>
<polygon fill="none" stroke="#000000" points="166.5,-147.2 166.5,-169.2 287.5,-169.2 287.5,-147.2 166.5,-147.2"/>
<text text-anchor="start" x="186.5" y="-154.3" font-family="Helvetica,sans-Serif" font-size="11.00" fill="#000000">price</text>
<polygon fill="none" stroke="#000000" points="287.5,-147.2 287.5,-169.2 377.5,-169.2 377.5,-147.2 287.5,-147.2"/>
<text text-anchor="start" x="290.5" y="-154.9" font-family="Helvetica,sans-Serif" font-size="11.00" fill="#000000">numeric[10,2]</text>
<polygon fill="none" stroke="#000000" points="166.5,-125.2 166.5,-147.2 287.5,-147.2 287.5,-125.2 166.5,-125.2"/>
<text text-anchor="start" x="186.5" y="-132.3" font-family="Helvetica,sans-Serif" font-size="11.00" fill="#000000">image_url</text>
<polygon fill="none" stroke="#000000" points="287.5,-125.2 287.5,-147.2 377.5,-147.2 377.5,-125.2 287.5,-125.2"/>
<text text-anchor="start" x="290.0043" y="-132.9" font-family="Helvetica,sans-Serif" font-size="11.00" fill="#000000">text[2147483647]</text>
<polygon fill="none" stroke="#000000" points="166.5,-103.2 166.5,-125.2 287.5,-125.2 287.5,-103.2 166.5,-103.2"/>
<text text-anchor="start" x="186.5" y="-110.3" font-family="Helvetica,sans-Serif" font-size="11.00" fill="#000000">is_active</text>
<polygon fill="none" stroke="#000000" points="287.5,-103.2 287.5,-125.2 377.5,-125.2 377.5,-103.2 287.5,-103.2"/>
<text text-anchor="start" x="290.5" y="-110.9" font-family="Helvetica,sans-Serif" font-size="11.00" fill="#000000">bool[1]</text>
<polygon fill="none" stroke="#000000" points="166.5,-81.2 166.5,-103.2 287.5,-103.2 287.5,-81.2 166.5,-81.2"/>
<text text-anchor="start" x="186.5" y="-88.3" font-family="Helvetica,sans-Serif" font-size="11.00" fill="#000000">created_at</text>
<polygon fill="none" stroke="#000000" points="287.5,-81.2 287.5,-103.2 377.5,-103.2 377.5,-81.2 287.5,-81.2"/>
<text text-anchor="start" x="290.5" y="-88.9" font-family="Helvetica,sans-Serif" font-size="11.00" fill="#000000">timestamp[29,6]</text>
<polygon fill="none" stroke="#000000" points="166.5,-59.2 166.5,-81.2 287.5,-81.2 287.5,-59.2 166.5,-59.2"/>
<text text-anchor="start" x="186.5" y="-66.3" font-family="Helvetica,sans-Serif" font-size="11.00" fill="#000000">updated_at</text>
<polygon fill="none" stroke="#000000" points="287.5,-59.2 287.5,-81.2 377.5,-81.2 377.5,-59.2 287.5,-59.2"/>
<text text-anchor="start" x="290.5" y="-66.9" font-family="Helvetica,sans-Serif" font-size="11.00" fill="#000000">timestamp[29,6]</text>
<polygon fill="#ffffff" stroke="transparent" points="166.5,-40.2 166.5,-59.2 218.5,-59.2 218.5,-40.2 166.5,-40.2"/>
<polygon fill="none" stroke="#000000" points="166.5,-40.2 166.5,-59.2 218.5,-59.2 218.5,-40.2 166.5,-40.2"/>
<text text-anchor="start" x="169.5" y="-46.3" font-family="Helvetica,sans-Serif" font-size="11.00" fill="#000000">&lt; 1</text>
<polygon fill="#ffffff" stroke="transparent" points="218.5,-40.2 218.5,-59.2 287.5,-59.2 287.5,-40.2 218.5,-40.2"/>
<polygon fill="none" stroke="#000000" points="218.5,-40.2 218.5,-59.2 287.5,-59.2 287.5,-40.2 218.5,-40.2"/>
<text text-anchor="start" x="252.1105" y="-46.3" font-family="Helvetica,sans-Serif" font-size="11.00" fill="#000000">0 rows</text>
<polygon fill="#ffffff" stroke="transparent" points="287.5,-40.2 287.5,-59.2 377.5,-59.2 377.5,-40.2 287.5,-40.2"/>
<polygon fill="none" stroke="#000000" points="287.5,-40.2 287.5,-59.2 377.5,-59.2 377.5,-40.2 287.5,-40.2"/>
<text text-anchor="start" x="358.9053" y="-46.3" font-family="Helvetica,sans-Serif" font-size="11.00" fill="#000000">2 &gt;</text>
<polygon fill="none" stroke="#000000" stroke-width="2" points="165,-39.2 165,-303.2 378,-303.2 378,-39.2 165,-39.2"/>
</a>
</g>
</g>
<!-- bookings&#45;&gt;services -->
<g id="edge1" class="edge">
<title>bookings:w&#45;&gt;services:e</title>
<path fill="none" stroke="#000000" d="M435.98,-268.2C414.6442,-268.2 404.4948,-268.2 377.5,-268.2"/>
<polygon fill="#000000" stroke="#000000" points="442.5,-268.2001 450.5,-271.8 446.5,-268.2 450.5,-268.2 450.5,-268.2 450.5,-268.2 446.5,-268.2 450.5,-264.6 442.5,-268.2001 442.5,-268.2001"/>
<ellipse fill="none" stroke="#000000" cx="439.3" cy="-268.2001" rx="3.2" ry="3.2"/>
</g>
<!-- shops -->
<g id="node3" class="node">
<title>shops</title>
<g id="a_node3"><a xlink:href="../../tables/shops.html" xlink:title="shops" target="_top">
<polygon fill="#ffffff" stroke="transparent" points="8,-194.7 8,-321.7 115,-321.7 115,-194.7 8,-194.7"/>
<polygon fill="#f5f5f5" stroke="transparent" points="8.5,-298.2 8.5,-321.2 115.5,-321.2 115.5,-298.2 8.5,-298.2"/>
<polygon fill="none" stroke="#000000" points="8.5,-298.2 8.5,-321.2 115.5,-321.2 115.5,-298.2 8.5,-298.2"/>
<text text-anchor="start" x="13.5" y="-307.3" font-family="Helvetica,sans-Serif" font-weight="bold" font-size="11.00" fill="#000000">shops</text>
<text text-anchor="start" x="80.5437" y="-306.3" font-family="Helvetica,sans-Serif" font-size="11.00" fill="#000000">[table]</text>
<polygon fill="none" stroke="#000000" points="8.5,-276.2 8.5,-298.2 115.5,-298.2 115.5,-276.2 8.5,-276.2"/>
<image xlink:href="../../images/primaryKeys.png" width="11px" height="12px" preserveAspectRatio="xMinYMin meet" x="13.5" y="-293.2"/>
<text text-anchor="start" x="28.5" y="-283.3" font-family="Helvetica,sans-Serif" font-size="11.00" fill="#000000">id</text>
<polygon fill="#ffffff" stroke="transparent" points="8.5,-254.2 8.5,-276.2 115.5,-276.2 115.5,-254.2 8.5,-254.2"/>
<polygon fill="none" stroke="#000000" points="8.5,-254.2 8.5,-276.2 115.5,-276.2 115.5,-254.2 8.5,-254.2"/>
<text text-anchor="start" x="28.5" y="-261.3" font-family="Helvetica,sans-Serif" font-size="11.00" fill="#000000">city</text>
<polygon fill="#ffffff" stroke="transparent" points="8.5,-232.2 8.5,-254.2 115.5,-254.2 115.5,-232.2 8.5,-232.2"/>
<polygon fill="none" stroke="#000000" points="8.5,-232.2 8.5,-254.2 115.5,-254.2 115.5,-232.2 8.5,-232.2"/>
<image xlink:href="../../images/foreignKeys.png" width="11px" height="12px" preserveAspectRatio="xMinYMin meet" x="13.5" y="-249.2"/>
<text text-anchor="start" x="28.5" y="-239.3" font-family="Helvetica,sans-Serif" font-size="11.00" fill="#000000">owner_id</text>
<polygon fill="none" stroke="#000000" points="8.5,-213.2 8.5,-232.2 115.5,-232.2 115.5,-213.2 8.5,-213.2"/>
<text text-anchor="start" x="11.5" y="-219.3" font-family="Helvetica,sans-Serif" font-size="11.00" fill="#000000">...</text>
<polygon fill="#ffffff" stroke="transparent" points="8.5,-194.2 8.5,-213.2 45.5,-213.2 45.5,-194.2 8.5,-194.2"/>
<polygon fill="none" stroke="#000000" points="8.5,-194.2 8.5,-213.2 45.5,-213.2 45.5,-194.2 8.5,-194.2"/>
<text text-anchor="start" x="11.5" y="-200.3" font-family="Helvetica,sans-Serif" font-size="11.00" fill="#000000">&lt; 1</text>
<polygon fill="#ffffff" stroke="transparent" points="45.5,-194.2 45.5,-213.2 85.5,-213.2 85.5,-194.2 45.5,-194.2"/>
<polygon fill="none" stroke="#000000" points="45.5,-194.2 45.5,-213.2 85.5,-213.2 85.5,-194.2 45.5,-194.2"/>
<text text-anchor="start" x="55.6105" y="-200.3" font-family="Helvetica,sans-Serif" font-size="11.00" fill="#000000">1 row</text>
<polygon fill="#ffffff" stroke="transparent" points="85.5,-194.2 85.5,-213.2 115.5,-213.2 115.5,-194.2 85.5,-194.2"/>
<polygon fill="none" stroke="#000000" points="85.5,-194.2 85.5,-213.2 115.5,-213.2 115.5,-194.2 85.5,-194.2"/>
<text text-anchor="start" x="96.9053" y="-200.3" font-family="Helvetica,sans-Serif" font-size="11.00" fill="#000000">5 &gt;</text>
</a>
</g>
</g>
<!-- bookings&#45;&gt;shops -->
<g id="edge2" class="edge">
<title>bookings:w&#45;&gt;shops:e</title>
<path fill="none" stroke="#000000" d="M435.9032,-334.2997C316.2112,-335.9368 275.166,-356.6394 156,-315.2 135.3311,-308.0125 137.383,-287.2 115.5,-287.2"/>
<polygon fill="#000000" stroke="#000000" points="442.5002,-334.2547 450.5246,-337.7999 446.5001,-334.2274 450.5,-334.2 450.5,-334.2 450.5,-334.2 446.5001,-334.2274 450.4754,-330.6001 442.5002,-334.2547 442.5002,-334.2547"/>
<ellipse fill="none" stroke="#000000" cx="439.3003" cy="-334.2766" rx="3.2" ry="3.2"/>
</g>
<!-- services&#45;&gt;shops -->
<g id="edge4" class="edge">
<title>services:w&#45;&gt;shops:e</title>
<path fill="none" stroke="#000000" d="M152.6568,-250.5877C138.8325,-261.1646 138.6756,-287.2 115.5,-287.2"/>
<polygon fill="#000000" stroke="#000000" points="158.8739,-248.6172 167.5877,-249.6317 162.6869,-247.4086 166.5,-246.2 166.5,-246.2 166.5,-246.2 162.6869,-247.4086 165.4123,-242.7683 158.8739,-248.6172 158.8739,-248.6172"/>
<ellipse fill="none" stroke="#000000" cx="155.8235" cy="-249.5841" rx="3.2" ry="3.2"/>
</g>
<!-- employee_services -->
<g id="node4" class="node">
<title>employee_services</title>
<g id="a_node4"><a xlink:href="../../tables/employee_services.html" xlink:title="employee_services" target="_top">
<polygon fill="#ffffff" stroke="transparent" points="428,-112.2 428,-198.2 565,-198.2 565,-112.2 428,-112.2"/>
<polygon fill="#f5f5f5" stroke="transparent" points="428.5,-175.2 428.5,-198.2 565.5,-198.2 565.5,-175.2 428.5,-175.2"/>
<polygon fill="none" stroke="#000000" points="428.5,-175.2 428.5,-198.2 565.5,-198.2 565.5,-175.2 428.5,-175.2"/>
<text text-anchor="start" x="433.4376" y="-184.3" font-family="Helvetica,sans-Serif" font-weight="bold" font-size="11.00" fill="#000000">employee_services</text>
<text text-anchor="start" x="531.0219" y="-183.3" font-family="Helvetica,sans-Serif" font-size="11.00" fill="#000000">[table]</text>
<polygon fill="none" stroke="#000000" points="428.5,-153.2 428.5,-175.2 565.5,-175.2 565.5,-153.2 428.5,-153.2"/>
<image xlink:href="../../images/primaryKeys.png" width="11px" height="12px" preserveAspectRatio="xMinYMin meet" x="433.5" y="-170.2"/>
<text text-anchor="start" x="451.5" y="-160.3" font-family="Helvetica,sans-Serif" font-size="11.00" fill="#000000">employee_id</text>
<polygon fill="none" stroke="#000000" points="428.5,-131.2 428.5,-153.2 565.5,-153.2 565.5,-131.2 428.5,-131.2"/>
<image xlink:href="../../images/primaryKeys.png" width="11px" height="12px" preserveAspectRatio="xMinYMin meet" x="433.5" y="-148.2"/>
<text text-anchor="start" x="451.5" y="-138.3" font-family="Helvetica,sans-Serif" font-size="11.00" fill="#000000">service_id</text>
<polygon fill="#ffffff" stroke="transparent" points="428.5,-112.2 428.5,-131.2 482.5,-131.2 482.5,-112.2 428.5,-112.2"/>
<polygon fill="none" stroke="#000000" points="428.5,-112.2 428.5,-131.2 482.5,-131.2 482.5,-112.2 428.5,-112.2"/>
<text text-anchor="start" x="431.5" y="-118.3" font-family="Helvetica,sans-Serif" font-size="11.00" fill="#000000">&lt; 2</text>
<polygon fill="#ffffff" stroke="transparent" points="482.5,-112.2 482.5,-131.2 536.5,-131.2 536.5,-112.2 482.5,-112.2"/>
<polygon fill="none" stroke="#000000" points="482.5,-112.2 482.5,-131.2 536.5,-131.2 536.5,-112.2 482.5,-112.2"/>
<text text-anchor="start" x="501.1105" y="-118.3" font-family="Helvetica,sans-Serif" font-size="11.00" fill="#000000">0 rows</text>
<polygon fill="#ffffff" stroke="transparent" points="536.5,-112.2 536.5,-131.2 565.5,-131.2 565.5,-112.2 536.5,-112.2"/>
<polygon fill="none" stroke="#000000" points="536.5,-112.2 536.5,-131.2 565.5,-131.2 565.5,-112.2 536.5,-112.2"/>
<text text-anchor="start" x="556.3862" y="-118.3" font-family="Helvetica,sans-Serif" font-size="11.00" fill="#000000"> &#160;</text>
</a>
</g>
</g>
<!-- employee_services&#45;&gt;services -->
<g id="edge3" class="edge">
<title>employee_services:w&#45;&gt;services:e</title>
<path fill="none" stroke="#000000" d="M414.2844,-145.5702C380.4826,-165.6077 432.0136,-268.2 377.5,-268.2"/>
<polygon fill="#000000" stroke="#000000" points="420.7158,-144.0455 429.3305,-145.7029 424.6079,-143.1228 428.5,-142.2 428.5,-142.2 428.5,-142.2 424.6079,-143.1228 427.6695,-138.6971 420.7158,-144.0455 420.7158,-144.0455"/>
<ellipse fill="none" stroke="#000000" cx="417.6021" cy="-144.7837" rx="3.2" ry="3.2"/>
</g>
</g>
</svg>
