<?xml version="1.0" encoding="UTF-8" standalone="no"?>
<!DOCTYPE svg PUBLIC "-//W3C//DTD SVG 1.1//EN"
 "http://www.w3.org/Graphics/SVG/1.1/DTD/svg11.dtd">
<!-- Generated by graphviz version 2.40.1 (20161225.0304)
 -->
<!-- Title: oneDegreeRelationshipsDiagram Pages: 1 -->
<svg width="835pt" height="755pt"
 viewBox="0.00 0.00 835.00 754.88" xmlns="http://www.w3.org/2000/svg" xmlns:xlink="http://www.w3.org/1999/xlink">
<g id="graph0" class="graph" transform="scale(1 1) rotate(0) translate(4 750.8844)">
<title>oneDegreeRelationshipsDiagram</title>
<polygon fill="#ffffff" stroke="transparent" points="-4,4 -4,-750.8844 831,-750.8844 831,4 -4,4"/>
<text text-anchor="middle" x="72.4936" y="-7.3" font-family="Helvetica,sans-Serif" font-size="11.00" fill="#000000">Generated by SchemaSpy</text>
<!-- bookings -->
<g id="node1" class="node">
<title>bookings</title>
<g id="a_node1"><a xlink:href="../../tables/bookings.html" xlink:title="bookings" target="_top">
<polygon fill="#ffffff" stroke="transparent" points="584,-351.2 584,-522.2 677,-522.2 677,-351.2 584,-351.2"/>
<polygon fill="#f5f5f5" stroke="transparent" points="584.5,-498.7 584.5,-521.7 677.5,-521.7 677.5,-498.7 584.5,-498.7"/>
<polygon fill="none" stroke="#000000" points="584.5,-498.7 584.5,-521.7 677.5,-521.7 677.5,-498.7 584.5,-498.7"/>
<text text-anchor="start" x="589.5" y="-507.8" font-family="Helvetica,sans-Serif" font-weight="bold" font-size="11.00" fill="#000000">bookings</text>
<text text-anchor="start" x="642.5437" y="-506.8" font-family="Helvetica,sans-Serif" font-size="11.00" fill="#000000">[table]</text>
<polygon fill="none" stroke="#000000" points="584.5,-476.7 584.5,-498.7 677.5,-498.7 677.5,-476.7 584.5,-476.7"/>
<image xlink:href="../../images/primaryKeys.png" width="11px" height="12px" preserveAspectRatio="xMinYMin meet" x="589.5" y="-493.7"/>
<text text-anchor="start" x="604.5" y="-483.8" font-family="Helvetica,sans-Serif" font-size="11.00" fill="#000000">id</text>
<polygon fill="#ffffff" stroke="transparent" points="584.5,-454.7 584.5,-476.7 677.5,-476.7 677.5,-454.7 584.5,-454.7"/>
<polygon fill="none" stroke="#000000" points="584.5,-454.7 584.5,-476.7 677.5,-476.7 677.5,-454.7 584.5,-454.7"/>
<image xlink:href="../../images/foreignKeys.png" width="11px" height="12px" preserveAspectRatio="xMinYMin meet" x="589.5" y="-471.7"/>
<text text-anchor="start" x="604.5" y="-461.8" font-family="Helvetica,sans-Serif" font-size="11.00" fill="#000000">shop_id</text>
<polygon fill="#ffffff" stroke="transparent" points="584.5,-432.7 584.5,-454.7 677.5,-454.7 677.5,-432.7 584.5,-432.7"/>
<polygon fill="none" stroke="#000000" points="584.5,-432.7 584.5,-454.7 677.5,-454.7 677.5,-432.7 584.5,-432.7"/>
<image xlink:href="../../images/foreignKeys.png" width="11px" height="12px" preserveAspectRatio="xMinYMin meet" x="589.5" y="-449.7"/>
<text text-anchor="start" x="604.5" y="-439.8" font-family="Helvetica,sans-Serif" font-size="11.00" fill="#000000">customer_id</text>
<polygon fill="#ffffff" stroke="transparent" points="584.5,-410.7 584.5,-432.7 677.5,-432.7 677.5,-410.7 584.5,-410.7"/>
<polygon fill="none" stroke="#000000" points="584.5,-410.7 584.5,-432.7 677.5,-432.7 677.5,-410.7 584.5,-410.7"/>
<image xlink:href="../../images/foreignKeys.png" width="11px" height="12px" preserveAspectRatio="xMinYMin meet" x="589.5" y="-427.7"/>
<text text-anchor="start" x="604.5" y="-417.8" font-family="Helvetica,sans-Serif" font-size="11.00" fill="#000000">employee_id</text>
<polygon fill="none" stroke="#000000" points="584.5,-388.7 584.5,-410.7 677.5,-410.7 677.5,-388.7 584.5,-388.7"/>
<image xlink:href="../../images/foreignKeys.png" width="11px" height="12px" preserveAspectRatio="xMinYMin meet" x="589.5" y="-405.7"/>
<text text-anchor="start" x="604.5" y="-395.8" font-family="Helvetica,sans-Serif" font-size="11.00" fill="#000000">service_id</text>
<polygon fill="none" stroke="#000000" points="584.5,-369.7 584.5,-388.7 677.5,-388.7 677.5,-369.7 584.5,-369.7"/>
<text text-anchor="start" x="587.5" y="-375.8" font-family="Helvetica,sans-Serif" font-size="11.00" fill="#000000">...</text>
<polygon fill="#ffffff" stroke="transparent" points="584.5,-350.7 584.5,-369.7 611.5,-369.7 611.5,-350.7 584.5,-350.7"/>
<polygon fill="none" stroke="#000000" points="584.5,-350.7 584.5,-369.7 611.5,-369.7 611.5,-350.7 584.5,-350.7"/>
<text text-anchor="start" x="587.5" y="-356.8" font-family="Helvetica,sans-Serif" font-size="11.00" fill="#000000">&lt; 4</text>
<polygon fill="#ffffff" stroke="transparent" points="611.5,-350.7 611.5,-369.7 652.5,-369.7 652.5,-350.7 611.5,-350.7"/>
<polygon fill="none" stroke="#000000" points="611.5,-350.7 611.5,-369.7 652.5,-369.7 652.5,-350.7 611.5,-350.7"/>
<text text-anchor="start" x="617.1105" y="-356.8" font-family="Helvetica,sans-Serif" font-size="11.00" fill="#000000">0 rows</text>
<polygon fill="#ffffff" stroke="transparent" points="652.5,-350.7 652.5,-369.7 677.5,-369.7 677.5,-350.7 652.5,-350.7"/>
<polygon fill="none" stroke="#000000" points="652.5,-350.7 652.5,-369.7 677.5,-369.7 677.5,-350.7 652.5,-350.7"/>
<text text-anchor="start" x="658.9053" y="-356.8" font-family="Helvetica,sans-Serif" font-size="11.00" fill="#000000">1 &gt;</text>
</a>
</g>
</g>
<!-- users -->
<g id="node2" class="node">
<title>users</title>
<g id="a_node2"><a xlink:href="../../tables/users.html" xlink:title="users" target="_top">
<polygon fill="#ffffff" stroke="transparent" points="8,-356.2 8,-461.2 115,-461.2 115,-356.2 8,-356.2"/>
<polygon fill="#f5f5f5" stroke="transparent" points="8.5,-437.7 8.5,-460.7 115.5,-460.7 115.5,-437.7 8.5,-437.7"/>
<polygon fill="none" stroke="#000000" points="8.5,-437.7 8.5,-460.7 115.5,-460.7 115.5,-437.7 8.5,-437.7"/>
<text text-anchor="start" x="13.5" y="-446.8" font-family="Helvetica,sans-Serif" font-weight="bold" font-size="11.00" fill="#000000">users</text>
<text text-anchor="start" x="80.5437" y="-445.8" font-family="Helvetica,sans-Serif" font-size="11.00" fill="#000000">[table]</text>
<polygon fill="none" stroke="#000000" points="8.5,-415.7 8.5,-437.7 115.5,-437.7 115.5,-415.7 8.5,-415.7"/>
<image xlink:href="../../images/primaryKeys.png" width="11px" height="12px" preserveAspectRatio="xMinYMin meet" x="13.5" y="-432.7"/>
<text text-anchor="start" x="28.5" y="-422.8" font-family="Helvetica,sans-Serif" font-size="11.00" fill="#000000">id</text>
<polygon fill="#ffffff" stroke="transparent" points="8.5,-393.7 8.5,-415.7 115.5,-415.7 115.5,-393.7 8.5,-393.7"/>
<polygon fill="none" stroke="#000000" points="8.5,-393.7 8.5,-415.7 115.5,-415.7 115.5,-393.7 8.5,-393.7"/>
<text text-anchor="start" x="28.5" y="-400.8" font-family="Helvetica,sans-Serif" font-size="11.00" fill="#000000">email</text>
<polygon fill="none" stroke="#000000" points="8.5,-374.7 8.5,-393.7 115.5,-393.7 115.5,-374.7 8.5,-374.7"/>
<text text-anchor="start" x="11.5" y="-380.8" font-family="Helvetica,sans-Serif" font-size="11.00" fill="#000000">...</text>
<polygon fill="#ffffff" stroke="transparent" points="8.5,-355.7 8.5,-374.7 38.5,-374.7 38.5,-355.7 8.5,-355.7"/>
<polygon fill="none" stroke="#000000" points="8.5,-355.7 8.5,-374.7 38.5,-374.7 38.5,-355.7 8.5,-355.7"/>
<text text-anchor="start" x="11.5" y="-361.8" font-family="Helvetica,sans-Serif" font-size="11.00" fill="#000000"> &#160;</text>
<polygon fill="#ffffff" stroke="transparent" points="38.5,-355.7 38.5,-374.7 85.5,-374.7 85.5,-355.7 38.5,-355.7"/>
<polygon fill="none" stroke="#000000" points="38.5,-355.7 38.5,-374.7 85.5,-374.7 85.5,-355.7 38.5,-355.7"/>
<text text-anchor="start" x="50.1105" y="-361.8" font-family="Helvetica,sans-Serif" font-size="11.00" fill="#000000">6 rows</text>
<polygon fill="#ffffff" stroke="transparent" points="85.5,-355.7 85.5,-374.7 115.5,-374.7 115.5,-355.7 85.5,-355.7"/>
<polygon fill="none" stroke="#000000" points="85.5,-355.7 85.5,-374.7 115.5,-374.7 115.5,-355.7 85.5,-355.7"/>
<text text-anchor="start" x="96.9053" y="-361.8" font-family="Helvetica,sans-Serif" font-size="11.00" fill="#000000">5 &gt;</text>
</a>
</g>
</g>
<!-- bookings&#45;&gt;users -->
<g id="edge1" class="edge">
<title>bookings:w&#45;&gt;users:e</title>
<path fill="none" stroke="#000000" d="M570.2773,-441.3026C541.0525,-429.1291 568.8369,-373.2701 543,-335.7 485.4013,-251.9442 467.9021,-219.1174 373,-182.7 282.9575,-148.1475 229.5683,-120.3363 156,-182.7 114.0731,-218.2413 170.4641,-426.7 115.5,-426.7"/>
<polygon fill="#000000" stroke="#000000" points="576.6113,-442.3702 583.9016,-447.2499 580.5556,-443.0351 584.5,-443.7 584.5,-443.7 584.5,-443.7 580.5556,-443.0351 585.0984,-440.1501 576.6113,-442.3702 576.6113,-442.3702"/>
<ellipse fill="none" stroke="#000000" cx="573.4558" cy="-441.8383" rx="3.2" ry="3.2"/>
</g>
<!-- employees -->
<g id="node3" class="node">
<title>employees</title>
<g id="a_node3"><a xlink:href="../../tables/employees.html" xlink:title="employees" target="_top">
<polygon fill="#ffffff" stroke="transparent" points="426,-346.2 426,-473.2 523,-473.2 523,-346.2 426,-346.2"/>
<polygon fill="#f5f5f5" stroke="transparent" points="426.5,-449.7 426.5,-472.7 523.5,-472.7 523.5,-449.7 426.5,-449.7"/>
<polygon fill="none" stroke="#000000" points="426.5,-449.7 426.5,-472.7 523.5,-472.7 523.5,-449.7 426.5,-449.7"/>
<text text-anchor="start" x="431.5" y="-458.8" font-family="Helvetica,sans-Serif" font-weight="bold" font-size="11.00" fill="#000000">employees</text>
<text text-anchor="start" x="489.0219" y="-457.8" font-family="Helvetica,sans-Serif" font-size="11.00" fill="#000000">[table]</text>
<polygon fill="none" stroke="#000000" points="426.5,-427.7 426.5,-449.7 523.5,-449.7 523.5,-427.7 426.5,-427.7"/>
<image xlink:href="../../images/primaryKeys.png" width="11px" height="12px" preserveAspectRatio="xMinYMin meet" x="431.5" y="-444.7"/>
<text text-anchor="start" x="446.5" y="-434.8" font-family="Helvetica,sans-Serif" font-size="11.00" fill="#000000">id</text>
<polygon fill="#ffffff" stroke="transparent" points="426.5,-405.7 426.5,-427.7 523.5,-427.7 523.5,-405.7 426.5,-405.7"/>
<polygon fill="none" stroke="#000000" points="426.5,-405.7 426.5,-427.7 523.5,-427.7 523.5,-405.7 426.5,-405.7"/>
<image xlink:href="../../images/foreignKeys.png" width="11px" height="12px" preserveAspectRatio="xMinYMin meet" x="431.5" y="-422.7"/>
<text text-anchor="start" x="446.5" y="-412.8" font-family="Helvetica,sans-Serif" font-size="11.00" fill="#000000">shop_id</text>
<polygon fill="#ffffff" stroke="transparent" points="426.5,-383.7 426.5,-405.7 523.5,-405.7 523.5,-383.7 426.5,-383.7"/>
<polygon fill="none" stroke="#000000" points="426.5,-383.7 426.5,-405.7 523.5,-405.7 523.5,-383.7 426.5,-383.7"/>
<image xlink:href="../../images/foreignKeys.png" width="11px" height="12px" preserveAspectRatio="xMinYMin meet" x="431.5" y="-400.7"/>
<text text-anchor="start" x="446.5" y="-390.8" font-family="Helvetica,sans-Serif" font-size="11.00" fill="#000000">user_id</text>
<polygon fill="none" stroke="#000000" points="426.5,-364.7 426.5,-383.7 523.5,-383.7 523.5,-364.7 426.5,-364.7"/>
<text text-anchor="start" x="429.5" y="-370.8" font-family="Helvetica,sans-Serif" font-size="11.00" fill="#000000">...</text>
<polygon fill="#ffffff" stroke="transparent" points="426.5,-345.7 426.5,-364.7 455.5,-364.7 455.5,-345.7 426.5,-345.7"/>
<polygon fill="none" stroke="#000000" points="426.5,-345.7 426.5,-364.7 455.5,-364.7 455.5,-345.7 426.5,-345.7"/>
<text text-anchor="start" x="429.5" y="-351.8" font-family="Helvetica,sans-Serif" font-size="11.00" fill="#000000">&lt; 2</text>
<polygon fill="#ffffff" stroke="transparent" points="455.5,-345.7 455.5,-364.7 497.5,-364.7 497.5,-345.7 455.5,-345.7"/>
<polygon fill="none" stroke="#000000" points="455.5,-345.7 455.5,-364.7 497.5,-364.7 497.5,-345.7 455.5,-345.7"/>
<text text-anchor="start" x="462.1105" y="-351.8" font-family="Helvetica,sans-Serif" font-size="11.00" fill="#000000">0 rows</text>
<polygon fill="#ffffff" stroke="transparent" points="497.5,-345.7 497.5,-364.7 523.5,-364.7 523.5,-345.7 497.5,-345.7"/>
<polygon fill="none" stroke="#000000" points="497.5,-345.7 497.5,-364.7 523.5,-364.7 523.5,-345.7 497.5,-345.7"/>
<text text-anchor="start" x="504.9053" y="-351.8" font-family="Helvetica,sans-Serif" font-size="11.00" fill="#000000">3 &gt;</text>
</a>
</g>
</g>
<!-- bookings&#45;&gt;employees -->
<g id="edge2" class="edge">
<title>bookings:w&#45;&gt;employees:e</title>
<path fill="none" stroke="#000000" d="M569.8573,-423.5193C553.4749,-427.9048 545.9274,-438.7 523.5,-438.7"/>
<polygon fill="#000000" stroke="#000000" points="576.561,-422.6864 584.9439,-425.2725 580.5305,-422.1932 584.5,-421.7 584.5,-421.7 584.5,-421.7 580.5305,-422.1932 584.0561,-418.1275 576.561,-422.6864 576.561,-422.6864"/>
<ellipse fill="none" stroke="#000000" cx="573.3855" cy="-423.081" rx="3.2" ry="3.2"/>
</g>
<!-- services -->
<g id="node4" class="node">
<title>services</title>
<g id="a_node4"><a xlink:href="../../tables/services.html" xlink:title="services" target="_top">
<polygon fill="#ffffff" stroke="transparent" points="414,-38.2 414,-143.2 535,-143.2 535,-38.2 414,-38.2"/>
<polygon fill="#f5f5f5" stroke="transparent" points="414.5,-119.7 414.5,-142.7 535.5,-142.7 535.5,-119.7 414.5,-119.7"/>
<polygon fill="none" stroke="#000000" points="414.5,-119.7 414.5,-142.7 535.5,-142.7 535.5,-119.7 414.5,-119.7"/>
<text text-anchor="start" x="419.5" y="-128.8" font-family="Helvetica,sans-Serif" font-weight="bold" font-size="11.00" fill="#000000">services</text>
<text text-anchor="start" x="500.5437" y="-127.8" font-family="Helvetica,sans-Serif" font-size="11.00" fill="#000000">[table]</text>
<polygon fill="none" stroke="#000000" points="414.5,-97.7 414.5,-119.7 535.5,-119.7 535.5,-97.7 414.5,-97.7"/>
<image xlink:href="../../images/primaryKeys.png" width="11px" height="12px" preserveAspectRatio="xMinYMin meet" x="419.5" y="-114.7"/>
<text text-anchor="start" x="434.5" y="-104.8" font-family="Helvetica,sans-Serif" font-size="11.00" fill="#000000">id</text>
<polygon fill="#ffffff" stroke="transparent" points="414.5,-75.7 414.5,-97.7 535.5,-97.7 535.5,-75.7 414.5,-75.7"/>
<polygon fill="none" stroke="#000000" points="414.5,-75.7 414.5,-97.7 535.5,-97.7 535.5,-75.7 414.5,-75.7"/>
<image xlink:href="../../images/foreignKeys.png" width="11px" height="12px" preserveAspectRatio="xMinYMin meet" x="419.5" y="-92.7"/>
<text text-anchor="start" x="434.5" y="-82.8" font-family="Helvetica,sans-Serif" font-size="11.00" fill="#000000">shop_id</text>
<polygon fill="none" stroke="#000000" points="414.5,-56.7 414.5,-75.7 535.5,-75.7 535.5,-56.7 414.5,-56.7"/>
<text text-anchor="start" x="417.5" y="-62.8" font-family="Helvetica,sans-Serif" font-size="11.00" fill="#000000">...</text>
<polygon fill="#ffffff" stroke="transparent" points="414.5,-37.7 414.5,-56.7 455.5,-56.7 455.5,-37.7 414.5,-37.7"/>
<polygon fill="none" stroke="#000000" points="414.5,-37.7 414.5,-56.7 455.5,-56.7 455.5,-37.7 414.5,-37.7"/>
<text text-anchor="start" x="417.5" y="-43.8" font-family="Helvetica,sans-Serif" font-size="11.00" fill="#000000">&lt; 1</text>
<polygon fill="#ffffff" stroke="transparent" points="455.5,-37.7 455.5,-56.7 503.5,-56.7 503.5,-37.7 455.5,-37.7"/>
<polygon fill="none" stroke="#000000" points="455.5,-37.7 455.5,-56.7 503.5,-56.7 503.5,-37.7 455.5,-37.7"/>
<text text-anchor="start" x="468.1105" y="-43.8" font-family="Helvetica,sans-Serif" font-size="11.00" fill="#000000">0 rows</text>
<polygon fill="#ffffff" stroke="transparent" points="503.5,-37.7 503.5,-56.7 535.5,-56.7 535.5,-37.7 503.5,-37.7"/>
<polygon fill="none" stroke="#000000" points="503.5,-37.7 503.5,-56.7 535.5,-56.7 535.5,-37.7 503.5,-37.7"/>
<text text-anchor="start" x="516.9053" y="-43.8" font-family="Helvetica,sans-Serif" font-size="11.00" fill="#000000">2 &gt;</text>
</a>
</g>
</g>
<!-- bookings&#45;&gt;services -->
<g id="edge3" class="edge">
<title>bookings:w&#45;&gt;services:e</title>
<path fill="none" stroke="#000000" d="M571.1811,-394.1467C531.4073,-353.916 595.6977,-108.7 535.5,-108.7"/>
<polygon fill="#000000" stroke="#000000" points="577.1161,-396.6213 583.1146,-403.0227 580.8081,-398.1606 584.5,-399.7 584.5,-399.7 584.5,-399.7 580.8081,-398.1606 585.8854,-396.3773 577.1161,-396.6213 577.1161,-396.6213"/>
<ellipse fill="none" stroke="#000000" cx="574.1626" cy="-395.3898" rx="3.2" ry="3.2"/>
</g>
<!-- shops -->
<g id="node5" class="node">
<title>shops</title>
<g id="a_node5"><a xlink:href="../../tables/shops.html" xlink:title="shops" target="_top">
<polygon fill="#ffffff" stroke="transparent" points="164,-218.7 164,-682.7 365,-682.7 365,-218.7 164,-218.7"/>
<polygon fill="#f5f5f5" stroke="transparent" points="166.5,-657.7 166.5,-680.7 363.5,-680.7 363.5,-657.7 166.5,-657.7"/>
<polygon fill="none" stroke="#000000" points="166.5,-657.7 166.5,-680.7 363.5,-680.7 363.5,-657.7 166.5,-657.7"/>
<text text-anchor="start" x="171.5" y="-666.8" font-family="Helvetica,sans-Serif" font-weight="bold" font-size="11.00" fill="#000000">shops</text>
<text text-anchor="start" x="328.5437" y="-665.8" font-family="Helvetica,sans-Serif" font-size="11.00" fill="#000000">[table]</text>
<polygon fill="none" stroke="#000000" points="166.5,-635.7 166.5,-657.7 273.5,-657.7 273.5,-635.7 166.5,-635.7"/>
<image xlink:href="../../images/primaryKeys.png" width="11px" height="12px" preserveAspectRatio="xMinYMin meet" x="171.5" y="-652.7"/>
<text text-anchor="start" x="186.5" y="-642.8" font-family="Helvetica,sans-Serif" font-size="11.00" fill="#000000">id</text>
<polygon fill="none" stroke="#000000" points="273.5,-635.7 273.5,-657.7 363.5,-657.7 363.5,-635.7 273.5,-635.7"/>
<text text-anchor="start" x="276.5" y="-643.4" font-family="Helvetica,sans-Serif" font-size="11.00" fill="#000000">bigserial[19]</text>
<polygon fill="none" stroke="#000000" points="166.5,-613.7 166.5,-635.7 273.5,-635.7 273.5,-613.7 166.5,-613.7"/>
<text text-anchor="start" x="186.5" y="-620.8" font-family="Helvetica,sans-Serif" font-size="11.00" fill="#000000">name</text>
<polygon fill="none" stroke="#000000" points="273.5,-613.7 273.5,-635.7 363.5,-635.7 363.5,-613.7 273.5,-613.7"/>
<text text-anchor="start" x="276.5" y="-621.4" font-family="Helvetica,sans-Serif" font-size="11.00" fill="#000000">varchar[100]</text>
<polygon fill="none" stroke="#000000" points="166.5,-591.7 166.5,-613.7 273.5,-613.7 273.5,-591.7 166.5,-591.7"/>
<text text-anchor="start" x="186.5" y="-598.8" font-family="Helvetica,sans-Serif" font-size="11.00" fill="#000000">description</text>
<polygon fill="none" stroke="#000000" points="273.5,-591.7 273.5,-613.7 363.5,-613.7 363.5,-591.7 273.5,-591.7"/>
<text text-anchor="start" x="276.0043" y="-599.4" font-family="Helvetica,sans-Serif" font-size="11.00" fill="#000000">text[2147483647]</text>
<polygon fill="none" stroke="#000000" points="166.5,-569.7 166.5,-591.7 273.5,-591.7 273.5,-569.7 166.5,-569.7"/>
<text text-anchor="start" x="186.5" y="-576.8" font-family="Helvetica,sans-Serif" font-size="11.00" fill="#000000">address</text>
<polygon fill="none" stroke="#000000" points="273.5,-569.7 273.5,-591.7 363.5,-591.7 363.5,-569.7 273.5,-569.7"/>
<text text-anchor="start" x="276.5" y="-577.4" font-family="Helvetica,sans-Serif" font-size="11.00" fill="#000000">varchar[200]</text>
<polygon fill="#ffffff" stroke="transparent" points="166.5,-547.7 166.5,-569.7 273.5,-569.7 273.5,-547.7 166.5,-547.7"/>
<polygon fill="none" stroke="#000000" points="166.5,-547.7 166.5,-569.7 273.5,-569.7 273.5,-547.7 166.5,-547.7"/>
<text text-anchor="start" x="186.5" y="-554.8" font-family="Helvetica,sans-Serif" font-size="11.00" fill="#000000">city</text>
<polygon fill="none" stroke="#000000" points="273.5,-547.7 273.5,-569.7 363.5,-569.7 363.5,-547.7 273.5,-547.7"/>
<text text-anchor="start" x="276.5" y="-555.4" font-family="Helvetica,sans-Serif" font-size="11.00" fill="#000000">varchar[100]</text>
<polygon fill="none" stroke="#000000" points="166.5,-525.7 166.5,-547.7 273.5,-547.7 273.5,-525.7 166.5,-525.7"/>
<text text-anchor="start" x="186.5" y="-532.8" font-family="Helvetica,sans-Serif" font-size="11.00" fill="#000000">phone_number</text>
<polygon fill="none" stroke="#000000" points="273.5,-525.7 273.5,-547.7 363.5,-547.7 363.5,-525.7 273.5,-525.7"/>
<text text-anchor="start" x="276.5" y="-533.4" font-family="Helvetica,sans-Serif" font-size="11.00" fill="#000000">varchar[20]</text>
<polygon fill="none" stroke="#000000" points="166.5,-503.7 166.5,-525.7 273.5,-525.7 273.5,-503.7 166.5,-503.7"/>
<text text-anchor="start" x="186.5" y="-510.8" font-family="Helvetica,sans-Serif" font-size="11.00" fill="#000000">email</text>
<polygon fill="none" stroke="#000000" points="273.5,-503.7 273.5,-525.7 363.5,-525.7 363.5,-503.7 273.5,-503.7"/>
<text text-anchor="start" x="276.5" y="-511.4" font-family="Helvetica,sans-Serif" font-size="11.00" fill="#000000">varchar[100]</text>
<polygon fill="none" stroke="#000000" points="166.5,-481.7 166.5,-503.7 273.5,-503.7 273.5,-481.7 166.5,-481.7"/>
<text text-anchor="start" x="186.5" y="-488.8" font-family="Helvetica,sans-Serif" font-size="11.00" fill="#000000">image_url</text>
<polygon fill="none" stroke="#000000" points="273.5,-481.7 273.5,-503.7 363.5,-503.7 363.5,-481.7 273.5,-481.7"/>
<text text-anchor="start" x="276.0043" y="-489.4" font-family="Helvetica,sans-Serif" font-size="11.00" fill="#000000">text[2147483647]</text>
<polygon fill="none" stroke="#000000" points="166.5,-459.7 166.5,-481.7 273.5,-481.7 273.5,-459.7 166.5,-459.7"/>
<text text-anchor="start" x="186.5" y="-466.8" font-family="Helvetica,sans-Serif" font-size="11.00" fill="#000000">rating</text>
<polygon fill="none" stroke="#000000" points="273.5,-459.7 273.5,-481.7 363.5,-481.7 363.5,-459.7 273.5,-459.7"/>
<text text-anchor="start" x="276.5" y="-467.4" font-family="Helvetica,sans-Serif" font-size="11.00" fill="#000000">float8[17,17]</text>
<polygon fill="none" stroke="#000000" points="166.5,-437.7 166.5,-459.7 273.5,-459.7 273.5,-437.7 166.5,-437.7"/>
<text text-anchor="start" x="186.5" y="-444.8" font-family="Helvetica,sans-Serif" font-size="11.00" fill="#000000">total_reviews</text>
<polygon fill="none" stroke="#000000" points="273.5,-437.7 273.5,-459.7 363.5,-459.7 363.5,-437.7 273.5,-437.7"/>
<text text-anchor="start" x="276.5" y="-445.4" font-family="Helvetica,sans-Serif" font-size="11.00" fill="#000000">int4[10]</text>
<polygon fill="#ffffff" stroke="transparent" points="166.5,-415.7 166.5,-437.7 273.5,-437.7 273.5,-415.7 166.5,-415.7"/>
<polygon fill="none" stroke="#000000" points="166.5,-415.7 166.5,-437.7 273.5,-437.7 273.5,-415.7 166.5,-415.7"/>
<image xlink:href="../../images/foreignKeys.png" width="11px" height="12px" preserveAspectRatio="xMinYMin meet" x="171.5" y="-432.7"/>
<text text-anchor="start" x="186.5" y="-422.8" font-family="Helvetica,sans-Serif" font-size="11.00" fill="#000000">owner_id</text>
<polygon fill="none" stroke="#000000" points="273.5,-415.7 273.5,-437.7 363.5,-437.7 363.5,-415.7 273.5,-415.7"/>
<text text-anchor="start" x="276.5" y="-423.4" font-family="Helvetica,sans-Serif" font-size="11.00" fill="#000000">int8[19]</text>
<polygon fill="none" stroke="#000000" points="166.5,-393.7 166.5,-415.7 273.5,-415.7 273.5,-393.7 166.5,-393.7"/>
<text text-anchor="start" x="186.5" y="-400.8" font-family="Helvetica,sans-Serif" font-size="11.00" fill="#000000">is_active</text>
<polygon fill="none" stroke="#000000" points="273.5,-393.7 273.5,-415.7 363.5,-415.7 363.5,-393.7 273.5,-393.7"/>
<text text-anchor="start" x="276.5" y="-401.4" font-family="Helvetica,sans-Serif" font-size="11.00" fill="#000000">bool[1]</text>
<polygon fill="none" stroke="#000000" points="166.5,-371.7 166.5,-393.7 273.5,-393.7 273.5,-371.7 166.5,-371.7"/>
<text text-anchor="start" x="186.5" y="-378.8" font-family="Helvetica,sans-Serif" font-size="11.00" fill="#000000">created_at</text>
<polygon fill="none" stroke="#000000" points="273.5,-371.7 273.5,-393.7 363.5,-393.7 363.5,-371.7 273.5,-371.7"/>
<text text-anchor="start" x="276.5" y="-379.4" font-family="Helvetica,sans-Serif" font-size="11.00" fill="#000000">timestamp[29,6]</text>
<polygon fill="none" stroke="#000000" points="166.5,-349.7 166.5,-371.7 273.5,-371.7 273.5,-349.7 166.5,-349.7"/>
<text text-anchor="start" x="186.5" y="-356.8" font-family="Helvetica,sans-Serif" font-size="11.00" fill="#000000">updated_at</text>
<polygon fill="none" stroke="#000000" points="273.5,-349.7 273.5,-371.7 363.5,-371.7 363.5,-349.7 273.5,-349.7"/>
<text text-anchor="start" x="276.5" y="-357.4" font-family="Helvetica,sans-Serif" font-size="11.00" fill="#000000">timestamp[29,6]</text>
<polygon fill="none" stroke="#000000" points="166.5,-327.7 166.5,-349.7 273.5,-349.7 273.5,-327.7 166.5,-327.7"/>
<text text-anchor="start" x="186.5" y="-334.8" font-family="Helvetica,sans-Serif" font-size="11.00" fill="#000000">state</text>
<polygon fill="none" stroke="#000000" points="273.5,-327.7 273.5,-349.7 363.5,-349.7 363.5,-327.7 273.5,-327.7"/>
<text text-anchor="start" x="276.5" y="-335.4" font-family="Helvetica,sans-Serif" font-size="11.00" fill="#000000">varchar[50]</text>
<polygon fill="none" stroke="#000000" points="166.5,-305.7 166.5,-327.7 273.5,-327.7 273.5,-305.7 166.5,-305.7"/>
<text text-anchor="start" x="186.5" y="-312.8" font-family="Helvetica,sans-Serif" font-size="11.00" fill="#000000">zip_code</text>
<polygon fill="none" stroke="#000000" points="273.5,-305.7 273.5,-327.7 363.5,-327.7 363.5,-305.7 273.5,-305.7"/>
<text text-anchor="start" x="276.5" y="-313.4" font-family="Helvetica,sans-Serif" font-size="11.00" fill="#000000">varchar[10]</text>
<polygon fill="none" stroke="#000000" points="166.5,-283.7 166.5,-305.7 273.5,-305.7 273.5,-283.7 166.5,-283.7"/>
<text text-anchor="start" x="186.5" y="-290.8" font-family="Helvetica,sans-Serif" font-size="11.00" fill="#000000">opening_time</text>
<polygon fill="none" stroke="#000000" points="273.5,-283.7 273.5,-305.7 363.5,-305.7 363.5,-283.7 273.5,-283.7"/>
<text text-anchor="start" x="276.5" y="-291.4" font-family="Helvetica,sans-Serif" font-size="11.00" fill="#000000">time[15,6]</text>
<polygon fill="none" stroke="#000000" points="166.5,-261.7 166.5,-283.7 273.5,-283.7 273.5,-261.7 166.5,-261.7"/>
<text text-anchor="start" x="186.5" y="-268.8" font-family="Helvetica,sans-Serif" font-size="11.00" fill="#000000">closing_time</text>
<polygon fill="none" stroke="#000000" points="273.5,-261.7 273.5,-283.7 363.5,-283.7 363.5,-261.7 273.5,-261.7"/>
<text text-anchor="start" x="276.5" y="-269.4" font-family="Helvetica,sans-Serif" font-size="11.00" fill="#000000">time[15,6]</text>
<polygon fill="none" stroke="#000000" points="166.5,-239.7 166.5,-261.7 273.5,-261.7 273.5,-239.7 166.5,-239.7"/>
<text text-anchor="start" x="186.5" y="-246.8" font-family="Helvetica,sans-Serif" font-size="11.00" fill="#000000">website</text>
<polygon fill="none" stroke="#000000" points="273.5,-239.7 273.5,-261.7 363.5,-261.7 363.5,-239.7 273.5,-239.7"/>
<text text-anchor="start" x="276.5" y="-247.4" font-family="Helvetica,sans-Serif" font-size="11.00" fill="#000000">varchar[200]</text>
<polygon fill="#ffffff" stroke="transparent" points="166.5,-220.7 166.5,-239.7 214.5,-239.7 214.5,-220.7 166.5,-220.7"/>
<polygon fill="none" stroke="#000000" points="166.5,-220.7 166.5,-239.7 214.5,-239.7 214.5,-220.7 166.5,-220.7"/>
<text text-anchor="start" x="169.5" y="-226.8" font-family="Helvetica,sans-Serif" font-size="11.00" fill="#000000">&lt; 1</text>
<polygon fill="#ffffff" stroke="transparent" points="214.5,-220.7 214.5,-239.7 273.5,-239.7 273.5,-220.7 214.5,-220.7"/>
<polygon fill="none" stroke="#000000" points="214.5,-220.7 214.5,-239.7 273.5,-239.7 273.5,-220.7 214.5,-220.7"/>
<text text-anchor="start" x="243.6105" y="-226.8" font-family="Helvetica,sans-Serif" font-size="11.00" fill="#000000">1 row</text>
<polygon fill="#ffffff" stroke="transparent" points="273.5,-220.7 273.5,-239.7 363.5,-239.7 363.5,-220.7 273.5,-220.7"/>
<polygon fill="none" stroke="#000000" points="273.5,-220.7 273.5,-239.7 363.5,-239.7 363.5,-220.7 273.5,-220.7"/>
<text text-anchor="start" x="344.9053" y="-226.8" font-family="Helvetica,sans-Serif" font-size="11.00" fill="#000000">5 &gt;</text>
<polygon fill="none" stroke="#000000" stroke-width="2" points="165,-219.7 165,-681.7 364,-681.7 364,-219.7 165,-219.7"/>
</a>
</g>
</g>
<!-- bookings&#45;&gt;shops -->
<g id="edge4" class="edge">
<title>bookings:w&#45;&gt;shops:e</title>
<path fill="none" stroke="#000000" d="M570.943,-470.9467C529.7652,-490.2792 412.7285,-556.7746 406,-563.7 377.1206,-593.4248 404.9437,-646.7 363.5,-646.7"/>
<polygon fill="#000000" stroke="#000000" points="577.0392,-468.5874 585.7993,-469.0573 580.7696,-467.1437 584.5,-465.7 584.5,-465.7 584.5,-465.7 580.7696,-467.1437 583.2007,-462.3427 577.0392,-468.5874 577.0392,-468.5874"/>
<ellipse fill="none" stroke="#000000" cx="574.0549" cy="-469.7424" rx="3.2" ry="3.2"/>
</g>
<!-- employees&#45;&gt;users -->
<g id="edge6" class="edge">
<title>employees:w&#45;&gt;users:e</title>
<path fill="none" stroke="#000000" d="M412.1056,-393.0848C352.8257,-377.7357 437.2895,-257.1042 373,-208.7 334.4761,-179.695 193.0818,-177.8727 156,-208.7 80.2197,-271.6985 214.0467,-426.7 115.5,-426.7"/>
<polygon fill="#000000" stroke="#000000" points="418.5499,-393.8079 426.0985,-398.2775 422.5249,-394.2539 426.5,-394.7 426.5,-394.7 426.5,-394.7 422.5249,-394.2539 426.9015,-391.1225 418.5499,-393.8079 418.5499,-393.8079"/>
<ellipse fill="none" stroke="#000000" cx="415.3699" cy="-393.451" rx="3.2" ry="3.2"/>
</g>
<!-- employees&#45;&gt;shops -->
<g id="edge5" class="edge">
<title>employees:w&#45;&gt;shops:e</title>
<path fill="none" stroke="#000000" d="M411.7847,-418.5514C335.5156,-440.3182 463.8985,-646.7 363.5,-646.7"/>
<polygon fill="#000000" stroke="#000000" points="418.5626,-417.6987 426.9494,-420.2718 422.5313,-417.1993 426.5,-416.7 426.5,-416.7 426.5,-416.7 422.5313,-417.1993 426.0506,-413.1282 418.5626,-417.6987 418.5626,-417.6987"/>
<ellipse fill="none" stroke="#000000" cx="415.3876" cy="-418.0982" rx="3.2" ry="3.2"/>
</g>
<!-- services&#45;&gt;shops -->
<g id="edge13" class="edge">
<title>services:w&#45;&gt;shops:e</title>
<path fill="none" stroke="#000000" d="M402.7316,-95.4963C362.2471,-166.7403 421.3426,-646.7 363.5,-646.7"/>
<polygon fill="#000000" stroke="#000000" points="408.0922,-91.4896 416.6553,-89.5835 411.2961,-89.0948 414.5,-86.7 414.5,-86.7 414.5,-86.7 411.2961,-89.0948 412.3447,-83.8165 408.0922,-91.4896 408.0922,-91.4896"/>
<ellipse fill="none" stroke="#000000" cx="405.529" cy="-93.4054" rx="3.2" ry="3.2"/>
</g>
<!-- shops&#45;&gt;users -->
<g id="edge14" class="edge">
<title>shops:w&#45;&gt;users:e</title>
<path fill="none" stroke="#000000" d="M151.776,-426.7C139.7815,-426.7 132.3229,-426.7 115.5,-426.7"/>
<polygon fill="#000000" stroke="#000000" points="158.5,-426.7001 166.5,-430.3 162.5,-426.7 166.5,-426.7 166.5,-426.7 166.5,-426.7 162.5,-426.7 166.5,-423.1 158.5,-426.7001 158.5,-426.7001"/>
<ellipse fill="none" stroke="#000000" cx="155.3" cy="-426.7001" rx="3.2" ry="3.2"/>
</g>
<!-- favorite_shops -->
<g id="node6" class="node">
<title>favorite_shops</title>
<g id="a_node6"><a xlink:href="../../tables/favorite_shops.html" xlink:title="favorite_shops" target="_top">
<polygon fill="#ffffff" stroke="transparent" points="417.5,-598.2 417.5,-725.2 531.5,-725.2 531.5,-598.2 417.5,-598.2"/>
<polygon fill="#f5f5f5" stroke="transparent" points="417.5,-701.7 417.5,-724.7 531.5,-724.7 531.5,-701.7 417.5,-701.7"/>
<polygon fill="none" stroke="#000000" points="417.5,-701.7 417.5,-724.7 531.5,-724.7 531.5,-701.7 417.5,-701.7"/>
<text text-anchor="start" x="422.2396" y="-710.8" font-family="Helvetica,sans-Serif" font-weight="bold" font-size="11.00" fill="#000000">favorite_shops</text>
<text text-anchor="start" x="497.0219" y="-709.8" font-family="Helvetica,sans-Serif" font-size="11.00" fill="#000000">[table]</text>
<polygon fill="none" stroke="#000000" points="417.5,-679.7 417.5,-701.7 531.5,-701.7 531.5,-679.7 417.5,-679.7"/>
<image xlink:href="../../images/primaryKeys.png" width="11px" height="12px" preserveAspectRatio="xMinYMin meet" x="422.5" y="-696.7"/>
<text text-anchor="start" x="441.5" y="-686.8" font-family="Helvetica,sans-Serif" font-size="11.00" fill="#000000">id</text>
<polygon fill="#ffffff" stroke="transparent" points="417.5,-657.7 417.5,-679.7 531.5,-679.7 531.5,-657.7 417.5,-657.7"/>
<polygon fill="none" stroke="#000000" points="417.5,-657.7 417.5,-679.7 531.5,-679.7 531.5,-657.7 417.5,-657.7"/>
<image xlink:href="../../images/foreignKeys.png" width="11px" height="12px" preserveAspectRatio="xMinYMin meet" x="422.5" y="-674.7"/>
<text text-anchor="start" x="441.5" y="-664.8" font-family="Helvetica,sans-Serif" font-size="11.00" fill="#000000">user_id</text>
<polygon fill="#ffffff" stroke="transparent" points="417.5,-635.7 417.5,-657.7 531.5,-657.7 531.5,-635.7 417.5,-635.7"/>
<polygon fill="none" stroke="#000000" points="417.5,-635.7 417.5,-657.7 531.5,-657.7 531.5,-635.7 417.5,-635.7"/>
<image xlink:href="../../images/foreignKeys.png" width="11px" height="12px" preserveAspectRatio="xMinYMin meet" x="422.5" y="-652.7"/>
<text text-anchor="start" x="441.5" y="-642.8" font-family="Helvetica,sans-Serif" font-size="11.00" fill="#000000">shop_id</text>
<polygon fill="none" stroke="#000000" points="417.5,-616.7 417.5,-635.7 531.5,-635.7 531.5,-616.7 417.5,-616.7"/>
<text text-anchor="start" x="420.5" y="-622.8" font-family="Helvetica,sans-Serif" font-size="11.00" fill="#000000">...</text>
<polygon fill="#ffffff" stroke="transparent" points="417.5,-597.7 417.5,-616.7 459.5,-616.7 459.5,-597.7 417.5,-597.7"/>
<polygon fill="none" stroke="#000000" points="417.5,-597.7 417.5,-616.7 459.5,-616.7 459.5,-597.7 417.5,-597.7"/>
<text text-anchor="start" x="420.5" y="-603.8" font-family="Helvetica,sans-Serif" font-size="11.00" fill="#000000">&lt; 2</text>
<polygon fill="#ffffff" stroke="transparent" points="459.5,-597.7 459.5,-616.7 508.5,-616.7 508.5,-597.7 459.5,-597.7"/>
<polygon fill="none" stroke="#000000" points="459.5,-597.7 459.5,-616.7 508.5,-616.7 508.5,-597.7 459.5,-597.7"/>
<text text-anchor="start" x="473.1105" y="-603.8" font-family="Helvetica,sans-Serif" font-size="11.00" fill="#000000">0 rows</text>
<polygon fill="#ffffff" stroke="transparent" points="508.5,-597.7 508.5,-616.7 531.5,-616.7 531.5,-597.7 508.5,-597.7"/>
<polygon fill="none" stroke="#000000" points="508.5,-597.7 508.5,-616.7 531.5,-616.7 531.5,-597.7 508.5,-597.7"/>
<text text-anchor="start" x="522.3862" y="-603.8" font-family="Helvetica,sans-Serif" font-size="11.00" fill="#000000"> &#160;</text>
</a>
</g>
</g>
<!-- favorite_shops&#45;&gt;users -->
<g id="edge8" class="edge">
<title>favorite_shops:w&#45;&gt;users:e</title>
<path fill="none" stroke="#000000" d="M403.411,-672.162C393.3269,-677.9769 389.1168,-689.4828 373,-693.7 279.6969,-718.1143 229.1317,-756.5752 156,-693.7 110.4942,-654.5762 175.512,-426.7 115.5,-426.7"/>
<polygon fill="#000000" stroke="#000000" points="409.7311,-670.609 418.3591,-672.196 413.6156,-669.6545 417.5,-668.7 417.5,-668.7 417.5,-668.7 413.6156,-669.6545 416.6409,-665.204 409.7311,-670.609 409.7311,-670.609"/>
<ellipse fill="none" stroke="#000000" cx="406.6235" cy="-671.3727" rx="3.2" ry="3.2"/>
</g>
<!-- favorite_shops&#45;&gt;shops -->
<g id="edge7" class="edge">
<title>favorite_shops:w&#45;&gt;shops:e</title>
<path fill="none" stroke="#000000" d="M402.7185,-646.7C389.538,-646.7 381.6875,-646.7 363.5,-646.7"/>
<polygon fill="#000000" stroke="#000000" points="409.5,-646.7001 417.5,-650.3 413.5,-646.7 417.5,-646.7 417.5,-646.7 417.5,-646.7 413.5,-646.7 417.5,-643.1 409.5,-646.7001 409.5,-646.7001"/>
<ellipse fill="none" stroke="#000000" cx="406.3" cy="-646.7001" rx="3.2" ry="3.2"/>
</g>
<!-- reviews -->
<g id="node7" class="node">
<title>reviews</title>
<g id="a_node7"><a xlink:href="../../tables/reviews.html" xlink:title="reviews" target="_top">
<polygon fill="#ffffff" stroke="transparent" points="726,-478.2 726,-649.2 819,-649.2 819,-478.2 726,-478.2"/>
<polygon fill="#f5f5f5" stroke="transparent" points="726.5,-625.7 726.5,-648.7 819.5,-648.7 819.5,-625.7 726.5,-625.7"/>
<polygon fill="none" stroke="#000000" points="726.5,-625.7 726.5,-648.7 819.5,-648.7 819.5,-625.7 726.5,-625.7"/>
<text text-anchor="start" x="731.5" y="-634.8" font-family="Helvetica,sans-Serif" font-weight="bold" font-size="11.00" fill="#000000">reviews</text>
<text text-anchor="start" x="784.5437" y="-633.8" font-family="Helvetica,sans-Serif" font-size="11.00" fill="#000000">[table]</text>
<polygon fill="none" stroke="#000000" points="726.5,-603.7 726.5,-625.7 819.5,-625.7 819.5,-603.7 726.5,-603.7"/>
<image xlink:href="../../images/primaryKeys.png" width="11px" height="12px" preserveAspectRatio="xMinYMin meet" x="731.5" y="-620.7"/>
<text text-anchor="start" x="746.5" y="-610.8" font-family="Helvetica,sans-Serif" font-size="11.00" fill="#000000">id</text>
<polygon fill="#ffffff" stroke="transparent" points="726.5,-581.7 726.5,-603.7 819.5,-603.7 819.5,-581.7 726.5,-581.7"/>
<polygon fill="none" stroke="#000000" points="726.5,-581.7 726.5,-603.7 819.5,-603.7 819.5,-581.7 726.5,-581.7"/>
<image xlink:href="../../images/foreignKeys.png" width="11px" height="12px" preserveAspectRatio="xMinYMin meet" x="731.5" y="-598.7"/>
<text text-anchor="start" x="746.5" y="-588.8" font-family="Helvetica,sans-Serif" font-size="11.00" fill="#000000">customer_id</text>
<polygon fill="#ffffff" stroke="transparent" points="726.5,-559.7 726.5,-581.7 819.5,-581.7 819.5,-559.7 726.5,-559.7"/>
<polygon fill="none" stroke="#000000" points="726.5,-559.7 726.5,-581.7 819.5,-581.7 819.5,-559.7 726.5,-559.7"/>
<image xlink:href="../../images/foreignKeys.png" width="11px" height="12px" preserveAspectRatio="xMinYMin meet" x="731.5" y="-576.7"/>
<text text-anchor="start" x="746.5" y="-566.8" font-family="Helvetica,sans-Serif" font-size="11.00" fill="#000000">shop_id</text>
<polygon fill="#ffffff" stroke="transparent" points="726.5,-537.7 726.5,-559.7 819.5,-559.7 819.5,-537.7 726.5,-537.7"/>
<polygon fill="none" stroke="#000000" points="726.5,-537.7 726.5,-559.7 819.5,-559.7 819.5,-537.7 726.5,-537.7"/>
<image xlink:href="../../images/foreignKeys.png" width="11px" height="12px" preserveAspectRatio="xMinYMin meet" x="731.5" y="-554.7"/>
<text text-anchor="start" x="746.5" y="-544.8" font-family="Helvetica,sans-Serif" font-size="11.00" fill="#000000">employee_id</text>
<polygon fill="none" stroke="#000000" points="726.5,-515.7 726.5,-537.7 819.5,-537.7 819.5,-515.7 726.5,-515.7"/>
<image xlink:href="../../images/foreignKeys.png" width="11px" height="12px" preserveAspectRatio="xMinYMin meet" x="731.5" y="-532.7"/>
<text text-anchor="start" x="746.5" y="-522.8" font-family="Helvetica,sans-Serif" font-size="11.00" fill="#000000">booking_id</text>
<polygon fill="none" stroke="#000000" points="726.5,-496.7 726.5,-515.7 819.5,-515.7 819.5,-496.7 726.5,-496.7"/>
<text text-anchor="start" x="729.5" y="-502.8" font-family="Helvetica,sans-Serif" font-size="11.00" fill="#000000">...</text>
<polygon fill="#ffffff" stroke="transparent" points="726.5,-477.7 726.5,-496.7 758.5,-496.7 758.5,-477.7 726.5,-477.7"/>
<polygon fill="none" stroke="#000000" points="726.5,-477.7 726.5,-496.7 758.5,-496.7 758.5,-477.7 726.5,-477.7"/>
<text text-anchor="start" x="729.5" y="-483.8" font-family="Helvetica,sans-Serif" font-size="11.00" fill="#000000">&lt; 4</text>
<polygon fill="#ffffff" stroke="transparent" points="758.5,-477.7 758.5,-496.7 801.5,-496.7 801.5,-477.7 758.5,-477.7"/>
<polygon fill="none" stroke="#000000" points="758.5,-477.7 758.5,-496.7 801.5,-496.7 801.5,-477.7 758.5,-477.7"/>
<text text-anchor="start" x="766.1105" y="-483.8" font-family="Helvetica,sans-Serif" font-size="11.00" fill="#000000">0 rows</text>
<polygon fill="#ffffff" stroke="transparent" points="801.5,-477.7 801.5,-496.7 819.5,-496.7 819.5,-477.7 801.5,-477.7"/>
<polygon fill="none" stroke="#000000" points="801.5,-477.7 801.5,-496.7 819.5,-496.7 819.5,-477.7 801.5,-477.7"/>
<text text-anchor="start" x="810.3862" y="-483.8" font-family="Helvetica,sans-Serif" font-size="11.00" fill="#000000"> &#160;</text>
</a>
</g>
</g>
<!-- reviews&#45;&gt;bookings -->
<g id="edge9" class="edge">
<title>reviews:w&#45;&gt;bookings:e</title>
<path fill="none" stroke="#000000" d="M712.4646,-521.9178C699.9324,-511.5037 699.2451,-487.7 677.5,-487.7"/>
<polygon fill="#000000" stroke="#000000" points="718.9275,-524.1198 725.3389,-530.1076 722.7137,-525.4099 726.5,-526.7 726.5,-526.7 726.5,-526.7 722.7137,-525.4099 727.6611,-523.2924 718.9275,-524.1198 718.9275,-524.1198"/>
<ellipse fill="none" stroke="#000000" cx="715.8985" cy="-523.0878" rx="3.2" ry="3.2"/>
</g>
<!-- reviews&#45;&gt;users -->
<g id="edge10" class="edge">
<title>reviews:w&#45;&gt;users:e</title>
<path fill="none" stroke="#000000" d="M711.923,-593.4912C624.5791,-603.4091 635.9131,-703.7718 543,-735.7 475.6389,-758.8476 176.1645,-739.3693 156,-720.7 107.6065,-675.8948 181.4503,-426.7 115.5,-426.7"/>
<polygon fill="#000000" stroke="#000000" points="718.5118,-593.1336 726.6951,-596.2947 722.5059,-592.9168 726.5,-592.7 726.5,-592.7 726.5,-592.7 722.5059,-592.9168 726.3049,-589.1053 718.5118,-593.1336 718.5118,-593.1336"/>
<ellipse fill="none" stroke="#000000" cx="715.3165" cy="-593.3071" rx="3.2" ry="3.2"/>
</g>
<!-- reviews&#45;&gt;employees -->
<g id="edge11" class="edge">
<title>reviews:w&#45;&gt;employees:e</title>
<path fill="none" stroke="#000000" d="M711.7972,-549.0317C654.9365,-551.5725 627.8539,-566.9463 576,-532.7 536.0702,-506.3288 571.3521,-438.7 523.5,-438.7"/>
<polygon fill="#000000" stroke="#000000" points="718.502,-548.8805 726.5812,-552.2991 722.501,-548.7903 726.5,-548.7 726.5,-548.7 726.5,-548.7 722.501,-548.7903 726.4188,-545.1009 718.502,-548.8805 718.502,-548.8805"/>
<ellipse fill="none" stroke="#000000" cx="715.3028" cy="-548.9527" rx="3.2" ry="3.2"/>
</g>
<!-- reviews&#45;&gt;shops -->
<g id="edge12" class="edge">
<title>reviews:w&#45;&gt;shops:e</title>
<path fill="none" stroke="#000000" d="M711.782,-570.517C580.0632,-567.2368 526.7966,-521.7444 406,-587.7 377.6355,-603.1872 395.8171,-646.7 363.5,-646.7"/>
<polygon fill="#000000" stroke="#000000" points="718.5006,-570.6005 726.4552,-574.2997 722.5003,-570.6502 726.5,-570.7 726.5,-570.7 726.5,-570.7 722.5003,-570.6502 726.5448,-567.1003 718.5006,-570.6005 718.5006,-570.6005"/>
<ellipse fill="none" stroke="#000000" cx="715.3009" cy="-570.5607" rx="3.2" ry="3.2"/>
</g>
</g>
</svg>
