<?xml version="1.0" encoding="UTF-8" standalone="no"?>
<!DOCTYPE svg PUBLIC "-//W3C//DTD SVG 1.1//EN"
 "http://www.w3.org/Graphics/SVG/1.1/DTD/svg11.dtd">
<!-- Generated by graphviz version 2.40.1 (20161225.0304)
 -->
<!-- Title: twoDegreesRelationshipsDiagram Pages: 1 -->
<svg width="879pt" height="700pt"
 viewBox="0.00 0.00 879.00 700.25" xmlns="http://www.w3.org/2000/svg" xmlns:xlink="http://www.w3.org/1999/xlink">
<g id="graph0" class="graph" transform="scale(1 1) rotate(0) translate(4 696.254)">
<title>twoDegreesRelationshipsDiagram</title>
<polygon fill="#ffffff" stroke="transparent" points="-4,4 -4,-696.254 875,-696.254 875,4 -4,4"/>
<text text-anchor="middle" x="72.4936" y="-7.3" font-family="Helvetica,sans-Serif" font-size="11.00" fill="#000000">Generated by SchemaSpy</text>
<!-- bookings -->
<g id="node1" class="node">
<title>bookings</title>
<g id="a_node1"><a xlink:href="../../tables/bookings.html" xlink:title="bookings" target="_top">
<polygon fill="#ffffff" stroke="transparent" points="606,-304.1201 606,-475.1201 699,-475.1201 699,-304.1201 606,-304.1201"/>
<polygon fill="#f5f5f5" stroke="transparent" points="606.5,-451.6201 606.5,-474.6201 699.5,-474.6201 699.5,-451.6201 606.5,-451.6201"/>
<polygon fill="none" stroke="#000000" points="606.5,-451.6201 606.5,-474.6201 699.5,-474.6201 699.5,-451.6201 606.5,-451.6201"/>
<text text-anchor="start" x="611.5" y="-460.7201" font-family="Helvetica,sans-Serif" font-weight="bold" font-size="11.00" fill="#000000">bookings</text>
<text text-anchor="start" x="664.5437" y="-459.7201" font-family="Helvetica,sans-Serif" font-size="11.00" fill="#000000">[table]</text>
<polygon fill="none" stroke="#000000" points="606.5,-429.6201 606.5,-451.6201 699.5,-451.6201 699.5,-429.6201 606.5,-429.6201"/>
<image xlink:href="../../images/primaryKeys.png" width="11px" height="12px" preserveAspectRatio="xMinYMin meet" x="611.5" y="-446.62"/>
<text text-anchor="start" x="626.5" y="-436.7201" font-family="Helvetica,sans-Serif" font-size="11.00" fill="#000000">id</text>
<polygon fill="#ffffff" stroke="transparent" points="606.5,-407.6201 606.5,-429.6201 699.5,-429.6201 699.5,-407.6201 606.5,-407.6201"/>
<polygon fill="none" stroke="#000000" points="606.5,-407.6201 606.5,-429.6201 699.5,-429.6201 699.5,-407.6201 606.5,-407.6201"/>
<image xlink:href="../../images/foreignKeys.png" width="11px" height="12px" preserveAspectRatio="xMinYMin meet" x="611.5" y="-424.62"/>
<text text-anchor="start" x="626.5" y="-414.7201" font-family="Helvetica,sans-Serif" font-size="11.00" fill="#000000">shop_id</text>
<polygon fill="#ffffff" stroke="transparent" points="606.5,-385.6201 606.5,-407.6201 699.5,-407.6201 699.5,-385.6201 606.5,-385.6201"/>
<polygon fill="none" stroke="#000000" points="606.5,-385.6201 606.5,-407.6201 699.5,-407.6201 699.5,-385.6201 606.5,-385.6201"/>
<image xlink:href="../../images/foreignKeys.png" width="11px" height="12px" preserveAspectRatio="xMinYMin meet" x="611.5" y="-402.62"/>
<text text-anchor="start" x="626.5" y="-392.7201" font-family="Helvetica,sans-Serif" font-size="11.00" fill="#000000">customer_id</text>
<polygon fill="#ffffff" stroke="transparent" points="606.5,-363.6201 606.5,-385.6201 699.5,-385.6201 699.5,-363.6201 606.5,-363.6201"/>
<polygon fill="none" stroke="#000000" points="606.5,-363.6201 606.5,-385.6201 699.5,-385.6201 699.5,-363.6201 606.5,-363.6201"/>
<image xlink:href="../../images/foreignKeys.png" width="11px" height="12px" preserveAspectRatio="xMinYMin meet" x="611.5" y="-380.62"/>
<text text-anchor="start" x="626.5" y="-370.7201" font-family="Helvetica,sans-Serif" font-size="11.00" fill="#000000">employee_id</text>
<polygon fill="none" stroke="#000000" points="606.5,-341.6201 606.5,-363.6201 699.5,-363.6201 699.5,-341.6201 606.5,-341.6201"/>
<image xlink:href="../../images/foreignKeys.png" width="11px" height="12px" preserveAspectRatio="xMinYMin meet" x="611.5" y="-358.62"/>
<text text-anchor="start" x="626.5" y="-348.7201" font-family="Helvetica,sans-Serif" font-size="11.00" fill="#000000">service_id</text>
<polygon fill="none" stroke="#000000" points="606.5,-322.6201 606.5,-341.6201 699.5,-341.6201 699.5,-322.6201 606.5,-322.6201"/>
<text text-anchor="start" x="609.5" y="-328.7201" font-family="Helvetica,sans-Serif" font-size="11.00" fill="#000000">...</text>
<polygon fill="#ffffff" stroke="transparent" points="606.5,-303.6201 606.5,-322.6201 633.5,-322.6201 633.5,-303.6201 606.5,-303.6201"/>
<polygon fill="none" stroke="#000000" points="606.5,-303.6201 606.5,-322.6201 633.5,-322.6201 633.5,-303.6201 606.5,-303.6201"/>
<text text-anchor="start" x="609.5" y="-309.7201" font-family="Helvetica,sans-Serif" font-size="11.00" fill="#000000">&lt; 4</text>
<polygon fill="#ffffff" stroke="transparent" points="633.5,-303.6201 633.5,-322.6201 674.5,-322.6201 674.5,-303.6201 633.5,-303.6201"/>
<polygon fill="none" stroke="#000000" points="633.5,-303.6201 633.5,-322.6201 674.5,-322.6201 674.5,-303.6201 633.5,-303.6201"/>
<text text-anchor="start" x="639.1105" y="-309.7201" font-family="Helvetica,sans-Serif" font-size="11.00" fill="#000000">0 rows</text>
<polygon fill="#ffffff" stroke="transparent" points="674.5,-303.6201 674.5,-322.6201 699.5,-322.6201 699.5,-303.6201 674.5,-303.6201"/>
<polygon fill="none" stroke="#000000" points="674.5,-303.6201 674.5,-322.6201 699.5,-322.6201 699.5,-303.6201 674.5,-303.6201"/>
<text text-anchor="start" x="680.9053" y="-309.7201" font-family="Helvetica,sans-Serif" font-size="11.00" fill="#000000">1 &gt;</text>
</a>
</g>
</g>
<!-- users -->
<g id="node2" class="node">
<title>users</title>
<g id="a_node2"><a xlink:href="../../tables/users.html" xlink:title="users" target="_top">
<polygon fill="#ffffff" stroke="transparent" points="8,-237.1201 8,-342.1201 115,-342.1201 115,-237.1201 8,-237.1201"/>
<polygon fill="#f5f5f5" stroke="transparent" points="8.5,-318.6201 8.5,-341.6201 115.5,-341.6201 115.5,-318.6201 8.5,-318.6201"/>
<polygon fill="none" stroke="#000000" points="8.5,-318.6201 8.5,-341.6201 115.5,-341.6201 115.5,-318.6201 8.5,-318.6201"/>
<text text-anchor="start" x="13.5" y="-327.7201" font-family="Helvetica,sans-Serif" font-weight="bold" font-size="11.00" fill="#000000">users</text>
<text text-anchor="start" x="80.5437" y="-326.7201" font-family="Helvetica,sans-Serif" font-size="11.00" fill="#000000">[table]</text>
<polygon fill="none" stroke="#000000" points="8.5,-296.6201 8.5,-318.6201 115.5,-318.6201 115.5,-296.6201 8.5,-296.6201"/>
<image xlink:href="../../images/primaryKeys.png" width="11px" height="12px" preserveAspectRatio="xMinYMin meet" x="13.5" y="-313.62"/>
<text text-anchor="start" x="28.5" y="-303.7201" font-family="Helvetica,sans-Serif" font-size="11.00" fill="#000000">id</text>
<polygon fill="#ffffff" stroke="transparent" points="8.5,-274.6201 8.5,-296.6201 115.5,-296.6201 115.5,-274.6201 8.5,-274.6201"/>
<polygon fill="none" stroke="#000000" points="8.5,-274.6201 8.5,-296.6201 115.5,-296.6201 115.5,-274.6201 8.5,-274.6201"/>
<text text-anchor="start" x="28.5" y="-281.7201" font-family="Helvetica,sans-Serif" font-size="11.00" fill="#000000">email</text>
<polygon fill="none" stroke="#000000" points="8.5,-255.6201 8.5,-274.6201 115.5,-274.6201 115.5,-255.6201 8.5,-255.6201"/>
<text text-anchor="start" x="11.5" y="-261.7201" font-family="Helvetica,sans-Serif" font-size="11.00" fill="#000000">...</text>
<polygon fill="#ffffff" stroke="transparent" points="8.5,-236.6201 8.5,-255.6201 38.5,-255.6201 38.5,-236.6201 8.5,-236.6201"/>
<polygon fill="none" stroke="#000000" points="8.5,-236.6201 8.5,-255.6201 38.5,-255.6201 38.5,-236.6201 8.5,-236.6201"/>
<text text-anchor="start" x="11.5" y="-242.7201" font-family="Helvetica,sans-Serif" font-size="11.00" fill="#000000"> &#160;</text>
<polygon fill="#ffffff" stroke="transparent" points="38.5,-236.6201 38.5,-255.6201 85.5,-255.6201 85.5,-236.6201 38.5,-236.6201"/>
<polygon fill="none" stroke="#000000" points="38.5,-236.6201 38.5,-255.6201 85.5,-255.6201 85.5,-236.6201 38.5,-236.6201"/>
<text text-anchor="start" x="50.1105" y="-242.7201" font-family="Helvetica,sans-Serif" font-size="11.00" fill="#000000">6 rows</text>
<polygon fill="#ffffff" stroke="transparent" points="85.5,-236.6201 85.5,-255.6201 115.5,-255.6201 115.5,-236.6201 85.5,-236.6201"/>
<polygon fill="none" stroke="#000000" points="85.5,-236.6201 85.5,-255.6201 115.5,-255.6201 115.5,-236.6201 85.5,-236.6201"/>
<text text-anchor="start" x="96.9053" y="-242.7201" font-family="Helvetica,sans-Serif" font-size="11.00" fill="#000000">5 &gt;</text>
</a>
</g>
</g>
<!-- bookings&#45;&gt;users -->
<g id="edge1" class="edge">
<title>bookings:w&#45;&gt;users:e</title>
<path fill="none" stroke="#000000" d="M591.8861,-395.6862C485.9268,-380.9134 632.898,-194.6113 543,-103.6201 488.5185,-48.4762 450.026,-73.3422 373,-64.6201 277.168,-53.7686 229.589,-2.2809 156,-64.6201 114.2286,-100.0058 170.2449,-307.6201 115.5,-307.6201"/>
<polygon fill="#000000" stroke="#000000" points="598.5163,-396.1099 606.2704,-400.2128 602.5081,-396.365 606.5,-396.6201 606.5,-396.6201 606.5,-396.6201 602.5081,-396.365 606.7296,-393.0275 598.5163,-396.1099 598.5163,-396.1099"/>
<ellipse fill="none" stroke="#000000" cx="595.3228" cy="-395.9058" rx="3.2" ry="3.2"/>
</g>
<!-- employees -->
<g id="node3" class="node">
<title>employees</title>
<g id="a_node3"><a xlink:href="../../tables/employees.html" xlink:title="employees" target="_top">
<polygon fill="#ffffff" stroke="transparent" points="426,-457.1201 426,-584.1201 523,-584.1201 523,-457.1201 426,-457.1201"/>
<polygon fill="#f5f5f5" stroke="transparent" points="426.5,-560.6201 426.5,-583.6201 523.5,-583.6201 523.5,-560.6201 426.5,-560.6201"/>
<polygon fill="none" stroke="#000000" points="426.5,-560.6201 426.5,-583.6201 523.5,-583.6201 523.5,-560.6201 426.5,-560.6201"/>
<text text-anchor="start" x="431.5" y="-569.7201" font-family="Helvetica,sans-Serif" font-weight="bold" font-size="11.00" fill="#000000">employees</text>
<text text-anchor="start" x="489.0219" y="-568.7201" font-family="Helvetica,sans-Serif" font-size="11.00" fill="#000000">[table]</text>
<polygon fill="none" stroke="#000000" points="426.5,-538.6201 426.5,-560.6201 523.5,-560.6201 523.5,-538.6201 426.5,-538.6201"/>
<image xlink:href="../../images/primaryKeys.png" width="11px" height="12px" preserveAspectRatio="xMinYMin meet" x="431.5" y="-555.62"/>
<text text-anchor="start" x="446.5" y="-545.7201" font-family="Helvetica,sans-Serif" font-size="11.00" fill="#000000">id</text>
<polygon fill="#ffffff" stroke="transparent" points="426.5,-516.6201 426.5,-538.6201 523.5,-538.6201 523.5,-516.6201 426.5,-516.6201"/>
<polygon fill="none" stroke="#000000" points="426.5,-516.6201 426.5,-538.6201 523.5,-538.6201 523.5,-516.6201 426.5,-516.6201"/>
<image xlink:href="../../images/foreignKeys.png" width="11px" height="12px" preserveAspectRatio="xMinYMin meet" x="431.5" y="-533.62"/>
<text text-anchor="start" x="446.5" y="-523.7201" font-family="Helvetica,sans-Serif" font-size="11.00" fill="#000000">shop_id</text>
<polygon fill="#ffffff" stroke="transparent" points="426.5,-494.6201 426.5,-516.6201 523.5,-516.6201 523.5,-494.6201 426.5,-494.6201"/>
<polygon fill="none" stroke="#000000" points="426.5,-494.6201 426.5,-516.6201 523.5,-516.6201 523.5,-494.6201 426.5,-494.6201"/>
<image xlink:href="../../images/foreignKeys.png" width="11px" height="12px" preserveAspectRatio="xMinYMin meet" x="431.5" y="-511.62"/>
<text text-anchor="start" x="446.5" y="-501.7201" font-family="Helvetica,sans-Serif" font-size="11.00" fill="#000000">user_id</text>
<polygon fill="none" stroke="#000000" points="426.5,-475.6201 426.5,-494.6201 523.5,-494.6201 523.5,-475.6201 426.5,-475.6201"/>
<text text-anchor="start" x="429.5" y="-481.7201" font-family="Helvetica,sans-Serif" font-size="11.00" fill="#000000">...</text>
<polygon fill="#ffffff" stroke="transparent" points="426.5,-456.6201 426.5,-475.6201 455.5,-475.6201 455.5,-456.6201 426.5,-456.6201"/>
<polygon fill="none" stroke="#000000" points="426.5,-456.6201 426.5,-475.6201 455.5,-475.6201 455.5,-456.6201 426.5,-456.6201"/>
<text text-anchor="start" x="429.5" y="-462.7201" font-family="Helvetica,sans-Serif" font-size="11.00" fill="#000000">&lt; 2</text>
<polygon fill="#ffffff" stroke="transparent" points="455.5,-456.6201 455.5,-475.6201 497.5,-475.6201 497.5,-456.6201 455.5,-456.6201"/>
<polygon fill="none" stroke="#000000" points="455.5,-456.6201 455.5,-475.6201 497.5,-475.6201 497.5,-456.6201 455.5,-456.6201"/>
<text text-anchor="start" x="462.1105" y="-462.7201" font-family="Helvetica,sans-Serif" font-size="11.00" fill="#000000">0 rows</text>
<polygon fill="#ffffff" stroke="transparent" points="497.5,-456.6201 497.5,-475.6201 523.5,-475.6201 523.5,-456.6201 497.5,-456.6201"/>
<polygon fill="none" stroke="#000000" points="497.5,-456.6201 497.5,-475.6201 523.5,-475.6201 523.5,-456.6201 497.5,-456.6201"/>
<text text-anchor="start" x="504.9053" y="-462.7201" font-family="Helvetica,sans-Serif" font-size="11.00" fill="#000000">3 &gt;</text>
</a>
</g>
</g>
<!-- bookings&#45;&gt;employees -->
<g id="edge2" class="edge">
<title>bookings:w&#45;&gt;employees:e</title>
<path fill="none" stroke="#000000" d="M591.9454,-376.7074C531.1835,-396.4517 604.0341,-549.6201 523.5,-549.6201"/>
<polygon fill="#000000" stroke="#000000" points="598.581,-375.7558 607.0111,-378.1837 602.5405,-375.188 606.5,-374.6201 606.5,-374.6201 606.5,-374.6201 602.5405,-375.188 605.9889,-371.0566 598.581,-375.7558 598.581,-375.7558"/>
<ellipse fill="none" stroke="#000000" cx="595.4134" cy="-376.2101" rx="3.2" ry="3.2"/>
</g>
<!-- services -->
<g id="node4" class="node">
<title>services</title>
<g id="a_node4"><a xlink:href="../../tables/services.html" xlink:title="services" target="_top">
<polygon fill="#ffffff" stroke="transparent" points="414,-303.1201 414,-408.1201 535,-408.1201 535,-303.1201 414,-303.1201"/>
<polygon fill="#f5f5f5" stroke="transparent" points="414.5,-384.6201 414.5,-407.6201 535.5,-407.6201 535.5,-384.6201 414.5,-384.6201"/>
<polygon fill="none" stroke="#000000" points="414.5,-384.6201 414.5,-407.6201 535.5,-407.6201 535.5,-384.6201 414.5,-384.6201"/>
<text text-anchor="start" x="419.5" y="-393.7201" font-family="Helvetica,sans-Serif" font-weight="bold" font-size="11.00" fill="#000000">services</text>
<text text-anchor="start" x="500.5437" y="-392.7201" font-family="Helvetica,sans-Serif" font-size="11.00" fill="#000000">[table]</text>
<polygon fill="none" stroke="#000000" points="414.5,-362.6201 414.5,-384.6201 535.5,-384.6201 535.5,-362.6201 414.5,-362.6201"/>
<image xlink:href="../../images/primaryKeys.png" width="11px" height="12px" preserveAspectRatio="xMinYMin meet" x="419.5" y="-379.62"/>
<text text-anchor="start" x="434.5" y="-369.7201" font-family="Helvetica,sans-Serif" font-size="11.00" fill="#000000">id</text>
<polygon fill="#ffffff" stroke="transparent" points="414.5,-340.6201 414.5,-362.6201 535.5,-362.6201 535.5,-340.6201 414.5,-340.6201"/>
<polygon fill="none" stroke="#000000" points="414.5,-340.6201 414.5,-362.6201 535.5,-362.6201 535.5,-340.6201 414.5,-340.6201"/>
<image xlink:href="../../images/foreignKeys.png" width="11px" height="12px" preserveAspectRatio="xMinYMin meet" x="419.5" y="-357.62"/>
<text text-anchor="start" x="434.5" y="-347.7201" font-family="Helvetica,sans-Serif" font-size="11.00" fill="#000000">shop_id</text>
<polygon fill="none" stroke="#000000" points="414.5,-321.6201 414.5,-340.6201 535.5,-340.6201 535.5,-321.6201 414.5,-321.6201"/>
<text text-anchor="start" x="417.5" y="-327.7201" font-family="Helvetica,sans-Serif" font-size="11.00" fill="#000000">...</text>
<polygon fill="#ffffff" stroke="transparent" points="414.5,-302.6201 414.5,-321.6201 455.5,-321.6201 455.5,-302.6201 414.5,-302.6201"/>
<polygon fill="none" stroke="#000000" points="414.5,-302.6201 414.5,-321.6201 455.5,-321.6201 455.5,-302.6201 414.5,-302.6201"/>
<text text-anchor="start" x="417.5" y="-308.7201" font-family="Helvetica,sans-Serif" font-size="11.00" fill="#000000">&lt; 1</text>
<polygon fill="#ffffff" stroke="transparent" points="455.5,-302.6201 455.5,-321.6201 503.5,-321.6201 503.5,-302.6201 455.5,-302.6201"/>
<polygon fill="none" stroke="#000000" points="455.5,-302.6201 455.5,-321.6201 503.5,-321.6201 503.5,-302.6201 455.5,-302.6201"/>
<text text-anchor="start" x="468.1105" y="-308.7201" font-family="Helvetica,sans-Serif" font-size="11.00" fill="#000000">0 rows</text>
<polygon fill="#ffffff" stroke="transparent" points="503.5,-302.6201 503.5,-321.6201 535.5,-321.6201 535.5,-302.6201 503.5,-302.6201"/>
<polygon fill="none" stroke="#000000" points="503.5,-302.6201 503.5,-321.6201 535.5,-321.6201 535.5,-302.6201 503.5,-302.6201"/>
<text text-anchor="start" x="516.9053" y="-308.7201" font-family="Helvetica,sans-Serif" font-size="11.00" fill="#000000">2 &gt;</text>
</a>
</g>
</g>
<!-- bookings&#45;&gt;services -->
<g id="edge3" class="edge">
<title>bookings:w&#45;&gt;services:e</title>
<path fill="none" stroke="#000000" d="M592.0016,-354.1985C571.0688,-359.0823 562.8796,-373.6201 535.5,-373.6201"/>
<polygon fill="#000000" stroke="#000000" points="598.547,-353.486 606.8896,-356.199 602.5235,-353.0531 606.5,-352.6201 606.5,-352.6201 606.5,-352.6201 602.5235,-353.0531 606.1104,-349.0413 598.547,-353.486 598.547,-353.486"/>
<ellipse fill="none" stroke="#000000" cx="595.3658" cy="-353.8324" rx="3.2" ry="3.2"/>
</g>
<!-- shops -->
<g id="node5" class="node">
<title>shops</title>
<g id="a_node5"><a xlink:href="../../tables/shops.html" xlink:title="shops" target="_top">
<polygon fill="#ffffff" stroke="transparent" points="164,-99.6201 164,-563.6201 365,-563.6201 365,-99.6201 164,-99.6201"/>
<polygon fill="#f5f5f5" stroke="transparent" points="166.5,-538.6201 166.5,-561.6201 363.5,-561.6201 363.5,-538.6201 166.5,-538.6201"/>
<polygon fill="none" stroke="#000000" points="166.5,-538.6201 166.5,-561.6201 363.5,-561.6201 363.5,-538.6201 166.5,-538.6201"/>
<text text-anchor="start" x="171.5" y="-547.7201" font-family="Helvetica,sans-Serif" font-weight="bold" font-size="11.00" fill="#000000">shops</text>
<text text-anchor="start" x="328.5437" y="-546.7201" font-family="Helvetica,sans-Serif" font-size="11.00" fill="#000000">[table]</text>
<polygon fill="none" stroke="#000000" points="166.5,-516.6201 166.5,-538.6201 273.5,-538.6201 273.5,-516.6201 166.5,-516.6201"/>
<image xlink:href="../../images/primaryKeys.png" width="11px" height="12px" preserveAspectRatio="xMinYMin meet" x="171.5" y="-533.62"/>
<text text-anchor="start" x="186.5" y="-523.7201" font-family="Helvetica,sans-Serif" font-size="11.00" fill="#000000">id</text>
<polygon fill="none" stroke="#000000" points="273.5,-516.6201 273.5,-538.6201 363.5,-538.6201 363.5,-516.6201 273.5,-516.6201"/>
<text text-anchor="start" x="276.5" y="-524.3201" font-family="Helvetica,sans-Serif" font-size="11.00" fill="#000000">bigserial[19]</text>
<polygon fill="none" stroke="#000000" points="166.5,-494.6201 166.5,-516.6201 273.5,-516.6201 273.5,-494.6201 166.5,-494.6201"/>
<text text-anchor="start" x="186.5" y="-501.7201" font-family="Helvetica,sans-Serif" font-size="11.00" fill="#000000">name</text>
<polygon fill="none" stroke="#000000" points="273.5,-494.6201 273.5,-516.6201 363.5,-516.6201 363.5,-494.6201 273.5,-494.6201"/>
<text text-anchor="start" x="276.5" y="-502.3201" font-family="Helvetica,sans-Serif" font-size="11.00" fill="#000000">varchar[100]</text>
<polygon fill="none" stroke="#000000" points="166.5,-472.6201 166.5,-494.6201 273.5,-494.6201 273.5,-472.6201 166.5,-472.6201"/>
<text text-anchor="start" x="186.5" y="-479.7201" font-family="Helvetica,sans-Serif" font-size="11.00" fill="#000000">description</text>
<polygon fill="none" stroke="#000000" points="273.5,-472.6201 273.5,-494.6201 363.5,-494.6201 363.5,-472.6201 273.5,-472.6201"/>
<text text-anchor="start" x="276.0043" y="-480.3201" font-family="Helvetica,sans-Serif" font-size="11.00" fill="#000000">text[2147483647]</text>
<polygon fill="none" stroke="#000000" points="166.5,-450.6201 166.5,-472.6201 273.5,-472.6201 273.5,-450.6201 166.5,-450.6201"/>
<text text-anchor="start" x="186.5" y="-457.7201" font-family="Helvetica,sans-Serif" font-size="11.00" fill="#000000">address</text>
<polygon fill="none" stroke="#000000" points="273.5,-450.6201 273.5,-472.6201 363.5,-472.6201 363.5,-450.6201 273.5,-450.6201"/>
<text text-anchor="start" x="276.5" y="-458.3201" font-family="Helvetica,sans-Serif" font-size="11.00" fill="#000000">varchar[200]</text>
<polygon fill="#ffffff" stroke="transparent" points="166.5,-428.6201 166.5,-450.6201 273.5,-450.6201 273.5,-428.6201 166.5,-428.6201"/>
<polygon fill="none" stroke="#000000" points="166.5,-428.6201 166.5,-450.6201 273.5,-450.6201 273.5,-428.6201 166.5,-428.6201"/>
<text text-anchor="start" x="186.5" y="-435.7201" font-family="Helvetica,sans-Serif" font-size="11.00" fill="#000000">city</text>
<polygon fill="none" stroke="#000000" points="273.5,-428.6201 273.5,-450.6201 363.5,-450.6201 363.5,-428.6201 273.5,-428.6201"/>
<text text-anchor="start" x="276.5" y="-436.3201" font-family="Helvetica,sans-Serif" font-size="11.00" fill="#000000">varchar[100]</text>
<polygon fill="none" stroke="#000000" points="166.5,-406.6201 166.5,-428.6201 273.5,-428.6201 273.5,-406.6201 166.5,-406.6201"/>
<text text-anchor="start" x="186.5" y="-413.7201" font-family="Helvetica,sans-Serif" font-size="11.00" fill="#000000">phone_number</text>
<polygon fill="none" stroke="#000000" points="273.5,-406.6201 273.5,-428.6201 363.5,-428.6201 363.5,-406.6201 273.5,-406.6201"/>
<text text-anchor="start" x="276.5" y="-414.3201" font-family="Helvetica,sans-Serif" font-size="11.00" fill="#000000">varchar[20]</text>
<polygon fill="none" stroke="#000000" points="166.5,-384.6201 166.5,-406.6201 273.5,-406.6201 273.5,-384.6201 166.5,-384.6201"/>
<text text-anchor="start" x="186.5" y="-391.7201" font-family="Helvetica,sans-Serif" font-size="11.00" fill="#000000">email</text>
<polygon fill="none" stroke="#000000" points="273.5,-384.6201 273.5,-406.6201 363.5,-406.6201 363.5,-384.6201 273.5,-384.6201"/>
<text text-anchor="start" x="276.5" y="-392.3201" font-family="Helvetica,sans-Serif" font-size="11.00" fill="#000000">varchar[100]</text>
<polygon fill="none" stroke="#000000" points="166.5,-362.6201 166.5,-384.6201 273.5,-384.6201 273.5,-362.6201 166.5,-362.6201"/>
<text text-anchor="start" x="186.5" y="-369.7201" font-family="Helvetica,sans-Serif" font-size="11.00" fill="#000000">image_url</text>
<polygon fill="none" stroke="#000000" points="273.5,-362.6201 273.5,-384.6201 363.5,-384.6201 363.5,-362.6201 273.5,-362.6201"/>
<text text-anchor="start" x="276.0043" y="-370.3201" font-family="Helvetica,sans-Serif" font-size="11.00" fill="#000000">text[2147483647]</text>
<polygon fill="none" stroke="#000000" points="166.5,-340.6201 166.5,-362.6201 273.5,-362.6201 273.5,-340.6201 166.5,-340.6201"/>
<text text-anchor="start" x="186.5" y="-347.7201" font-family="Helvetica,sans-Serif" font-size="11.00" fill="#000000">rating</text>
<polygon fill="none" stroke="#000000" points="273.5,-340.6201 273.5,-362.6201 363.5,-362.6201 363.5,-340.6201 273.5,-340.6201"/>
<text text-anchor="start" x="276.5" y="-348.3201" font-family="Helvetica,sans-Serif" font-size="11.00" fill="#000000">float8[17,17]</text>
<polygon fill="none" stroke="#000000" points="166.5,-318.6201 166.5,-340.6201 273.5,-340.6201 273.5,-318.6201 166.5,-318.6201"/>
<text text-anchor="start" x="186.5" y="-325.7201" font-family="Helvetica,sans-Serif" font-size="11.00" fill="#000000">total_reviews</text>
<polygon fill="none" stroke="#000000" points="273.5,-318.6201 273.5,-340.6201 363.5,-340.6201 363.5,-318.6201 273.5,-318.6201"/>
<text text-anchor="start" x="276.5" y="-326.3201" font-family="Helvetica,sans-Serif" font-size="11.00" fill="#000000">int4[10]</text>
<polygon fill="#ffffff" stroke="transparent" points="166.5,-296.6201 166.5,-318.6201 273.5,-318.6201 273.5,-296.6201 166.5,-296.6201"/>
<polygon fill="none" stroke="#000000" points="166.5,-296.6201 166.5,-318.6201 273.5,-318.6201 273.5,-296.6201 166.5,-296.6201"/>
<image xlink:href="../../images/foreignKeys.png" width="11px" height="12px" preserveAspectRatio="xMinYMin meet" x="171.5" y="-313.62"/>
<text text-anchor="start" x="186.5" y="-303.7201" font-family="Helvetica,sans-Serif" font-size="11.00" fill="#000000">owner_id</text>
<polygon fill="none" stroke="#000000" points="273.5,-296.6201 273.5,-318.6201 363.5,-318.6201 363.5,-296.6201 273.5,-296.6201"/>
<text text-anchor="start" x="276.5" y="-304.3201" font-family="Helvetica,sans-Serif" font-size="11.00" fill="#000000">int8[19]</text>
<polygon fill="none" stroke="#000000" points="166.5,-274.6201 166.5,-296.6201 273.5,-296.6201 273.5,-274.6201 166.5,-274.6201"/>
<text text-anchor="start" x="186.5" y="-281.7201" font-family="Helvetica,sans-Serif" font-size="11.00" fill="#000000">is_active</text>
<polygon fill="none" stroke="#000000" points="273.5,-274.6201 273.5,-296.6201 363.5,-296.6201 363.5,-274.6201 273.5,-274.6201"/>
<text text-anchor="start" x="276.5" y="-282.3201" font-family="Helvetica,sans-Serif" font-size="11.00" fill="#000000">bool[1]</text>
<polygon fill="none" stroke="#000000" points="166.5,-252.6201 166.5,-274.6201 273.5,-274.6201 273.5,-252.6201 166.5,-252.6201"/>
<text text-anchor="start" x="186.5" y="-259.7201" font-family="Helvetica,sans-Serif" font-size="11.00" fill="#000000">created_at</text>
<polygon fill="none" stroke="#000000" points="273.5,-252.6201 273.5,-274.6201 363.5,-274.6201 363.5,-252.6201 273.5,-252.6201"/>
<text text-anchor="start" x="276.5" y="-260.3201" font-family="Helvetica,sans-Serif" font-size="11.00" fill="#000000">timestamp[29,6]</text>
<polygon fill="none" stroke="#000000" points="166.5,-230.6201 166.5,-252.6201 273.5,-252.6201 273.5,-230.6201 166.5,-230.6201"/>
<text text-anchor="start" x="186.5" y="-237.7201" font-family="Helvetica,sans-Serif" font-size="11.00" fill="#000000">updated_at</text>
<polygon fill="none" stroke="#000000" points="273.5,-230.6201 273.5,-252.6201 363.5,-252.6201 363.5,-230.6201 273.5,-230.6201"/>
<text text-anchor="start" x="276.5" y="-238.3201" font-family="Helvetica,sans-Serif" font-size="11.00" fill="#000000">timestamp[29,6]</text>
<polygon fill="none" stroke="#000000" points="166.5,-208.6201 166.5,-230.6201 273.5,-230.6201 273.5,-208.6201 166.5,-208.6201"/>
<text text-anchor="start" x="186.5" y="-215.7201" font-family="Helvetica,sans-Serif" font-size="11.00" fill="#000000">state</text>
<polygon fill="none" stroke="#000000" points="273.5,-208.6201 273.5,-230.6201 363.5,-230.6201 363.5,-208.6201 273.5,-208.6201"/>
<text text-anchor="start" x="276.5" y="-216.3201" font-family="Helvetica,sans-Serif" font-size="11.00" fill="#000000">varchar[50]</text>
<polygon fill="none" stroke="#000000" points="166.5,-186.6201 166.5,-208.6201 273.5,-208.6201 273.5,-186.6201 166.5,-186.6201"/>
<text text-anchor="start" x="186.5" y="-193.7201" font-family="Helvetica,sans-Serif" font-size="11.00" fill="#000000">zip_code</text>
<polygon fill="none" stroke="#000000" points="273.5,-186.6201 273.5,-208.6201 363.5,-208.6201 363.5,-186.6201 273.5,-186.6201"/>
<text text-anchor="start" x="276.5" y="-194.3201" font-family="Helvetica,sans-Serif" font-size="11.00" fill="#000000">varchar[10]</text>
<polygon fill="none" stroke="#000000" points="166.5,-164.6201 166.5,-186.6201 273.5,-186.6201 273.5,-164.6201 166.5,-164.6201"/>
<text text-anchor="start" x="186.5" y="-171.7201" font-family="Helvetica,sans-Serif" font-size="11.00" fill="#000000">opening_time</text>
<polygon fill="none" stroke="#000000" points="273.5,-164.6201 273.5,-186.6201 363.5,-186.6201 363.5,-164.6201 273.5,-164.6201"/>
<text text-anchor="start" x="276.5" y="-172.3201" font-family="Helvetica,sans-Serif" font-size="11.00" fill="#000000">time[15,6]</text>
<polygon fill="none" stroke="#000000" points="166.5,-142.6201 166.5,-164.6201 273.5,-164.6201 273.5,-142.6201 166.5,-142.6201"/>
<text text-anchor="start" x="186.5" y="-149.7201" font-family="Helvetica,sans-Serif" font-size="11.00" fill="#000000">closing_time</text>
<polygon fill="none" stroke="#000000" points="273.5,-142.6201 273.5,-164.6201 363.5,-164.6201 363.5,-142.6201 273.5,-142.6201"/>
<text text-anchor="start" x="276.5" y="-150.3201" font-family="Helvetica,sans-Serif" font-size="11.00" fill="#000000">time[15,6]</text>
<polygon fill="none" stroke="#000000" points="166.5,-120.6201 166.5,-142.6201 273.5,-142.6201 273.5,-120.6201 166.5,-120.6201"/>
<text text-anchor="start" x="186.5" y="-127.7201" font-family="Helvetica,sans-Serif" font-size="11.00" fill="#000000">website</text>
<polygon fill="none" stroke="#000000" points="273.5,-120.6201 273.5,-142.6201 363.5,-142.6201 363.5,-120.6201 273.5,-120.6201"/>
<text text-anchor="start" x="276.5" y="-128.3201" font-family="Helvetica,sans-Serif" font-size="11.00" fill="#000000">varchar[200]</text>
<polygon fill="#ffffff" stroke="transparent" points="166.5,-101.6201 166.5,-120.6201 214.5,-120.6201 214.5,-101.6201 166.5,-101.6201"/>
<polygon fill="none" stroke="#000000" points="166.5,-101.6201 166.5,-120.6201 214.5,-120.6201 214.5,-101.6201 166.5,-101.6201"/>
<text text-anchor="start" x="169.5" y="-107.7201" font-family="Helvetica,sans-Serif" font-size="11.00" fill="#000000">&lt; 1</text>
<polygon fill="#ffffff" stroke="transparent" points="214.5,-101.6201 214.5,-120.6201 273.5,-120.6201 273.5,-101.6201 214.5,-101.6201"/>
<polygon fill="none" stroke="#000000" points="214.5,-101.6201 214.5,-120.6201 273.5,-120.6201 273.5,-101.6201 214.5,-101.6201"/>
<text text-anchor="start" x="243.6105" y="-107.7201" font-family="Helvetica,sans-Serif" font-size="11.00" fill="#000000">1 row</text>
<polygon fill="#ffffff" stroke="transparent" points="273.5,-101.6201 273.5,-120.6201 363.5,-120.6201 363.5,-101.6201 273.5,-101.6201"/>
<polygon fill="none" stroke="#000000" points="273.5,-101.6201 273.5,-120.6201 363.5,-120.6201 363.5,-101.6201 273.5,-101.6201"/>
<text text-anchor="start" x="344.9053" y="-107.7201" font-family="Helvetica,sans-Serif" font-size="11.00" fill="#000000">5 &gt;</text>
<polygon fill="none" stroke="#000000" stroke-width="2" points="165,-100.6201 165,-562.6201 364,-562.6201 364,-100.6201 165,-100.6201"/>
</a>
</g>
</g>
<!-- bookings&#45;&gt;shops -->
<g id="edge4" class="edge">
<title>bookings:w&#45;&gt;shops:e</title>
<path fill="none" stroke="#000000" d="M592.0313,-418.6936C539.9722,-419.2249 439.343,-423.1583 406,-446.6201 372.7517,-470.0154 404.1545,-527.6201 363.5,-527.6201"/>
<polygon fill="#000000" stroke="#000000" points="598.5001,-418.6608 606.5183,-422.2201 602.5001,-418.6405 606.5,-418.6201 606.5,-418.6201 606.5,-418.6201 602.5001,-418.6405 606.4817,-415.0202 598.5001,-418.6608 598.5001,-418.6608"/>
<ellipse fill="none" stroke="#000000" cx="595.3001" cy="-418.6771" rx="3.2" ry="3.2"/>
</g>
<!-- employees&#45;&gt;users -->
<g id="edge8" class="edge">
<title>employees:w&#45;&gt;users:e</title>
<path fill="none" stroke="#000000" d="M412.4669,-508.9286C392.5584,-520.6321 402.5376,-560.1462 373,-574.6201 286.3944,-617.0584 229.1317,-637.4953 156,-574.6201 110.4942,-535.4964 175.512,-307.6201 115.5,-307.6201"/>
<polygon fill="#000000" stroke="#000000" points="418.7135,-507.456 427.3261,-509.1241 422.6067,-506.538 426.5,-505.6201 426.5,-505.6201 426.5,-505.6201 422.6067,-506.538 425.6739,-502.1162 418.7135,-507.456 418.7135,-507.456"/>
<ellipse fill="none" stroke="#000000" cx="415.5989" cy="-508.1903" rx="3.2" ry="3.2"/>
</g>
<!-- employees&#45;&gt;shops -->
<g id="edge7" class="edge">
<title>employees:w&#45;&gt;shops:e</title>
<path fill="none" stroke="#000000" d="M411.6849,-527.6201C394.7898,-527.6201 385.8125,-527.6201 363.5,-527.6201"/>
<polygon fill="#000000" stroke="#000000" points="418.5,-527.6202 426.5,-531.2201 422.5,-527.6202 426.5,-527.6201 426.5,-527.6201 426.5,-527.6201 422.5,-527.6202 426.5,-524.0201 418.5,-527.6202 418.5,-527.6202"/>
<ellipse fill="none" stroke="#000000" cx="415.3" cy="-527.6202" rx="3.2" ry="3.2"/>
</g>
<!-- services&#45;&gt;shops -->
<g id="edge15" class="edge">
<title>services:w&#45;&gt;shops:e</title>
<path fill="none" stroke="#000000" d="M400.0541,-354.1081C347.8373,-375.5 439.2139,-527.6201 363.5,-527.6201"/>
<polygon fill="#000000" stroke="#000000" points="406.6161,-352.978 415.111,-355.1679 410.558,-352.2991 414.5,-351.6201 414.5,-351.6201 414.5,-351.6201 410.558,-352.2991 413.889,-348.0724 406.6161,-352.978 406.6161,-352.978"/>
<ellipse fill="none" stroke="#000000" cx="403.4625" cy="-353.5212" rx="3.2" ry="3.2"/>
</g>
<!-- shops&#45;&gt;users -->
<g id="edge16" class="edge">
<title>shops:w&#45;&gt;users:e</title>
<path fill="none" stroke="#000000" d="M151.776,-307.6201C139.7815,-307.6201 132.3229,-307.6201 115.5,-307.6201"/>
<polygon fill="#000000" stroke="#000000" points="158.5,-307.6202 166.5,-311.2201 162.5,-307.6202 166.5,-307.6201 166.5,-307.6201 166.5,-307.6201 162.5,-307.6202 166.5,-304.0201 158.5,-307.6202 158.5,-307.6202"/>
<ellipse fill="none" stroke="#000000" cx="155.3" cy="-307.6202" rx="3.2" ry="3.2"/>
</g>
<!-- employee_services -->
<g id="node6" class="node">
<title>employee_services</title>
<g id="a_node6"><a xlink:href="../../tables/employee_services.html" xlink:title="employee_services" target="_top">
<polygon fill="#ffffff" stroke="transparent" points="584,-496.1201 584,-557.1201 721,-557.1201 721,-496.1201 584,-496.1201"/>
<polygon fill="#f5f5f5" stroke="transparent" points="584.5,-533.6201 584.5,-556.6201 721.5,-556.6201 721.5,-533.6201 584.5,-533.6201"/>
<polygon fill="none" stroke="#000000" points="584.5,-533.6201 584.5,-556.6201 721.5,-556.6201 721.5,-533.6201 584.5,-533.6201"/>
<text text-anchor="start" x="589.4376" y="-542.7201" font-family="Helvetica,sans-Serif" font-weight="bold" font-size="11.00" fill="#000000">employee_services</text>
<text text-anchor="start" x="687.0219" y="-541.7201" font-family="Helvetica,sans-Serif" font-size="11.00" fill="#000000">[table]</text>
<polygon fill="none" stroke="#000000" points="584.5,-514.6201 584.5,-533.6201 721.5,-533.6201 721.5,-514.6201 584.5,-514.6201"/>
<text text-anchor="start" x="587.5" y="-520.7201" font-family="Helvetica,sans-Serif" font-size="11.00" fill="#000000">...</text>
<polygon fill="#ffffff" stroke="transparent" points="584.5,-495.6201 584.5,-514.6201 638.5,-514.6201 638.5,-495.6201 584.5,-495.6201"/>
<polygon fill="none" stroke="#000000" points="584.5,-495.6201 584.5,-514.6201 638.5,-514.6201 638.5,-495.6201 584.5,-495.6201"/>
<text text-anchor="start" x="587.5" y="-501.7201" font-family="Helvetica,sans-Serif" font-size="11.00" fill="#000000">&lt; 2</text>
<polygon fill="#ffffff" stroke="transparent" points="638.5,-495.6201 638.5,-514.6201 692.5,-514.6201 692.5,-495.6201 638.5,-495.6201"/>
<polygon fill="none" stroke="#000000" points="638.5,-495.6201 638.5,-514.6201 692.5,-514.6201 692.5,-495.6201 638.5,-495.6201"/>
<text text-anchor="start" x="657.1105" y="-501.7201" font-family="Helvetica,sans-Serif" font-size="11.00" fill="#000000">0 rows</text>
<polygon fill="#ffffff" stroke="transparent" points="692.5,-495.6201 692.5,-514.6201 721.5,-514.6201 721.5,-495.6201 692.5,-495.6201"/>
<polygon fill="none" stroke="#000000" points="692.5,-495.6201 692.5,-514.6201 721.5,-514.6201 721.5,-495.6201 692.5,-495.6201"/>
<text text-anchor="start" x="712.3862" y="-501.7201" font-family="Helvetica,sans-Serif" font-size="11.00" fill="#000000"> &#160;</text>
</a>
</g>
</g>
<!-- employee_services&#45;&gt;employees -->
<g id="edge5" class="edge">
<title>employee_services:w&#45;&gt;employees:e</title>
<path fill="none" stroke="#000000" d="M569.9605,-526.2082C553.1794,-532.7846 547.215,-549.6201 523.5,-549.6201"/>
<polygon fill="#000000" stroke="#000000" points="576.6238,-525.0221 585.1309,-527.1644 580.5619,-524.3211 584.5,-523.6201 584.5,-523.6201 584.5,-523.6201 580.5619,-524.3211 583.8691,-520.0758 576.6238,-525.0221 576.6238,-525.0221"/>
<ellipse fill="none" stroke="#000000" cx="573.4733" cy="-525.5829" rx="3.2" ry="3.2"/>
</g>
<!-- employee_services&#45;&gt;services -->
<g id="edge6" class="edge">
<title>employee_services:w&#45;&gt;services:e</title>
<path fill="none" stroke="#000000" d="M570.3206,-520.7576C528.2539,-500.0201 599.8804,-373.6201 535.5,-373.6201"/>
<polygon fill="#000000" stroke="#000000" points="576.6582,-522.037 583.7876,-527.1489 580.5791,-522.8286 584.5,-523.6201 584.5,-523.6201 584.5,-523.6201 580.5791,-522.8286 585.2124,-520.0913 576.6582,-522.037 576.6582,-522.037"/>
<ellipse fill="none" stroke="#000000" cx="573.5215" cy="-521.4037" rx="3.2" ry="3.2"/>
</g>
<!-- favorite_shops -->
<g id="node7" class="node">
<title>favorite_shops</title>
<g id="a_node7"><a xlink:href="../../tables/favorite_shops.html" xlink:title="favorite_shops" target="_top">
<polygon fill="#ffffff" stroke="transparent" points="417.5,-114.1201 417.5,-241.1201 531.5,-241.1201 531.5,-114.1201 417.5,-114.1201"/>
<polygon fill="#f5f5f5" stroke="transparent" points="417.5,-217.6201 417.5,-240.6201 531.5,-240.6201 531.5,-217.6201 417.5,-217.6201"/>
<polygon fill="none" stroke="#000000" points="417.5,-217.6201 417.5,-240.6201 531.5,-240.6201 531.5,-217.6201 417.5,-217.6201"/>
<text text-anchor="start" x="422.2396" y="-226.7201" font-family="Helvetica,sans-Serif" font-weight="bold" font-size="11.00" fill="#000000">favorite_shops</text>
<text text-anchor="start" x="497.0219" y="-225.7201" font-family="Helvetica,sans-Serif" font-size="11.00" fill="#000000">[table]</text>
<polygon fill="none" stroke="#000000" points="417.5,-195.6201 417.5,-217.6201 531.5,-217.6201 531.5,-195.6201 417.5,-195.6201"/>
<image xlink:href="../../images/primaryKeys.png" width="11px" height="12px" preserveAspectRatio="xMinYMin meet" x="422.5" y="-212.62"/>
<text text-anchor="start" x="441.5" y="-202.7201" font-family="Helvetica,sans-Serif" font-size="11.00" fill="#000000">id</text>
<polygon fill="#ffffff" stroke="transparent" points="417.5,-173.6201 417.5,-195.6201 531.5,-195.6201 531.5,-173.6201 417.5,-173.6201"/>
<polygon fill="none" stroke="#000000" points="417.5,-173.6201 417.5,-195.6201 531.5,-195.6201 531.5,-173.6201 417.5,-173.6201"/>
<image xlink:href="../../images/foreignKeys.png" width="11px" height="12px" preserveAspectRatio="xMinYMin meet" x="422.5" y="-190.62"/>
<text text-anchor="start" x="441.5" y="-180.7201" font-family="Helvetica,sans-Serif" font-size="11.00" fill="#000000">user_id</text>
<polygon fill="#ffffff" stroke="transparent" points="417.5,-151.6201 417.5,-173.6201 531.5,-173.6201 531.5,-151.6201 417.5,-151.6201"/>
<polygon fill="none" stroke="#000000" points="417.5,-151.6201 417.5,-173.6201 531.5,-173.6201 531.5,-151.6201 417.5,-151.6201"/>
<image xlink:href="../../images/foreignKeys.png" width="11px" height="12px" preserveAspectRatio="xMinYMin meet" x="422.5" y="-168.62"/>
<text text-anchor="start" x="441.5" y="-158.7201" font-family="Helvetica,sans-Serif" font-size="11.00" fill="#000000">shop_id</text>
<polygon fill="none" stroke="#000000" points="417.5,-132.6201 417.5,-151.6201 531.5,-151.6201 531.5,-132.6201 417.5,-132.6201"/>
<text text-anchor="start" x="420.5" y="-138.7201" font-family="Helvetica,sans-Serif" font-size="11.00" fill="#000000">...</text>
<polygon fill="#ffffff" stroke="transparent" points="417.5,-113.6201 417.5,-132.6201 459.5,-132.6201 459.5,-113.6201 417.5,-113.6201"/>
<polygon fill="none" stroke="#000000" points="417.5,-113.6201 417.5,-132.6201 459.5,-132.6201 459.5,-113.6201 417.5,-113.6201"/>
<text text-anchor="start" x="420.5" y="-119.7201" font-family="Helvetica,sans-Serif" font-size="11.00" fill="#000000">&lt; 2</text>
<polygon fill="#ffffff" stroke="transparent" points="459.5,-113.6201 459.5,-132.6201 508.5,-132.6201 508.5,-113.6201 459.5,-113.6201"/>
<polygon fill="none" stroke="#000000" points="459.5,-113.6201 459.5,-132.6201 508.5,-132.6201 508.5,-113.6201 459.5,-113.6201"/>
<text text-anchor="start" x="473.1105" y="-119.7201" font-family="Helvetica,sans-Serif" font-size="11.00" fill="#000000">0 rows</text>
<polygon fill="#ffffff" stroke="transparent" points="508.5,-113.6201 508.5,-132.6201 531.5,-132.6201 531.5,-113.6201 508.5,-113.6201"/>
<polygon fill="none" stroke="#000000" points="508.5,-113.6201 508.5,-132.6201 531.5,-132.6201 531.5,-113.6201 508.5,-113.6201"/>
<text text-anchor="start" x="522.3862" y="-119.7201" font-family="Helvetica,sans-Serif" font-size="11.00" fill="#000000"> &#160;</text>
</a>
</g>
</g>
<!-- favorite_shops&#45;&gt;users -->
<g id="edge10" class="edge">
<title>favorite_shops:w&#45;&gt;users:e</title>
<path fill="none" stroke="#000000" d="M403.3934,-181.345C379.9829,-167.1501 407.5249,-110.6702 373,-88.6201 332.3593,-62.6641 193.0692,-57.7777 156,-88.6201 79.9096,-151.9292 214.4837,-307.6201 115.5,-307.6201"/>
<polygon fill="#000000" stroke="#000000" points="409.7073,-182.8108 416.6858,-188.1269 413.6036,-183.7155 417.5,-184.6201 417.5,-184.6201 417.5,-184.6201 413.6036,-183.7155 418.3142,-181.1134 409.7073,-182.8108 409.7073,-182.8108"/>
<ellipse fill="none" stroke="#000000" cx="406.5902" cy="-182.0871" rx="3.2" ry="3.2"/>
</g>
<!-- favorite_shops&#45;&gt;shops -->
<g id="edge9" class="edge">
<title>favorite_shops:w&#45;&gt;shops:e</title>
<path fill="none" stroke="#000000" d="M403.5926,-167.2351C349.2672,-209.4871 440.0491,-527.6201 363.5,-527.6201"/>
<polygon fill="#000000" stroke="#000000" points="409.9071,-165.1397 418.6338,-166.0369 413.7036,-163.8799 417.5,-162.6201 417.5,-162.6201 417.5,-162.6201 413.7036,-163.8799 416.3662,-159.2033 409.9071,-165.1397 409.9071,-165.1397"/>
<ellipse fill="none" stroke="#000000" cx="406.87" cy="-166.1476" rx="3.2" ry="3.2"/>
</g>
<!-- reviews -->
<g id="node8" class="node">
<title>reviews</title>
<g id="a_node8"><a xlink:href="../../tables/reviews.html" xlink:title="reviews" target="_top">
<polygon fill="#ffffff" stroke="transparent" points="770,-513.1201 770,-684.1201 863,-684.1201 863,-513.1201 770,-513.1201"/>
<polygon fill="#f5f5f5" stroke="transparent" points="770.5,-660.6201 770.5,-683.6201 863.5,-683.6201 863.5,-660.6201 770.5,-660.6201"/>
<polygon fill="none" stroke="#000000" points="770.5,-660.6201 770.5,-683.6201 863.5,-683.6201 863.5,-660.6201 770.5,-660.6201"/>
<text text-anchor="start" x="775.5" y="-669.7201" font-family="Helvetica,sans-Serif" font-weight="bold" font-size="11.00" fill="#000000">reviews</text>
<text text-anchor="start" x="828.5437" y="-668.7201" font-family="Helvetica,sans-Serif" font-size="11.00" fill="#000000">[table]</text>
<polygon fill="none" stroke="#000000" points="770.5,-638.6201 770.5,-660.6201 863.5,-660.6201 863.5,-638.6201 770.5,-638.6201"/>
<image xlink:href="../../images/primaryKeys.png" width="11px" height="12px" preserveAspectRatio="xMinYMin meet" x="775.5" y="-655.62"/>
<text text-anchor="start" x="790.5" y="-645.7201" font-family="Helvetica,sans-Serif" font-size="11.00" fill="#000000">id</text>
<polygon fill="#ffffff" stroke="transparent" points="770.5,-616.6201 770.5,-638.6201 863.5,-638.6201 863.5,-616.6201 770.5,-616.6201"/>
<polygon fill="none" stroke="#000000" points="770.5,-616.6201 770.5,-638.6201 863.5,-638.6201 863.5,-616.6201 770.5,-616.6201"/>
<image xlink:href="../../images/foreignKeys.png" width="11px" height="12px" preserveAspectRatio="xMinYMin meet" x="775.5" y="-633.62"/>
<text text-anchor="start" x="790.5" y="-623.7201" font-family="Helvetica,sans-Serif" font-size="11.00" fill="#000000">customer_id</text>
<polygon fill="#ffffff" stroke="transparent" points="770.5,-594.6201 770.5,-616.6201 863.5,-616.6201 863.5,-594.6201 770.5,-594.6201"/>
<polygon fill="none" stroke="#000000" points="770.5,-594.6201 770.5,-616.6201 863.5,-616.6201 863.5,-594.6201 770.5,-594.6201"/>
<image xlink:href="../../images/foreignKeys.png" width="11px" height="12px" preserveAspectRatio="xMinYMin meet" x="775.5" y="-611.62"/>
<text text-anchor="start" x="790.5" y="-601.7201" font-family="Helvetica,sans-Serif" font-size="11.00" fill="#000000">shop_id</text>
<polygon fill="#ffffff" stroke="transparent" points="770.5,-572.6201 770.5,-594.6201 863.5,-594.6201 863.5,-572.6201 770.5,-572.6201"/>
<polygon fill="none" stroke="#000000" points="770.5,-572.6201 770.5,-594.6201 863.5,-594.6201 863.5,-572.6201 770.5,-572.6201"/>
<image xlink:href="../../images/foreignKeys.png" width="11px" height="12px" preserveAspectRatio="xMinYMin meet" x="775.5" y="-589.62"/>
<text text-anchor="start" x="790.5" y="-579.7201" font-family="Helvetica,sans-Serif" font-size="11.00" fill="#000000">employee_id</text>
<polygon fill="none" stroke="#000000" points="770.5,-550.6201 770.5,-572.6201 863.5,-572.6201 863.5,-550.6201 770.5,-550.6201"/>
<image xlink:href="../../images/foreignKeys.png" width="11px" height="12px" preserveAspectRatio="xMinYMin meet" x="775.5" y="-567.62"/>
<text text-anchor="start" x="790.5" y="-557.7201" font-family="Helvetica,sans-Serif" font-size="11.00" fill="#000000">booking_id</text>
<polygon fill="none" stroke="#000000" points="770.5,-531.6201 770.5,-550.6201 863.5,-550.6201 863.5,-531.6201 770.5,-531.6201"/>
<text text-anchor="start" x="773.5" y="-537.7201" font-family="Helvetica,sans-Serif" font-size="11.00" fill="#000000">...</text>
<polygon fill="#ffffff" stroke="transparent" points="770.5,-512.6201 770.5,-531.6201 802.5,-531.6201 802.5,-512.6201 770.5,-512.6201"/>
<polygon fill="none" stroke="#000000" points="770.5,-512.6201 770.5,-531.6201 802.5,-531.6201 802.5,-512.6201 770.5,-512.6201"/>
<text text-anchor="start" x="773.5" y="-518.7201" font-family="Helvetica,sans-Serif" font-size="11.00" fill="#000000">&lt; 4</text>
<polygon fill="#ffffff" stroke="transparent" points="802.5,-512.6201 802.5,-531.6201 845.5,-531.6201 845.5,-512.6201 802.5,-512.6201"/>
<polygon fill="none" stroke="#000000" points="802.5,-512.6201 802.5,-531.6201 845.5,-531.6201 845.5,-512.6201 802.5,-512.6201"/>
<text text-anchor="start" x="810.1105" y="-518.7201" font-family="Helvetica,sans-Serif" font-size="11.00" fill="#000000">0 rows</text>
<polygon fill="#ffffff" stroke="transparent" points="845.5,-512.6201 845.5,-531.6201 863.5,-531.6201 863.5,-512.6201 845.5,-512.6201"/>
<polygon fill="none" stroke="#000000" points="845.5,-512.6201 845.5,-531.6201 863.5,-531.6201 863.5,-512.6201 845.5,-512.6201"/>
<text text-anchor="start" x="854.3862" y="-518.7201" font-family="Helvetica,sans-Serif" font-size="11.00" fill="#000000"> &#160;</text>
</a>
</g>
</g>
<!-- reviews&#45;&gt;bookings -->
<g id="edge11" class="edge">
<title>reviews:w&#45;&gt;bookings:e</title>
<path fill="none" stroke="#000000" d="M756.3362,-558.8655C716.861,-540.8546 756.2503,-440.6201 699.5,-440.6201"/>
<polygon fill="#000000" stroke="#000000" points="762.6471,-560.0929 769.8127,-565.1539 766.5736,-560.8565 770.5,-561.6201 770.5,-561.6201 770.5,-561.6201 766.5736,-560.8565 771.1873,-558.0863 762.6471,-560.0929 762.6471,-560.0929"/>
<ellipse fill="none" stroke="#000000" cx="759.506" cy="-559.4819" rx="3.2" ry="3.2"/>
</g>
<!-- reviews&#45;&gt;users -->
<g id="edge12" class="edge">
<title>reviews:w&#45;&gt;users:e</title>
<path fill="none" stroke="#000000" d="M755.8164,-627.774C492.1294,-633.2953 354.3009,-784.4664 156,-603.6201 106.9455,-558.8835 181.8906,-307.6201 115.5,-307.6201"/>
<polygon fill="#000000" stroke="#000000" points="762.5004,-627.704 770.5377,-631.2199 766.5002,-627.6621 770.5,-627.6201 770.5,-627.6201 770.5,-627.6201 766.5002,-627.6621 770.4623,-624.0203 762.5004,-627.704 762.5004,-627.704"/>
<ellipse fill="none" stroke="#000000" cx="759.3006" cy="-627.7376" rx="3.2" ry="3.2"/>
</g>
<!-- reviews&#45;&gt;employees -->
<g id="edge13" class="edge">
<title>reviews:w&#45;&gt;employees:e</title>
<path fill="none" stroke="#000000" d="M755.8859,-583.634C680.8712,-583.7591 655.9247,-584.3372 576,-567.6201 551.8558,-562.5701 548.1667,-549.6201 523.5,-549.6201"/>
<polygon fill="#000000" stroke="#000000" points="762.5,-583.6278 770.5034,-587.2201 766.5,-583.6239 770.5,-583.6201 770.5,-583.6201 770.5,-583.6201 766.5,-583.6239 770.4966,-580.0201 762.5,-583.6278 762.5,-583.6278"/>
<ellipse fill="none" stroke="#000000" cx="759.3" cy="-583.6308" rx="3.2" ry="3.2"/>
</g>
<!-- reviews&#45;&gt;shops -->
<g id="edge14" class="edge">
<title>reviews:w&#45;&gt;shops:e</title>
<path fill="none" stroke="#000000" d="M756.0654,-605.8653C666.5873,-608.5974 472.5614,-632.5402 406,-594.6201 375.36,-577.1645 398.7634,-527.6201 363.5,-527.6201"/>
<polygon fill="#000000" stroke="#000000" points="762.5012,-605.756 770.5612,-609.2196 766.5006,-605.6881 770.5,-605.6201 770.5,-605.6201 770.5,-605.6201 766.5006,-605.6881 770.4388,-602.0207 762.5012,-605.756 762.5012,-605.756"/>
<ellipse fill="none" stroke="#000000" cx="759.3016" cy="-605.8104" rx="3.2" ry="3.2"/>
</g>
</g>
</svg>
