<?xml version="1.0" encoding="UTF-8" standalone="no"?>
<!DOCTYPE svg PUBLIC "-//W3C//DTD SVG 1.1//EN"
 "http://www.w3.org/Graphics/SVG/1.1/DTD/svg11.dtd">
<!-- Generated by graphviz version 2.40.1 (20161225.0304)
 -->
<!-- Title: oneDegreeRelationshipsDiagram Pages: 1 -->
<svg width="828pt" height="520pt"
 viewBox="0.00 0.00 828.00 519.83" xmlns="http://www.w3.org/2000/svg" xmlns:xlink="http://www.w3.org/1999/xlink">
<g id="graph0" class="graph" transform="scale(1 1) rotate(0) translate(4 515.8288)">
<title>oneDegreeRelationshipsDiagram</title>
<polygon fill="#ffffff" stroke="transparent" points="-4,4 -4,-515.8288 824,-515.8288 824,4 -4,4"/>
<text text-anchor="middle" x="72.4936" y="-7.3" font-family="Helvetica,sans-Serif" font-size="11.00" fill="#000000">Generated by SchemaSpy</text>
<!-- bookings -->
<g id="node1" class="node">
<title>bookings</title>
<g id="a_node1"><a xlink:href="../../tables/bookings.html" xlink:title="bookings" target="_top">
<polygon fill="#ffffff" stroke="transparent" points="577,-114.7 577,-285.7 670,-285.7 670,-114.7 577,-114.7"/>
<polygon fill="#f5f5f5" stroke="transparent" points="577.5,-262.2 577.5,-285.2 670.5,-285.2 670.5,-262.2 577.5,-262.2"/>
<polygon fill="none" stroke="#000000" points="577.5,-262.2 577.5,-285.2 670.5,-285.2 670.5,-262.2 577.5,-262.2"/>
<text text-anchor="start" x="582.5" y="-271.3" font-family="Helvetica,sans-Serif" font-weight="bold" font-size="11.00" fill="#000000">bookings</text>
<text text-anchor="start" x="635.5437" y="-270.3" font-family="Helvetica,sans-Serif" font-size="11.00" fill="#000000">[table]</text>
<polygon fill="none" stroke="#000000" points="577.5,-240.2 577.5,-262.2 670.5,-262.2 670.5,-240.2 577.5,-240.2"/>
<image xlink:href="../../images/primaryKeys.png" width="11px" height="12px" preserveAspectRatio="xMinYMin meet" x="582.5" y="-257.2"/>
<text text-anchor="start" x="597.5" y="-247.3" font-family="Helvetica,sans-Serif" font-size="11.00" fill="#000000">id</text>
<polygon fill="#ffffff" stroke="transparent" points="577.5,-218.2 577.5,-240.2 670.5,-240.2 670.5,-218.2 577.5,-218.2"/>
<polygon fill="none" stroke="#000000" points="577.5,-218.2 577.5,-240.2 670.5,-240.2 670.5,-218.2 577.5,-218.2"/>
<image xlink:href="../../images/foreignKeys.png" width="11px" height="12px" preserveAspectRatio="xMinYMin meet" x="582.5" y="-235.2"/>
<text text-anchor="start" x="597.5" y="-225.3" font-family="Helvetica,sans-Serif" font-size="11.00" fill="#000000">shop_id</text>
<polygon fill="#ffffff" stroke="transparent" points="577.5,-196.2 577.5,-218.2 670.5,-218.2 670.5,-196.2 577.5,-196.2"/>
<polygon fill="none" stroke="#000000" points="577.5,-196.2 577.5,-218.2 670.5,-218.2 670.5,-196.2 577.5,-196.2"/>
<image xlink:href="../../images/foreignKeys.png" width="11px" height="12px" preserveAspectRatio="xMinYMin meet" x="582.5" y="-213.2"/>
<text text-anchor="start" x="597.5" y="-203.3" font-family="Helvetica,sans-Serif" font-size="11.00" fill="#000000">customer_id</text>
<polygon fill="#ffffff" stroke="transparent" points="577.5,-174.2 577.5,-196.2 670.5,-196.2 670.5,-174.2 577.5,-174.2"/>
<polygon fill="none" stroke="#000000" points="577.5,-174.2 577.5,-196.2 670.5,-196.2 670.5,-174.2 577.5,-174.2"/>
<image xlink:href="../../images/foreignKeys.png" width="11px" height="12px" preserveAspectRatio="xMinYMin meet" x="582.5" y="-191.2"/>
<text text-anchor="start" x="597.5" y="-181.3" font-family="Helvetica,sans-Serif" font-size="11.00" fill="#000000">employee_id</text>
<polygon fill="none" stroke="#000000" points="577.5,-152.2 577.5,-174.2 670.5,-174.2 670.5,-152.2 577.5,-152.2"/>
<image xlink:href="../../images/foreignKeys.png" width="11px" height="12px" preserveAspectRatio="xMinYMin meet" x="582.5" y="-169.2"/>
<text text-anchor="start" x="597.5" y="-159.3" font-family="Helvetica,sans-Serif" font-size="11.00" fill="#000000">service_id</text>
<polygon fill="none" stroke="#000000" points="577.5,-133.2 577.5,-152.2 670.5,-152.2 670.5,-133.2 577.5,-133.2"/>
<text text-anchor="start" x="580.5" y="-139.3" font-family="Helvetica,sans-Serif" font-size="11.00" fill="#000000">...</text>
<polygon fill="#ffffff" stroke="transparent" points="577.5,-114.2 577.5,-133.2 604.5,-133.2 604.5,-114.2 577.5,-114.2"/>
<polygon fill="none" stroke="#000000" points="577.5,-114.2 577.5,-133.2 604.5,-133.2 604.5,-114.2 577.5,-114.2"/>
<text text-anchor="start" x="580.5" y="-120.3" font-family="Helvetica,sans-Serif" font-size="11.00" fill="#000000">&lt; 4</text>
<polygon fill="#ffffff" stroke="transparent" points="604.5,-114.2 604.5,-133.2 645.5,-133.2 645.5,-114.2 604.5,-114.2"/>
<polygon fill="none" stroke="#000000" points="604.5,-114.2 604.5,-133.2 645.5,-133.2 645.5,-114.2 604.5,-114.2"/>
<text text-anchor="start" x="610.1105" y="-120.3" font-family="Helvetica,sans-Serif" font-size="11.00" fill="#000000">0 rows</text>
<polygon fill="#ffffff" stroke="transparent" points="645.5,-114.2 645.5,-133.2 670.5,-133.2 670.5,-114.2 645.5,-114.2"/>
<polygon fill="none" stroke="#000000" points="645.5,-114.2 645.5,-133.2 670.5,-133.2 670.5,-114.2 645.5,-114.2"/>
<text text-anchor="start" x="651.9053" y="-120.3" font-family="Helvetica,sans-Serif" font-size="11.00" fill="#000000">1 &gt;</text>
</a>
</g>
</g>
<!-- users -->
<g id="node2" class="node">
<title>users</title>
<g id="a_node2"><a xlink:href="../../tables/users.html" xlink:title="users" target="_top">
<polygon fill="#ffffff" stroke="transparent" points="8,-38.2 8,-326.2 209,-326.2 209,-38.2 8,-38.2"/>
<polygon fill="#f5f5f5" stroke="transparent" points="10.5,-301.2 10.5,-324.2 207.5,-324.2 207.5,-301.2 10.5,-301.2"/>
<polygon fill="none" stroke="#000000" points="10.5,-301.2 10.5,-324.2 207.5,-324.2 207.5,-301.2 10.5,-301.2"/>
<text text-anchor="start" x="15.5" y="-310.3" font-family="Helvetica,sans-Serif" font-weight="bold" font-size="11.00" fill="#000000">users</text>
<text text-anchor="start" x="172.5437" y="-309.3" font-family="Helvetica,sans-Serif" font-size="11.00" fill="#000000">[table]</text>
<polygon fill="none" stroke="#000000" points="10.5,-279.2 10.5,-301.2 117.5,-301.2 117.5,-279.2 10.5,-279.2"/>
<image xlink:href="../../images/primaryKeys.png" width="11px" height="12px" preserveAspectRatio="xMinYMin meet" x="15.5" y="-296.2"/>
<text text-anchor="start" x="30.5" y="-286.3" font-family="Helvetica,sans-Serif" font-size="11.00" fill="#000000">id</text>
<polygon fill="none" stroke="#000000" points="117.5,-279.2 117.5,-301.2 207.5,-301.2 207.5,-279.2 117.5,-279.2"/>
<text text-anchor="start" x="120.5" y="-286.9" font-family="Helvetica,sans-Serif" font-size="11.00" fill="#000000">bigserial[19]</text>
<polygon fill="none" stroke="#000000" points="10.5,-257.2 10.5,-279.2 117.5,-279.2 117.5,-257.2 10.5,-257.2"/>
<text text-anchor="start" x="30.5" y="-264.3" font-family="Helvetica,sans-Serif" font-size="11.00" fill="#000000">first_name</text>
<polygon fill="none" stroke="#000000" points="117.5,-257.2 117.5,-279.2 207.5,-279.2 207.5,-257.2 117.5,-257.2"/>
<text text-anchor="start" x="120.5" y="-264.9" font-family="Helvetica,sans-Serif" font-size="11.00" fill="#000000">varchar[50]</text>
<polygon fill="none" stroke="#000000" points="10.5,-235.2 10.5,-257.2 117.5,-257.2 117.5,-235.2 10.5,-235.2"/>
<text text-anchor="start" x="30.5" y="-242.3" font-family="Helvetica,sans-Serif" font-size="11.00" fill="#000000">last_name</text>
<polygon fill="none" stroke="#000000" points="117.5,-235.2 117.5,-257.2 207.5,-257.2 207.5,-235.2 117.5,-235.2"/>
<text text-anchor="start" x="120.5" y="-242.9" font-family="Helvetica,sans-Serif" font-size="11.00" fill="#000000">varchar[50]</text>
<polygon fill="#ffffff" stroke="transparent" points="10.5,-213.2 10.5,-235.2 117.5,-235.2 117.5,-213.2 10.5,-213.2"/>
<polygon fill="none" stroke="#000000" points="10.5,-213.2 10.5,-235.2 117.5,-235.2 117.5,-213.2 10.5,-213.2"/>
<text text-anchor="start" x="30.5" y="-220.3" font-family="Helvetica,sans-Serif" font-size="11.00" fill="#000000">email</text>
<polygon fill="none" stroke="#000000" points="117.5,-213.2 117.5,-235.2 207.5,-235.2 207.5,-213.2 117.5,-213.2"/>
<text text-anchor="start" x="120.5" y="-220.9" font-family="Helvetica,sans-Serif" font-size="11.00" fill="#000000">varchar[100]</text>
<polygon fill="none" stroke="#000000" points="10.5,-191.2 10.5,-213.2 117.5,-213.2 117.5,-191.2 10.5,-191.2"/>
<text text-anchor="start" x="30.5" y="-198.3" font-family="Helvetica,sans-Serif" font-size="11.00" fill="#000000">password</text>
<polygon fill="none" stroke="#000000" points="117.5,-191.2 117.5,-213.2 207.5,-213.2 207.5,-191.2 117.5,-191.2"/>
<text text-anchor="start" x="120.5" y="-198.9" font-family="Helvetica,sans-Serif" font-size="11.00" fill="#000000">varchar[100]</text>
<polygon fill="none" stroke="#000000" points="10.5,-169.2 10.5,-191.2 117.5,-191.2 117.5,-169.2 10.5,-169.2"/>
<text text-anchor="start" x="30.5" y="-176.3" font-family="Helvetica,sans-Serif" font-size="11.00" fill="#000000">phone_number</text>
<polygon fill="none" stroke="#000000" points="117.5,-169.2 117.5,-191.2 207.5,-191.2 207.5,-169.2 117.5,-169.2"/>
<text text-anchor="start" x="120.5" y="-176.9" font-family="Helvetica,sans-Serif" font-size="11.00" fill="#000000">varchar[20]</text>
<polygon fill="none" stroke="#000000" points="10.5,-147.2 10.5,-169.2 117.5,-169.2 117.5,-147.2 10.5,-147.2"/>
<text text-anchor="start" x="30.5" y="-154.3" font-family="Helvetica,sans-Serif" font-size="11.00" fill="#000000">image_url</text>
<polygon fill="none" stroke="#000000" points="117.5,-147.2 117.5,-169.2 207.5,-169.2 207.5,-147.2 117.5,-147.2"/>
<text text-anchor="start" x="120.0042" y="-154.9" font-family="Helvetica,sans-Serif" font-size="11.00" fill="#000000">text[2147483647]</text>
<polygon fill="none" stroke="#000000" points="10.5,-125.2 10.5,-147.2 117.5,-147.2 117.5,-125.2 10.5,-125.2"/>
<text text-anchor="start" x="30.5" y="-132.3" font-family="Helvetica,sans-Serif" font-size="11.00" fill="#000000">role</text>
<polygon fill="none" stroke="#000000" points="117.5,-125.2 117.5,-147.2 207.5,-147.2 207.5,-125.2 117.5,-125.2"/>
<text text-anchor="start" x="120.5" y="-132.9" font-family="Helvetica,sans-Serif" font-size="11.00" fill="#000000">varchar[20]</text>
<polygon fill="none" stroke="#000000" points="10.5,-103.2 10.5,-125.2 117.5,-125.2 117.5,-103.2 10.5,-103.2"/>
<text text-anchor="start" x="30.5" y="-110.3" font-family="Helvetica,sans-Serif" font-size="11.00" fill="#000000">is_active</text>
<polygon fill="none" stroke="#000000" points="117.5,-103.2 117.5,-125.2 207.5,-125.2 207.5,-103.2 117.5,-103.2"/>
<text text-anchor="start" x="120.5" y="-110.9" font-family="Helvetica,sans-Serif" font-size="11.00" fill="#000000">bool[1]</text>
<polygon fill="none" stroke="#000000" points="10.5,-81.2 10.5,-103.2 117.5,-103.2 117.5,-81.2 10.5,-81.2"/>
<text text-anchor="start" x="30.5" y="-88.3" font-family="Helvetica,sans-Serif" font-size="11.00" fill="#000000">created_at</text>
<polygon fill="none" stroke="#000000" points="117.5,-81.2 117.5,-103.2 207.5,-103.2 207.5,-81.2 117.5,-81.2"/>
<text text-anchor="start" x="120.5" y="-88.9" font-family="Helvetica,sans-Serif" font-size="11.00" fill="#000000">timestamp[29,6]</text>
<polygon fill="none" stroke="#000000" points="10.5,-59.2 10.5,-81.2 117.5,-81.2 117.5,-59.2 10.5,-59.2"/>
<text text-anchor="start" x="30.5" y="-66.3" font-family="Helvetica,sans-Serif" font-size="11.00" fill="#000000">updated_at</text>
<polygon fill="none" stroke="#000000" points="117.5,-59.2 117.5,-81.2 207.5,-81.2 207.5,-59.2 117.5,-59.2"/>
<text text-anchor="start" x="120.5" y="-66.9" font-family="Helvetica,sans-Serif" font-size="11.00" fill="#000000">timestamp[29,6]</text>
<polygon fill="#ffffff" stroke="transparent" points="10.5,-40.2 10.5,-59.2 55.5,-59.2 55.5,-40.2 10.5,-40.2"/>
<polygon fill="none" stroke="#000000" points="10.5,-40.2 10.5,-59.2 55.5,-59.2 55.5,-40.2 10.5,-40.2"/>
<text text-anchor="start" x="13.5" y="-46.3" font-family="Helvetica,sans-Serif" font-size="11.00" fill="#000000">&lt; 0</text>
<polygon fill="#ffffff" stroke="transparent" points="55.5,-40.2 55.5,-59.2 117.5,-59.2 117.5,-40.2 55.5,-40.2"/>
<polygon fill="none" stroke="#000000" points="55.5,-40.2 55.5,-59.2 117.5,-59.2 117.5,-40.2 55.5,-40.2"/>
<text text-anchor="start" x="82.1105" y="-46.3" font-family="Helvetica,sans-Serif" font-size="11.00" fill="#000000">6 rows</text>
<polygon fill="#ffffff" stroke="transparent" points="117.5,-40.2 117.5,-59.2 207.5,-59.2 207.5,-40.2 117.5,-40.2"/>
<polygon fill="none" stroke="#000000" points="117.5,-40.2 117.5,-59.2 207.5,-59.2 207.5,-40.2 117.5,-40.2"/>
<text text-anchor="start" x="188.9053" y="-46.3" font-family="Helvetica,sans-Serif" font-size="11.00" fill="#000000">5 &gt;</text>
<polygon fill="none" stroke="#000000" stroke-width="2" points="9,-39.2 9,-325.2 208,-325.2 208,-39.2 9,-39.2"/>
</a>
</g>
</g>
<!-- bookings&#45;&gt;users -->
<g id="edge1" class="edge">
<title>bookings:w&#45;&gt;users:e</title>
<path fill="none" stroke="#000000" d="M563.4596,-202.3431C551.2059,-190.4481 558.6733,-159.9723 536,-148.2 484.7221,-121.5758 463.0317,-138.945 406,-148.2 333.8599,-159.9067 304.67,-151.6982 250,-200.2 216.9097,-229.5568 251.7356,-290.2 207.5,-290.2"/>
<polygon fill="#000000" stroke="#000000" points="569.9396,-204.5847 576.3231,-210.6022 573.7198,-205.8923 577.5,-207.2 577.5,-207.2 577.5,-207.2 573.7198,-205.8923 578.6769,-203.7978 569.9396,-204.5847 569.9396,-204.5847"/>
<ellipse fill="none" stroke="#000000" cx="566.9154" cy="-203.5385" rx="3.2" ry="3.2"/>
</g>
<!-- employees -->
<g id="node3" class="node">
<title>employees</title>
<g id="a_node3"><a xlink:href="../../tables/employees.html" xlink:title="employees" target="_top">
<polygon fill="#ffffff" stroke="transparent" points="422.5,-158.7 422.5,-285.7 519.5,-285.7 519.5,-158.7 422.5,-158.7"/>
<polygon fill="#f5f5f5" stroke="transparent" points="423,-262.2 423,-285.2 520,-285.2 520,-262.2 423,-262.2"/>
<polygon fill="none" stroke="#000000" points="423,-262.2 423,-285.2 520,-285.2 520,-262.2 423,-262.2"/>
<text text-anchor="start" x="428" y="-271.3" font-family="Helvetica,sans-Serif" font-weight="bold" font-size="11.00" fill="#000000">employees</text>
<text text-anchor="start" x="485.5219" y="-270.3" font-family="Helvetica,sans-Serif" font-size="11.00" fill="#000000">[table]</text>
<polygon fill="none" stroke="#000000" points="423,-240.2 423,-262.2 520,-262.2 520,-240.2 423,-240.2"/>
<image xlink:href="../../images/primaryKeys.png" width="11px" height="12px" preserveAspectRatio="xMinYMin meet" x="428" y="-257.2"/>
<text text-anchor="start" x="443" y="-247.3" font-family="Helvetica,sans-Serif" font-size="11.00" fill="#000000">id</text>
<polygon fill="#ffffff" stroke="transparent" points="423,-218.2 423,-240.2 520,-240.2 520,-218.2 423,-218.2"/>
<polygon fill="none" stroke="#000000" points="423,-218.2 423,-240.2 520,-240.2 520,-218.2 423,-218.2"/>
<image xlink:href="../../images/foreignKeys.png" width="11px" height="12px" preserveAspectRatio="xMinYMin meet" x="428" y="-235.2"/>
<text text-anchor="start" x="443" y="-225.3" font-family="Helvetica,sans-Serif" font-size="11.00" fill="#000000">shop_id</text>
<polygon fill="#ffffff" stroke="transparent" points="423,-196.2 423,-218.2 520,-218.2 520,-196.2 423,-196.2"/>
<polygon fill="none" stroke="#000000" points="423,-196.2 423,-218.2 520,-218.2 520,-196.2 423,-196.2"/>
<image xlink:href="../../images/foreignKeys.png" width="11px" height="12px" preserveAspectRatio="xMinYMin meet" x="428" y="-213.2"/>
<text text-anchor="start" x="443" y="-203.3" font-family="Helvetica,sans-Serif" font-size="11.00" fill="#000000">user_id</text>
<polygon fill="none" stroke="#000000" points="423,-177.2 423,-196.2 520,-196.2 520,-177.2 423,-177.2"/>
<text text-anchor="start" x="426" y="-183.3" font-family="Helvetica,sans-Serif" font-size="11.00" fill="#000000">...</text>
<polygon fill="#ffffff" stroke="transparent" points="423,-158.2 423,-177.2 452,-177.2 452,-158.2 423,-158.2"/>
<polygon fill="none" stroke="#000000" points="423,-158.2 423,-177.2 452,-177.2 452,-158.2 423,-158.2"/>
<text text-anchor="start" x="426" y="-164.3" font-family="Helvetica,sans-Serif" font-size="11.00" fill="#000000">&lt; 2</text>
<polygon fill="#ffffff" stroke="transparent" points="452,-158.2 452,-177.2 494,-177.2 494,-158.2 452,-158.2"/>
<polygon fill="none" stroke="#000000" points="452,-158.2 452,-177.2 494,-177.2 494,-158.2 452,-158.2"/>
<text text-anchor="start" x="458.6105" y="-164.3" font-family="Helvetica,sans-Serif" font-size="11.00" fill="#000000">0 rows</text>
<polygon fill="#ffffff" stroke="transparent" points="494,-158.2 494,-177.2 520,-177.2 520,-158.2 494,-158.2"/>
<polygon fill="none" stroke="#000000" points="494,-158.2 494,-177.2 520,-177.2 520,-158.2 494,-158.2"/>
<text text-anchor="start" x="501.4053" y="-164.3" font-family="Helvetica,sans-Serif" font-size="11.00" fill="#000000">3 &gt;</text>
</a>
</g>
</g>
<!-- bookings&#45;&gt;employees -->
<g id="edge2" class="edge">
<title>bookings:w&#45;&gt;employees:e</title>
<path fill="none" stroke="#000000" d="M563.4236,-189.3286C543.4093,-203.7776 552.9773,-251.2 520,-251.2"/>
<polygon fill="#000000" stroke="#000000" points="569.8234,-187.4516 578.5132,-188.6545 573.6617,-186.3258 577.5,-185.2 577.5,-185.2 577.5,-185.2 573.6617,-186.3258 576.4868,-181.7455 569.8234,-187.4516 569.8234,-187.4516"/>
<ellipse fill="none" stroke="#000000" cx="566.7527" cy="-188.3522" rx="3.2" ry="3.2"/>
</g>
<!-- shops -->
<g id="node4" class="node">
<title>shops</title>
<g id="a_node4"><a xlink:href="../../tables/shops.html" xlink:title="shops" target="_top">
<polygon fill="#ffffff" stroke="transparent" points="258,-241.7 258,-368.7 365,-368.7 365,-241.7 258,-241.7"/>
<polygon fill="#f5f5f5" stroke="transparent" points="258.5,-345.2 258.5,-368.2 365.5,-368.2 365.5,-345.2 258.5,-345.2"/>
<polygon fill="none" stroke="#000000" points="258.5,-345.2 258.5,-368.2 365.5,-368.2 365.5,-345.2 258.5,-345.2"/>
<text text-anchor="start" x="263.5" y="-354.3" font-family="Helvetica,sans-Serif" font-weight="bold" font-size="11.00" fill="#000000">shops</text>
<text text-anchor="start" x="330.5437" y="-353.3" font-family="Helvetica,sans-Serif" font-size="11.00" fill="#000000">[table]</text>
<polygon fill="none" stroke="#000000" points="258.5,-323.2 258.5,-345.2 365.5,-345.2 365.5,-323.2 258.5,-323.2"/>
<image xlink:href="../../images/primaryKeys.png" width="11px" height="12px" preserveAspectRatio="xMinYMin meet" x="263.5" y="-340.2"/>
<text text-anchor="start" x="278.5" y="-330.3" font-family="Helvetica,sans-Serif" font-size="11.00" fill="#000000">id</text>
<polygon fill="#ffffff" stroke="transparent" points="258.5,-301.2 258.5,-323.2 365.5,-323.2 365.5,-301.2 258.5,-301.2"/>
<polygon fill="none" stroke="#000000" points="258.5,-301.2 258.5,-323.2 365.5,-323.2 365.5,-301.2 258.5,-301.2"/>
<text text-anchor="start" x="278.5" y="-308.3" font-family="Helvetica,sans-Serif" font-size="11.00" fill="#000000">city</text>
<polygon fill="#ffffff" stroke="transparent" points="258.5,-279.2 258.5,-301.2 365.5,-301.2 365.5,-279.2 258.5,-279.2"/>
<polygon fill="none" stroke="#000000" points="258.5,-279.2 258.5,-301.2 365.5,-301.2 365.5,-279.2 258.5,-279.2"/>
<image xlink:href="../../images/foreignKeys.png" width="11px" height="12px" preserveAspectRatio="xMinYMin meet" x="263.5" y="-296.2"/>
<text text-anchor="start" x="278.5" y="-286.3" font-family="Helvetica,sans-Serif" font-size="11.00" fill="#000000">owner_id</text>
<polygon fill="none" stroke="#000000" points="258.5,-260.2 258.5,-279.2 365.5,-279.2 365.5,-260.2 258.5,-260.2"/>
<text text-anchor="start" x="261.5" y="-266.3" font-family="Helvetica,sans-Serif" font-size="11.00" fill="#000000">...</text>
<polygon fill="#ffffff" stroke="transparent" points="258.5,-241.2 258.5,-260.2 295.5,-260.2 295.5,-241.2 258.5,-241.2"/>
<polygon fill="none" stroke="#000000" points="258.5,-241.2 258.5,-260.2 295.5,-260.2 295.5,-241.2 258.5,-241.2"/>
<text text-anchor="start" x="261.5" y="-247.3" font-family="Helvetica,sans-Serif" font-size="11.00" fill="#000000">&lt; 1</text>
<polygon fill="#ffffff" stroke="transparent" points="295.5,-241.2 295.5,-260.2 335.5,-260.2 335.5,-241.2 295.5,-241.2"/>
<polygon fill="none" stroke="#000000" points="295.5,-241.2 295.5,-260.2 335.5,-260.2 335.5,-241.2 295.5,-241.2"/>
<text text-anchor="start" x="305.6105" y="-247.3" font-family="Helvetica,sans-Serif" font-size="11.00" fill="#000000">1 row</text>
<polygon fill="#ffffff" stroke="transparent" points="335.5,-241.2 335.5,-260.2 365.5,-260.2 365.5,-241.2 335.5,-241.2"/>
<polygon fill="none" stroke="#000000" points="335.5,-241.2 335.5,-260.2 365.5,-260.2 365.5,-241.2 335.5,-241.2"/>
<text text-anchor="start" x="346.9053" y="-247.3" font-family="Helvetica,sans-Serif" font-size="11.00" fill="#000000">5 &gt;</text>
</a>
</g>
</g>
<!-- bookings&#45;&gt;shops -->
<g id="edge3" class="edge">
<title>bookings:w&#45;&gt;shops:e</title>
<path fill="none" stroke="#000000" d="M563.5246,-233.3003C548.7731,-245.1339 559.4228,-279.5573 536,-296.2 528.089,-301.821 375.2046,-334.2 365.5,-334.2"/>
<polygon fill="#000000" stroke="#000000" points="569.8236,-231.4523 578.5135,-232.6544 573.6618,-230.3261 577.5,-229.2 577.5,-229.2 577.5,-229.2 573.6618,-230.3261 576.4865,-225.7456 569.8236,-231.4523 569.8236,-231.4523"/>
<ellipse fill="none" stroke="#000000" cx="566.753" cy="-232.3532" rx="3.2" ry="3.2"/>
</g>
<!-- employees&#45;&gt;users -->
<g id="edge5" class="edge">
<title>employees:w&#45;&gt;users:e</title>
<path fill="none" stroke="#000000" d="M408.5748,-207.0192C341.4953,-205.3634 312.2063,-193.7255 250,-231.2 222.318,-247.8763 239.8171,-290.2 207.5,-290.2"/>
<polygon fill="#000000" stroke="#000000" points="415.0006,-207.0997 422.9549,-210.7997 419.0003,-207.1498 423,-207.2 423,-207.2 423,-207.2 419.0003,-207.1498 423.0451,-203.6003 415.0006,-207.0997 415.0006,-207.0997"/>
<ellipse fill="none" stroke="#000000" cx="411.8009" cy="-207.0596" rx="3.2" ry="3.2"/>
</g>
<!-- employees&#45;&gt;shops -->
<g id="edge4" class="edge">
<title>employees:w&#45;&gt;shops:e</title>
<path fill="none" stroke="#000000" d="M408.9395,-232.6935C379.272,-250.9126 412.8865,-334.2 365.5,-334.2"/>
<polygon fill="#000000" stroke="#000000" points="415.2361,-231.1291 423.8681,-232.6938 419.118,-230.1646 423,-229.2 423,-229.2 423,-229.2 419.118,-230.1646 422.1319,-225.7062 415.2361,-231.1291 415.2361,-231.1291"/>
<ellipse fill="none" stroke="#000000" cx="412.1305" cy="-231.9007" rx="3.2" ry="3.2"/>
</g>
<!-- shops&#45;&gt;users -->
<g id="edge12" class="edge">
<title>shops:w&#45;&gt;users:e</title>
<path fill="none" stroke="#000000" d="M243.776,-290.2C231.7815,-290.2 224.3229,-290.2 207.5,-290.2"/>
<polygon fill="#000000" stroke="#000000" points="250.5,-290.2001 258.5,-293.8 254.5,-290.2 258.5,-290.2 258.5,-290.2 258.5,-290.2 254.5,-290.2 258.5,-286.6 250.5,-290.2001 250.5,-290.2001"/>
<ellipse fill="none" stroke="#000000" cx="247.3" cy="-290.2001" rx="3.2" ry="3.2"/>
</g>
<!-- favorite_shops -->
<g id="node5" class="node">
<title>favorite_shops</title>
<g id="a_node5"><a xlink:href="../../tables/favorite_shops.html" xlink:title="favorite_shops" target="_top">
<polygon fill="#ffffff" stroke="transparent" points="414,-361.7 414,-488.7 528,-488.7 528,-361.7 414,-361.7"/>
<polygon fill="#f5f5f5" stroke="transparent" points="414,-465.2 414,-488.2 528,-488.2 528,-465.2 414,-465.2"/>
<polygon fill="none" stroke="#000000" points="414,-465.2 414,-488.2 528,-488.2 528,-465.2 414,-465.2"/>
<text text-anchor="start" x="418.7396" y="-474.3" font-family="Helvetica,sans-Serif" font-weight="bold" font-size="11.00" fill="#000000">favorite_shops</text>
<text text-anchor="start" x="493.5219" y="-473.3" font-family="Helvetica,sans-Serif" font-size="11.00" fill="#000000">[table]</text>
<polygon fill="none" stroke="#000000" points="414,-443.2 414,-465.2 528,-465.2 528,-443.2 414,-443.2"/>
<image xlink:href="../../images/primaryKeys.png" width="11px" height="12px" preserveAspectRatio="xMinYMin meet" x="419" y="-460.2"/>
<text text-anchor="start" x="438" y="-450.3" font-family="Helvetica,sans-Serif" font-size="11.00" fill="#000000">id</text>
<polygon fill="#ffffff" stroke="transparent" points="414,-421.2 414,-443.2 528,-443.2 528,-421.2 414,-421.2"/>
<polygon fill="none" stroke="#000000" points="414,-421.2 414,-443.2 528,-443.2 528,-421.2 414,-421.2"/>
<image xlink:href="../../images/foreignKeys.png" width="11px" height="12px" preserveAspectRatio="xMinYMin meet" x="419" y="-438.2"/>
<text text-anchor="start" x="438" y="-428.3" font-family="Helvetica,sans-Serif" font-size="11.00" fill="#000000">user_id</text>
<polygon fill="#ffffff" stroke="transparent" points="414,-399.2 414,-421.2 528,-421.2 528,-399.2 414,-399.2"/>
<polygon fill="none" stroke="#000000" points="414,-399.2 414,-421.2 528,-421.2 528,-399.2 414,-399.2"/>
<image xlink:href="../../images/foreignKeys.png" width="11px" height="12px" preserveAspectRatio="xMinYMin meet" x="419" y="-416.2"/>
<text text-anchor="start" x="438" y="-406.3" font-family="Helvetica,sans-Serif" font-size="11.00" fill="#000000">shop_id</text>
<polygon fill="none" stroke="#000000" points="414,-380.2 414,-399.2 528,-399.2 528,-380.2 414,-380.2"/>
<text text-anchor="start" x="417" y="-386.3" font-family="Helvetica,sans-Serif" font-size="11.00" fill="#000000">...</text>
<polygon fill="#ffffff" stroke="transparent" points="414,-361.2 414,-380.2 456,-380.2 456,-361.2 414,-361.2"/>
<polygon fill="none" stroke="#000000" points="414,-361.2 414,-380.2 456,-380.2 456,-361.2 414,-361.2"/>
<text text-anchor="start" x="417" y="-367.3" font-family="Helvetica,sans-Serif" font-size="11.00" fill="#000000">&lt; 2</text>
<polygon fill="#ffffff" stroke="transparent" points="456,-361.2 456,-380.2 505,-380.2 505,-361.2 456,-361.2"/>
<polygon fill="none" stroke="#000000" points="456,-361.2 456,-380.2 505,-380.2 505,-361.2 456,-361.2"/>
<text text-anchor="start" x="469.6105" y="-367.3" font-family="Helvetica,sans-Serif" font-size="11.00" fill="#000000">0 rows</text>
<polygon fill="#ffffff" stroke="transparent" points="505,-361.2 505,-380.2 528,-380.2 528,-361.2 505,-361.2"/>
<polygon fill="none" stroke="#000000" points="505,-361.2 505,-380.2 528,-380.2 528,-361.2 505,-361.2"/>
<text text-anchor="start" x="518.8862" y="-367.3" font-family="Helvetica,sans-Serif" font-size="11.00" fill="#000000"> &#160;</text>
</a>
</g>
</g>
<!-- favorite_shops&#45;&gt;users -->
<g id="edge7" class="edge">
<title>favorite_shops:w&#45;&gt;users:e</title>
<path fill="none" stroke="#000000" d="M399.3376,-432.153C333.3244,-431.6498 303.8149,-426.2977 250,-379.2 217.0144,-350.3317 251.3341,-290.2 207.5,-290.2"/>
<polygon fill="#000000" stroke="#000000" points="406,-432.1743 413.9884,-435.8 410,-432.1871 414,-432.2 414,-432.2 414,-432.2 410,-432.1871 414.0116,-428.6 406,-432.1743 406,-432.1743"/>
<ellipse fill="none" stroke="#000000" cx="402.8001" cy="-432.164" rx="3.2" ry="3.2"/>
</g>
<!-- favorite_shops&#45;&gt;shops -->
<g id="edge6" class="edge">
<title>favorite_shops:w&#45;&gt;shops:e</title>
<path fill="none" stroke="#000000" d="M400.1726,-405.4459C381.9062,-388.8076 399.4653,-334.2 365.5,-334.2"/>
<polygon fill="#000000" stroke="#000000" points="406.4347,-407.5988 412.8295,-413.6044 410.2173,-408.8994 414,-410.2 414,-410.2 414,-410.2 410.2173,-408.8994 415.1705,-406.7956 406.4347,-407.5988 406.4347,-407.5988"/>
<ellipse fill="none" stroke="#000000" cx="403.4085" cy="-406.5584" rx="3.2" ry="3.2"/>
</g>
<!-- reviews -->
<g id="node6" class="node">
<title>reviews</title>
<g id="a_node6"><a xlink:href="../../tables/reviews.html" xlink:title="reviews" target="_top">
<polygon fill="#ffffff" stroke="transparent" points="719,-241.7 719,-412.7 812,-412.7 812,-241.7 719,-241.7"/>
<polygon fill="#f5f5f5" stroke="transparent" points="719.5,-389.2 719.5,-412.2 812.5,-412.2 812.5,-389.2 719.5,-389.2"/>
<polygon fill="none" stroke="#000000" points="719.5,-389.2 719.5,-412.2 812.5,-412.2 812.5,-389.2 719.5,-389.2"/>
<text text-anchor="start" x="724.5" y="-398.3" font-family="Helvetica,sans-Serif" font-weight="bold" font-size="11.00" fill="#000000">reviews</text>
<text text-anchor="start" x="777.5437" y="-397.3" font-family="Helvetica,sans-Serif" font-size="11.00" fill="#000000">[table]</text>
<polygon fill="none" stroke="#000000" points="719.5,-367.2 719.5,-389.2 812.5,-389.2 812.5,-367.2 719.5,-367.2"/>
<image xlink:href="../../images/primaryKeys.png" width="11px" height="12px" preserveAspectRatio="xMinYMin meet" x="724.5" y="-384.2"/>
<text text-anchor="start" x="739.5" y="-374.3" font-family="Helvetica,sans-Serif" font-size="11.00" fill="#000000">id</text>
<polygon fill="#ffffff" stroke="transparent" points="719.5,-345.2 719.5,-367.2 812.5,-367.2 812.5,-345.2 719.5,-345.2"/>
<polygon fill="none" stroke="#000000" points="719.5,-345.2 719.5,-367.2 812.5,-367.2 812.5,-345.2 719.5,-345.2"/>
<image xlink:href="../../images/foreignKeys.png" width="11px" height="12px" preserveAspectRatio="xMinYMin meet" x="724.5" y="-362.2"/>
<text text-anchor="start" x="739.5" y="-352.3" font-family="Helvetica,sans-Serif" font-size="11.00" fill="#000000">customer_id</text>
<polygon fill="#ffffff" stroke="transparent" points="719.5,-323.2 719.5,-345.2 812.5,-345.2 812.5,-323.2 719.5,-323.2"/>
<polygon fill="none" stroke="#000000" points="719.5,-323.2 719.5,-345.2 812.5,-345.2 812.5,-323.2 719.5,-323.2"/>
<image xlink:href="../../images/foreignKeys.png" width="11px" height="12px" preserveAspectRatio="xMinYMin meet" x="724.5" y="-340.2"/>
<text text-anchor="start" x="739.5" y="-330.3" font-family="Helvetica,sans-Serif" font-size="11.00" fill="#000000">shop_id</text>
<polygon fill="#ffffff" stroke="transparent" points="719.5,-301.2 719.5,-323.2 812.5,-323.2 812.5,-301.2 719.5,-301.2"/>
<polygon fill="none" stroke="#000000" points="719.5,-301.2 719.5,-323.2 812.5,-323.2 812.5,-301.2 719.5,-301.2"/>
<image xlink:href="../../images/foreignKeys.png" width="11px" height="12px" preserveAspectRatio="xMinYMin meet" x="724.5" y="-318.2"/>
<text text-anchor="start" x="739.5" y="-308.3" font-family="Helvetica,sans-Serif" font-size="11.00" fill="#000000">employee_id</text>
<polygon fill="none" stroke="#000000" points="719.5,-279.2 719.5,-301.2 812.5,-301.2 812.5,-279.2 719.5,-279.2"/>
<image xlink:href="../../images/foreignKeys.png" width="11px" height="12px" preserveAspectRatio="xMinYMin meet" x="724.5" y="-296.2"/>
<text text-anchor="start" x="739.5" y="-286.3" font-family="Helvetica,sans-Serif" font-size="11.00" fill="#000000">booking_id</text>
<polygon fill="none" stroke="#000000" points="719.5,-260.2 719.5,-279.2 812.5,-279.2 812.5,-260.2 719.5,-260.2"/>
<text text-anchor="start" x="722.5" y="-266.3" font-family="Helvetica,sans-Serif" font-size="11.00" fill="#000000">...</text>
<polygon fill="#ffffff" stroke="transparent" points="719.5,-241.2 719.5,-260.2 751.5,-260.2 751.5,-241.2 719.5,-241.2"/>
<polygon fill="none" stroke="#000000" points="719.5,-241.2 719.5,-260.2 751.5,-260.2 751.5,-241.2 719.5,-241.2"/>
<text text-anchor="start" x="722.5" y="-247.3" font-family="Helvetica,sans-Serif" font-size="11.00" fill="#000000">&lt; 4</text>
<polygon fill="#ffffff" stroke="transparent" points="751.5,-241.2 751.5,-260.2 794.5,-260.2 794.5,-241.2 751.5,-241.2"/>
<polygon fill="none" stroke="#000000" points="751.5,-241.2 751.5,-260.2 794.5,-260.2 794.5,-241.2 751.5,-241.2"/>
<text text-anchor="start" x="759.1105" y="-247.3" font-family="Helvetica,sans-Serif" font-size="11.00" fill="#000000">0 rows</text>
<polygon fill="#ffffff" stroke="transparent" points="794.5,-241.2 794.5,-260.2 812.5,-260.2 812.5,-241.2 794.5,-241.2"/>
<polygon fill="none" stroke="#000000" points="794.5,-241.2 794.5,-260.2 812.5,-260.2 812.5,-241.2 794.5,-241.2"/>
<text text-anchor="start" x="803.3862" y="-247.3" font-family="Helvetica,sans-Serif" font-size="11.00" fill="#000000"> &#160;</text>
</a>
</g>
</g>
<!-- reviews&#45;&gt;bookings -->
<g id="edge8" class="edge">
<title>reviews:w&#45;&gt;bookings:e</title>
<path fill="none" stroke="#000000" d="M705.4646,-285.4178C692.9324,-275.0037 692.2451,-251.2 670.5,-251.2"/>
<polygon fill="#000000" stroke="#000000" points="711.9275,-287.6198 718.3389,-293.6076 715.7137,-288.9099 719.5,-290.2 719.5,-290.2 719.5,-290.2 715.7137,-288.9099 720.6611,-286.7924 711.9275,-287.6198 711.9275,-287.6198"/>
<ellipse fill="none" stroke="#000000" cx="708.8985" cy="-286.5878" rx="3.2" ry="3.2"/>
</g>
<!-- reviews&#45;&gt;users -->
<g id="edge9" class="edge">
<title>reviews:w&#45;&gt;users:e</title>
<path fill="none" stroke="#000000" d="M704.923,-356.9912C617.5791,-366.9091 628.9131,-467.2718 536,-499.2 481.3584,-517.9767 462.0247,-513.3248 406,-499.2 329.6436,-479.9492 300.8676,-475.3114 250,-415.2 212.0951,-370.4069 266.1789,-290.2 207.5,-290.2"/>
<polygon fill="#000000" stroke="#000000" points="711.5118,-356.6336 719.6951,-359.7947 715.5059,-356.4168 719.5,-356.2 719.5,-356.2 719.5,-356.2 715.5059,-356.4168 719.3049,-352.6053 711.5118,-356.6336 711.5118,-356.6336"/>
<ellipse fill="none" stroke="#000000" cx="708.3165" cy="-356.8071" rx="3.2" ry="3.2"/>
</g>
<!-- reviews&#45;&gt;employees -->
<g id="edge10" class="edge">
<title>reviews:w&#45;&gt;employees:e</title>
<path fill="none" stroke="#000000" d="M704.8803,-312.381C648.664,-313.7535 625.6294,-321.7881 569,-296.2 542.0549,-284.0248 549.5681,-251.2 520,-251.2"/>
<polygon fill="#000000" stroke="#000000" points="711.5006,-312.2991 719.5446,-315.7997 715.5003,-312.2496 719.5,-312.2 719.5,-312.2 719.5,-312.2 715.5003,-312.2496 719.4554,-308.6003 711.5006,-312.2991 711.5006,-312.2991"/>
<ellipse fill="none" stroke="#000000" cx="708.3009" cy="-312.3388" rx="3.2" ry="3.2"/>
</g>
<!-- reviews&#45;&gt;shops -->
<g id="edge11" class="edge">
<title>reviews:w&#45;&gt;shops:e</title>
<path fill="none" stroke="#000000" d="M705.0885,-334.2C559.5931,-334.2 517.9167,-334.2 365.5,-334.2"/>
<polygon fill="#000000" stroke="#000000" points="711.5,-334.2001 719.5,-337.8 715.5,-334.2 719.5,-334.2 719.5,-334.2 719.5,-334.2 715.5,-334.2 719.5,-330.6 711.5,-334.2001 711.5,-334.2001"/>
<ellipse fill="none" stroke="#000000" cx="708.3" cy="-334.2001" rx="3.2" ry="3.2"/>
</g>
</g>
</svg>
