<?xml version="1.0" encoding="UTF-8" standalone="no"?>
<!DOCTYPE svg PUBLIC "-//W3C//DTD SVG 1.1//EN"
 "http://www.w3.org/Graphics/SVG/1.1/DTD/svg11.dtd">
<!-- Generated by graphviz version 2.40.1 (20161225.0304)
 -->
<!-- Title: twoDegreesRelationshipsDiagram Pages: 1 -->
<svg width="872pt" height="598pt"
 viewBox="0.00 0.00 872.00 597.70" xmlns="http://www.w3.org/2000/svg" xmlns:xlink="http://www.w3.org/1999/xlink">
<g id="graph0" class="graph" transform="scale(1 1) rotate(0) translate(4 593.7)">
<title>twoDegreesRelationshipsDiagram</title>
<polygon fill="#ffffff" stroke="transparent" points="-4,4 -4,-593.7 868,-593.7 868,4 -4,4"/>
<text text-anchor="middle" x="72.4936" y="-7.3" font-family="Helvetica,sans-Serif" font-size="11.00" fill="#000000">Generated by SchemaSpy</text>
<!-- bookings -->
<g id="node1" class="node">
<title>bookings</title>
<g id="a_node1"><a xlink:href="../../tables/bookings.html" xlink:title="bookings" target="_top">
<polygon fill="#ffffff" stroke="transparent" points="599,-205.7 599,-376.7 692,-376.7 692,-205.7 599,-205.7"/>
<polygon fill="#f5f5f5" stroke="transparent" points="599.5,-353.2 599.5,-376.2 692.5,-376.2 692.5,-353.2 599.5,-353.2"/>
<polygon fill="none" stroke="#000000" points="599.5,-353.2 599.5,-376.2 692.5,-376.2 692.5,-353.2 599.5,-353.2"/>
<text text-anchor="start" x="604.5" y="-362.3" font-family="Helvetica,sans-Serif" font-weight="bold" font-size="11.00" fill="#000000">bookings</text>
<text text-anchor="start" x="657.5437" y="-361.3" font-family="Helvetica,sans-Serif" font-size="11.00" fill="#000000">[table]</text>
<polygon fill="none" stroke="#000000" points="599.5,-331.2 599.5,-353.2 692.5,-353.2 692.5,-331.2 599.5,-331.2"/>
<image xlink:href="../../images/primaryKeys.png" width="11px" height="12px" preserveAspectRatio="xMinYMin meet" x="604.5" y="-348.2"/>
<text text-anchor="start" x="619.5" y="-338.3" font-family="Helvetica,sans-Serif" font-size="11.00" fill="#000000">id</text>
<polygon fill="#ffffff" stroke="transparent" points="599.5,-309.2 599.5,-331.2 692.5,-331.2 692.5,-309.2 599.5,-309.2"/>
<polygon fill="none" stroke="#000000" points="599.5,-309.2 599.5,-331.2 692.5,-331.2 692.5,-309.2 599.5,-309.2"/>
<image xlink:href="../../images/foreignKeys.png" width="11px" height="12px" preserveAspectRatio="xMinYMin meet" x="604.5" y="-326.2"/>
<text text-anchor="start" x="619.5" y="-316.3" font-family="Helvetica,sans-Serif" font-size="11.00" fill="#000000">shop_id</text>
<polygon fill="#ffffff" stroke="transparent" points="599.5,-287.2 599.5,-309.2 692.5,-309.2 692.5,-287.2 599.5,-287.2"/>
<polygon fill="none" stroke="#000000" points="599.5,-287.2 599.5,-309.2 692.5,-309.2 692.5,-287.2 599.5,-287.2"/>
<image xlink:href="../../images/foreignKeys.png" width="11px" height="12px" preserveAspectRatio="xMinYMin meet" x="604.5" y="-304.2"/>
<text text-anchor="start" x="619.5" y="-294.3" font-family="Helvetica,sans-Serif" font-size="11.00" fill="#000000">customer_id</text>
<polygon fill="#ffffff" stroke="transparent" points="599.5,-265.2 599.5,-287.2 692.5,-287.2 692.5,-265.2 599.5,-265.2"/>
<polygon fill="none" stroke="#000000" points="599.5,-265.2 599.5,-287.2 692.5,-287.2 692.5,-265.2 599.5,-265.2"/>
<image xlink:href="../../images/foreignKeys.png" width="11px" height="12px" preserveAspectRatio="xMinYMin meet" x="604.5" y="-282.2"/>
<text text-anchor="start" x="619.5" y="-272.3" font-family="Helvetica,sans-Serif" font-size="11.00" fill="#000000">employee_id</text>
<polygon fill="none" stroke="#000000" points="599.5,-243.2 599.5,-265.2 692.5,-265.2 692.5,-243.2 599.5,-243.2"/>
<image xlink:href="../../images/foreignKeys.png" width="11px" height="12px" preserveAspectRatio="xMinYMin meet" x="604.5" y="-260.2"/>
<text text-anchor="start" x="619.5" y="-250.3" font-family="Helvetica,sans-Serif" font-size="11.00" fill="#000000">service_id</text>
<polygon fill="none" stroke="#000000" points="599.5,-224.2 599.5,-243.2 692.5,-243.2 692.5,-224.2 599.5,-224.2"/>
<text text-anchor="start" x="602.5" y="-230.3" font-family="Helvetica,sans-Serif" font-size="11.00" fill="#000000">...</text>
<polygon fill="#ffffff" stroke="transparent" points="599.5,-205.2 599.5,-224.2 626.5,-224.2 626.5,-205.2 599.5,-205.2"/>
<polygon fill="none" stroke="#000000" points="599.5,-205.2 599.5,-224.2 626.5,-224.2 626.5,-205.2 599.5,-205.2"/>
<text text-anchor="start" x="602.5" y="-211.3" font-family="Helvetica,sans-Serif" font-size="11.00" fill="#000000">&lt; 4</text>
<polygon fill="#ffffff" stroke="transparent" points="626.5,-205.2 626.5,-224.2 667.5,-224.2 667.5,-205.2 626.5,-205.2"/>
<polygon fill="none" stroke="#000000" points="626.5,-205.2 626.5,-224.2 667.5,-224.2 667.5,-205.2 626.5,-205.2"/>
<text text-anchor="start" x="632.1105" y="-211.3" font-family="Helvetica,sans-Serif" font-size="11.00" fill="#000000">0 rows</text>
<polygon fill="#ffffff" stroke="transparent" points="667.5,-205.2 667.5,-224.2 692.5,-224.2 692.5,-205.2 667.5,-205.2"/>
<polygon fill="none" stroke="#000000" points="667.5,-205.2 667.5,-224.2 692.5,-224.2 692.5,-205.2 667.5,-205.2"/>
<text text-anchor="start" x="673.9053" y="-211.3" font-family="Helvetica,sans-Serif" font-size="11.00" fill="#000000">1 &gt;</text>
</a>
</g>
</g>
<!-- users -->
<g id="node2" class="node">
<title>users</title>
<g id="a_node2"><a xlink:href="../../tables/users.html" xlink:title="users" target="_top">
<polygon fill="#ffffff" stroke="transparent" points="8,-38.2 8,-326.2 209,-326.2 209,-38.2 8,-38.2"/>
<polygon fill="#f5f5f5" stroke="transparent" points="10.5,-301.2 10.5,-324.2 207.5,-324.2 207.5,-301.2 10.5,-301.2"/>
<polygon fill="none" stroke="#000000" points="10.5,-301.2 10.5,-324.2 207.5,-324.2 207.5,-301.2 10.5,-301.2"/>
<text text-anchor="start" x="15.5" y="-310.3" font-family="Helvetica,sans-Serif" font-weight="bold" font-size="11.00" fill="#000000">users</text>
<text text-anchor="start" x="172.5437" y="-309.3" font-family="Helvetica,sans-Serif" font-size="11.00" fill="#000000">[table]</text>
<polygon fill="none" stroke="#000000" points="10.5,-279.2 10.5,-301.2 117.5,-301.2 117.5,-279.2 10.5,-279.2"/>
<image xlink:href="../../images/primaryKeys.png" width="11px" height="12px" preserveAspectRatio="xMinYMin meet" x="15.5" y="-296.2"/>
<text text-anchor="start" x="30.5" y="-286.3" font-family="Helvetica,sans-Serif" font-size="11.00" fill="#000000">id</text>
<polygon fill="none" stroke="#000000" points="117.5,-279.2 117.5,-301.2 207.5,-301.2 207.5,-279.2 117.5,-279.2"/>
<text text-anchor="start" x="120.5" y="-286.9" font-family="Helvetica,sans-Serif" font-size="11.00" fill="#000000">bigserial[19]</text>
<polygon fill="none" stroke="#000000" points="10.5,-257.2 10.5,-279.2 117.5,-279.2 117.5,-257.2 10.5,-257.2"/>
<text text-anchor="start" x="30.5" y="-264.3" font-family="Helvetica,sans-Serif" font-size="11.00" fill="#000000">first_name</text>
<polygon fill="none" stroke="#000000" points="117.5,-257.2 117.5,-279.2 207.5,-279.2 207.5,-257.2 117.5,-257.2"/>
<text text-anchor="start" x="120.5" y="-264.9" font-family="Helvetica,sans-Serif" font-size="11.00" fill="#000000">varchar[50]</text>
<polygon fill="none" stroke="#000000" points="10.5,-235.2 10.5,-257.2 117.5,-257.2 117.5,-235.2 10.5,-235.2"/>
<text text-anchor="start" x="30.5" y="-242.3" font-family="Helvetica,sans-Serif" font-size="11.00" fill="#000000">last_name</text>
<polygon fill="none" stroke="#000000" points="117.5,-235.2 117.5,-257.2 207.5,-257.2 207.5,-235.2 117.5,-235.2"/>
<text text-anchor="start" x="120.5" y="-242.9" font-family="Helvetica,sans-Serif" font-size="11.00" fill="#000000">varchar[50]</text>
<polygon fill="#ffffff" stroke="transparent" points="10.5,-213.2 10.5,-235.2 117.5,-235.2 117.5,-213.2 10.5,-213.2"/>
<polygon fill="none" stroke="#000000" points="10.5,-213.2 10.5,-235.2 117.5,-235.2 117.5,-213.2 10.5,-213.2"/>
<text text-anchor="start" x="30.5" y="-220.3" font-family="Helvetica,sans-Serif" font-size="11.00" fill="#000000">email</text>
<polygon fill="none" stroke="#000000" points="117.5,-213.2 117.5,-235.2 207.5,-235.2 207.5,-213.2 117.5,-213.2"/>
<text text-anchor="start" x="120.5" y="-220.9" font-family="Helvetica,sans-Serif" font-size="11.00" fill="#000000">varchar[100]</text>
<polygon fill="none" stroke="#000000" points="10.5,-191.2 10.5,-213.2 117.5,-213.2 117.5,-191.2 10.5,-191.2"/>
<text text-anchor="start" x="30.5" y="-198.3" font-family="Helvetica,sans-Serif" font-size="11.00" fill="#000000">password</text>
<polygon fill="none" stroke="#000000" points="117.5,-191.2 117.5,-213.2 207.5,-213.2 207.5,-191.2 117.5,-191.2"/>
<text text-anchor="start" x="120.5" y="-198.9" font-family="Helvetica,sans-Serif" font-size="11.00" fill="#000000">varchar[100]</text>
<polygon fill="none" stroke="#000000" points="10.5,-169.2 10.5,-191.2 117.5,-191.2 117.5,-169.2 10.5,-169.2"/>
<text text-anchor="start" x="30.5" y="-176.3" font-family="Helvetica,sans-Serif" font-size="11.00" fill="#000000">phone_number</text>
<polygon fill="none" stroke="#000000" points="117.5,-169.2 117.5,-191.2 207.5,-191.2 207.5,-169.2 117.5,-169.2"/>
<text text-anchor="start" x="120.5" y="-176.9" font-family="Helvetica,sans-Serif" font-size="11.00" fill="#000000">varchar[20]</text>
<polygon fill="none" stroke="#000000" points="10.5,-147.2 10.5,-169.2 117.5,-169.2 117.5,-147.2 10.5,-147.2"/>
<text text-anchor="start" x="30.5" y="-154.3" font-family="Helvetica,sans-Serif" font-size="11.00" fill="#000000">image_url</text>
<polygon fill="none" stroke="#000000" points="117.5,-147.2 117.5,-169.2 207.5,-169.2 207.5,-147.2 117.5,-147.2"/>
<text text-anchor="start" x="120.0042" y="-154.9" font-family="Helvetica,sans-Serif" font-size="11.00" fill="#000000">text[2147483647]</text>
<polygon fill="none" stroke="#000000" points="10.5,-125.2 10.5,-147.2 117.5,-147.2 117.5,-125.2 10.5,-125.2"/>
<text text-anchor="start" x="30.5" y="-132.3" font-family="Helvetica,sans-Serif" font-size="11.00" fill="#000000">role</text>
<polygon fill="none" stroke="#000000" points="117.5,-125.2 117.5,-147.2 207.5,-147.2 207.5,-125.2 117.5,-125.2"/>
<text text-anchor="start" x="120.5" y="-132.9" font-family="Helvetica,sans-Serif" font-size="11.00" fill="#000000">varchar[20]</text>
<polygon fill="none" stroke="#000000" points="10.5,-103.2 10.5,-125.2 117.5,-125.2 117.5,-103.2 10.5,-103.2"/>
<text text-anchor="start" x="30.5" y="-110.3" font-family="Helvetica,sans-Serif" font-size="11.00" fill="#000000">is_active</text>
<polygon fill="none" stroke="#000000" points="117.5,-103.2 117.5,-125.2 207.5,-125.2 207.5,-103.2 117.5,-103.2"/>
<text text-anchor="start" x="120.5" y="-110.9" font-family="Helvetica,sans-Serif" font-size="11.00" fill="#000000">bool[1]</text>
<polygon fill="none" stroke="#000000" points="10.5,-81.2 10.5,-103.2 117.5,-103.2 117.5,-81.2 10.5,-81.2"/>
<text text-anchor="start" x="30.5" y="-88.3" font-family="Helvetica,sans-Serif" font-size="11.00" fill="#000000">created_at</text>
<polygon fill="none" stroke="#000000" points="117.5,-81.2 117.5,-103.2 207.5,-103.2 207.5,-81.2 117.5,-81.2"/>
<text text-anchor="start" x="120.5" y="-88.9" font-family="Helvetica,sans-Serif" font-size="11.00" fill="#000000">timestamp[29,6]</text>
<polygon fill="none" stroke="#000000" points="10.5,-59.2 10.5,-81.2 117.5,-81.2 117.5,-59.2 10.5,-59.2"/>
<text text-anchor="start" x="30.5" y="-66.3" font-family="Helvetica,sans-Serif" font-size="11.00" fill="#000000">updated_at</text>
<polygon fill="none" stroke="#000000" points="117.5,-59.2 117.5,-81.2 207.5,-81.2 207.5,-59.2 117.5,-59.2"/>
<text text-anchor="start" x="120.5" y="-66.9" font-family="Helvetica,sans-Serif" font-size="11.00" fill="#000000">timestamp[29,6]</text>
<polygon fill="#ffffff" stroke="transparent" points="10.5,-40.2 10.5,-59.2 55.5,-59.2 55.5,-40.2 10.5,-40.2"/>
<polygon fill="none" stroke="#000000" points="10.5,-40.2 10.5,-59.2 55.5,-59.2 55.5,-40.2 10.5,-40.2"/>
<text text-anchor="start" x="13.5" y="-46.3" font-family="Helvetica,sans-Serif" font-size="11.00" fill="#000000">&lt; 0</text>
<polygon fill="#ffffff" stroke="transparent" points="55.5,-40.2 55.5,-59.2 117.5,-59.2 117.5,-40.2 55.5,-40.2"/>
<polygon fill="none" stroke="#000000" points="55.5,-40.2 55.5,-59.2 117.5,-59.2 117.5,-40.2 55.5,-40.2"/>
<text text-anchor="start" x="82.1105" y="-46.3" font-family="Helvetica,sans-Serif" font-size="11.00" fill="#000000">6 rows</text>
<polygon fill="#ffffff" stroke="transparent" points="117.5,-40.2 117.5,-59.2 207.5,-59.2 207.5,-40.2 117.5,-40.2"/>
<polygon fill="none" stroke="#000000" points="117.5,-40.2 117.5,-59.2 207.5,-59.2 207.5,-40.2 117.5,-40.2"/>
<text text-anchor="start" x="188.9053" y="-46.3" font-family="Helvetica,sans-Serif" font-size="11.00" fill="#000000">5 &gt;</text>
<polygon fill="none" stroke="#000000" stroke-width="2" points="9,-39.2 9,-325.2 208,-325.2 208,-39.2 9,-39.2"/>
</a>
</g>
</g>
<!-- bookings&#45;&gt;users -->
<g id="edge1" class="edge">
<title>bookings:w&#45;&gt;users:e</title>
<path fill="none" stroke="#000000" d="M585.0011,-296.7958C514.7951,-281.4505 609.2861,-144.4518 536,-90.2 429.8178,-11.5961 336.8585,-71.6569 250,-171.2 213.0761,-213.5161 263.6607,-290.2 207.5,-290.2"/>
<polygon fill="#000000" stroke="#000000" points="591.5373,-297.4288 599.153,-301.7832 595.5186,-297.8144 599.5,-298.2 599.5,-298.2 599.5,-298.2 595.5186,-297.8144 599.847,-294.6168 591.5373,-297.4288 591.5373,-297.4288"/>
<ellipse fill="none" stroke="#000000" cx="588.3522" cy="-297.1203" rx="3.2" ry="3.2"/>
</g>
<!-- employees -->
<g id="node3" class="node">
<title>employees</title>
<g id="a_node3"><a xlink:href="../../tables/employees.html" xlink:title="employees" target="_top">
<polygon fill="#ffffff" stroke="transparent" points="422.5,-358.7 422.5,-485.7 519.5,-485.7 519.5,-358.7 422.5,-358.7"/>
<polygon fill="#f5f5f5" stroke="transparent" points="423,-462.2 423,-485.2 520,-485.2 520,-462.2 423,-462.2"/>
<polygon fill="none" stroke="#000000" points="423,-462.2 423,-485.2 520,-485.2 520,-462.2 423,-462.2"/>
<text text-anchor="start" x="428" y="-471.3" font-family="Helvetica,sans-Serif" font-weight="bold" font-size="11.00" fill="#000000">employees</text>
<text text-anchor="start" x="485.5219" y="-470.3" font-family="Helvetica,sans-Serif" font-size="11.00" fill="#000000">[table]</text>
<polygon fill="none" stroke="#000000" points="423,-440.2 423,-462.2 520,-462.2 520,-440.2 423,-440.2"/>
<image xlink:href="../../images/primaryKeys.png" width="11px" height="12px" preserveAspectRatio="xMinYMin meet" x="428" y="-457.2"/>
<text text-anchor="start" x="443" y="-447.3" font-family="Helvetica,sans-Serif" font-size="11.00" fill="#000000">id</text>
<polygon fill="#ffffff" stroke="transparent" points="423,-418.2 423,-440.2 520,-440.2 520,-418.2 423,-418.2"/>
<polygon fill="none" stroke="#000000" points="423,-418.2 423,-440.2 520,-440.2 520,-418.2 423,-418.2"/>
<image xlink:href="../../images/foreignKeys.png" width="11px" height="12px" preserveAspectRatio="xMinYMin meet" x="428" y="-435.2"/>
<text text-anchor="start" x="443" y="-425.3" font-family="Helvetica,sans-Serif" font-size="11.00" fill="#000000">shop_id</text>
<polygon fill="#ffffff" stroke="transparent" points="423,-396.2 423,-418.2 520,-418.2 520,-396.2 423,-396.2"/>
<polygon fill="none" stroke="#000000" points="423,-396.2 423,-418.2 520,-418.2 520,-396.2 423,-396.2"/>
<image xlink:href="../../images/foreignKeys.png" width="11px" height="12px" preserveAspectRatio="xMinYMin meet" x="428" y="-413.2"/>
<text text-anchor="start" x="443" y="-403.3" font-family="Helvetica,sans-Serif" font-size="11.00" fill="#000000">user_id</text>
<polygon fill="none" stroke="#000000" points="423,-377.2 423,-396.2 520,-396.2 520,-377.2 423,-377.2"/>
<text text-anchor="start" x="426" y="-383.3" font-family="Helvetica,sans-Serif" font-size="11.00" fill="#000000">...</text>
<polygon fill="#ffffff" stroke="transparent" points="423,-358.2 423,-377.2 452,-377.2 452,-358.2 423,-358.2"/>
<polygon fill="none" stroke="#000000" points="423,-358.2 423,-377.2 452,-377.2 452,-358.2 423,-358.2"/>
<text text-anchor="start" x="426" y="-364.3" font-family="Helvetica,sans-Serif" font-size="11.00" fill="#000000">&lt; 2</text>
<polygon fill="#ffffff" stroke="transparent" points="452,-358.2 452,-377.2 494,-377.2 494,-358.2 452,-358.2"/>
<polygon fill="none" stroke="#000000" points="452,-358.2 452,-377.2 494,-377.2 494,-358.2 452,-358.2"/>
<text text-anchor="start" x="458.6105" y="-364.3" font-family="Helvetica,sans-Serif" font-size="11.00" fill="#000000">0 rows</text>
<polygon fill="#ffffff" stroke="transparent" points="494,-358.2 494,-377.2 520,-377.2 520,-358.2 494,-358.2"/>
<polygon fill="none" stroke="#000000" points="494,-358.2 494,-377.2 520,-377.2 520,-358.2 494,-358.2"/>
<text text-anchor="start" x="501.4053" y="-364.3" font-family="Helvetica,sans-Serif" font-size="11.00" fill="#000000">3 &gt;</text>
</a>
</g>
</g>
<!-- bookings&#45;&gt;employees -->
<g id="edge2" class="edge">
<title>bookings:w&#45;&gt;employees:e</title>
<path fill="none" stroke="#000000" d="M585.0903,-278.2872C525.1145,-298.0316 599.9213,-451.2 520,-451.2"/>
<polygon fill="#000000" stroke="#000000" points="591.5826,-277.3469 600.0161,-279.7628 595.5413,-276.7734 599.5,-276.2 599.5,-276.2 599.5,-276.2 595.5413,-276.7734 598.9839,-272.6372 591.5826,-277.3469 591.5826,-277.3469"/>
<ellipse fill="none" stroke="#000000" cx="588.4157" cy="-277.8056" rx="3.2" ry="3.2"/>
</g>
<!-- services -->
<g id="node4" class="node">
<title>services</title>
<g id="a_node4"><a xlink:href="../../tables/services.html" xlink:title="services" target="_top">
<polygon fill="#ffffff" stroke="transparent" points="429.5,-248.7 429.5,-309.7 512.5,-309.7 512.5,-248.7 429.5,-248.7"/>
<polygon fill="#f5f5f5" stroke="transparent" points="430,-286.2 430,-309.2 513,-309.2 513,-286.2 430,-286.2"/>
<polygon fill="none" stroke="#000000" points="430,-286.2 430,-309.2 513,-309.2 513,-286.2 430,-286.2"/>
<text text-anchor="start" x="434.8337" y="-295.3" font-family="Helvetica,sans-Serif" font-weight="bold" font-size="11.00" fill="#000000">services</text>
<text text-anchor="start" x="478.5219" y="-294.3" font-family="Helvetica,sans-Serif" font-size="11.00" fill="#000000">[table]</text>
<polygon fill="none" stroke="#000000" points="430,-267.2 430,-286.2 513,-286.2 513,-267.2 430,-267.2"/>
<text text-anchor="start" x="433" y="-273.3" font-family="Helvetica,sans-Serif" font-size="11.00" fill="#000000">...</text>
<polygon fill="#ffffff" stroke="transparent" points="430,-248.2 430,-267.2 452,-267.2 452,-248.2 430,-248.2"/>
<polygon fill="none" stroke="#000000" points="430,-248.2 430,-267.2 452,-267.2 452,-248.2 430,-248.2"/>
<text text-anchor="start" x="433" y="-254.3" font-family="Helvetica,sans-Serif" font-size="11.00" fill="#000000">&lt; 1</text>
<polygon fill="#ffffff" stroke="transparent" points="452,-248.2 452,-267.2 491,-267.2 491,-248.2 452,-248.2"/>
<polygon fill="none" stroke="#000000" points="452,-248.2 452,-267.2 491,-267.2 491,-248.2 452,-248.2"/>
<text text-anchor="start" x="455.6105" y="-254.3" font-family="Helvetica,sans-Serif" font-size="11.00" fill="#000000">0 rows</text>
<polygon fill="#ffffff" stroke="transparent" points="491,-248.2 491,-267.2 513,-267.2 513,-248.2 491,-248.2"/>
<polygon fill="none" stroke="#000000" points="491,-248.2 491,-267.2 513,-267.2 513,-248.2 491,-248.2"/>
<text text-anchor="start" x="494.4053" y="-254.3" font-family="Helvetica,sans-Serif" font-size="11.00" fill="#000000">2 &gt;</text>
</a>
</g>
</g>
<!-- bookings&#45;&gt;services -->
<g id="edge3" class="edge">
<title>bookings:w&#45;&gt;services:e</title>
<path fill="none" stroke="#000000" d="M584.8864,-255.3212C557.2653,-259.8044 547.245,-276.2 513,-276.2"/>
<polygon fill="#000000" stroke="#000000" points="591.5234,-254.8121 599.7754,-257.7895 595.5117,-254.506 599.5,-254.2 599.5,-254.2 599.5,-254.2 595.5117,-254.506 599.2246,-250.6105 591.5234,-254.8121 591.5234,-254.8121"/>
<ellipse fill="none" stroke="#000000" cx="588.3328" cy="-255.0569" rx="3.2" ry="3.2"/>
</g>
<!-- shops -->
<g id="node5" class="node">
<title>shops</title>
<g id="a_node5"><a xlink:href="../../tables/shops.html" xlink:title="shops" target="_top">
<polygon fill="#ffffff" stroke="transparent" points="258,-241.7 258,-368.7 365,-368.7 365,-241.7 258,-241.7"/>
<polygon fill="#f5f5f5" stroke="transparent" points="258.5,-345.2 258.5,-368.2 365.5,-368.2 365.5,-345.2 258.5,-345.2"/>
<polygon fill="none" stroke="#000000" points="258.5,-345.2 258.5,-368.2 365.5,-368.2 365.5,-345.2 258.5,-345.2"/>
<text text-anchor="start" x="263.5" y="-354.3" font-family="Helvetica,sans-Serif" font-weight="bold" font-size="11.00" fill="#000000">shops</text>
<text text-anchor="start" x="330.5437" y="-353.3" font-family="Helvetica,sans-Serif" font-size="11.00" fill="#000000">[table]</text>
<polygon fill="none" stroke="#000000" points="258.5,-323.2 258.5,-345.2 365.5,-345.2 365.5,-323.2 258.5,-323.2"/>
<image xlink:href="../../images/primaryKeys.png" width="11px" height="12px" preserveAspectRatio="xMinYMin meet" x="263.5" y="-340.2"/>
<text text-anchor="start" x="278.5" y="-330.3" font-family="Helvetica,sans-Serif" font-size="11.00" fill="#000000">id</text>
<polygon fill="#ffffff" stroke="transparent" points="258.5,-301.2 258.5,-323.2 365.5,-323.2 365.5,-301.2 258.5,-301.2"/>
<polygon fill="none" stroke="#000000" points="258.5,-301.2 258.5,-323.2 365.5,-323.2 365.5,-301.2 258.5,-301.2"/>
<text text-anchor="start" x="278.5" y="-308.3" font-family="Helvetica,sans-Serif" font-size="11.00" fill="#000000">city</text>
<polygon fill="#ffffff" stroke="transparent" points="258.5,-279.2 258.5,-301.2 365.5,-301.2 365.5,-279.2 258.5,-279.2"/>
<polygon fill="none" stroke="#000000" points="258.5,-279.2 258.5,-301.2 365.5,-301.2 365.5,-279.2 258.5,-279.2"/>
<image xlink:href="../../images/foreignKeys.png" width="11px" height="12px" preserveAspectRatio="xMinYMin meet" x="263.5" y="-296.2"/>
<text text-anchor="start" x="278.5" y="-286.3" font-family="Helvetica,sans-Serif" font-size="11.00" fill="#000000">owner_id</text>
<polygon fill="none" stroke="#000000" points="258.5,-260.2 258.5,-279.2 365.5,-279.2 365.5,-260.2 258.5,-260.2"/>
<text text-anchor="start" x="261.5" y="-266.3" font-family="Helvetica,sans-Serif" font-size="11.00" fill="#000000">...</text>
<polygon fill="#ffffff" stroke="transparent" points="258.5,-241.2 258.5,-260.2 295.5,-260.2 295.5,-241.2 258.5,-241.2"/>
<polygon fill="none" stroke="#000000" points="258.5,-241.2 258.5,-260.2 295.5,-260.2 295.5,-241.2 258.5,-241.2"/>
<text text-anchor="start" x="261.5" y="-247.3" font-family="Helvetica,sans-Serif" font-size="11.00" fill="#000000">&lt; 1</text>
<polygon fill="#ffffff" stroke="transparent" points="295.5,-241.2 295.5,-260.2 335.5,-260.2 335.5,-241.2 295.5,-241.2"/>
<polygon fill="none" stroke="#000000" points="295.5,-241.2 295.5,-260.2 335.5,-260.2 335.5,-241.2 295.5,-241.2"/>
<text text-anchor="start" x="305.6105" y="-247.3" font-family="Helvetica,sans-Serif" font-size="11.00" fill="#000000">1 row</text>
<polygon fill="#ffffff" stroke="transparent" points="335.5,-241.2 335.5,-260.2 365.5,-260.2 365.5,-241.2 335.5,-241.2"/>
<polygon fill="none" stroke="#000000" points="335.5,-241.2 335.5,-260.2 365.5,-260.2 365.5,-241.2 335.5,-241.2"/>
<text text-anchor="start" x="346.9053" y="-247.3" font-family="Helvetica,sans-Serif" font-size="11.00" fill="#000000">5 &gt;</text>
</a>
</g>
</g>
<!-- bookings&#45;&gt;shops -->
<g id="edge4" class="edge">
<title>bookings:w&#45;&gt;shops:e</title>
<path fill="none" stroke="#000000" d="M585.066,-320.2931C492.6815,-321.5078 464.7005,-334.2 365.5,-334.2"/>
<polygon fill="#000000" stroke="#000000" points="591.5002,-320.2517 599.5232,-323.7999 595.5001,-320.2258 599.5,-320.2 599.5,-320.2 599.5,-320.2 595.5001,-320.2258 599.4768,-316.6001 591.5002,-320.2517 591.5002,-320.2517"/>
<ellipse fill="none" stroke="#000000" cx="588.3002" cy="-320.2723" rx="3.2" ry="3.2"/>
</g>
<!-- employees&#45;&gt;users -->
<g id="edge8" class="edge">
<title>employees:w&#45;&gt;users:e</title>
<path fill="none" stroke="#000000" d="M408.4817,-407.4105C340.7635,-409.3382 308.3228,-422.8849 250,-379.2 214.9162,-352.9216 251.3341,-290.2 207.5,-290.2"/>
<polygon fill="#000000" stroke="#000000" points="415.0008,-407.316 423.0522,-410.7996 419.0004,-407.258 423,-407.2 423,-407.2 423,-407.2 419.0004,-407.258 422.9478,-403.6004 415.0008,-407.316 415.0008,-407.316"/>
<ellipse fill="none" stroke="#000000" cx="411.8012" cy="-407.3624" rx="3.2" ry="3.2"/>
</g>
<!-- employees&#45;&gt;shops -->
<g id="edge7" class="edge">
<title>employees:w&#45;&gt;shops:e</title>
<path fill="none" stroke="#000000" d="M408.733,-425.3582C382.2982,-407.5852 408.8774,-334.2 365.5,-334.2"/>
<polygon fill="#000000" stroke="#000000" points="415.2752,-427.1198 422.0639,-432.6762 419.1376,-428.1599 423,-429.2 423,-429.2 423,-429.2 419.1376,-428.1599 423.9361,-425.7238 415.2752,-427.1198 415.2752,-427.1198"/>
<ellipse fill="none" stroke="#000000" cx="412.1852" cy="-426.2878" rx="3.2" ry="3.2"/>
</g>
<!-- services&#45;&gt;shops -->
<g id="edge15" class="edge">
<title>services:w&#45;&gt;shops:e</title>
<path fill="none" stroke="#000000" d="M415.8791,-279.6545C394.0626,-292.1408 398.3296,-334.2 365.5,-334.2"/>
<polygon fill="#000000" stroke="#000000" points="422.2291,-278.1011 430.8555,-279.6969 426.1146,-277.1505 430,-276.2 430,-276.2 430,-276.2 426.1146,-277.1505 429.1445,-272.7031 422.2291,-278.1011 422.2291,-278.1011"/>
<ellipse fill="none" stroke="#000000" cx="419.1208" cy="-278.8615" rx="3.2" ry="3.2"/>
</g>
<!-- shops&#45;&gt;users -->
<g id="edge16" class="edge">
<title>shops:w&#45;&gt;users:e</title>
<path fill="none" stroke="#000000" d="M243.776,-290.2C231.7815,-290.2 224.3229,-290.2 207.5,-290.2"/>
<polygon fill="#000000" stroke="#000000" points="250.5,-290.2001 258.5,-293.8 254.5,-290.2 258.5,-290.2 258.5,-290.2 258.5,-290.2 254.5,-290.2 258.5,-286.6 250.5,-290.2001 250.5,-290.2001"/>
<ellipse fill="none" stroke="#000000" cx="247.3" cy="-290.2001" rx="3.2" ry="3.2"/>
</g>
<!-- employee_services -->
<g id="node6" class="node">
<title>employee_services</title>
<g id="a_node6"><a xlink:href="../../tables/employee_services.html" xlink:title="employee_services" target="_top">
<polygon fill="#ffffff" stroke="transparent" points="577,-397.7 577,-458.7 714,-458.7 714,-397.7 577,-397.7"/>
<polygon fill="#f5f5f5" stroke="transparent" points="577.5,-435.2 577.5,-458.2 714.5,-458.2 714.5,-435.2 577.5,-435.2"/>
<polygon fill="none" stroke="#000000" points="577.5,-435.2 577.5,-458.2 714.5,-458.2 714.5,-435.2 577.5,-435.2"/>
<text text-anchor="start" x="582.4376" y="-444.3" font-family="Helvetica,sans-Serif" font-weight="bold" font-size="11.00" fill="#000000">employee_services</text>
<text text-anchor="start" x="680.0219" y="-443.3" font-family="Helvetica,sans-Serif" font-size="11.00" fill="#000000">[table]</text>
<polygon fill="none" stroke="#000000" points="577.5,-416.2 577.5,-435.2 714.5,-435.2 714.5,-416.2 577.5,-416.2"/>
<text text-anchor="start" x="580.5" y="-422.3" font-family="Helvetica,sans-Serif" font-size="11.00" fill="#000000">...</text>
<polygon fill="#ffffff" stroke="transparent" points="577.5,-397.2 577.5,-416.2 631.5,-416.2 631.5,-397.2 577.5,-397.2"/>
<polygon fill="none" stroke="#000000" points="577.5,-397.2 577.5,-416.2 631.5,-416.2 631.5,-397.2 577.5,-397.2"/>
<text text-anchor="start" x="580.5" y="-403.3" font-family="Helvetica,sans-Serif" font-size="11.00" fill="#000000">&lt; 2</text>
<polygon fill="#ffffff" stroke="transparent" points="631.5,-397.2 631.5,-416.2 685.5,-416.2 685.5,-397.2 631.5,-397.2"/>
<polygon fill="none" stroke="#000000" points="631.5,-397.2 631.5,-416.2 685.5,-416.2 685.5,-397.2 631.5,-397.2"/>
<text text-anchor="start" x="650.1105" y="-403.3" font-family="Helvetica,sans-Serif" font-size="11.00" fill="#000000">0 rows</text>
<polygon fill="#ffffff" stroke="transparent" points="685.5,-397.2 685.5,-416.2 714.5,-416.2 714.5,-397.2 685.5,-397.2"/>
<polygon fill="none" stroke="#000000" points="685.5,-397.2 685.5,-416.2 714.5,-416.2 714.5,-397.2 685.5,-397.2"/>
<text text-anchor="start" x="705.3862" y="-403.3" font-family="Helvetica,sans-Serif" font-size="11.00" fill="#000000"> &#160;</text>
</a>
</g>
</g>
<!-- employee_services&#45;&gt;employees -->
<g id="edge5" class="edge">
<title>employee_services:w&#45;&gt;employees:e</title>
<path fill="none" stroke="#000000" d="M563.26,-427.9825C547.7827,-434.6897 542.3497,-451.2 520,-451.2"/>
<polygon fill="#000000" stroke="#000000" points="569.6485,-426.7342 578.1904,-428.7332 573.5742,-425.9671 577.5,-425.2 577.5,-425.2 577.5,-425.2 573.5742,-425.9671 576.8096,-421.6668 569.6485,-426.7342 569.6485,-426.7342"/>
<ellipse fill="none" stroke="#000000" cx="566.5079" cy="-427.3479" rx="3.2" ry="3.2"/>
</g>
<!-- employee_services&#45;&gt;services -->
<g id="edge6" class="edge">
<title>employee_services:w&#45;&gt;services:e</title>
<path fill="none" stroke="#000000" d="M563.2253,-422.6138C516.8838,-402.8282 579.5231,-276.2 513,-276.2"/>
<polygon fill="#000000" stroke="#000000" points="569.6281,-423.7738 576.8582,-428.7423 573.5641,-424.4869 577.5,-425.2 577.5,-425.2 577.5,-425.2 573.5641,-424.4869 578.1418,-421.6577 569.6281,-423.7738 569.6281,-423.7738"/>
<ellipse fill="none" stroke="#000000" cx="566.4794" cy="-423.2033" rx="3.2" ry="3.2"/>
</g>
<!-- favorite_shops -->
<g id="node7" class="node">
<title>favorite_shops</title>
<g id="a_node7"><a xlink:href="../../tables/favorite_shops.html" xlink:title="favorite_shops" target="_top">
<polygon fill="#ffffff" stroke="transparent" points="414,-100.7 414,-227.7 528,-227.7 528,-100.7 414,-100.7"/>
<polygon fill="#f5f5f5" stroke="transparent" points="414,-204.2 414,-227.2 528,-227.2 528,-204.2 414,-204.2"/>
<polygon fill="none" stroke="#000000" points="414,-204.2 414,-227.2 528,-227.2 528,-204.2 414,-204.2"/>
<text text-anchor="start" x="418.7396" y="-213.3" font-family="Helvetica,sans-Serif" font-weight="bold" font-size="11.00" fill="#000000">favorite_shops</text>
<text text-anchor="start" x="493.5219" y="-212.3" font-family="Helvetica,sans-Serif" font-size="11.00" fill="#000000">[table]</text>
<polygon fill="none" stroke="#000000" points="414,-182.2 414,-204.2 528,-204.2 528,-182.2 414,-182.2"/>
<image xlink:href="../../images/primaryKeys.png" width="11px" height="12px" preserveAspectRatio="xMinYMin meet" x="419" y="-199.2"/>
<text text-anchor="start" x="438" y="-189.3" font-family="Helvetica,sans-Serif" font-size="11.00" fill="#000000">id</text>
<polygon fill="#ffffff" stroke="transparent" points="414,-160.2 414,-182.2 528,-182.2 528,-160.2 414,-160.2"/>
<polygon fill="none" stroke="#000000" points="414,-160.2 414,-182.2 528,-182.2 528,-160.2 414,-160.2"/>
<image xlink:href="../../images/foreignKeys.png" width="11px" height="12px" preserveAspectRatio="xMinYMin meet" x="419" y="-177.2"/>
<text text-anchor="start" x="438" y="-167.3" font-family="Helvetica,sans-Serif" font-size="11.00" fill="#000000">user_id</text>
<polygon fill="#ffffff" stroke="transparent" points="414,-138.2 414,-160.2 528,-160.2 528,-138.2 414,-138.2"/>
<polygon fill="none" stroke="#000000" points="414,-138.2 414,-160.2 528,-160.2 528,-138.2 414,-138.2"/>
<image xlink:href="../../images/foreignKeys.png" width="11px" height="12px" preserveAspectRatio="xMinYMin meet" x="419" y="-155.2"/>
<text text-anchor="start" x="438" y="-145.3" font-family="Helvetica,sans-Serif" font-size="11.00" fill="#000000">shop_id</text>
<polygon fill="none" stroke="#000000" points="414,-119.2 414,-138.2 528,-138.2 528,-119.2 414,-119.2"/>
<text text-anchor="start" x="417" y="-125.3" font-family="Helvetica,sans-Serif" font-size="11.00" fill="#000000">...</text>
<polygon fill="#ffffff" stroke="transparent" points="414,-100.2 414,-119.2 456,-119.2 456,-100.2 414,-100.2"/>
<polygon fill="none" stroke="#000000" points="414,-100.2 414,-119.2 456,-119.2 456,-100.2 414,-100.2"/>
<text text-anchor="start" x="417" y="-106.3" font-family="Helvetica,sans-Serif" font-size="11.00" fill="#000000">&lt; 2</text>
<polygon fill="#ffffff" stroke="transparent" points="456,-100.2 456,-119.2 505,-119.2 505,-100.2 456,-100.2"/>
<polygon fill="none" stroke="#000000" points="456,-100.2 456,-119.2 505,-119.2 505,-100.2 456,-100.2"/>
<text text-anchor="start" x="469.6105" y="-106.3" font-family="Helvetica,sans-Serif" font-size="11.00" fill="#000000">0 rows</text>
<polygon fill="#ffffff" stroke="transparent" points="505,-100.2 505,-119.2 528,-119.2 528,-100.2 505,-100.2"/>
<polygon fill="none" stroke="#000000" points="505,-100.2 505,-119.2 528,-119.2 528,-100.2 505,-100.2"/>
<text text-anchor="start" x="518.8862" y="-106.3" font-family="Helvetica,sans-Serif" font-size="11.00" fill="#000000"> &#160;</text>
</a>
</g>
</g>
<!-- favorite_shops&#45;&gt;users -->
<g id="edge10" class="edge">
<title>favorite_shops:w&#45;&gt;users:e</title>
<path fill="none" stroke="#000000" d="M399.2136,-171.3795C332.9631,-173.0905 307.7437,-187.4269 250,-231.2 224.2463,-250.7228 239.8171,-290.2 207.5,-290.2"/>
<polygon fill="#000000" stroke="#000000" points="406.0006,-171.2972 414.0437,-174.7997 410.0003,-171.2486 414,-171.2 414,-171.2 414,-171.2 410.0003,-171.2486 413.9563,-167.6003 406.0006,-171.2972 406.0006,-171.2972"/>
<ellipse fill="none" stroke="#000000" cx="402.8008" cy="-171.3361" rx="3.2" ry="3.2"/>
</g>
<!-- favorite_shops&#45;&gt;shops -->
<g id="edge9" class="edge">
<title>favorite_shops:w&#45;&gt;shops:e</title>
<path fill="none" stroke="#000000" d="M399.6772,-151.5391C344.2255,-172.9545 444.8562,-334.2 365.5,-334.2"/>
<polygon fill="#000000" stroke="#000000" points="406.1046,-150.4895 414.5803,-152.7529 410.0523,-149.8447 414,-149.2 414,-149.2 414,-149.2 410.0523,-149.8447 413.4197,-145.6471 406.1046,-150.4895 406.1046,-150.4895"/>
<ellipse fill="none" stroke="#000000" cx="402.9464" cy="-151.0052" rx="3.2" ry="3.2"/>
</g>
<!-- reviews -->
<g id="node8" class="node">
<title>reviews</title>
<g id="a_node8"><a xlink:href="../../tables/reviews.html" xlink:title="reviews" target="_top">
<polygon fill="#ffffff" stroke="transparent" points="763,-414.7 763,-585.7 856,-585.7 856,-414.7 763,-414.7"/>
<polygon fill="#f5f5f5" stroke="transparent" points="763.5,-562.2 763.5,-585.2 856.5,-585.2 856.5,-562.2 763.5,-562.2"/>
<polygon fill="none" stroke="#000000" points="763.5,-562.2 763.5,-585.2 856.5,-585.2 856.5,-562.2 763.5,-562.2"/>
<text text-anchor="start" x="768.5" y="-571.3" font-family="Helvetica,sans-Serif" font-weight="bold" font-size="11.00" fill="#000000">reviews</text>
<text text-anchor="start" x="821.5437" y="-570.3" font-family="Helvetica,sans-Serif" font-size="11.00" fill="#000000">[table]</text>
<polygon fill="none" stroke="#000000" points="763.5,-540.2 763.5,-562.2 856.5,-562.2 856.5,-540.2 763.5,-540.2"/>
<image xlink:href="../../images/primaryKeys.png" width="11px" height="12px" preserveAspectRatio="xMinYMin meet" x="768.5" y="-557.2"/>
<text text-anchor="start" x="783.5" y="-547.3" font-family="Helvetica,sans-Serif" font-size="11.00" fill="#000000">id</text>
<polygon fill="#ffffff" stroke="transparent" points="763.5,-518.2 763.5,-540.2 856.5,-540.2 856.5,-518.2 763.5,-518.2"/>
<polygon fill="none" stroke="#000000" points="763.5,-518.2 763.5,-540.2 856.5,-540.2 856.5,-518.2 763.5,-518.2"/>
<image xlink:href="../../images/foreignKeys.png" width="11px" height="12px" preserveAspectRatio="xMinYMin meet" x="768.5" y="-535.2"/>
<text text-anchor="start" x="783.5" y="-525.3" font-family="Helvetica,sans-Serif" font-size="11.00" fill="#000000">customer_id</text>
<polygon fill="#ffffff" stroke="transparent" points="763.5,-496.2 763.5,-518.2 856.5,-518.2 856.5,-496.2 763.5,-496.2"/>
<polygon fill="none" stroke="#000000" points="763.5,-496.2 763.5,-518.2 856.5,-518.2 856.5,-496.2 763.5,-496.2"/>
<image xlink:href="../../images/foreignKeys.png" width="11px" height="12px" preserveAspectRatio="xMinYMin meet" x="768.5" y="-513.2"/>
<text text-anchor="start" x="783.5" y="-503.3" font-family="Helvetica,sans-Serif" font-size="11.00" fill="#000000">shop_id</text>
<polygon fill="#ffffff" stroke="transparent" points="763.5,-474.2 763.5,-496.2 856.5,-496.2 856.5,-474.2 763.5,-474.2"/>
<polygon fill="none" stroke="#000000" points="763.5,-474.2 763.5,-496.2 856.5,-496.2 856.5,-474.2 763.5,-474.2"/>
<image xlink:href="../../images/foreignKeys.png" width="11px" height="12px" preserveAspectRatio="xMinYMin meet" x="768.5" y="-491.2"/>
<text text-anchor="start" x="783.5" y="-481.3" font-family="Helvetica,sans-Serif" font-size="11.00" fill="#000000">employee_id</text>
<polygon fill="none" stroke="#000000" points="763.5,-452.2 763.5,-474.2 856.5,-474.2 856.5,-452.2 763.5,-452.2"/>
<image xlink:href="../../images/foreignKeys.png" width="11px" height="12px" preserveAspectRatio="xMinYMin meet" x="768.5" y="-469.2"/>
<text text-anchor="start" x="783.5" y="-459.3" font-family="Helvetica,sans-Serif" font-size="11.00" fill="#000000">booking_id</text>
<polygon fill="none" stroke="#000000" points="763.5,-433.2 763.5,-452.2 856.5,-452.2 856.5,-433.2 763.5,-433.2"/>
<text text-anchor="start" x="766.5" y="-439.3" font-family="Helvetica,sans-Serif" font-size="11.00" fill="#000000">...</text>
<polygon fill="#ffffff" stroke="transparent" points="763.5,-414.2 763.5,-433.2 795.5,-433.2 795.5,-414.2 763.5,-414.2"/>
<polygon fill="none" stroke="#000000" points="763.5,-414.2 763.5,-433.2 795.5,-433.2 795.5,-414.2 763.5,-414.2"/>
<text text-anchor="start" x="766.5" y="-420.3" font-family="Helvetica,sans-Serif" font-size="11.00" fill="#000000">&lt; 4</text>
<polygon fill="#ffffff" stroke="transparent" points="795.5,-414.2 795.5,-433.2 838.5,-433.2 838.5,-414.2 795.5,-414.2"/>
<polygon fill="none" stroke="#000000" points="795.5,-414.2 795.5,-433.2 838.5,-433.2 838.5,-414.2 795.5,-414.2"/>
<text text-anchor="start" x="803.1105" y="-420.3" font-family="Helvetica,sans-Serif" font-size="11.00" fill="#000000">0 rows</text>
<polygon fill="#ffffff" stroke="transparent" points="838.5,-414.2 838.5,-433.2 856.5,-433.2 856.5,-414.2 838.5,-414.2"/>
<polygon fill="none" stroke="#000000" points="838.5,-414.2 838.5,-433.2 856.5,-433.2 856.5,-414.2 838.5,-414.2"/>
<text text-anchor="start" x="847.3862" y="-420.3" font-family="Helvetica,sans-Serif" font-size="11.00" fill="#000000"> &#160;</text>
</a>
</g>
</g>
<!-- reviews&#45;&gt;bookings -->
<g id="edge11" class="edge">
<title>reviews:w&#45;&gt;bookings:e</title>
<path fill="none" stroke="#000000" d="M749.3362,-460.4454C709.861,-442.4345 749.2503,-342.2 692.5,-342.2"/>
<polygon fill="#000000" stroke="#000000" points="755.6471,-461.6727 762.8127,-466.7338 759.5736,-462.4364 763.5,-463.2 763.5,-463.2 763.5,-463.2 759.5736,-462.4364 764.1873,-459.6662 755.6471,-461.6727 755.6471,-461.6727"/>
<ellipse fill="none" stroke="#000000" cx="752.506" cy="-461.0618" rx="3.2" ry="3.2"/>
</g>
<!-- reviews&#45;&gt;users -->
<g id="edge12" class="edge">
<title>reviews:w&#45;&gt;users:e</title>
<path fill="none" stroke="#000000" d="M748.9147,-529.3163C601.4144,-531.6779 551.4896,-568.6746 406,-518.2 324.8704,-490.0538 301.8518,-472.6515 250,-404.2 217.3497,-361.0971 261.5731,-290.2 207.5,-290.2"/>
<polygon fill="#000000" stroke="#000000" points="755.5003,-529.2639 763.5287,-532.7999 759.5001,-529.2319 763.5,-529.2 763.5,-529.2 763.5,-529.2 759.5001,-529.2319 763.4713,-525.6001 755.5003,-529.2639 755.5003,-529.2639"/>
<ellipse fill="none" stroke="#000000" cx="752.3004" cy="-529.2894" rx="3.2" ry="3.2"/>
</g>
<!-- reviews&#45;&gt;employees -->
<g id="edge13" class="edge">
<title>reviews:w&#45;&gt;employees:e</title>
<path fill="none" stroke="#000000" d="M748.884,-485.2228C673.8493,-485.4407 648.7382,-486.7851 569,-469.2 546.3437,-464.2035 543.2007,-451.2 520,-451.2"/>
<polygon fill="#000000" stroke="#000000" points="755.5,-485.2125 763.5056,-488.8 759.5,-485.2063 763.5,-485.2 763.5,-485.2 763.5,-485.2 759.5,-485.2063 763.4944,-481.6 755.5,-485.2125 755.5,-485.2125"/>
<ellipse fill="none" stroke="#000000" cx="752.3" cy="-485.2175" rx="3.2" ry="3.2"/>
</g>
<!-- reviews&#45;&gt;shops -->
<g id="edge14" class="edge">
<title>reviews:w&#45;&gt;shops:e</title>
<path fill="none" stroke="#000000" d="M749.0071,-507.5393C660.4346,-511.2526 464.4435,-543.2958 406,-496.2 348.212,-449.6324 439.7159,-334.2 365.5,-334.2"/>
<polygon fill="#000000" stroke="#000000" points="755.5022,-507.3873 763.5843,-510.799 759.5011,-507.2937 763.5,-507.2 763.5,-507.2 763.5,-507.2 759.5011,-507.2937 763.4157,-503.601 755.5022,-507.3873 755.5022,-507.3873"/>
<ellipse fill="none" stroke="#000000" cx="752.3031" cy="-507.4622" rx="3.2" ry="3.2"/>
</g>
</g>
</svg>
